<?xml version="1.0" encoding="iso-8859-1"?>
<!-- Generator: Adobe Illustrator 16.0.0, SVG Export Plug-In . SVG Version: 6.00 Build 0)  -->
<!DOCTYPE svg PUBLIC "-//W3C//DTD SVG 1.1//EN" "http://www.w3.org/Graphics/SVG/1.1/DTD/svg11.dtd">
<svg version="1.1" id="Capa_1" xmlns="http://www.w3.org/2000/svg" xmlns:xlink="http://www.w3.org/1999/xlink" x="0px" y="0px" viewBox="0 100 954.072 634.072" xml:space="preserve">
	<polygon points="597.289,644.013 356.804,644.013 356.804,758.364 597.289,714.89" />
	<path d="M74.835,564.788h75.904c56.023-22.951,108.983-53.42,156.896-90.375c11.698-9.021,23.086-18.414,34.169-28.148v-33.759
			C274.08,476.375,192.744,525.39,104.543,555.47C94.718,558.819,84.811,561.925,74.835,564.788z" />
	<path d="M943.424,565.663c-2.961-1.682-86.463-50.145-110.85-66.588c-38.783-26.148-75.629-54.858-109.166-87.512
			c-8.15-7.935-16.115-16.088-23.854-24.51c-39.799-43.312-74.375-91.226-102.266-143.038v-48.306h-29.793v41.504h-22.359v-7.5
			v-2.176c0-2.272-0.773-4.048-1.979-5.324c-3.094-3.272-9.033-3.272-12.125,0c-1.207,1.276-1.98,3.052-1.98,5.324v2.176v7.5
			h-46.109v-7.5v-2.176c0-2.272-0.771-4.048-1.979-5.324c-3.092-3.272-9.034-3.272-12.125,0c-1.207,1.276-1.98,3.052-1.98,5.324
			v2.176v7.5h-46.107v-7.5v-2.176c0-2.272-0.773-4.048-1.98-5.324c-3.092-3.272-9.033-3.272-12.125,0
			c-1.207,1.276-1.979,3.052-1.979,5.324v2.176v7.5h-17.245c-0.256-0.254-0.535-0.49-0.826-0.713v-40.792h-29.791v65.752
			c-0.737,1.111-1.469,2.227-2.213,3.333c-36.378,48.132-76.66,93.323-120.278,135.024c-40.75,36.24-84.75,69.051-129.585,99.685
			c-31.374,21.438-63.354,41.969-95.436,62.326C3.508,565.499,0,571.87,0,578.72v30.293c0,11.045,8.954,20,20,20h336.804h240.485
			h336.783c11.047,0,20-8.955,20-20v-25.67C954.072,575.933,949.869,569.321,943.424,565.663z M356.804,397.898v34.776v147.114
			h-246.25H27.613c0.363-0.23,2.877-1.83,5.117-3.258c1.079-0.688,2.095-1.334,2.776-1.768
			c64.357-41.051,128.306-83.521,187.137-132.106c28.381-23.437,55.579-48.288,81.044-75.104
			c16.039-16.89,31.307-34.559,45.618-52.962c2.533-3.257,5.028-6.542,7.5-9.846l0,0L356.804,397.898L356.804,397.898z
			 M534.564,579.788H419.529V379.59c0-11.691,3.498-22.56,9.493-31.636c33.096,32.904,68.392,63.52,105.541,91.748v140.085H534.564z
			 M534.564,408.325c-30.666-24.192-59.89-50.223-87.585-77.761c8.749-5.381,19.043-8.491,30.068-8.491
			c31.765,0,57.517,25.751,57.517,57.518V408.325z M597.289,579.788v-95.895c39.842,25.803,81.691,48.293,126.406,64.742
			c36.057,13.262,73.268,22.816,110.779,31.031L597.289,579.788z M725.115,522.587c-24.326-9.129-47.779-20.379-70.5-33.031
			c-17.004-9.469-33.594-19.727-49.826-30.481c-2.51-1.662-5.008-3.337-7.5-5.021V293.871
			c41.758,67.042,94.771,126.732,154.41,178.541c14.58,13.248,29.648,25.962,45.182,38.091
			c23.34,18.227,47.953,35.973,74.133,50.547c0.604,0.383,1.199,0.775,1.803,1.158C822.805,552.005,772.98,540.548,725.115,522.587z
			" />
</svg>