<svg width="1408" height="772" viewBox="0 0 1408 872" fill="none" xmlns="http://www.w3.org/2000/svg">
<path d="M1 0H1408V872H1V0Z" fill="white"/>
<circle cx="105.5" cy="98.5" r="60.5" stroke="#E6E6E6" stroke-opacity="0.3" stroke-width="12"/>
<circle cx="1263.5" cy="134.5" r="80.5" stroke="#E6E6E6" stroke-opacity="0.3" stroke-width="12"/>
<path d="M98.5 633C152.9 633 197 588.9 197 534.5C197 480.1 152.9 436 98.5 436C44.0999 436 0 480.1 0 534.5C0 588.9 44.0999 633 98.5 633Z" fill="white"/>
<path d="M98.2655 455.7L117.731 475.634L68.7155 524.65L49.25 505.184L98.2655 455.7Z" fill="#F8F8F8" stroke="#F8F8F8"/>
<path d="M127.815 485.25L147.281 505.185L68.7155 583.75L49.25 564.285L127.815 485.25Z" fill="#F8F8F8" stroke="#F8F8F8"/>
<path d="M39.1657 514.8L58.6311 534.735L39.1657 554.2L19.7002 534.735L39.1657 514.8Z" fill="#F8F8F8" stroke="#F8F8F8"/>
<path d="M157.365 514.8L176.831 534.735L98.2653 613.3L78.7998 593.835L157.365 514.8Z" fill="#F8F8F8" stroke="#F8F8F8"/>
<path d="M1283.5 692C1331.82 692 1371 652.825 1371 604.5C1371 556.175 1331.82 517 1283.5 517C1235.18 517 1196 556.175 1196 604.5C1196 652.825 1235.18 692 1283.5 692Z" fill="white"/>
<path d="M1283.29 534.5L1300.58 552.208L1257.04 595.75L1239.75 578.458L1283.29 534.5Z" fill="#F8F8F8" stroke="#F8F8F8"/>
<path d="M1309.54 560.75L1326.83 578.458L1257.04 648.25L1239.75 630.958L1309.54 560.75Z" fill="#F8F8F8" stroke="#F8F8F8"/>
<path d="M1230.79 587L1248.08 604.708L1230.79 622L1213.5 604.708L1230.79 587Z" fill="#F8F8F8" stroke="#F8F8F8"/>
<path d="M1335.79 587L1353.08 604.708L1283.29 674.5L1266 657.208L1335.79 587Z" fill="#F8F8F8" stroke="#F8F8F8"/>
<g opacity="0.1">
<path d="M125.433 231.703L123.047 234.958L84.9099 340.626L85.5952 342.082L145.109 330.791L125.433 231.703Z" fill="#343434"/>
<path d="M125.435 231.703L47.0115 295.386L85.5971 342.083L104.108 290.794L125.435 231.703Z" fill="#8C8C8C"/>
<path d="M82.2445 351.369L81.3752 351.887L67.7899 389.528L67.7572 391.509L141.783 340.104L82.2445 351.369Z" fill="#3C3C3B"/>
<path d="M67.7578 391.51L82.2453 351.369L43.6543 304.687L67.7578 391.51Z" fill="#8C8C8C"/>
<path d="M85.597 342.082L145.11 330.792L104.107 290.795L85.597 342.082Z" fill="#141414"/>
<path d="M47.0103 295.386L85.5953 342.082L104.106 290.794L47.0103 295.386Z" fill="#393939"/>
</g>
<g opacity="0.1">
<path d="M1265.75 287.015L1265.65 290.903L1293.67 395.478L1295.02 396.252L1335.87 354.552L1265.75 287.015Z" fill="#343434"/>
<path d="M1265.75 287.015L1238.79 380.565L1295.02 396.252L1281.42 345.495L1265.75 287.015Z" fill="#8C8C8C"/>
<path d="M1297.48 405.443L1297.08 406.331L1307.06 443.583L1308.13 445.168L1338.37 363.749L1297.48 405.443Z" fill="#3C3C3B"/>
<path d="M1308.13 445.168L1297.48 405.442L1241.25 389.77L1308.13 445.168Z" fill="#8C8C8C"/>
<path d="M1295.02 396.252L1335.87 354.552L1281.42 345.495L1295.02 396.252Z" fill="#141414"/>
<path d="M1238.79 380.565L1295.02 396.252L1281.42 345.495L1238.79 380.565Z" fill="#393939"/>
</g>
</svg>
