<svg viewBox="0 0 150 150" fill="none" xmlns="http://www.w3.org/2000/svg">
<path d="M75 150C116.421 150 150 116.421 150 75C150 33.5786 116.421 0 75 0C33.5786 0 0 33.5786 0 75C0 116.421 33.5786 150 75 150Z" fill="#F3BA2F"/>
<path d="M56.7938 67.5188L75 49.3125L93.2156 67.5281L103.809 56.9344L75 28.125L46.2 56.925L56.7938 67.5188ZM28.125 75L38.7188 64.4062L49.3125 75L38.7188 85.5938L28.125 75ZM56.7938 82.4813L75 100.687L93.2156 82.4719L103.809 93.0609L75 121.875L46.2 93.075L46.1859 93.0609L56.7938 82.4813ZM100.687 75L111.281 64.4062L121.875 75L111.281 85.5938L100.687 75ZM85.7437 74.9906H85.7531V75L75 85.7531L64.2609 75.0187L64.2422 75L64.2609 74.9859L66.1406 73.1016L67.0547 72.1875L75 64.2469L85.7484 74.9953L85.7437 74.9906Z" fill="white"/>
</svg>
