<svg viewBox="0 0 150 150" fill="none" xmlns="http://www.w3.org/2000/svg">
<path d="M75 150C116.421 150 150 116.421 150 75C150 33.5786 116.421 0 75 0C33.5786 0 0 33.5786 0 75C0 116.421 33.5786 150 75 150Z" fill="white"/>
<path d="M74.8214 15L89.6429 30.1786L52.3214 67.5L37.5 52.6786L74.8214 15Z" fill="#F0B90B" stroke="#F0B90B"/>
<path d="M97.3214 37.5L112.143 52.6786L52.3214 112.5L37.5 97.6786L97.3214 37.5Z" fill="#F0B90B" stroke="#F0B90B"/>
<path d="M29.8214 60L44.6429 75.1786L29.8214 90L15 75.1786L29.8214 60Z" fill="#F0B90B" stroke="#F0B90B"/>
<path d="M119.821 60L134.643 75.1786L74.8214 135L60 120.179L119.821 60Z" fill="#F0B90B" stroke="#F0B90B"/>
</svg>
