<svg viewBox="0 0 150 150" fill="none" xmlns="http://www.w3.org/2000/svg">
<path d="M75 150C116.421 150 150 116.421 150 75C150 33.5786 116.421 0 75 0C33.5786 0 0 33.5786 0 75C0 116.421 33.5786 150 75 150Z" fill="white"/>
<path d="M74.8309 15L74.0264 17.7344V97.0814L74.8309 97.8845L111.663 76.1132L74.8309 15Z" fill="#343434"/>
<path d="M74.8319 15L38 76.1131L74.8319 97.8846V59.372V15Z" fill="#8C8C8C"/>
<path d="M74.8318 104.858L74.3784 105.411V133.676L74.8318 135L111.686 83.0979L74.8318 104.858Z" fill="#3C3C3B"/>
<path d="M74.8319 135V104.858L38 83.0975L74.8319 135Z" fill="#8C8C8C"/>
<path d="M74.832 97.8845L111.663 76.1134L74.832 59.3723V97.8845Z" fill="#141414"/>
<path d="M38 76.1132L74.8313 97.8844V59.3722L38 76.1132Z" fill="#393939"/>
</svg>
