<svg viewBox="0 0 150 150" fill="none" xmlns="http://www.w3.org/2000/svg">
<path d="M0 141.479C0 136.773 3.81482 132.959 8.52064 132.959H141.479C146.185 132.959 150 136.773 150 141.479C150 146.185 146.185 150 141.479 150H8.52065C3.81482 150 0 146.185 0 141.479Z" fill="#fff"/>
<path d="M125.409 57.9545C125.409 85.8198 102.82 108.409 74.9545 108.409C47.0893 108.409 24.5 85.8198 24.5 57.9545C24.5 30.0893 47.0893 7.5 74.9545 7.5C102.82 7.5 125.409 30.0893 125.409 57.9545Z" fill="#141414" stroke="#fff" stroke-width="15"/>
<path d="M74.9999 103C99.8527 103 120 82.8527 120 57.9999C120 33.1472 99.8527 13 74.9999 13C50.1472 13 30 33.1472 30 57.9999C30 82.8527 50.1472 103 74.9999 103Z" fill="#F0F0F0"/>
<path d="M73.043 58.0002H119.999C119.999 53.9386 119.458 50.0039 118.449 46.261H73.043V58.0002Z" fill="#D80027"/>
<path d="M73.043 34.5221H113.395C110.64 30.0271 107.118 26.0539 103.011 22.783H73.043V34.5221Z" fill="#D80027"/>
<path d="M75 103C85.5907 103 95.3249 99.3396 103.012 93.2175H46.9883C54.6752 99.3396 64.4094 103 75 103Z" fill="#D80027"/>
<path d="M36.6044 81.4786H113.395C115.606 77.87 117.321 73.9254 118.449 69.7394H31.5498C32.6778 73.9254 34.3929 77.87 36.6044 81.4786Z" fill="#D80027"/>
<path d="M50.8448 20.0274H54.9456L51.1312 22.7986L52.5882 27.2826L48.7739 24.5114L44.9597 27.2826L46.2183 23.4089C42.8598 26.2064 39.9162 29.484 37.4904 33.1361H38.8043L36.3763 34.9C35.998 35.5311 35.6352 36.1722 35.2875 36.8227L36.4469 40.3913L34.2838 38.8196C33.7461 39.9588 33.2542 41.1237 32.8121 42.3129L34.0895 46.2448H38.8043L34.9899 49.016L36.4469 53.5L32.6327 50.7288L30.3479 52.3888C30.1192 54.2272 30 56.0996 30 57.9999H74.9999C74.9999 33.1473 74.9999 30.2174 74.9999 13C66.1103 13 57.8235 15.5787 50.8448 20.0274ZM52.5882 53.5L48.7739 50.7288L44.9597 53.5L46.4167 49.016L42.6023 46.2448H47.3171L48.7739 41.7608L50.2308 46.2448H54.9456L51.1312 49.016L52.5882 53.5ZM51.1312 35.9073L52.5882 40.3913L48.7739 37.6201L44.9597 40.3913L46.4167 35.9073L42.6023 33.1361H47.3171L48.7739 28.6521L50.2308 33.1361H54.9456L51.1312 35.9073ZM68.7295 53.5L64.9152 50.7288L61.1009 53.5L62.558 49.016L58.7435 46.2448H63.4583L64.9152 41.7608L66.3721 46.2448H71.0869L67.2724 49.016L68.7295 53.5ZM67.2724 35.9073L68.7295 40.3913L64.9152 37.6201L61.1009 40.3913L62.558 35.9073L58.7435 33.1361H63.4583L64.9152 28.6521L66.3721 33.1361H71.0869L67.2724 35.9073ZM67.2724 22.7986L68.7295 27.2826L64.9152 24.5114L61.1009 27.2826L62.558 22.7986L58.7435 20.0274H63.4583L64.9152 15.5434L66.3721 20.0274H71.0869L67.2724 22.7986Z" fill="#0052B4"/>
</svg>
