<svg viewBox="0 0 105 104" fill="none" xmlns="http://www.w3.org/2000/svg">
  <g filter="url(#filter0_d)">
    <path d="M52.25 101C79.8642 101 102.25 78.6142 102.25 51C102.25 23.3858 79.8642 1 52.25 1C24.6358 1 2.25 23.3858 2.25 51C2.25 78.6142 24.6358 101 52.25 101Z" fill="black" />
  </g>
  <path d="M52.25 101C79.8642 101 102.25 78.6142 102.25 51C102.25 23.3858 79.8642 1 52.25 1C24.6358 1 2.25 23.3858 2.25 51C2.25 78.6142 24.6358 101 52.25 101Z" fill="#EFB914" />
  <path style="mix-blend-mode:soft-light" d="M52.25 101C79.8642 101 102.25 78.6142 102.25 51C102.25 23.3858 79.8642 1 52.25 1C24.6358 1 2.25 23.3858 2.25 51C2.25 78.6142 24.6358 101 52.25 101Z" fill="url(#paint0_linear)" />
  <path d="M52.2498 99.3334C78.9436 99.3334 100.583 77.6938 100.583 51.0001C100.583 24.3063 78.9436 2.66675 52.2498 2.66675C25.5561 2.66675 3.9165 24.3063 3.9165 51.0001C3.9165 77.6938 25.5561 99.3334 52.2498 99.3334Z" stroke="black" stroke-opacity="0.097" stroke-width="1.875" />
  <g filter="url(#filter1_d)">
    <path d="M68.9234 30.5166C71.7149 32.7068 74.0379 35.4356 75.7545 38.5408C77.4712 41.646 78.5466 45.0645 78.9168 48.5933L69.4268 46.2333C68.5337 43.251 66.8764 40.5541 64.6195 38.41C62.3625 36.2658 59.5842 34.749 56.5601 34.0099C47.0068 31.6333 37.3601 37.3133 35.0101 46.6966C32.6668 56.0799 38.5101 65.6133 48.0668 67.9899C51.0875 68.7525 54.2548 68.7139 57.2561 67.8779C60.2573 67.042 62.9885 65.4376 65.1801 63.2233L74.6701 65.5799C72.6815 68.5235 70.123 71.0386 67.1459 72.9766C64.1688 74.9146 60.8333 76.2362 57.3368 76.8633L54.6368 87.6666L45.9834 85.5166L48.1301 76.9333C46.6612 76.6916 45.2143 76.3316 43.8034 75.8566L41.6601 84.4399L33.0068 82.2866L35.7068 71.4833C27.7801 65.2333 23.7901 54.8299 26.3601 44.5466C28.9301 34.2599 37.3501 26.9433 47.2934 25.1366L49.9934 14.3333L58.6468 16.4833L56.5001 25.0666C57.969 25.3082 59.4159 25.6683 60.8268 26.1433L62.9701 17.5599L71.6234 19.7133L68.9234 30.5166V30.5166Z" fill="black" />
  </g>
  <path d="M68.9234 30.5166C71.7149 32.7068 74.0379 35.4356 75.7545 38.5408C77.4712 41.646 78.5466 45.0645 78.9168 48.5933L69.4268 46.2333C68.5337 43.251 66.8764 40.5541 64.6195 38.41C62.3625 36.2658 59.5842 34.749 56.5601 34.0099C47.0068 31.6333 37.3601 37.3133 35.0101 46.6966C32.6668 56.0799 38.5101 65.6133 48.0668 67.9899C51.0875 68.7525 54.2548 68.7139 57.2561 67.8779C60.2573 67.042 62.9885 65.4376 65.1801 63.2233L74.6701 65.5799C72.6815 68.5235 70.123 71.0386 67.1459 72.9766C64.1688 74.9146 60.8333 76.2362 57.3368 76.8633L54.6368 87.6666L45.9834 85.5166L48.1301 76.9333C46.6612 76.6916 45.2143 76.3316 43.8034 75.8566L41.6601 84.4399L33.0068 82.2866L35.7068 71.4833C27.7801 65.2333 23.7901 54.8299 26.3601 44.5466C28.9301 34.2599 37.3501 26.9433 47.2934 25.1366L49.9934 14.3333L58.6468 16.4833L56.5001 25.0666C57.969 25.3082 59.4159 25.6683 60.8268 26.1433L62.9701 17.5599L71.6234 19.7133L68.9234 30.5166V30.5166Z" fill="white" />
  <defs>
    <filter id="filter0_d" x="0.375" y="0.0625" width="103.75" height="103.75" filterUnits="userSpaceOnUse" color-interpolation-filters="sRGB">
      <feFlood flood-opacity="0" result="BackgroundImageFix" />
      <feColorMatrix in="SourceAlpha" type="matrix" values="0 0 0 0 0 0 0 0 0 0 0 0 0 0 0 0 0 0 127 0" />
      <feOffset dy="0.9375" />
      <feGaussianBlur stdDeviation="0.9375" />
      <feColorMatrix type="matrix" values="0 0 0 0 0 0 0 0 0 0 0 0 0 0 0 0 0 0 0.199474 0" />
      <feBlend mode="normal" in2="BackgroundImageFix" result="effect1_dropShadow" />
      <feBlend mode="normal" in="SourceGraphic" in2="effect1_dropShadow" result="shape" />
    </filter>
    <filter id="filter1_d" x="23.709" y="13.3958" width="57.0828" height="77.0833" filterUnits="userSpaceOnUse" color-interpolation-filters="sRGB">
      <feFlood flood-opacity="0" result="BackgroundImageFix" />
      <feColorMatrix in="SourceAlpha" type="matrix" values="0 0 0 0 0 0 0 0 0 0 0 0 0 0 0 0 0 0 127 0" />
      <feOffset dy="0.9375" />
      <feGaussianBlur stdDeviation="0.9375" />
      <feColorMatrix type="matrix" values="0 0 0 0 0 0 0 0 0 0 0 0 0 0 0 0 0 0 0.204257 0" />
      <feBlend mode="normal" in2="BackgroundImageFix" result="effect1_dropShadow" />
      <feBlend mode="normal" in="SourceGraphic" in2="effect1_dropShadow" result="shape" />
    </filter>
    <linearGradient id="paint0_linear" x1="52.25" y1="1" x2="52.25" y2="101" gradientUnits="userSpaceOnUse">
      <stop stop-color="white" stop-opacity="0.5" />
      <stop offset="1" stop-opacity="0.5" />
    </linearGradient>
  </defs>
</svg>
