<svg viewBox="0 0 365 202" fill="none" xmlns="http://www.w3.org/2000/svg">
<path fill-rule="evenodd" clip-rule="evenodd" d="M161.849 194.609C170.363 199.619 180.106 202.177 189.978 201.968C198.803 202.143 207.545 200.246 215.502 196.43C223.459 192.614 230.408 186.985 235.791 179.997C247.681 164.137 253.716 144.657 252.872 124.86C253.741 107.279 248.418 89.9493 237.828 75.8815C232.705 69.5832 226.176 64.5723 218.764 61.2506C211.353 57.929 203.265 56.3891 195.15 56.7546C180.527 56.6716 166.379 61.9339 155.371 71.5499V0H129.488V198.967H155.476V189.991C157.461 191.713 159.602 193.252 161.849 194.609ZM178.225 84.1533C183.083 82.0919 188.359 81.2047 193.635 81.5439C198.146 81.3995 202.625 82.3383 206.697 84.2817C210.769 86.225 214.315 89.1161 217.037 92.7121C223.75 102.184 227.015 113.64 226.362 125.199C227.063 138.886 223.405 152.442 215.914 163.923C213.181 168.053 209.452 171.432 205.071 173.748C200.69 176.064 195.797 177.244 190.84 177.179C186.046 177.393 181.265 176.526 176.853 174.642C172.44 172.758 168.508 169.906 165.349 166.297C158.679 158.772 155.113 148.999 155.371 138.951V123.294C155.06 112.422 158.708 101.807 165.636 93.4167C169.031 89.3982 173.367 86.2147 178.225 84.1533V84.1533ZM59.0976 57.4069C50.768 57.5204 42.5086 58.947 34.6243 61.6341C27.1062 63.8764 20.0358 67.4083 13.7294 72.0718L11.1175 74.081V105.394L22.1657 96.0261C31.8496 86.8875 44.5315 81.5821 57.8439 81.1003C61.1063 80.8041 64.3913 81.3213 67.4045 82.6056C70.4176 83.8899 73.0646 85.901 75.1084 88.4588C79.0262 94.5126 81.1157 101.584 81.1418 108.786L48.9374 113.509C35.7299 114.887 23.2166 120.104 12.9458 128.513C8.89608 132.475 5.66825 137.195 3.44715 142.405C1.22604 147.614 0.0552859 153.21 0.00191123 158.872C-0.0514635 164.534 1.01359 170.151 3.1361 175.401C5.2586 180.652 8.39687 185.432 12.3712 189.469C16.777 193.499 21.936 196.62 27.5521 198.653C33.1682 200.686 39.1309 201.591 45.0979 201.316C55.3882 201.397 65.4642 198.378 74.0114 192.652C76.6755 190.878 79.1567 188.869 81.4813 186.677V198.263H106.059V110.639C106.956 96.5279 102.593 82.5847 93.8094 71.4977C89.4155 66.7449 84.0269 63.0181 78.0273 60.5826C72.0276 58.1471 65.5644 57.0628 59.0976 57.4069V57.4069ZM81.4813 136.759C82.0037 147.666 78.3471 158.391 71.2689 166.715C68.1847 170.279 64.3479 173.115 60.0348 175.019C55.7216 176.923 51.0395 177.848 46.3255 177.727C43.4648 177.947 40.5886 177.6 37.863 176.704C35.1374 175.808 32.6164 174.382 30.4453 172.508C27.0179 168.556 25.1312 163.502 25.1312 158.273C25.1312 153.045 27.0179 147.991 30.4453 144.039C37.7847 139.499 46.1166 136.811 54.7358 136.211L81.3768 132.349L81.4813 136.759V136.759ZM298.606 197.219C306.625 200.611 315.322 202.255 324.02 201.968C336.948 202.281 349.694 198.993 360.847 192.444L364.06 190.487L364.399 190.304V160.217L352.75 168.568C344.497 174.413 334.572 177.44 324.438 177.152C319.252 177.358 314.089 176.374 309.344 174.275C304.599 172.176 300.398 169.019 297.065 165.045C289.601 155.246 285.895 143.102 286.618 130.809C285.924 117.744 290.145 104.891 298.449 94.7736C302.111 90.4423 306.712 87.0003 311.902 84.7082C317.092 82.4161 322.737 81.334 328.408 81.5439C337.384 81.5021 346.184 84.0284 353.769 88.8241L365 95.7391V65.1046L360.56 63.1998C350.932 58.9538 340.525 56.7587 330.001 56.7546C320.564 56.4902 311.18 58.2572 302.487 61.9356C293.794 65.6141 285.994 71.1178 279.618 78.0734C266.399 92.6805 259.4 111.861 260.107 131.54C259.376 149.989 265.592 168.072 277.607 182.136C283.405 188.634 290.588 193.774 298.606 197.219Z" fill="white"/>
</svg>
