<svg viewBox="0 0 150 150" fill="none" xmlns="http://www.w3.org/2000/svg">
<path d="M75 150C116.421 150 150 116.421 150 75C150 33.5786 116.421 0 75 0C33.5786 0 0 33.5786 0 75C0 116.421 33.5786 150 75 150Z" fill="#F3BA2F"/>
<path d="M56.7938 67.5188L75 49.3125L93.2156 67.5281L103.809 56.9344L75 28.125L46.2 56.925L56.7938 67.5188ZM28.125 75L38.7188 64.4062L49.3125 75L38.7188 85.5938L28.125 75ZM56.7938 82.4813L75 100.688L93.2156 82.4719L103.809 93.0609L75 121.875L46.2 93.075L46.1859 93.0609L56.7938 82.4813ZM100.688 75L111.281 64.4062L121.875 75L111.281 85.5938L100.688 75ZM85.7437 74.9906H85.7531V75L75 85.7531L64.2609 75.0187L64.2422 75L64.2609 74.9859L66.1406 73.1016L67.0547 72.1875L75 64.2469L85.7484 74.9953L85.7437 74.9906Z" fill="white"/>
<circle cx="115" cy="115" r="34.5" fill="white" stroke="black"/>
<path fill-rule="evenodd" clip-rule="evenodd" d="M115 90C128.805 90 140 101.195 140 115C140 128.805 128.805 140 115 140C101.195 140 90 128.805 90 115C90 101.195 101.195 90 115 90ZM115 92.732C127.296 92.732 137.268 102.704 137.268 115C137.268 127.296 127.296 137.268 115 137.268C102.704 137.268 92.732 127.296 92.732 115C92.732 102.704 102.704 92.732 115 92.732Z" fill="#456C91"/>
</svg>
