<svg viewBox="0 0 150 150" fill="none" xmlns="http://www.w3.org/2000/svg">
<path d="M128.701 115.002L134.351 109.353L140 115.002L134.351 120.651L128.701 115.002Z" fill="#F3BA2F"/>
<path d="M75 150C116.421 150 150 116.421 150 75C150 33.5786 116.421 0 75 0C33.5786 0 0 33.5786 0 75C0 116.421 33.5786 150 75 150Z" fill="white"/>
<path d="M74.8214 15L89.6429 30.1786L52.3214 67.5L37.5 52.6786L74.8214 15Z" fill="#F0B90B" stroke="#F0B90B"/>
<path d="M97.3214 37.5L112.143 52.6786L52.3214 112.5L37.5 97.6786L97.3214 37.5Z" fill="#F0B90B" stroke="#F0B90B"/>
<path d="M29.8214 60L44.6429 75.1786L29.8214 90L15 75.1786L29.8214 60Z" fill="#F0B90B" stroke="#F0B90B"/>
<path d="M119.821 60L134.643 75.1786L74.8214 135L60 120.179L119.821 60Z" fill="#F0B90B" stroke="#F0B90B"/>
<circle cx="115" cy="115" r="34.5" fill="white" stroke="black"/>
<path d="M105.294 111.009L115.006 101.302L124.721 111.017L130.368 105.366L115.006 90L99.6431 105.362L105.294 111.009Z" fill="#F3BA2F"/>
<path d="M90 115.001L95.6493 109.352L101.299 115.001L95.6493 120.65L90 115.001Z" fill="#F3BA2F"/>
<path d="M105.294 118.991L115.005 128.702L124.72 118.987L130.371 124.63L130.367 124.634L115.005 140L99.6422 124.642L99.6343 124.634L105.294 118.991Z" fill="#F3BA2F"/>
<path d="M120.735 114.998L115.005 109.264L110.767 113.501L110.278 113.987L109.275 114.99L109.267 114.998L109.275 115.01L115.005 120.736L120.735 115.002L120.739 114.998H120.735Z" fill="#F3BA2F"/>
</svg>
