<svg viewBox="0 0 150 150" fill="none" xmlns="http://www.w3.org/2000/svg">
<path d="M75 150C116.421 150 150 116.421 150 75C150 33.5786 116.421 0 75 0C33.5786 0 0 33.5786 0 75C0 116.421 33.5786 150 75 150Z" fill="white"/>
<path d="M74.8214 15L89.6429 30.1786L52.3214 67.5L37.5 52.6786L74.8214 15Z" fill="#F0B90B" stroke="#F0B90B"/>
<path d="M97.3214 37.5L112.143 52.6786L52.3214 112.5L37.5 97.6786L97.3214 37.5Z" fill="#F0B90B" stroke="#F0B90B"/>
<path d="M29.8214 60L44.6429 75.1786L29.8214 90L15 75.1786L29.8214 60Z" fill="#F0B90B" stroke="#F0B90B"/>
<path d="M119.821 60L134.643 75.1786L74.8214 135L60 120.179L119.821 60Z" fill="#F0B90B" stroke="#F0B90B"/>
<circle cx="115" cy="115" r="34.5" fill="white" stroke="black"/>
<path fill-rule="evenodd" clip-rule="evenodd" d="M115 90C128.805 90 140 101.195 140 115C140 128.805 128.805 140 115 140C101.195 140 90 128.805 90 115C90 101.195 101.195 90 115 90ZM115 92.732C127.296 92.732 137.268 102.704 137.268 115C137.268 127.296 127.296 137.268 115 137.268C102.704 137.268 92.732 127.296 92.732 115C92.732 102.704 102.704 92.732 115 92.732Z" fill="#456C91"/>
</svg>
