<svg viewBox="0 0 150 150" fill="none" xmlns="http://www.w3.org/2000/svg">
<path d="M75 150C116.421 150 150 116.421 150 75C150 33.5786 116.421 0 75 0C33.5786 0 0 33.5786 0 75C0 116.421 33.5786 150 75 150Z" fill="white"/>
<path d="M74.8214 15L89.6429 30.1786L52.3214 67.5L37.5 52.6786L74.8214 15Z" fill="#F0B90B" stroke="#F0B90B"/>
<path d="M97.3214 37.5L112.143 52.6786L52.3214 112.5L37.5 97.6786L97.3214 37.5Z" fill="#F0B90B" stroke="#F0B90B"/>
<path d="M29.8214 60L44.6429 75.1786L29.8214 90L15 75.1786L29.8214 60Z" fill="#F0B90B" stroke="#F0B90B"/>
<path d="M119.821 60L134.643 75.1786L74.8214 135L60 120.179L119.821 60Z" fill="#F0B90B" stroke="#F0B90B"/>
<circle cx="115" cy="115" r="34.5" fill="white" stroke="black"/>
<path d="M115.346 90L115.011 91.1393V124.201L115.346 124.535L130.693 115.464L115.346 90Z" fill="#343434"/>
<path d="M115.347 90L100 115.464L115.347 124.535V108.488V90Z" fill="#8C8C8C"/>
<path d="M115.347 127.441L115.158 127.671V139.448L115.347 140L130.702 118.374L115.347 127.441Z" fill="#3C3C3B"/>
<path d="M115.347 140V127.441L100 118.374L115.347 140Z" fill="#8C8C8C"/>
<path d="M115.347 124.535L130.693 115.464L115.347 108.489V124.535Z" fill="#141414"/>
<path d="M100 115.464L115.346 124.535V108.488L100 115.464Z" fill="#393939"/>
</svg>
