<svg viewBox="0 0 150 150" fill="none" xmlns="http://www.w3.org/2000/svg">
<path d="M75 150C116.421 150 150 116.421 150 75C150 33.5786 116.421 0 75 0C33.5786 0 0 33.5786 0 75C0 116.421 33.5786 150 75 150Z" fill="white"/>
<path fill-rule="evenodd" clip-rule="evenodd" d="M75.0004 22.0588C104.234 22.0588 127.942 45.7663 127.942 75C127.942 104.233 104.234 127.941 75.0004 127.941C45.7667 127.941 22.0591 104.233 22.0591 75C22.0591 45.7663 45.7667 22.0588 75.0004 22.0588ZM75.0004 27.8442C101.039 27.8442 122.156 48.961 122.156 75C122.156 101.039 101.039 122.156 75.0004 122.156C48.9614 122.156 27.8445 101.039 27.8445 75C27.8445 48.961 48.9614 27.8442 75.0004 27.8442Z" fill="#456C91"/>
<circle cx="115" cy="115" r="34.5" fill="white" stroke="black"/>
<path d="M105.294 111.009L115.006 101.302L124.721 111.017L130.368 105.366L115.006 90L99.6431 105.362L105.294 111.009Z" fill="#F3BA2F"/>
<path d="M90 115.001L95.6493 109.352L101.299 115.001L95.6493 120.65L90 115.001Z" fill="#F3BA2F"/>
<path d="M105.294 118.991L115.005 128.702L124.72 118.987L130.371 124.63L130.367 124.634L115.005 140L99.6422 124.642L99.6343 124.634L105.294 118.991Z" fill="#F3BA2F"/>
<path d="M128.701 115.002L134.351 109.353L140 115.002L134.351 120.651L128.701 115.002Z" fill="#F3BA2F"/>
<path d="M120.735 114.998L115.005 109.264L110.767 113.501L110.278 113.987L109.275 114.99L109.267 114.998L109.275 115.01L115.005 120.736L120.735 115.002L120.739 114.998H120.735Z" fill="#F3BA2F"/>
</svg>
