<svg viewBox="0 0 150 150" fill="none" xmlns="http://www.w3.org/2000/svg">
<path d="M75 150C116.421 150 150 116.421 150 75C150 33.5786 116.421 0 75 0C33.5786 0 0 33.5786 0 75C0 116.421 33.5786 150 75 150Z" fill="white"/>
<path fill-rule="evenodd" clip-rule="evenodd" d="M75.0004 22.0588C104.234 22.0588 127.942 45.7663 127.942 75C127.942 104.233 104.234 127.941 75.0004 127.941C45.7667 127.941 22.0591 104.233 22.0591 75C22.0591 45.7663 45.7667 22.0588 75.0004 22.0588ZM75.0004 27.8442C101.039 27.8442 122.156 48.961 122.156 75C122.156 101.039 101.039 122.156 75.0004 122.156C48.9614 122.156 27.8445 101.039 27.8445 75C27.8445 48.961 48.9614 27.8442 75.0004 27.8442Z" fill="#456C91"/>
<circle cx="115" cy="115" r="34.5" fill="white" stroke="black"/>
<path d="M115.346 90L115.011 91.1393V124.201L115.346 124.535L130.693 115.464L115.346 90Z" fill="#343434"/>
<path d="M115.347 90L100 115.464L115.347 124.535V108.488V90Z" fill="#8C8C8C"/>
<path d="M115.347 127.441L115.158 127.671V139.448L115.347 140L130.702 118.374L115.347 127.441Z" fill="#3C3C3B"/>
<path d="M115.347 140V127.441L100 118.374L115.347 140Z" fill="#8C8C8C"/>
<path d="M115.347 124.535L130.693 115.464L115.347 108.489V124.535Z" fill="#141414"/>
<path d="M100 115.464L115.346 124.535V108.488L100 115.464Z" fill="#393939"/>
</svg>
