<svg viewBox="0 0 150 150" fill="none" xmlns="http://www.w3.org/2000/svg">
<path d="M75 150C116.421 150 150 116.421 150 75C150 33.5786 116.421 0 75 0C33.5786 0 0 33.5786 0 75C0 116.421 33.5786 150 75 150Z" fill="white"/>
<path fill-rule="evenodd" clip-rule="evenodd" d="M75.0004 22.0588C104.234 22.0588 127.942 45.7663 127.942 75C127.942 104.233 104.234 127.941 75.0004 127.941C45.7667 127.941 22.0591 104.233 22.0591 75C22.0591 45.7663 45.7667 22.0588 75.0004 22.0588ZM75.0004 27.8442C101.039 27.8442 122.156 48.961 122.156 75C122.156 101.039 101.039 122.156 75.0004 122.156C48.9614 122.156 27.8445 101.039 27.8445 75C27.8445 48.961 48.9614 27.8442 75.0004 27.8442Z" fill="#456C91"/>
<circle cx="115" cy="115" r="34.5" fill="white" stroke="black"/>
<path fill-rule="evenodd" clip-rule="evenodd" d="M115 90C128.805 90 140 101.195 140 115C140 128.805 128.805 140 115 140C101.195 140 90 128.805 90 115C90 101.195 101.195 90 115 90ZM115 92.732C127.296 92.732 137.268 102.704 137.268 115C137.268 127.296 127.296 137.268 115 137.268C102.704 137.268 92.732 127.296 92.732 115C92.732 102.704 102.704 92.732 115 92.732Z" fill="#456C91"/>
</svg>
