<svg fill="none" xmlns="http://www.w3.org/2000/svg">
<path d="M0 141.479C0 136.773 3.81482 132.959 8.52064 132.959H141.479C146.185 132.959 150 136.773 150 141.479C150 146.185 146.185 150 141.479 150H8.52065C3.81482 150 0 146.185 0 141.479Z" fill="black"/>
<path d="M125.455 57.9545C125.455 85.8198 102.866 108.409 75.0004 108.409C47.1352 108.409 24.5459 85.8198 24.5459 57.9545C24.5459 30.0893 47.1352 7.5 75.0004 7.5C102.866 7.5 125.455 30.0893 125.455 57.9545Z" fill="white" stroke="black" stroke-width="15"/>
<path d="M75 87.6562C91.4038 87.6562 104.702 74.3583 104.702 57.9545C104.702 41.5507 91.4038 28.2528 75 28.2528C58.5962 28.2528 45.2983 41.5507 45.2983 57.9545C45.2983 74.3583 58.5962 87.6562 75 87.6562Z" fill="#F0F0F0"/>
<path d="M73.7085 57.9546H104.702C104.702 55.2738 104.344 52.6768 103.678 50.2063H73.7085V57.9546Z" fill="#D80027"/>
<path d="M73.7085 42.4582H100.342C98.5239 39.4912 96.1992 36.8688 93.4887 34.7098H73.7085V42.4582Z" fill="#D80027"/>
<path d="M75.0001 87.6563C81.9903 87.6563 88.4153 85.2403 93.4889 81.1995H56.5112C61.5849 85.2403 68.0099 87.6563 75.0001 87.6563Z" fill="#D80027"/>
<path d="M49.6575 73.4512H100.342C101.802 71.0694 102.934 68.4658 103.678 65.7029H46.3213C47.0658 68.4658 48.1978 71.0694 49.6575 73.4512Z" fill="#D80027"/>
<path d="M59.0567 32.8911H61.7634L59.2457 34.7202L60.2074 37.6799L57.6899 35.8508L55.1723 37.6799L56.003 35.1231C53.7863 36.9696 51.8434 39.1329 50.2423 41.5434H51.1095L49.5069 42.7077C49.2573 43.1242 49.0178 43.5473 48.7883 43.9767L49.5536 46.3321L48.1258 45.2947C47.7709 46.0467 47.4463 46.8156 47.1545 47.6005L47.9976 50.1956H51.1095L48.5919 52.0247L49.5536 54.9843L47.036 53.1553L45.5279 54.251C45.377 55.4643 45.2983 56.7002 45.2983 57.9545H75C75 41.5508 75 39.617 75 28.2528C69.1326 28.2528 63.6629 29.9549 59.0567 32.8911ZM60.2074 54.9843L57.6899 53.1553L55.1723 54.9843L56.134 52.0247L53.6163 50.1956H56.7283L57.6899 47.236L58.6515 50.1956H61.7634L59.2457 52.0247L60.2074 54.9843ZM59.2457 43.3725L60.2074 46.3321L57.6899 44.503L55.1723 46.3321L56.134 43.3725L53.6163 41.5434H56.7283L57.6899 38.5838L58.6515 41.5434H61.7634L59.2457 43.3725ZM70.8613 54.9843L68.3437 53.1553L65.8262 54.9843L66.7879 52.0247L64.2702 50.1956H67.3821L68.3437 47.236L69.3053 50.1956H72.4173L69.8996 52.0247L70.8613 54.9843ZM69.8996 43.3725L70.8613 46.3321L68.3437 44.503L65.8262 46.3321L66.7879 43.3725L64.2702 41.5434H67.3821L68.3437 38.5838L69.3053 41.5434H72.4173L69.8996 43.3725ZM69.8996 34.7202L70.8613 37.6799L68.3437 35.8508L65.8262 37.6799L66.7879 34.7202L64.2702 32.8911H67.3821L68.3437 29.9315L69.3053 32.8911H72.4173L69.8996 34.7202Z" fill="#0052B4"/>
<circle cx="115" cy="115" r="34.5" fill="white" stroke="black"/>
<path fill-rule="evenodd" clip-rule="evenodd" d="M115 90C128.805 90 140 101.195 140 115C140 128.805 128.805 140 115 140C101.195 140 90 128.805 90 115C90 101.195 101.195 90 115 90ZM115 92.732C127.296 92.732 137.268 102.704 137.268 115C137.268 127.296 127.296 137.268 115 137.268C102.704 137.268 92.732 127.296 92.732 115C92.732 102.704 102.704 92.732 115 92.732Z" fill="#456C91"/>
</svg>
