<svg viewBox="0 0 150 150" fill="none" xmlns="http://www.w3.org/2000/svg">
<path d="M0 141.479C0 136.774 3.81482 132.959 8.52064 132.959H141.479C146.185 132.959 150 136.774 150 141.479V141.479C150 146.185 146.185 150 141.479 150H8.52065C3.81482 150 0 146.185 0 141.479V141.479Z" fill="black"/>
<path d="M125.455 57.9545C125.455 85.8198 102.866 108.409 75.0004 108.409C47.1352 108.409 24.5459 85.8198 24.5459 57.9545C24.5459 30.0893 47.1352 7.5 75.0004 7.5C102.866 7.5 125.455 30.0893 125.455 57.9545Z" fill="white" stroke="black" stroke-width="15"/>
<path d="M75 87.6563C91.4038 87.6563 104.702 74.3584 104.702 57.9546C104.702 41.5508 91.4038 28.2529 75 28.2529C58.5962 28.2529 45.2983 41.5508 45.2983 57.9546C45.2983 74.3584 58.5962 87.6563 75 87.6563Z" fill="#F0F0F0"/>
<path d="M73.7085 57.9549H104.702C104.702 55.274 104.344 52.677 103.678 50.2065H73.7085V57.9549Z" fill="#D80027"/>
<path d="M73.7085 42.4583H100.342C98.5239 39.4914 96.1992 36.8689 93.4887 34.71H73.7085V42.4583Z" fill="#D80027"/>
<path d="M75.0001 87.6563C81.9903 87.6563 88.4153 85.2403 93.4889 81.1995H56.5112C61.5849 85.2403 68.0099 87.6563 75.0001 87.6563Z" fill="#D80027"/>
<path d="M49.6575 73.4512H100.342C101.802 71.0694 102.934 68.4658 103.678 65.7029H46.3213C47.0658 68.4658 48.1978 71.0694 49.6575 73.4512Z" fill="#D80027"/>
<path d="M59.0567 32.8913H61.7634L59.2457 34.7204L60.2074 37.68L57.6899 35.8509L55.1723 37.68L56.003 35.1232C53.7863 36.9697 51.8434 39.133 50.2423 41.5435H51.1095L49.5069 42.7078C49.2573 43.1243 49.0178 43.5475 48.7883 43.9768L49.5536 46.3322L48.1258 45.2949C47.7709 46.0468 47.4463 46.8157 47.1545 47.6006L47.9976 50.1958H51.1095L48.5919 52.0249L49.5536 54.9845L47.036 53.1554L45.5279 54.2511C45.377 55.4644 45.2983 56.7003 45.2983 57.9546H75C75 41.5509 75 39.6171 75 28.2529C69.1326 28.2529 63.6629 29.955 59.0567 32.8913ZM60.2074 54.9845L57.6899 53.1554L55.1723 54.9845L56.134 52.0249L53.6163 50.1958H56.7283L57.6899 47.2361L58.6515 50.1958H61.7634L59.2457 52.0249L60.2074 54.9845ZM59.2457 43.3726L60.2074 46.3322L57.6899 44.5031L55.1723 46.3322L56.134 43.3726L53.6163 41.5435H56.7283L57.6899 38.5839L58.6515 41.5435H61.7634L59.2457 43.3726ZM70.8613 54.9845L68.3437 53.1554L65.8262 54.9845L66.7879 52.0249L64.2702 50.1958H67.3821L68.3437 47.2361L69.3053 50.1958H72.4173L69.8996 52.0249L70.8613 54.9845ZM69.8996 43.3726L70.8613 46.3322L68.3437 44.5031L65.8262 46.3322L66.7879 43.3726L64.2702 41.5435H67.3821L68.3437 38.5839L69.3053 41.5435H72.4173L69.8996 43.3726ZM69.8996 34.7204L70.8613 37.68L68.3437 35.8509L65.8262 37.68L66.7879 34.7204L64.2702 32.8913H67.3821L68.3437 29.9317L69.3053 32.8913H72.4173L69.8996 34.7204Z" fill="#0052B4"/>
<circle cx="115" cy="115" r="34.5" fill="white" stroke="black"/>
<path d="M115.347 90L100 115.464L115.347 124.535V108.488V90Z" fill="#8C8C8C"/>
<path d="M115.347 127.441L115.158 127.671V139.448L115.347 140L130.702 118.374L115.347 127.441Z" fill="#3C3C3B"/>
<path d="M115.347 140V127.441L100 118.374L115.347 140Z" fill="#8C8C8C"/>
<path d="M115.346 90L115.011 91.1393V124.201L115.346 124.535L130.693 115.464L115.346 90Z" fill="#343434"/>
<path d="M115.347 124.535L130.693 115.464L115.347 108.489V124.535Z" fill="#141414"/>
<path d="M100 115.464L115.346 124.535V108.488L100 115.464Z" fill="#393939"/>
</svg>
