<svg viewBox="0 0 150 150" fill="none" xmlns="http://www.w3.org/2000/svg">
<path d="M75 150C116.563 150 150 116.563 150 75C150 33.4373 116.563 0 75 0C33.4373 0 0 33.4373 0 75C0 116.563 33.4373 150 75 150Z" fill="#2775CA"/>
<path d="M95.6252 86.8749C95.6252 75.9376 89.0627 72.1876 75.9377 70.6254C66.5627 69.3751 64.6877 66.8754 64.6877 62.4999C64.6877 58.1244 67.813 55.3126 74.0627 55.3126C79.6877 55.3126 82.8129 57.1876 84.3752 61.8751C84.6879 62.8126 85.6254 63.4374 86.5629 63.4374H91.5624C92.8127 63.4374 93.7502 62.4999 93.7502 61.2504V60.9376C92.4999 54.0624 86.8749 48.7501 79.6877 48.1254V40.6254C79.6877 39.3751 78.7502 38.4376 77.1879 38.1249H72.5005C71.2502 38.1249 70.3127 39.0624 70 40.6254V47.8126C60.625 49.0629 54.688 55.3126 54.688 63.1254C54.688 73.4379 60.9377 77.4999 74.0627 79.0629C82.8129 80.6251 85.6254 82.5001 85.6254 87.5004C85.6254 92.5006 81.2499 95.9379 75.3129 95.9379C67.1875 95.9379 64.375 92.4998 63.4375 87.8124C63.1255 86.5629 62.188 85.9374 61.2505 85.9374H55.9375C54.688 85.9374 53.7505 86.8749 53.7505 88.1251V88.4379C55 96.2499 60.0002 101.875 70.3127 103.438V110.938C70.3127 112.187 71.2502 113.125 72.8125 113.438H77.4999C78.7502 113.438 79.6877 112.5 80.0004 110.938V103.438C89.3754 101.875 95.6252 95.3123 95.6252 86.8749Z" fill="white"/>
<path d="M59.0622 119.687C34.6872 110.938 22.187 83.7502 31.25 59.6872C35.9375 46.5622 46.25 36.5625 59.0622 31.875C60.3125 31.2502 60.9372 30.3127 60.9372 28.7497V24.375C60.9372 23.1247 60.3125 22.1872 59.0622 21.8752C58.7495 21.8752 58.1247 21.8752 57.812 22.1872C28.1247 31.5622 11.8745 63.1252 21.2495 92.8125C26.8745 110.312 40.3122 123.75 57.812 129.375C59.0622 130 60.3125 129.375 60.6245 128.125C60.9372 127.813 60.9372 127.5 60.9372 126.875V122.5C60.9372 121.562 59.9997 120.313 59.0622 119.687ZM92.1875 22.1872C90.9372 21.5625 89.687 22.1872 89.375 23.4375C89.0622 23.7502 89.0622 24.0622 89.0622 24.6877V29.0625C89.0622 30.3127 89.9997 31.5622 90.9372 32.1877C115.312 40.9372 127.812 68.1247 118.749 92.1877C114.062 105.313 103.749 115.312 90.9372 120C89.687 120.625 89.0622 121.562 89.0622 123.125V127.5C89.0622 128.75 89.687 129.688 90.9372 130C91.25 130 91.8747 130 92.1875 129.688C121.875 120.313 138.125 88.7497 128.75 59.0625C123.125 41.25 109.374 27.8122 92.1875 22.1872Z" fill="white"/>
<circle cx="115" cy="115" r="34.5" fill="white" stroke="black"/>
<path fill-rule="evenodd" clip-rule="evenodd" d="M115 90C128.805 90 140 101.195 140 115C140 128.805 128.805 140 115 140C101.195 140 90 128.805 90 115C90 101.195 101.195 90 115 90ZM115 92.732C127.296 92.732 137.268 102.704 137.268 115C137.268 127.296 127.296 137.268 115 137.268C102.704 137.268 92.732 127.296 92.732 115C92.732 102.704 102.704 92.732 115 92.732Z" fill="#456C91"/>
</svg>
