<svg viewBox="0 0 150 150" fill="none" xmlns="http://www.w3.org/2000/svg">
<path d="M75 150C116.563 150 150 116.563 150 75C150 33.4373 116.563 0 75 0C33.4373 0 0 33.4373 0 75C0 116.563 33.4373 150 75 150Z" fill="#2775CA"/>
<path d="M95.6252 86.875C95.6252 75.9377 89.0627 72.1877 75.9377 70.6255C66.5627 69.3752 64.6877 66.8755 64.6877 62.5C64.6877 58.1245 67.813 55.3127 74.0627 55.3127C79.6877 55.3127 82.8129 57.1877 84.3752 61.8752C84.6879 62.8127 85.6254 63.4375 86.5629 63.4375H91.5624C92.8127 63.4375 93.7502 62.5 93.7502 61.2505V60.9377C92.4999 54.0625 86.8749 48.7502 79.6877 48.1255V40.6255C79.6877 39.3752 78.7502 38.4377 77.1879 38.125H72.5004C71.2502 38.125 70.3127 39.0625 70 40.6255V47.8127C60.625 49.063 54.688 55.3127 54.688 63.1255C54.688 73.438 60.9377 77.5 74.0627 79.063C82.8129 80.6252 85.6254 82.5002 85.6254 87.5005C85.6254 92.5007 81.2499 95.938 75.3129 95.938C67.1875 95.938 64.375 92.5 63.4375 87.8125C63.1255 86.563 62.188 85.9375 61.2505 85.9375H55.9375C54.688 85.9375 53.7505 86.875 53.7505 88.1252V88.438C55 96.25 60.0002 101.875 70.3127 103.438V110.938C70.3127 112.187 71.2502 113.125 72.8125 113.438H77.4999C78.7502 113.438 79.6877 112.5 80.0004 110.938V103.438C89.3754 101.875 95.6252 95.3125 95.6252 86.875V86.875Z" fill="white"/>
<path d="M59.0622 119.687C34.6872 110.938 22.187 83.7502 31.25 59.6872C35.9375 46.5622 46.25 36.5625 59.0622 31.875C60.3125 31.2502 60.9372 30.3127 60.9372 28.7497V24.375C60.9372 23.1247 60.3125 22.1872 59.0622 21.8752C58.7495 21.8752 58.1247 21.8752 57.812 22.1872C28.1247 31.5622 11.8745 63.1252 21.2495 92.8125C26.8745 110.312 40.3122 123.75 57.812 129.375C59.0622 130 60.3125 129.375 60.6245 128.125C60.9372 127.813 60.9372 127.5 60.9372 126.875V122.5C60.9372 121.562 59.9997 120.313 59.0622 119.687ZM92.1875 22.1872C90.9372 21.5625 89.687 22.1872 89.375 23.4375C89.0622 23.7502 89.0622 24.0622 89.0622 24.6877V29.0625C89.0622 30.3127 89.9997 31.5622 90.9372 32.1877C115.312 40.9372 127.812 68.1247 118.749 92.1877C114.062 105.313 103.749 115.312 90.9372 120C89.687 120.625 89.0622 121.562 89.0622 123.125V127.5C89.0622 128.75 89.687 129.688 90.9372 130C91.25 130 91.8747 130 92.1875 129.688C121.875 120.313 138.125 88.7497 128.75 59.0625C123.125 41.25 109.374 27.8122 92.1875 22.1872V22.1872Z" fill="white"/>
<circle cx="115" cy="115" r="34.5" fill="white" stroke="black"/>
<path d="M105.294 111.009L115.006 101.302L124.721 111.017L130.368 105.366L115.006 90L99.6431 105.362L105.294 111.009Z" fill="#F3BA2F"/>
<path d="M90 115.001L95.6493 109.352L101.299 115.001L95.6493 120.65L90 115.001Z" fill="#F3BA2F"/>
<path d="M105.294 118.991L115.005 128.702L124.72 118.987L130.371 124.63L130.367 124.634L115.005 140L99.6422 124.642L99.6343 124.634L105.294 118.991Z" fill="#F3BA2F"/>
<path d="M128.701 115.002L134.351 109.353L140 115.002L134.351 120.651L128.701 115.002Z" fill="#F3BA2F"/>
<path d="M120.735 114.998L115.005 109.264L110.767 113.501L110.278 113.987L109.275 114.99L109.267 114.998L109.275 115.01L115.005 120.736L120.735 115.002L120.739 114.998H120.735Z" fill="#F3BA2F"/>
</svg>
