<svg viewBox="0 0 432 677" fill="none" xmlns="http://www.w3.org/2000/svg">
<path d="M215.753 516.083L27.8839 424.358L215.583 676.941L243.782 638.991V502.355L215.753 516.083Z" fill="#708299"/>
<path d="M215.583 0L0 386.827H431.171L215.583 0Z" fill="#708299"/>
<path d="M431.17 387.4L215.582 0V387.4H431.17Z" fill="#68788E"/>
<path d="M150.363 214.845H192.672V257.154H150.363V214.845Z" fill="white"/>
<path d="M215.583 281.778L214.736 281.375L0.0205078 387.147H0.211599L214.927 492.919L215.774 492.516L243.781 478.809V295.588L215.583 281.778Z" fill="#3C3C47"/>
<path d="M150.363 134.818H192.672V177.127H150.363V134.818Z" fill="white"/>
<path d="M215.753 516.082L215.582 676.94L403.415 424.188L215.753 516.082Z" fill="#68788E"/>
<path d="M430.767 387.147L215.582 281.778L214.735 281.375L214.926 492.919L215.773 492.516L430.958 387.147H430.767Z" fill="#31313B"/>
</svg>
