<svg viewBox="0 0 671 677" fill="none" xmlns="http://www.w3.org/2000/svg">
<path d="M378.259 627.783C376.843 630.725 374.325 632.987 371.252 634.078C368.179 635.168 364.8 634.998 361.851 633.605L224.779 568.085C221.842 566.667 219.584 564.145 218.495 561.066C217.406 557.988 217.576 554.604 218.967 551.65L233.682 521.064C235.097 518.197 237.565 515.989 240.568 514.904C243.572 513.819 246.878 513.94 249.795 515.242L386.794 580.762C388.255 581.457 389.564 582.433 390.648 583.636C391.731 584.839 392.566 586.244 393.106 587.771C393.646 589.298 393.88 590.916 393.794 592.534C393.709 594.152 393.305 595.736 392.606 597.197L378.259 627.783ZM106.836 498.07C105.421 501.011 102.902 503.274 99.8293 504.364C96.7563 505.455 93.3776 505.285 90.4289 503.892L6.99355 464.167C4.05678 462.749 1.79817 460.227 0.709521 457.148C-0.379127 454.07 -0.209656 450.686 1.18103 447.732L15.8963 417.146C17.3265 414.199 19.8585 411.936 22.9435 410.846C26.0285 409.756 29.4179 409.928 32.3773 411.324L116.107 451.417C117.568 452.112 118.878 453.089 119.961 454.291C121.044 455.494 121.88 456.899 122.42 458.426C122.96 459.953 123.193 461.572 123.108 463.189C123.022 464.807 122.618 466.391 121.92 467.852L106.836 498.07Z" fill="#F1564A"/>
<path d="M654.479 259.932C653.064 262.879 650.534 265.144 647.444 266.231C644.355 267.317 640.959 267.136 638.003 265.727L554.151 225.824C551.215 224.413 548.957 221.902 547.869 218.839C546.781 215.775 546.95 212.407 548.341 209.467L563.051 179.027C564.467 176.1 566.984 173.848 570.056 172.763C573.128 171.677 576.506 171.846 579.454 173.233L663.379 213.135C666.32 214.561 668.58 217.085 669.667 220.16C670.755 223.236 670.583 226.615 669.19 229.565L654.479 259.932ZM436.244 156.069C435.551 157.525 434.576 158.831 433.375 159.911C432.175 160.991 430.773 161.824 429.249 162.362C427.725 162.9 426.11 163.134 424.495 163.048C422.881 162.962 421.299 162.56 419.841 161.864L283.619 96.9491C280.665 95.5364 278.389 93.0178 277.287 89.941C276.186 86.8642 276.346 83.478 277.735 80.5188L292.445 50.152C293.875 47.2191 296.406 44.9662 299.49 43.8815C302.575 42.7969 305.963 42.9678 308.922 44.3574L445.144 109.125C448.085 110.551 450.344 113.075 451.432 116.151C452.52 119.226 452.348 122.605 450.955 125.555L436.244 156.069Z" fill="#F1564A"/>
<path d="M144.755 145.778L130.224 176.227C127.287 182.382 129.896 189.753 136.051 192.69L219.704 232.609C225.86 235.546 233.23 232.937 236.168 226.782L250.698 196.333C253.635 190.177 251.026 182.807 244.871 179.869L161.218 139.951C155.063 137.014 147.692 139.622 144.755 145.778Z" fill="#F1564A"/>
<path d="M362.706 249.825L348.176 280.275C345.239 286.43 347.848 293.801 354.003 296.738L490.86 362.045C497.015 364.982 504.386 362.373 507.323 356.218L521.853 325.769C524.79 319.614 522.182 312.243 516.027 309.306L379.17 243.999C373.014 241.062 365.644 243.67 362.706 249.825Z" fill="#F1564A"/>
<path d="M433.597 450.112L419.067 480.561C416.13 486.716 418.738 494.087 424.893 497.024L508.812 537.069C514.967 540.007 522.338 537.398 525.275 531.243L539.805 500.793C542.743 494.638 540.134 487.267 533.979 484.33L450.06 444.285C443.905 441.348 436.534 443.956 433.597 450.112Z" fill="#F1564A"/>
<path d="M162.767 320.933L148.236 351.382C145.299 357.538 147.908 364.908 154.063 367.846L290.589 432.994C296.744 435.931 304.115 433.323 307.052 427.167L321.582 396.718C324.519 390.563 321.91 383.192 315.755 380.255L179.23 315.106C173.075 312.169 165.704 314.778 162.767 320.933Z" fill="#F1564A"/>
<path d="M105.429 228.23L40.1539 365.021C37.2168 371.176 39.8254 378.547 45.9806 381.484L76.4302 396.014C82.5853 398.952 89.9561 396.343 92.8933 390.188L158.168 253.397C161.106 247.242 158.497 239.871 152.342 236.934L121.892 222.404C115.737 219.466 108.366 222.075 105.429 228.23Z" fill="#97D6D7"/>
<path d="M209.077 11.1452L169.57 93.9361C166.633 100.091 169.241 107.462 175.397 110.399L205.846 124.93C212.001 127.867 219.372 125.258 222.309 119.103L261.816 36.3119C264.754 30.1568 262.145 22.7859 255.99 19.8487L225.54 5.31854C219.385 2.38135 212.014 4.99005 209.077 11.1452Z" fill="#97D6D7"/>
<path d="M447.451 557.838L407.944 640.629C405.007 646.784 407.615 654.154 413.77 657.092L444.22 671.622C450.375 674.559 457.746 671.95 460.683 665.795L500.19 583.004C503.127 576.849 500.519 569.478 494.363 566.541L463.914 552.011C457.759 549.074 450.388 551.682 447.451 557.838Z" fill="#97D6D7"/>
<path d="M576.837 286.819L511.561 423.61C508.624 429.765 511.233 437.136 517.388 440.073L547.838 454.603C553.993 457.541 561.364 454.932 564.301 448.777L629.576 311.986C632.513 305.831 629.904 298.46 623.749 295.523L593.3 280.993C587.145 278.055 579.774 280.664 576.837 286.819Z" fill="#97D6D7"/>
<path d="M480.175 140.482L440.668 223.273C437.731 229.428 440.339 236.799 446.495 239.736L476.944 254.266C483.099 257.204 490.47 254.595 493.407 248.44L532.914 165.649C535.851 159.494 533.243 152.123 527.088 149.186L496.638 134.655C490.483 131.718 483.112 134.327 480.175 140.482Z" fill="#97D6D7"/>
<path d="M376.6 357.646L311.325 494.437C308.388 500.592 310.997 507.963 317.152 510.9L347.601 525.43C353.756 528.368 361.127 525.759 364.064 519.604L429.34 382.813C432.277 376.658 429.668 369.287 423.513 366.35L393.063 351.82C386.908 348.883 379.537 351.491 376.6 357.646Z" fill="#97D6D7"/>
<path d="M176.353 428.5L136.846 511.291C133.909 517.446 136.518 524.817 142.673 527.754L173.123 542.284C179.278 545.221 186.649 542.612 189.586 536.457L229.093 453.666C232.03 447.511 229.421 440.14 223.266 437.203L192.816 422.673C186.661 419.736 179.29 422.345 176.353 428.5Z" fill="#97D6D7"/>
<path d="M305.739 157.403L240.464 294.194C237.527 300.349 240.135 307.72 246.29 310.657L276.74 325.187C282.895 328.125 290.266 325.516 293.203 319.361L358.478 182.57C361.415 176.415 358.807 169.044 352.652 166.107L322.202 151.577C316.047 148.639 308.676 151.248 305.739 157.403Z" fill="#97D6D7"/>
</svg>
