<svg viewBox="0 0 3981 1373" fill="none" xmlns="http://www.w3.org/2000/svg">
<circle cx="2935.02" cy="988.435" r="71.6747" transform="rotate(-180 2935.02 988.435)" fill="white" stroke="white" stroke-width="10"/>
<circle cx="2951.69" cy="463.379" r="71.6747" transform="rotate(-180 2951.69 463.379)" fill="white" stroke="white" stroke-width="10"/>
<circle cx="3053.37" cy="173.349" r="71.6747" transform="rotate(-180 3053.37 173.349)" fill="white" stroke="white" stroke-width="10"/>
<circle cx="3378.4" cy="243.357" r="71.6747" transform="rotate(-180 3378.4 243.357)" fill="white" stroke="white" stroke-width="10"/>
<circle cx="2781.67" cy="760.077" r="71.6747" transform="rotate(-180 2781.67 760.077)" fill="white" stroke="white" stroke-width="10"/>
<circle cx="3225.05" cy="783.413" r="71.6747" transform="rotate(-180 3225.05 783.413)" fill="white" stroke="white" stroke-width="10"/>
<circle cx="3280.06" cy="521.719" r="71.6747" transform="rotate(-180 3280.06 521.719)" fill="white" stroke="white" stroke-width="10"/>
<circle cx="3613.43" cy="663.4" r="71.6747" transform="rotate(-180 3613.43 663.4)" fill="white" stroke="white" stroke-width="10"/>
<circle cx="3733.44" cy="368.369" r="71.6747" transform="rotate(-180 3733.44 368.369)" fill="white" stroke="white" stroke-width="10"/>
<circle cx="3903.46" cy="96.6739" r="71.6747" transform="rotate(-180 3903.46 96.6739)" fill="white" stroke="white" stroke-width="10"/>
<path d="M2824.86 826.435C2823.93 823.513 2827.47 821.248 2829.73 823.311L2861.7 852.386C2863.16 853.714 2862.96 856.067 2861.3 857.132L2842.37 869.256C2840.7 870.321 2838.48 869.517 2837.89 867.635L2824.86 826.435Z" fill="white"/>
<path d="M3197.91 556.173C3200.91 555.547 3202.81 559.293 3200.53 561.341L3168.38 590.216C3166.91 591.535 3164.59 591.101 3163.7 589.339L3153.55 569.28C3152.65 567.518 3153.68 565.391 3155.61 564.988L3197.91 556.173Z" fill="white"/>
<path d="M3821.38 95.0248C3824.39 95.6255 3824.66 99.8151 3821.76 100.806L3780.87 114.772C3779 115.41 3777.04 114.1 3776.91 112.13L3775.42 89.6954C3775.29 87.7254 3777.07 86.1691 3779.01 86.556L3821.38 95.0248Z" fill="white"/>
<path d="M3529.73 686.834C3531.78 686.828 3532.51 689.529 3530.75 690.56L3489.11 714.9C3487.98 715.565 3486.52 714.969 3486.17 713.699L3479.58 689.487C3479.23 688.217 3480.19 686.965 3481.5 686.962L3529.73 686.834Z" fill="white"/>
<path d="M3699.39 443.056C3700.59 441.399 3703.21 442.389 3703.01 444.423L3698.27 492.418C3698.14 493.728 3696.8 494.558 3695.57 494.092L3672.1 485.214C3670.87 484.749 3670.41 483.241 3671.18 482.174L3699.39 443.056Z" fill="white"/>
<path d="M3858.22 164.033C3859.72 162.655 3862.09 164.159 3861.47 166.109L3847.03 212.124C3846.64 213.38 3845.16 213.919 3844.05 213.211L3822.88 199.726C3821.77 199.019 3821.64 197.451 3822.61 196.563L3858.22 164.033Z" fill="white"/>
<path d="M3413.74 312.084C3413.19 310.116 3415.6 308.688 3417.07 310.113L3451.62 343.756C3452.57 344.674 3452.38 346.237 3451.25 346.909L3429.67 359.716C3428.54 360.388 3427.08 359.802 3426.72 358.534L3413.74 312.084Z" fill="white"/>
<path d="M3349.38 316.161C3350.48 314.44 3353.15 315.282 3353.06 317.324L3351.02 365.509C3350.96 366.824 3349.67 367.727 3348.42 367.331L3324.49 359.78C3323.23 359.384 3322.69 357.905 3323.4 356.796L3349.38 316.161Z" fill="white"/>
<path d="M3304.65 277.834C3306.64 277.383 3307.95 279.858 3306.46 281.25L3271.14 314.091C3270.17 314.987 3268.62 314.724 3268.01 313.56L3256.29 291.37C3255.67 290.207 3256.33 288.777 3257.61 288.486L3304.65 277.834Z" fill="white"/>
<path d="M3024.32 247.952C3025.49 246.275 3028.13 247.223 3027.96 249.259L3024 297.325C3023.89 298.637 3022.57 299.488 3021.33 299.043L2997.72 290.547C2996.48 290.101 2996 288.601 2996.75 287.521L3024.32 247.952Z" fill="white"/>
<path d="M3820.92 116.619C3822.96 116.551 3823.78 119.228 3822.05 120.313L3781.17 145.91C3780.06 146.609 3778.58 146.058 3778.2 144.799L3770.87 120.799C3770.49 119.54 3771.4 118.26 3772.72 118.216L3820.92 116.619Z" fill="white"/>
<rect x="2993.29" y="955.269" width="11.6679" height="154.945" transform="rotate(-125.714 2993.29 955.269)" fill="white"/>
<rect x="2844.06" y="735.848" width="11.6679" height="361.038" transform="rotate(-115.529 2844.06 735.848)" fill="white"/>
<rect x="3114.9" y="176.643" width="11.6679" height="686.565" transform="rotate(-95.8661 3114.9 176.643)" fill="white"/>
<rect x="2820.5" y="700.113" width="11.6679" height="147.683" transform="rotate(-150.442 2820.5 700.113)" fill="white"/>
<rect x="3289.34" y="768.091" width="11.6679" height="216.396" transform="rotate(-107.279 3289.34 768.091)" fill="white"/>
<rect x="3642.23" y="604.909" width="11.6679" height="153.224" transform="rotate(-157.806 3642.23 604.909)" fill="white"/>
<rect x="3772.04" y="317.197" width="11.6679" height="136.193" transform="rotate(-148.374 3772.04 317.197)" fill="white"/>
<rect x="2978.58" y="401.765" width="11.6679" height="112.929" transform="rotate(-160.271 2978.58 401.765)" fill="white"/>
<rect x="3010.91" y="437.221" width="11.6679" height="294.422" transform="rotate(-117.118 3010.91 437.221)" fill="white"/>
<rect x="3445.28" y="230.854" width="11.6679" height="348.171" transform="rotate(-105.836 3445.28 230.854)" fill="white"/>
<rect x="3306.09" y="463.609" width="11.6679" height="130.677" transform="rotate(-160.475 3306.09 463.609)" fill="white"/>
<rect x="3587.46" y="602.372" width="11.6679" height="297.164" transform="rotate(150.368 3587.46 602.372)" fill="white"/>
<rect x="2905.26" y="931.812" width="11.6679" height="92.5723" transform="rotate(146.128 2905.26 931.812)" fill="white"/>
<path d="M2857.21 1023.2C2860.12 1022.24 2862.43 1025.74 2860.4 1028.04L2831.76 1060.4C2830.45 1061.87 2828.1 1061.71 2827.01 1060.06L2814.63 1041.29C2813.54 1039.64 2814.32 1037.41 2816.19 1036.79L2857.21 1023.2Z" fill="white"/>
<rect x="2788.2" y="1080.65" width="11.6679" height="49.6989" transform="rotate(-124.647 2788.2 1080.65)" fill="white"/>
<path d="M3153.22 830.971C3155.15 830.305 3156.72 832.623 3155.39 834.169L3123.85 870.662C3122.99 871.658 3121.42 871.566 3120.68 870.476L3106.62 849.695C3105.88 848.605 3106.38 847.111 3107.62 846.683L3153.22 830.971Z" fill="white"/>
<path d="M2907.13 529.21C2909.32 527.073 2912.93 529.218 2912.11 532.169L2900.45 573.781C2899.92 575.682 2897.73 576.56 2896.03 575.551L2876.7 564.065C2875.01 563.056 2874.73 560.711 2876.15 559.335L2907.13 529.21Z" fill="white"/>
<path d="M2852.37 1288.87C2852.37 1298.95 2850.59 1307.79 2847.02 1315.38C2843.46 1322.97 2838.35 1328.83 2831.7 1332.96C2825.09 1337.08 2817.49 1339.15 2808.92 1339.15C2800.43 1339.15 2792.86 1337.11 2786.2 1333.03C2779.55 1328.95 2774.39 1323.14 2770.74 1315.59C2767.08 1308 2765.23 1299.28 2765.18 1289.44V1284.37C2765.18 1274.29 2766.99 1265.44 2770.59 1257.79C2774.25 1250.11 2779.38 1244.22 2785.99 1240.15C2792.65 1236.02 2800.24 1233.96 2808.77 1233.96C2817.31 1233.96 2824.88 1236.02 2831.49 1240.15C2838.14 1244.22 2843.27 1250.11 2846.88 1257.79C2850.54 1265.44 2852.37 1274.27 2852.37 1284.3V1288.87ZM2830.99 1284.23C2830.99 1273.5 2829.07 1265.34 2825.23 1259.76C2821.38 1254.19 2815.9 1251.4 2808.77 1251.4C2801.7 1251.4 2796.24 1254.16 2792.39 1259.69C2788.55 1265.18 2786.6 1273.24 2786.56 1283.88V1288.87C2786.56 1299.33 2788.48 1307.44 2792.32 1313.2C2796.17 1318.97 2801.7 1321.85 2808.92 1321.85C2815.99 1321.85 2821.43 1319.08 2825.23 1313.55C2829.02 1307.97 2830.95 1299.87 2830.99 1289.22V1284.23ZM2867.7 1337.74V1235.37H2903.56C2915.98 1235.37 2925.4 1237.76 2931.82 1242.54C2938.24 1247.27 2941.45 1254.23 2941.45 1263.42C2941.45 1268.44 2940.17 1272.87 2937.59 1276.71C2935.01 1280.51 2931.42 1283.29 2926.83 1285.08C2932.08 1286.39 2936.2 1289.04 2939.2 1293.02C2942.25 1297.01 2943.77 1301.88 2943.77 1307.65C2943.77 1317.49 2940.63 1324.94 2934.35 1330.01C2928.07 1335.07 2919.12 1337.65 2907.49 1337.74H2867.7ZM2888.79 1293.16V1320.79H2906.86C2911.83 1320.79 2915.7 1319.62 2918.46 1317.28C2921.27 1314.89 2922.68 1311.61 2922.68 1307.44C2922.68 1298.06 2917.83 1293.3 2908.13 1293.16H2888.79ZM2888.79 1278.26H2904.4C2915.04 1278.07 2920.36 1273.83 2920.36 1265.53C2920.36 1260.89 2919 1257.56 2916.28 1255.54C2913.61 1253.48 2909.37 1252.45 2903.56 1252.45H2888.79V1278.26ZM2991.02 1281.49L3012.33 1235.37H3035.39L3001.78 1300.62V1337.74H2980.34V1300.62L2946.73 1235.37H2969.86L2991.02 1281.49ZM3123.07 1252.45H3091.71V1337.74H3070.62V1252.45H3039.68V1235.37H3123.07V1252.45ZM3196.76 1293.37H3156.26V1320.79H3203.79V1337.74H3135.17V1235.37H3203.65V1252.45H3156.26V1276.85H3196.76V1293.37ZM3335.27 1337.74H3314.18L3273.12 1270.38V1337.74H3252.02V1235.37H3273.12L3314.25 1302.87V1235.37H3335.27V1337.74ZM3415.29 1293.37H3374.79V1320.79H3422.32V1337.74H3353.7V1235.37H3422.18V1252.45H3374.79V1276.85H3415.29V1293.37ZM3513.17 1252.45H3481.81V1337.74H3460.71V1252.45H3429.77V1235.37H3513.17V1252.45ZM3606.12 1308.21L3619.9 1235.37H3640.92L3618.21 1337.74H3596.98L3580.31 1269.26L3563.65 1337.74H3542.42L3519.7 1235.37H3540.73L3554.58 1308.07L3571.45 1235.37H3589.31L3606.12 1308.21ZM3736.48 1288.87C3736.48 1298.95 3734.7 1307.79 3731.13 1315.38C3727.57 1322.97 3722.46 1328.83 3715.81 1332.96C3709.2 1337.08 3701.6 1339.15 3693.02 1339.15C3684.54 1339.15 3676.97 1337.11 3670.31 1333.03C3663.66 1328.95 3658.5 1323.14 3654.84 1315.59C3651.19 1308 3649.34 1299.28 3649.29 1289.44V1284.37C3649.29 1274.29 3651.09 1265.44 3654.7 1257.79C3658.36 1250.11 3663.49 1244.22 3670.1 1240.15C3676.76 1236.02 3684.35 1233.96 3692.88 1233.96C3701.42 1233.96 3708.99 1236.02 3715.59 1240.15C3722.25 1244.22 3727.38 1250.11 3730.99 1257.79C3734.65 1265.44 3736.48 1274.27 3736.48 1284.3V1288.87ZM3715.1 1284.23C3715.1 1273.5 3713.18 1265.34 3709.34 1259.76C3705.49 1254.19 3700.01 1251.4 3692.88 1251.4C3685.81 1251.4 3680.34 1254.16 3676.5 1259.69C3672.66 1265.18 3670.71 1273.24 3670.67 1283.88V1288.87C3670.67 1299.33 3672.59 1307.44 3676.43 1313.2C3680.27 1318.97 3685.81 1321.85 3693.02 1321.85C3700.1 1321.85 3705.54 1319.08 3709.34 1313.55C3713.13 1307.97 3715.06 1299.87 3715.1 1289.22V1284.23ZM3789.7 1300.26H3772.9V1337.74H3751.81V1235.37H3789.84C3801.94 1235.37 3811.27 1238.06 3817.83 1243.45C3824.39 1248.84 3827.67 1256.46 3827.67 1266.3C3827.67 1273.29 3826.15 1279.12 3823.1 1283.81C3820.1 1288.45 3815.53 1292.15 3809.39 1294.92L3831.54 1336.76V1337.74H3808.9L3789.7 1300.26ZM3772.9 1283.18H3789.92C3795.21 1283.18 3799.31 1281.84 3802.22 1279.17C3805.13 1276.45 3806.58 1272.72 3806.58 1267.99C3806.58 1263.16 3805.2 1259.37 3802.43 1256.6C3799.71 1253.83 3795.52 1252.45 3789.84 1252.45H3772.9V1283.18ZM3875.84 1296.68L3864.87 1308.49V1337.74H3843.77V1235.37H3864.87V1281.77L3874.15 1269.04L3900.24 1235.37H3926.18L3889.83 1280.86L3927.24 1337.74H3902.13L3875.84 1296.68Z" fill="white"/>
<path d="M1205.38 455.421L1122.94 415.169L1205.31 526.013L1217.68 509.359V449.397L1205.38 455.421Z" fill="#708299"/>
<path d="M1205.31 228.942L1110.7 398.699H1299.92L1205.31 228.942Z" fill="#708299"/>
<path d="M1299.92 398.95L1205.31 228.942V398.95H1299.92Z" fill="#68788E"/>
<path d="M1176.69 323.226H1195.26V341.792H1176.69V323.226Z" fill="white"/>
<path d="M1205.31 352.599L1204.94 352.422L1110.71 398.839H1110.8L1205.02 445.256L1205.39 445.08L1217.68 439.064V358.659L1205.31 352.599Z" fill="#3C3C47"/>
<path d="M1176.69 288.106H1195.26V306.673H1176.69V288.106Z" fill="white"/>
<path d="M1205.38 455.421L1205.31 526.012L1287.74 415.094L1205.38 455.421Z" fill="#68788E"/>
<path d="M1299.74 398.839L1205.31 352.599L1204.94 352.422L1205.02 445.256L1205.39 445.08L1299.83 398.839H1299.74Z" fill="#31313B"/>
<path d="M1100.82 944.993L1018.37 904.74L1100.74 1015.58L1113.12 998.93V938.968L1100.82 944.993Z" fill="#708299"/>
<path d="M1100.74 718.514L1006.13 888.27H1195.35L1100.74 718.514Z" fill="#708299"/>
<path d="M1195.35 888.521L1100.74 718.514V888.521H1195.35Z" fill="#68788E"/>
<path d="M1072.12 812.797H1090.69V831.364H1072.12V812.797Z" fill="white"/>
<path d="M1100.74 842.17L1100.37 841.993L1006.14 888.41H1006.23L1100.45 934.828L1100.83 934.651L1113.12 928.636V848.23L1100.74 842.17Z" fill="#3C3C47"/>
<path d="M1072.12 777.678H1090.69V796.245H1072.12V777.678Z" fill="white"/>
<path d="M1100.82 944.992L1100.74 1015.58L1183.17 904.665L1100.82 944.992Z" fill="#68788E"/>
<path d="M1195.17 888.41L1100.74 842.17L1100.37 841.993L1100.45 934.828L1100.83 934.651L1195.26 888.41H1195.17Z" fill="#31313B"/>
<path d="M608.075 697.039L525.63 656.786L608 767.63L620.375 750.976V691.014L608.075 697.039Z" fill="#708299"/>
<path d="M608 470.56L513.394 640.316H702.61L608 470.56Z" fill="#708299"/>
<path d="M702.609 640.567L608 470.56V640.567H702.609Z" fill="#68788E"/>
<path d="M579.38 564.843H597.947V583.41H579.38V564.843Z" fill="white"/>
<path d="M608 594.216L607.628 594.039L513.402 640.456H513.486L607.712 686.874L608.084 686.697L620.375 680.682V600.276L608 594.216Z" fill="#3C3C47"/>
<path d="M579.38 529.724H597.947V548.291H579.38V529.724Z" fill="white"/>
<path d="M608.075 697.038L608 767.63L690.429 656.711L608.075 697.038Z" fill="#68788E"/>
<path d="M702.433 640.456L608.001 594.216L607.629 594.039L607.713 686.874L608.084 686.697L702.517 640.456H702.433Z" fill="#31313B"/>
<path d="M712.644 226.479L630.199 186.227L712.569 297.07L724.944 280.416V220.455L712.644 226.479Z" fill="#708299"/>
<path d="M712.57 0L617.963 169.756H807.179L712.57 0Z" fill="#708299"/>
<path d="M807.178 170.008L712.569 0V170.008H807.178Z" fill="#68788E"/>
<path d="M683.949 94.2832H702.516V112.85H683.949V94.2832Z" fill="white"/>
<path d="M712.569 123.656L712.198 123.479L617.972 169.897H618.056L712.282 216.314L712.653 216.137L724.944 210.122V129.717L712.569 123.656Z" fill="#3C3C47"/>
<path d="M683.949 59.1641H702.516V77.731H683.949V59.1641Z" fill="white"/>
<path d="M712.644 226.479L712.569 297.07L794.998 186.151L712.644 226.479Z" fill="#68788E"/>
<path d="M807.002 169.897L712.57 123.656L712.198 123.479L712.282 216.314L712.654 216.137L807.086 169.897H807.002Z" fill="#31313B"/>
<path d="M262.681 418.981L180.236 378.729L262.607 489.572L274.981 472.918V412.957L262.681 418.981Z" fill="#708299"/>
<path d="M262.607 192.502L168 362.258H357.216L262.607 192.502Z" fill="#708299"/>
<path d="M357.216 362.51L262.606 192.502V362.51H357.216Z" fill="#68788E"/>
<path d="M233.986 286.785H252.553V305.352H233.986V286.785Z" fill="white"/>
<path d="M262.607 316.158L262.235 315.981L168.009 362.399H168.093L262.319 408.816L262.69 408.639L274.982 402.624V322.219L262.607 316.158Z" fill="#3C3C47"/>
<path d="M233.986 251.666H252.553V270.233H233.986V251.666Z" fill="white"/>
<path d="M262.681 418.981L262.606 489.572L345.036 378.653L262.681 418.981Z" fill="#68788E"/>
<path d="M357.039 362.399L262.607 316.158L262.235 315.981L262.319 408.816L262.691 408.639L357.123 362.399H357.039Z" fill="#31313B"/>
<path d="M322.095 1029.76L239.65 989.505L322.021 1100.35L334.396 1083.69V1023.73L322.095 1029.76Z" fill="#708299"/>
<path d="M322.021 803.278L227.414 973.034H416.63L322.021 803.278Z" fill="#708299"/>
<path d="M416.63 973.286L322.021 803.278V973.286H416.63Z" fill="#68788E"/>
<path d="M293.4 897.562H311.967V916.128H293.4V897.562Z" fill="white"/>
<path d="M322.021 926.935L321.649 926.758L227.423 973.175H227.507L321.733 1019.59L322.105 1019.42L334.396 1013.4V932.995L322.021 926.935Z" fill="#3C3C47"/>
<path d="M293.4 862.442H311.967V881.009H293.4V862.442Z" fill="white"/>
<path d="M322.095 1029.76L322.021 1100.35L404.45 989.43L322.095 1029.76Z" fill="#68788E"/>
<path d="M416.453 973.175L322.021 926.935L321.649 926.758L321.733 1019.59L322.105 1019.42L416.537 973.175H416.453Z" fill="#31313B"/>
<rect x="346.242" y="419.973" width="15.8438" height="232.283" rx="7.92188" transform="rotate(-45 346.242 419.973)" fill="white"/>
<rect x="255.426" y="509.65" width="15.8438" height="277.103" rx="7.92188" transform="rotate(-10.4531 255.426 509.65)" fill="white"/>
<rect x="833.1" y="201.354" width="15.8438" height="294.09" rx="7.92188" transform="rotate(-60 833.1 201.354)" fill="white"/>
<rect x="433.824" y="968.878" width="15.8438" height="548.95" rx="7.92188" transform="rotate(-96.9704 433.824 968.878)" fill="white"/>
<rect x="705.896" y="660.146" width="15.8438" height="333.028" rx="7.92188" transform="rotate(-60 705.896 660.146)" fill="white"/>
<rect x="1193.4" y="535.873" width="15.8438" height="193.764" rx="7.92188" transform="rotate(29.0344 1193.4 535.873)" fill="white"/>
<rect x="706.332" y="302.506" width="15.8438" height="180.789" rx="7.92188" transform="rotate(33.4074 706.332 302.506)" fill="white"/>
<rect x="524.869" y="715.166" width="18.2012" height="207.688" rx="9.10058" transform="rotate(45 524.869 715.166)" fill="white"/>
<g filter="url(#filter0_d)">
<rect x="1082.12" y="421" width="18.2012" height="422.66" rx="9.10058" transform="rotate(75 1082.12 421)" fill="white"/>
</g>
<rect x="618.287" y="114.867" width="15.8438" height="329.548" rx="7.92188" transform="rotate(74.7817 618.287 114.867)" fill="white"/>
<path d="M70.7344 1293.63H30.2344V1321.05H77.7656V1338H9.14062V1235.62H77.625V1252.71H30.2344V1277.11H70.7344V1293.63ZM168.609 1252.71H137.25V1338H116.156V1252.71H85.2188V1235.62H168.609V1252.71ZM264.023 1338H242.93V1294.12H201.797V1338H180.703V1235.62H201.797V1277.11H242.93V1235.62H264.023V1338ZM344.109 1293.63H303.609V1321.05H351.141V1338H282.516V1235.62H351V1252.71H303.609V1277.11H344.109V1293.63ZM401.414 1300.52H384.609V1338H363.516V1235.62H401.555C413.648 1235.62 422.977 1238.32 429.539 1243.71C436.102 1249.1 439.383 1256.72 439.383 1266.56C439.383 1273.55 437.859 1279.38 434.812 1284.07C431.812 1288.71 427.242 1292.41 421.102 1295.18L443.25 1337.02V1338H420.609L401.414 1300.52ZM384.609 1283.44H401.625C406.922 1283.44 411.023 1282.1 413.93 1279.43C416.836 1276.71 418.289 1272.98 418.289 1268.25C418.289 1263.42 416.906 1259.62 414.141 1256.86C411.422 1254.09 407.227 1252.71 401.555 1252.71H384.609V1283.44ZM517.078 1293.63H476.578V1321.05H524.109V1338H455.484V1235.62H523.969V1252.71H476.578V1277.11H517.078V1293.63ZM613.969 1235.62V1303.05C613.969 1314.26 610.453 1323.12 603.422 1329.63C596.438 1336.15 586.875 1339.41 574.734 1339.41C562.781 1339.41 553.289 1336.24 546.258 1329.91C539.227 1323.59 535.641 1314.89 535.5 1303.83V1235.62H556.594V1303.2C556.594 1309.9 558.188 1314.8 561.375 1317.89C564.609 1320.94 569.062 1322.46 574.734 1322.46C586.594 1322.46 592.617 1316.23 592.805 1303.76V1235.62H613.969ZM658.828 1235.62L685.125 1309.88L711.281 1235.62H738.984V1338H717.82V1310.02L719.93 1261.71L692.297 1338H677.812L650.25 1261.78L652.359 1310.02V1338H631.266V1235.62H658.828ZM876.516 1338H855.422L814.359 1270.64V1338H793.266V1235.62H814.359L855.492 1303.12V1235.62H876.516V1338ZM956.531 1293.63H916.031V1321.05H963.562V1338H894.938V1235.62H963.422V1252.71H916.031V1277.11H956.531V1293.63ZM1054.41 1252.71H1023.05V1338H1001.95V1252.71H971.016V1235.62H1054.41V1252.71ZM1147.36 1308.47L1161.14 1235.62H1182.16L1159.45 1338H1138.22L1121.55 1269.52L1104.89 1338H1083.66L1060.95 1235.62H1081.97L1095.82 1308.33L1112.7 1235.62H1130.55L1147.36 1308.47ZM1277.72 1289.13C1277.72 1299.21 1275.94 1308.05 1272.38 1315.64C1268.81 1323.23 1263.7 1329.09 1257.05 1333.22C1250.44 1337.34 1242.84 1339.41 1234.27 1339.41C1225.78 1339.41 1218.21 1337.37 1211.55 1333.29C1204.9 1329.21 1199.74 1323.4 1196.09 1315.85C1192.43 1308.26 1190.58 1299.54 1190.53 1289.7V1284.63C1190.53 1274.55 1192.34 1265.7 1195.95 1258.05C1199.6 1250.37 1204.73 1244.48 1211.34 1240.41C1218 1236.28 1225.59 1234.22 1234.12 1234.22C1242.66 1234.22 1250.23 1236.28 1256.84 1240.41C1263.49 1244.48 1268.62 1250.37 1272.23 1258.05C1275.89 1265.7 1277.72 1274.53 1277.72 1284.56V1289.13ZM1256.34 1284.49C1256.34 1273.76 1254.42 1265.6 1250.58 1260.02C1246.73 1254.45 1241.25 1251.66 1234.12 1251.66C1227.05 1251.66 1221.59 1254.42 1217.74 1259.95C1213.9 1265.44 1211.95 1273.5 1211.91 1284.14V1289.13C1211.91 1299.59 1213.83 1307.7 1217.67 1313.46C1221.52 1319.23 1227.05 1322.11 1234.27 1322.11C1241.34 1322.11 1246.78 1319.34 1250.58 1313.81C1254.38 1308.23 1256.3 1300.12 1256.34 1289.48V1284.49ZM1330.95 1300.52H1314.14V1338H1293.05V1235.62H1331.09C1343.18 1235.62 1352.51 1238.32 1359.07 1243.71C1365.63 1249.1 1368.91 1256.72 1368.91 1266.56C1368.91 1273.55 1367.39 1279.38 1364.34 1284.07C1361.34 1288.71 1356.77 1292.41 1350.63 1295.18L1372.78 1337.02V1338H1350.14L1330.95 1300.52ZM1314.14 1283.44H1331.16C1336.45 1283.44 1340.55 1282.1 1343.46 1279.43C1346.37 1276.71 1347.82 1272.98 1347.82 1268.25C1347.82 1263.42 1346.44 1259.62 1343.67 1256.86C1340.95 1254.09 1336.76 1252.71 1331.09 1252.71H1314.14V1283.44ZM1417.08 1296.94L1406.11 1308.75V1338H1385.02V1235.62H1406.11V1282.03L1415.39 1269.3L1441.48 1235.62H1467.42L1431.07 1281.12L1468.48 1338H1443.38L1417.08 1296.94Z" fill="white"/>
<path d="M2430.13 384.668C2436.57 378.225 2436.57 367.777 2430.13 361.334L2325.12 256.328C2318.68 249.885 2308.23 249.885 2301.79 256.328C2295.35 262.772 2295.35 273.219 2301.79 279.663L2395.13 373.001L2301.79 466.339C2295.35 472.783 2295.35 483.23 2301.79 489.673C2308.23 496.117 2318.68 496.117 2325.12 489.674L2430.13 384.668ZM1636.96 389.5L2418.46 389.501L2418.46 356.501L1636.96 356.5L1636.96 389.5Z" fill="white"/>
<path d="M1662.33 945.333C1655.89 951.776 1655.89 962.224 1662.33 968.667L1767.34 1073.67C1773.78 1080.12 1784.23 1080.12 1790.67 1073.67C1797.12 1067.23 1797.12 1056.78 1790.67 1050.34L1697.33 957L1790.67 863.662C1797.12 857.218 1797.12 846.771 1790.67 840.327C1784.23 833.884 1773.78 833.884 1767.34 840.327L1662.33 945.333ZM2439 940.5H1962V973.5H2439V940.5ZM1962 940.5H1674V973.5H1962V940.5Z" fill="white"/>
<path d="M1960.73 639.633H1920.23V667.055H1967.77V684H1899.14V581.625H1967.62V598.711H1920.23V623.109H1960.73V639.633ZM2058.61 598.711H2027.25V684H2006.16V598.711H1975.22V581.625H2058.61V598.711ZM2154.02 684H2132.93V640.125H2091.8V684H2070.7V581.625H2091.8V623.109H2132.93V581.625H2154.02V684Z" fill="white"/>
<path d="M1665.17 312.938C1657.95 312.938 1652.09 310.672 1647.59 306.141C1643.12 301.578 1640.89 295.516 1640.89 287.953V286.547C1640.89 281.484 1641.86 276.969 1643.8 273C1645.77 269 1648.52 265.891 1652.05 263.672C1655.58 261.453 1659.52 260.344 1663.86 260.344C1670.77 260.344 1676.09 262.547 1679.84 266.953C1683.62 271.359 1685.52 277.594 1685.52 285.656V290.25H1652.38C1652.72 294.438 1654.11 297.75 1656.55 300.188C1659.02 302.625 1662.11 303.844 1665.83 303.844C1671.05 303.844 1675.3 301.734 1678.58 297.516L1684.72 303.375C1682.69 306.406 1679.97 308.766 1676.56 310.453C1673.19 312.109 1669.39 312.938 1665.17 312.938ZM1663.81 269.484C1660.69 269.484 1658.16 270.578 1656.22 272.766C1654.31 274.953 1653.09 278 1652.56 281.906H1674.27V281.062C1674.02 277.25 1673 274.375 1671.22 272.438C1669.44 270.469 1666.97 269.484 1663.81 269.484ZM1712.61 277.969L1722.27 261.281H1734.92L1719.41 286.266L1735.44 312H1722.88L1712.75 294.656L1702.67 312H1690.02L1706.05 286.266L1690.58 261.281H1703.14L1712.61 277.969ZM1787.09 287.156C1787.09 295 1785.31 301.266 1781.75 305.953C1778.19 310.609 1773.41 312.938 1767.41 312.938C1761.84 312.938 1757.39 311.109 1754.05 307.453V331.5H1742.66V261.281H1753.16L1753.62 266.438C1756.97 262.375 1761.52 260.344 1767.27 260.344C1773.45 260.344 1778.3 262.656 1781.8 267.281C1785.33 271.875 1787.09 278.266 1787.09 286.453V287.156ZM1775.75 286.172C1775.75 281.109 1774.73 277.094 1772.7 274.125C1770.7 271.156 1767.83 269.672 1764.08 269.672C1759.42 269.672 1756.08 271.594 1754.05 275.438V297.938C1756.11 301.875 1759.48 303.844 1764.17 303.844C1767.8 303.844 1770.62 302.391 1772.66 299.484C1774.72 296.547 1775.75 292.109 1775.75 286.172ZM1827.08 312C1826.58 311.031 1826.14 309.453 1825.77 307.266C1822.14 311.047 1817.7 312.938 1812.45 312.938C1807.36 312.938 1803.2 311.484 1799.98 308.578C1796.77 305.672 1795.16 302.078 1795.16 297.797C1795.16 292.391 1797.16 288.25 1801.16 285.375C1805.19 282.469 1810.94 281.016 1818.41 281.016H1825.39V277.688C1825.39 275.062 1824.66 272.969 1823.19 271.406C1821.72 269.812 1819.48 269.016 1816.48 269.016C1813.89 269.016 1811.77 269.672 1810.11 270.984C1808.45 272.266 1807.62 273.906 1807.62 275.906H1796.23C1796.23 273.125 1797.16 270.531 1799 268.125C1800.84 265.688 1803.34 263.781 1806.5 262.406C1809.69 261.031 1813.23 260.344 1817.14 260.344C1823.08 260.344 1827.81 261.844 1831.34 264.844C1834.88 267.812 1836.69 272 1836.78 277.406V300.281C1836.78 304.844 1837.42 308.484 1838.7 311.203V312H1827.08ZM1814.56 303.797C1816.81 303.797 1818.92 303.25 1820.89 302.156C1822.89 301.062 1824.39 299.594 1825.39 297.75V288.188H1819.25C1815.03 288.188 1811.86 288.922 1809.73 290.391C1807.61 291.859 1806.55 293.938 1806.55 296.625C1806.55 298.812 1807.27 300.562 1808.7 301.875C1810.17 303.156 1812.12 303.797 1814.56 303.797ZM1862.98 248.953V261.281H1871.94V269.719H1862.98V298.031C1862.98 299.969 1863.36 301.375 1864.11 302.25C1864.89 303.094 1866.27 303.516 1868.23 303.516C1869.55 303.516 1870.88 303.359 1872.22 303.047V311.859C1869.62 312.578 1867.12 312.938 1864.72 312.938C1855.97 312.938 1851.59 308.109 1851.59 298.453V269.719H1843.25V261.281H1851.59V248.953H1862.98ZM1907.23 271.688C1905.73 271.438 1904.19 271.312 1902.59 271.312C1897.38 271.312 1893.86 273.312 1892.05 277.312V312H1880.66V261.281H1891.53L1891.81 266.953C1894.56 262.547 1898.38 260.344 1903.25 260.344C1904.88 260.344 1906.22 260.562 1907.28 261L1907.23 271.688ZM1926.55 312H1915.16V261.281H1926.55V312ZM1914.45 248.109C1914.45 246.359 1915 244.906 1916.09 243.75C1917.22 242.594 1918.81 242.016 1920.88 242.016C1922.94 242.016 1924.53 242.594 1925.66 243.75C1926.78 244.906 1927.34 246.359 1927.34 248.109C1927.34 249.828 1926.78 251.266 1925.66 252.422C1924.53 253.547 1922.94 254.109 1920.88 254.109C1918.81 254.109 1917.22 253.547 1916.09 252.422C1915 251.266 1914.45 249.828 1914.45 248.109ZM1969.3 312C1968.8 311.031 1968.36 309.453 1967.98 307.266C1964.36 311.047 1959.92 312.938 1954.67 312.938C1949.58 312.938 1945.42 311.484 1942.2 308.578C1938.98 305.672 1937.38 302.078 1937.38 297.797C1937.38 292.391 1939.38 288.25 1943.38 285.375C1947.41 282.469 1953.16 281.016 1960.62 281.016H1967.61V277.688C1967.61 275.062 1966.88 272.969 1965.41 271.406C1963.94 269.812 1961.7 269.016 1958.7 269.016C1956.11 269.016 1953.98 269.672 1952.33 270.984C1950.67 272.266 1949.84 273.906 1949.84 275.906H1938.45C1938.45 273.125 1939.38 270.531 1941.22 268.125C1943.06 265.688 1945.56 263.781 1948.72 262.406C1951.91 261.031 1955.45 260.344 1959.36 260.344C1965.3 260.344 1970.03 261.844 1973.56 264.844C1977.09 267.812 1978.91 272 1979 277.406V300.281C1979 304.844 1979.64 308.484 1980.92 311.203V312H1969.3ZM1956.78 303.797C1959.03 303.797 1961.14 303.25 1963.11 302.156C1965.11 301.062 1966.61 299.594 1967.61 297.75V288.188H1961.47C1957.25 288.188 1954.08 288.922 1951.95 290.391C1949.83 291.859 1948.77 293.938 1948.77 296.625C1948.77 298.812 1949.48 300.562 1950.92 301.875C1952.39 303.156 1954.34 303.797 1956.78 303.797ZM2005.2 248.953V261.281H2014.16V269.719H2005.2V298.031C2005.2 299.969 2005.58 301.375 2006.33 302.25C2007.11 303.094 2008.48 303.516 2010.45 303.516C2011.77 303.516 2013.09 303.359 2014.44 303.047V311.859C2011.84 312.578 2009.34 312.938 2006.94 312.938C1998.19 312.938 1993.81 308.109 1993.81 298.453V269.719H1985.47V261.281H1993.81V248.953H2005.2ZM2035.02 312H2023.62V261.281H2035.02V312ZM2022.92 248.109C2022.92 246.359 2023.47 244.906 2024.56 243.75C2025.69 242.594 2027.28 242.016 2029.34 242.016C2031.41 242.016 2033 242.594 2034.12 243.75C2035.25 244.906 2035.81 246.359 2035.81 248.109C2035.81 249.828 2035.25 251.266 2034.12 252.422C2033 253.547 2031.41 254.109 2029.34 254.109C2027.28 254.109 2025.69 253.547 2024.56 252.422C2023.47 251.266 2022.92 249.828 2022.92 248.109ZM2045.33 286.172C2045.33 281.203 2046.31 276.734 2048.28 272.766C2050.25 268.766 2053.02 265.703 2056.58 263.578C2060.14 261.422 2064.23 260.344 2068.86 260.344C2075.7 260.344 2081.25 262.547 2085.5 266.953C2089.78 271.359 2092.09 277.203 2092.44 284.484L2092.48 287.156C2092.48 292.156 2091.52 296.625 2089.58 300.562C2087.67 304.5 2084.92 307.547 2081.33 309.703C2077.77 311.859 2073.64 312.938 2068.95 312.938C2061.8 312.938 2056.06 310.562 2051.75 305.812C2047.47 301.031 2045.33 294.672 2045.33 286.734V286.172ZM2056.72 287.156C2056.72 292.375 2057.8 296.469 2059.95 299.438C2062.11 302.375 2065.11 303.844 2068.95 303.844C2072.8 303.844 2075.78 302.344 2077.91 299.344C2080.06 296.344 2081.14 291.953 2081.14 286.172C2081.14 281.047 2080.03 276.984 2077.81 273.984C2075.62 270.984 2072.64 269.484 2068.86 269.484C2065.14 269.484 2062.19 270.969 2060 273.938C2057.81 276.875 2056.72 281.281 2056.72 287.156ZM2112.69 261.281L2113.02 267.141C2116.77 262.609 2121.69 260.344 2127.78 260.344C2138.34 260.344 2143.72 266.391 2143.91 278.484V312H2132.52V279.141C2132.52 275.922 2131.81 273.547 2130.41 272.016C2129.03 270.453 2126.77 269.672 2123.61 269.672C2119.02 269.672 2115.59 271.75 2113.34 275.906V312H2101.95V261.281H2112.69Z" fill="white"/>
<path d="M1973.39 865.688C1971.89 865.438 1970.34 865.312 1968.75 865.312C1963.53 865.312 1960.02 867.312 1958.2 871.312V906H1946.81V855.281H1957.69L1957.97 860.953C1960.72 856.547 1964.53 854.344 1969.41 854.344C1971.03 854.344 1972.38 854.562 1973.44 855L1973.39 865.688ZM2001.98 906.938C1994.77 906.938 1988.91 904.672 1984.41 900.141C1979.94 895.578 1977.7 889.516 1977.7 881.953V880.547C1977.7 875.484 1978.67 870.969 1980.61 867C1982.58 863 1985.33 859.891 1988.86 857.672C1992.39 855.453 1996.33 854.344 2000.67 854.344C2007.58 854.344 2012.91 856.547 2016.66 860.953C2020.44 865.359 2022.33 871.594 2022.33 879.656V884.25H1989.19C1989.53 888.438 1990.92 891.75 1993.36 894.188C1995.83 896.625 1998.92 897.844 2002.64 897.844C2007.86 897.844 2012.11 895.734 2015.39 891.516L2021.53 897.375C2019.5 900.406 2016.78 902.766 2013.38 904.453C2010 906.109 2006.2 906.938 2001.98 906.938ZM2000.62 863.484C1997.5 863.484 1994.97 864.578 1993.03 866.766C1991.12 868.953 1989.91 872 1989.38 875.906H2011.08V875.062C2010.83 871.25 2009.81 868.375 2008.03 866.438C2006.25 864.469 2003.78 863.484 2000.62 863.484ZM2075.62 881.156C2075.62 889 2073.84 895.266 2070.28 899.953C2066.72 904.609 2061.94 906.938 2055.94 906.938C2050.38 906.938 2045.92 905.109 2042.58 901.453V925.5H2031.19V855.281H2041.69L2042.16 860.438C2045.5 856.375 2050.05 854.344 2055.8 854.344C2061.98 854.344 2066.83 856.656 2070.33 861.281C2073.86 865.875 2075.62 872.266 2075.62 880.453V881.156ZM2064.28 880.172C2064.28 875.109 2063.27 871.094 2061.23 868.125C2059.23 865.156 2056.36 863.672 2052.61 863.672C2047.95 863.672 2044.61 865.594 2042.58 869.438V891.938C2044.64 895.875 2048.02 897.844 2052.7 897.844C2056.33 897.844 2059.16 896.391 2061.19 893.484C2063.25 890.547 2064.28 886.109 2064.28 880.172ZM2115.61 906C2115.11 905.031 2114.67 903.453 2114.3 901.266C2110.67 905.047 2106.23 906.938 2100.98 906.938C2095.89 906.938 2091.73 905.484 2088.52 902.578C2085.3 899.672 2083.69 896.078 2083.69 891.797C2083.69 886.391 2085.69 882.25 2089.69 879.375C2093.72 876.469 2099.47 875.016 2106.94 875.016H2113.92V871.688C2113.92 869.062 2113.19 866.969 2111.72 865.406C2110.25 863.812 2108.02 863.016 2105.02 863.016C2102.42 863.016 2100.3 863.672 2098.64 864.984C2096.98 866.266 2096.16 867.906 2096.16 869.906H2084.77C2084.77 867.125 2085.69 864.531 2087.53 862.125C2089.38 859.688 2091.88 857.781 2095.03 856.406C2098.22 855.031 2101.77 854.344 2105.67 854.344C2111.61 854.344 2116.34 855.844 2119.88 858.844C2123.41 861.812 2125.22 866 2125.31 871.406V894.281C2125.31 898.844 2125.95 902.484 2127.23 905.203V906H2115.61ZM2103.09 897.797C2105.34 897.797 2107.45 897.25 2109.42 896.156C2111.42 895.062 2112.92 893.594 2113.92 891.75V882.188H2107.78C2103.56 882.188 2100.39 882.922 2098.27 884.391C2096.14 885.859 2095.08 887.938 2095.08 890.625C2095.08 892.812 2095.8 894.562 2097.23 895.875C2098.7 897.156 2100.66 897.797 2103.09 897.797ZM2151.52 842.953V855.281H2160.47V863.719H2151.52V892.031C2151.52 893.969 2151.89 895.375 2152.64 896.25C2153.42 897.094 2154.8 897.516 2156.77 897.516C2158.08 897.516 2159.41 897.359 2160.75 897.047V905.859C2158.16 906.578 2155.66 906.938 2153.25 906.938C2144.5 906.938 2140.12 902.109 2140.12 892.453V863.719H2131.78V855.281H2140.12V842.953H2151.52ZM2195.77 865.688C2194.27 865.438 2192.72 865.312 2191.12 865.312C2185.91 865.312 2182.39 867.312 2180.58 871.312V906H2169.19V855.281H2180.06L2180.34 860.953C2183.09 856.547 2186.91 854.344 2191.78 854.344C2193.41 854.344 2194.75 854.562 2195.81 855L2195.77 865.688ZM2215.08 906H2203.69V855.281H2215.08V906ZM2202.98 842.109C2202.98 840.359 2203.53 838.906 2204.62 837.75C2205.75 836.594 2207.34 836.016 2209.41 836.016C2211.47 836.016 2213.06 836.594 2214.19 837.75C2215.31 838.906 2215.88 840.359 2215.88 842.109C2215.88 843.828 2215.31 845.266 2214.19 846.422C2213.06 847.547 2211.47 848.109 2209.41 848.109C2207.34 848.109 2205.75 847.547 2204.62 846.422C2203.53 845.266 2202.98 843.828 2202.98 842.109ZM2257.83 906C2257.33 905.031 2256.89 903.453 2256.52 901.266C2252.89 905.047 2248.45 906.938 2243.2 906.938C2238.11 906.938 2233.95 905.484 2230.73 902.578C2227.52 899.672 2225.91 896.078 2225.91 891.797C2225.91 886.391 2227.91 882.25 2231.91 879.375C2235.94 876.469 2241.69 875.016 2249.16 875.016H2256.14V871.688C2256.14 869.062 2255.41 866.969 2253.94 865.406C2252.47 863.812 2250.23 863.016 2247.23 863.016C2244.64 863.016 2242.52 863.672 2240.86 864.984C2239.2 866.266 2238.38 867.906 2238.38 869.906H2226.98C2226.98 867.125 2227.91 864.531 2229.75 862.125C2231.59 859.688 2234.09 857.781 2237.25 856.406C2240.44 855.031 2243.98 854.344 2247.89 854.344C2253.83 854.344 2258.56 855.844 2262.09 858.844C2265.62 861.812 2267.44 866 2267.53 871.406V894.281C2267.53 898.844 2268.17 902.484 2269.45 905.203V906H2257.83ZM2245.31 897.797C2247.56 897.797 2249.67 897.25 2251.64 896.156C2253.64 895.062 2255.14 893.594 2256.14 891.75V882.188H2250C2245.78 882.188 2242.61 882.922 2240.48 884.391C2238.36 885.859 2237.3 887.938 2237.3 890.625C2237.3 892.812 2238.02 894.562 2239.45 895.875C2240.92 897.156 2242.88 897.797 2245.31 897.797ZM2293.73 842.953V855.281H2302.69V863.719H2293.73V892.031C2293.73 893.969 2294.11 895.375 2294.86 896.25C2295.64 897.094 2297.02 897.516 2298.98 897.516C2300.3 897.516 2301.62 897.359 2302.97 897.047V905.859C2300.38 906.578 2297.88 906.938 2295.47 906.938C2286.72 906.938 2282.34 902.109 2282.34 892.453V863.719H2274V855.281H2282.34V842.953H2293.73ZM2323.55 906H2312.16V855.281H2323.55V906ZM2311.45 842.109C2311.45 840.359 2312 838.906 2313.09 837.75C2314.22 836.594 2315.81 836.016 2317.88 836.016C2319.94 836.016 2321.53 836.594 2322.66 837.75C2323.78 838.906 2324.34 840.359 2324.34 842.109C2324.34 843.828 2323.78 845.266 2322.66 846.422C2321.53 847.547 2319.94 848.109 2317.88 848.109C2315.81 848.109 2314.22 847.547 2313.09 846.422C2312 845.266 2311.45 843.828 2311.45 842.109ZM2333.86 880.172C2333.86 875.203 2334.84 870.734 2336.81 866.766C2338.78 862.766 2341.55 859.703 2345.11 857.578C2348.67 855.422 2352.77 854.344 2357.39 854.344C2364.23 854.344 2369.78 856.547 2374.03 860.953C2378.31 865.359 2380.62 871.203 2380.97 878.484L2381.02 881.156C2381.02 886.156 2380.05 890.625 2378.11 894.562C2376.2 898.5 2373.45 901.547 2369.86 903.703C2366.3 905.859 2362.17 906.938 2357.48 906.938C2350.33 906.938 2344.59 904.562 2340.28 899.812C2336 895.031 2333.86 888.672 2333.86 880.734V880.172ZM2345.25 881.156C2345.25 886.375 2346.33 890.469 2348.48 893.438C2350.64 896.375 2353.64 897.844 2357.48 897.844C2361.33 897.844 2364.31 896.344 2366.44 893.344C2368.59 890.344 2369.67 885.953 2369.67 880.172C2369.67 875.047 2368.56 870.984 2366.34 867.984C2364.16 864.984 2361.17 863.484 2357.39 863.484C2353.67 863.484 2350.72 864.969 2348.53 867.938C2346.34 870.875 2345.25 875.281 2345.25 881.156ZM2401.22 855.281L2401.55 861.141C2405.3 856.609 2410.22 854.344 2416.31 854.344C2426.88 854.344 2432.25 860.391 2432.44 872.484V906H2421.05V873.141C2421.05 869.922 2420.34 867.547 2418.94 866.016C2417.56 864.453 2415.3 863.672 2412.14 863.672C2407.55 863.672 2404.12 865.75 2401.88 869.906V906H2390.48V855.281H2401.22Z" fill="white"/>
<defs>
<filter id="filter0_d" x="671.91" y="423.043" width="416.883" height="130.887" filterUnits="userSpaceOnUse" color-interpolation-filters="sRGB">
<feFlood flood-opacity="0" result="BackgroundImageFix"/>
<feColorMatrix in="SourceAlpha" type="matrix" values="0 0 0 0 0 0 0 0 0 0 0 0 0 0 0 0 0 0 127 0"/>
<feOffset dy="4"/>
<feGaussianBlur stdDeviation="2"/>
<feColorMatrix type="matrix" values="0 0 0 0 0 0 0 0 0 0 0 0 0 0 0 0 0 0 0.25 0"/>
<feBlend mode="normal" in2="BackgroundImageFix" result="effect1_dropShadow"/>
<feBlend mode="normal" in="SourceGraphic" in2="effect1_dropShadow" result="shape"/>
</filter>
</defs>
</svg>
