<svg viewBox="0 0 1210 1210" fill="none" xmlns="http://www.w3.org/2000/svg">
<rect x="25.5" y="25.7197" width="1158" height="1158" rx="34.5" fill="#F1C40F" stroke="black" stroke-width="51"/>
<circle cx="604.5" cy="604.72" r="87.5" fill="black"/>
<rect x="442" y="254" width="45" height="240" rx="22.5" fill="black"/>
<rect width="45" height="240" rx="22.5" transform="matrix(-4.37114e-08 1 1 4.37114e-08 247 448)" fill="black"/>
<rect width="45" height="240" rx="22.5" transform="matrix(-4.37114e-08 1 1 4.37114e-08 727 448)" fill="black"/>
<rect width="45" height="477.88" rx="22.5" transform="matrix(0.707107 0.707107 0.707107 -0.707107 753.636 434.482)" fill="black"/>
<rect x="753.636" y="782.389" width="45" height="477.88" rx="22.5" transform="rotate(-45 753.636 782.389)" fill="black"/>
<rect x="91.6362" y="128.389" width="45" height="477.88" rx="22.5" transform="rotate(-45 91.6362 128.389)" fill="black"/>
<rect width="45" height="477.88" rx="22.5" transform="matrix(0.707107 0.707107 0.707107 -0.707107 91.6362 1085.48)" fill="black"/>
<rect width="45" height="240" rx="22.5" transform="matrix(-4.37114e-08 1 1 4.37114e-08 247 722)" fill="black"/>
<rect width="45" height="240" rx="22.5" transform="matrix(-4.37114e-08 1 1 4.37114e-08 727 722)" fill="black"/>
<rect x="727" y="254" width="45" height="240" rx="22.5" fill="black"/>
<rect x="725" y="722" width="45" height="240" rx="22.5" fill="black"/>
<rect x="442" y="722" width="45" height="240" rx="22.5" fill="black"/>
</svg>
