<svg viewBox="0 0 4175 1658" fill="none" xmlns="http://www.w3.org/2000/svg">
<g opacity="0.25">
<circle cx="2729.12" cy="1454.34" r="101.041" transform="rotate(-180 2729.12 1454.34)" fill="white" stroke="white" stroke-width="10"/>
<circle cx="2752.17" cy="728.19" r="101.041" transform="rotate(-180 2752.17 728.19)" fill="white" stroke="white" stroke-width="10"/>
<circle cx="2892.79" cy="327.078" r="101.041" transform="rotate(-180 2892.79 327.078)" fill="white" stroke="white" stroke-width="10"/>
<circle cx="3342.31" cy="423.9" r="101.041" transform="rotate(-180 3342.31 423.9)" fill="white" stroke="white" stroke-width="10"/>
<circle cx="2517.04" cy="1138.52" r="101.041" transform="rotate(-180 2517.04 1138.52)" fill="white" stroke="white" stroke-width="10"/>
<circle cx="3130.23" cy="1170.8" r="101.041" transform="rotate(-180 3130.23 1170.8)" fill="white" stroke="white" stroke-width="10"/>
<circle cx="3206.3" cy="808.873" r="101.041" transform="rotate(-180 3206.3 808.873)" fill="white" stroke="white" stroke-width="10"/>
<circle cx="3667.35" cy="1004.82" r="101.041" transform="rotate(-180 3667.35 1004.82)" fill="white" stroke="white" stroke-width="10"/>
<circle cx="3833.33" cy="596.791" r="101.041" transform="rotate(-180 3833.33 596.791)" fill="white" stroke="white" stroke-width="10"/>
<circle cx="4068.46" cy="221.038" r="101.041" transform="rotate(-180 4068.46 221.038)" fill="white" stroke="white" stroke-width="10"/>
<path d="M2575.47 1226.23C2574.55 1223.31 2578.08 1221.04 2580.35 1223.1L2628.82 1267.19C2630.29 1268.52 2630.09 1270.87 2628.42 1271.94L2599.71 1290.32C2598.05 1291.39 2595.83 1290.59 2595.23 1288.7L2575.47 1226.23Z" fill="white"/>
<path d="M3096.87 855.652C3099.87 855.027 3101.77 858.773 3099.49 860.821L3050.74 904.606C3049.27 905.926 3046.95 905.491 3046.06 903.729L3030.66 873.311C3029.77 871.55 3030.79 869.422 3032.72 869.019L3096.87 855.652Z" fill="white"/>
<path d="M3959.13 219.592C3962.13 220.193 3962.41 224.383 3959.51 225.373L3897.5 246.551C3895.63 247.189 3893.67 245.879 3893.54 243.909L3891.29 209.89C3891.16 207.92 3892.94 206.363 3894.87 206.75L3959.13 219.592Z" fill="white"/>
<path d="M3554.44 1037.22C3556.49 1037.21 3557.22 1039.91 3555.46 1040.95L3494.56 1076.55C3493.42 1077.21 3491.97 1076.62 3491.62 1075.35L3481.98 1039.93C3481.63 1038.66 3482.58 1037.41 3483.9 1037.41L3554.44 1037.22Z" fill="white"/>
<path d="M3787.9 697.778C3789.1 696.12 3791.72 697.111 3791.52 699.144L3784.58 769.345C3784.45 770.655 3783.12 771.485 3781.89 771.019L3747.56 758.034C3746.33 757.568 3745.87 756.061 3746.64 754.993L3787.9 697.778Z" fill="white"/>
<path d="M4007.99 312.278C4009.5 310.9 4011.86 312.404 4011.25 314.354L3990.12 381.658C3989.73 382.914 3988.25 383.453 3987.14 382.746L3956.18 363.022C3955.07 362.314 3954.94 360.746 3955.91 359.858L4007.99 312.278Z" fill="white"/>
<path d="M3390.42 516.211C3389.87 514.243 3392.28 512.814 3393.75 514.24L3444.29 563.448C3445.23 564.366 3445.05 565.929 3443.92 566.601L3412.35 585.334C3411.22 586.005 3409.76 585.42 3409.41 584.152L3390.42 516.211Z" fill="white"/>
<path d="M3303.71 522.192C3304.81 520.471 3307.48 521.313 3307.39 523.354L3304.39 593.834C3304.34 595.149 3303.05 596.052 3301.79 595.656L3266.79 584.611C3265.54 584.215 3265 582.736 3265.71 581.627L3303.71 522.192Z" fill="white"/>
<path d="M3243.09 470.954C3245.08 470.503 3246.39 472.978 3244.89 474.37L3193.23 522.405C3192.27 523.301 3190.71 523.038 3190.1 521.874L3172.96 489.418C3172.34 488.254 3173 486.824 3174.29 486.534L3243.09 470.954Z" fill="white"/>
<path d="M2854.25 427.921C2855.41 426.245 2858.05 427.193 2857.88 429.229L2852.09 499.534C2851.98 500.845 2850.66 501.697 2849.42 501.251L2814.88 488.824C2813.64 488.378 2813.16 486.879 2813.92 485.799L2854.25 427.921Z" fill="white"/>
<path d="M3957.16 248.527C3959.2 248.459 3960.01 251.136 3958.28 252.221L3898.5 289.662C3897.38 290.36 3895.91 289.809 3895.52 288.551L3884.8 253.446C3884.42 252.187 3885.34 250.907 3886.65 250.863L3957.16 248.527Z" fill="white"/>
<rect x="2809.7" y="1408.47" width="16.1367" height="214.289" transform="rotate(-125.714 2809.7 1408.47)" fill="white"/>
<rect x="2603.32" y="1105.01" width="16.1367" height="499.314" transform="rotate(-115.529 2603.32 1105.01)" fill="white"/>
<rect x="2977.88" y="331.634" width="16.1367" height="949.518" transform="rotate(-95.8661 2977.88 331.634)" fill="white"/>
<rect x="2570.74" y="1055.59" width="16.1367" height="204.245" transform="rotate(-150.442 2570.74 1055.59)" fill="white"/>
<rect x="3219.14" y="1149.6" width="16.1367" height="299.275" transform="rotate(-107.279 3219.14 1149.6)" fill="white"/>
<rect x="3707.18" y="923.925" width="16.1367" height="211.908" transform="rotate(-157.806 3707.18 923.925)" fill="white"/>
<rect x="3886.71" y="526.021" width="16.1367" height="188.354" transform="rotate(-148.374 3886.71 526.021)" fill="white"/>
<rect x="2789.35" y="642.978" width="16.1367" height="156.181" transform="rotate(-160.271 2789.35 642.978)" fill="white"/>
<rect x="2834.07" y="692.013" width="16.1367" height="407.184" transform="rotate(-117.118 2834.07 692.013)" fill="white"/>
<rect x="3434.8" y="406.607" width="16.1367" height="481.519" transform="rotate(-105.836 3434.8 406.607)" fill="white"/>
<rect x="3242.31" y="728.508" width="16.1367" height="180.726" transform="rotate(-160.475 3242.31 728.508)" fill="white"/>
<rect x="3631.44" y="920.417" width="16.1367" height="410.977" transform="rotate(150.368 3631.44 920.417)" fill="white"/>
<rect x="2687.96" y="1376.03" width="16.1367" height="128.027" transform="rotate(146.128 2687.96 1376.03)" fill="white"/>
<path d="M2625.55 1501.08C2628.46 1500.12 2630.77 1503.62 2628.74 1505.92L2585.31 1554.98C2584 1556.46 2581.65 1556.29 2580.56 1554.65L2561.79 1526.19C2560.7 1524.54 2561.48 1522.31 2563.35 1521.69L2625.55 1501.08Z" fill="white"/>
<rect x="2526.07" y="1581.88" width="16.1367" height="68.7334" transform="rotate(-124.647 2526.07 1581.88)" fill="white"/>
<path d="M3033.57 1235.64C3035.5 1234.98 3037.07 1237.29 3035.74 1238.84L2989.62 1292.22C2988.76 1293.21 2987.18 1293.12 2986.45 1292.03L2965.87 1261.64C2965.14 1260.55 2965.63 1259.05 2966.88 1258.62L3033.57 1235.64Z" fill="white"/>
<path d="M2693.59 816.26C2695.79 814.123 2699.4 816.268 2698.57 819.22L2680.9 882.319C2680.37 884.22 2678.18 885.098 2676.48 884.089L2647.17 866.672C2645.48 865.663 2645.2 863.318 2646.62 861.942L2693.59 816.26Z" fill="white"/>
</g>
<g opacity="0.25">
<path d="M1414.13 778.817L1301.75 723.946L1414.03 875.045L1430.9 852.343V770.605L1414.13 778.817Z" fill="#708299"/>
<path d="M1414.03 470.088L1285.07 701.495H1543L1414.03 470.088Z" fill="#708299"/>
<path d="M1543 701.837L1414.03 470.088V701.837H1543Z" fill="#68788E"/>
<path d="M1375.02 598.612H1400.33V623.922H1375.02V598.612Z" fill="white"/>
<path d="M1414.03 638.653L1413.53 638.412L1285.08 701.687H1285.19L1413.64 764.961L1414.15 764.72L1430.9 756.521V646.915L1414.03 638.653Z" fill="#3C3C47"/>
<path d="M1375.02 550.738H1400.33V576.048H1375.02V550.738Z" fill="white"/>
<path d="M1414.13 778.818L1414.03 875.046L1526.4 723.845L1414.13 778.818Z" fill="#68788E"/>
<path d="M1542.76 701.687L1414.03 638.653L1413.53 638.412L1413.64 764.961L1414.15 764.72L1542.87 701.687H1542.76Z" fill="#31313B"/>
<path d="M1271.59 1446.19L1159.2 1391.32L1271.49 1542.41L1288.36 1519.71V1437.97L1271.59 1446.19Z" fill="#708299"/>
<path d="M1271.49 1137.46L1142.52 1368.86H1400.46L1271.49 1137.46Z" fill="#708299"/>
<path d="M1400.46 1369.21L1271.49 1137.46V1369.21H1400.46Z" fill="#68788E"/>
<path d="M1232.47 1265.98H1257.78V1291.29H1232.47V1265.98Z" fill="white"/>
<path d="M1271.49 1306.02L1270.98 1305.78L1142.53 1369.06H1142.65L1271.09 1432.33L1271.6 1432.09L1288.36 1423.89V1314.28L1271.49 1306.02Z" fill="#3C3C47"/>
<path d="M1232.47 1218.11H1257.78V1243.42H1232.47V1218.11Z" fill="white"/>
<path d="M1271.59 1446.19L1271.49 1542.41L1383.85 1391.21L1271.59 1446.19Z" fill="#68788E"/>
<path d="M1400.21 1369.06L1271.49 1306.02L1270.98 1305.78L1271.09 1432.33L1271.6 1432.09L1400.33 1369.06H1400.21Z" fill="#31313B"/>
<path d="M599.898 1108.18L487.512 1053.31L599.796 1204.41L616.666 1181.71V1099.97L599.898 1108.18Z" fill="#708299"/>
<path d="M599.796 799.453L470.831 1030.86H728.765L599.796 799.453Z" fill="#708299"/>
<path d="M728.765 1031.2L599.797 799.453V1031.2H728.765Z" fill="#68788E"/>
<path d="M560.781 927.978H586.091V953.287H560.781V927.978Z" fill="white"/>
<path d="M599.797 968.018L599.29 967.777L470.844 1031.05H470.958L599.404 1094.33L599.911 1094.09L616.666 1085.89V976.28L599.797 968.018Z" fill="#3C3C47"/>
<path d="M560.781 880.104H586.091V905.413H560.781V880.104Z" fill="white"/>
<path d="M599.899 1108.18L599.797 1204.41L712.162 1053.21L599.899 1108.18Z" fill="#68788E"/>
<path d="M728.524 1031.05L599.797 968.018L599.29 967.777L599.404 1094.33L599.911 1094.09L728.639 1031.05H728.524Z" fill="#31313B"/>
<path d="M742.443 466.729L630.057 411.858L742.341 562.958L759.21 540.255V458.517L742.443 466.729Z" fill="#708299"/>
<path d="M742.341 158L613.376 389.407H871.31L742.341 158Z" fill="#708299"/>
<path d="M871.31 389.75L742.342 158V389.75H871.31Z" fill="#68788E"/>
<path d="M703.326 286.524H728.636V311.834H703.326V286.524Z" fill="white"/>
<path d="M742.342 326.564L741.835 326.323L613.389 389.598H613.503L741.949 452.873L742.456 452.632L759.211 444.432V334.826L742.342 326.564Z" fill="#3C3C47"/>
<path d="M703.326 238.65H728.636V263.96H703.326V238.65Z" fill="white"/>
<path d="M742.444 466.73L742.342 562.958L854.707 411.757L742.444 466.73Z" fill="#68788E"/>
<path d="M871.069 389.598L742.342 326.564L741.835 326.323L741.949 452.873L742.456 452.632L871.183 389.598H871.069Z" fill="#31313B"/>
<path d="M129.067 729.142L16.6807 674.271L128.965 825.371L145.834 802.668V720.93L129.067 729.142Z" fill="#708299"/>
<path d="M128.965 420.413L0 651.82H257.934L128.965 420.413Z" fill="#708299"/>
<path d="M257.933 652.163L128.965 420.413V652.163H257.933Z" fill="#68788E"/>
<path d="M89.9502 548.938H115.26V574.247H89.9502V548.938Z" fill="white"/>
<path d="M128.966 588.978L128.459 588.737L0.0126953 652.012H0.12701L128.573 715.287L129.08 715.046L145.835 706.846V597.24L128.966 588.978Z" fill="#3C3C47"/>
<path d="M89.9502 501.063H115.26V526.373H89.9502V501.063Z" fill="white"/>
<path d="M129.067 729.143L128.965 825.371L241.33 674.17L129.067 729.143Z" fill="#68788E"/>
<path d="M257.693 652.012L128.966 588.978L128.459 588.737L128.573 715.287L129.08 715.046L257.807 652.012H257.693Z" fill="#31313B"/>
<path d="M210.06 1561.74L97.6729 1506.86L209.958 1657.96L226.827 1635.26V1553.52L210.06 1561.74Z" fill="#708299"/>
<path d="M209.958 1253.01L80.9922 1484.41H338.926L209.958 1253.01Z" fill="#708299"/>
<path d="M338.926 1484.76L209.958 1253.01V1484.76H338.926Z" fill="#68788E"/>
<path d="M170.942 1381.53H196.252V1406.84H170.942V1381.53Z" fill="white"/>
<path d="M209.958 1421.57L209.451 1421.33L81.0049 1484.6H81.1192L209.566 1547.88L210.072 1547.64L226.827 1539.44V1429.83L209.958 1421.57Z" fill="#3C3C47"/>
<path d="M170.942 1333.66H196.252V1358.97H170.942V1333.66Z" fill="white"/>
<path d="M210.06 1561.74L209.958 1657.96L322.323 1506.76L210.06 1561.74Z" fill="#68788E"/>
<path d="M338.685 1484.6L209.958 1421.57L209.451 1421.33L209.565 1547.88L210.072 1547.64L338.8 1484.6H338.685Z" fill="#31313B"/>
<rect x="242.975" y="730.495" width="21.5977" height="316.641" rx="10.7989" transform="rotate(-45 242.975 730.495)" fill="white"/>
<rect x="119.177" y="852.741" width="21.5977" height="377.739" rx="10.7989" transform="rotate(-10.4531 119.177 852.741)" fill="white"/>
<rect x="906.645" y="432.48" width="21.5977" height="400.896" rx="10.7989" transform="rotate(-60 906.645 432.48)" fill="white"/>
<rect x="362.363" y="1478.75" width="21.5977" height="748.313" rx="10.7989" transform="rotate(-96.9704 362.363 1478.75)" fill="white"/>
<rect x="733.243" y="1057.89" width="21.5977" height="453.974" rx="10.7989" transform="rotate(-60 733.243 1057.89)" fill="white"/>
<rect x="1397.79" y="888.487" width="21.5977" height="264.133" rx="10.7989" transform="rotate(29.0344 1397.79 888.487)" fill="white"/>
<rect x="733.839" y="570.367" width="21.5977" height="246.446" rx="10.7989" transform="rotate(33.4074 733.839 570.367)" fill="white"/>
<rect x="486.475" y="1132.89" width="24.8113" height="283.115" rx="12.4057" transform="rotate(45 486.475 1132.89)" fill="white"/>
<g filter="url(#filter0_d)">
<rect x="1246.11" y="731.896" width="24.8113" height="576.158" rx="12.4057" transform="rotate(75 1246.11 731.896)" fill="white"/>
</g>
<rect x="613.817" y="314.584" width="21.5977" height="449.23" rx="10.7989" transform="rotate(74.7817 613.817 314.584)" fill="white"/>
</g>
<path d="M2969 338.177C2972.14 332.654 2970.2 325.635 2964.68 322.499L2874.67 271.402C2869.15 268.266 2862.13 270.202 2858.99 275.725C2855.86 281.248 2857.79 288.268 2863.32 291.403L2943.32 336.823L2897.9 416.83C2894.77 422.353 2896.7 429.372 2902.23 432.508C2907.75 435.644 2914.77 433.708 2917.9 428.185L2969 338.177ZM933.057 903.086L2962.06 343.586L2955.94 321.414L926.943 880.914L933.057 903.086Z" fill="white"/>
<rect x="1480" y="550" width="744" height="154" rx="25" transform="rotate(-15.5088 1480 550)" fill="white"/>
<path d="M1556.73 642.622L1548.32 644.954L1532.87 589.261L1517.74 600.124L1515.63 592.536L1537.08 576.905L1538.39 576.541L1556.73 642.622ZM1581.03 631.159C1580.63 629.714 1580.72 628.393 1581.29 627.195C1581.9 625.989 1583.06 625.148 1584.77 624.672C1586.49 624.195 1587.92 624.318 1589.06 625.039C1590.23 625.752 1591.02 626.831 1591.42 628.277C1591.8 629.662 1591.67 630.947 1591.03 632.131C1590.41 633.306 1589.25 634.132 1587.53 634.609C1585.82 635.085 1584.39 634.978 1583.26 634.286C1582.16 633.587 1581.41 632.545 1581.03 631.159ZM1639.05 589.568C1641.77 599.354 1642.11 607.09 1640.09 612.776C1638.07 618.461 1633.51 622.289 1626.4 624.261C1619.38 626.208 1613.55 625.331 1608.89 621.63C1604.22 617.898 1600.54 611.427 1597.86 602.216L1594.76 591.059C1592.08 581.393 1591.76 573.748 1593.8 568.123C1595.83 562.498 1600.42 558.695 1607.56 556.715C1614.63 554.751 1620.48 555.579 1625.08 559.198C1629.68 562.788 1633.33 569.298 1636.04 578.728L1639.05 589.568ZM1627.53 580.459C1625.56 573.383 1623.14 568.509 1620.26 565.839C1617.37 563.138 1613.77 562.385 1609.46 563.58C1605.19 564.767 1602.52 567.243 1601.45 571.008C1600.39 574.773 1600.76 580.006 1602.55 586.708L1606.26 600.078C1608.23 607.184 1610.72 612.155 1613.71 614.989C1616.72 617.785 1620.32 618.602 1624.51 617.441C1628.63 616.296 1631.25 613.852 1632.35 610.109C1633.48 606.357 1633.14 601.036 1631.32 594.145L1627.53 580.459ZM1691 575.154C1693.71 584.941 1694.06 592.677 1692.04 598.362C1690.01 604.047 1685.45 607.876 1678.34 609.848C1671.33 611.794 1665.49 610.917 1660.83 607.216C1656.16 603.484 1652.49 597.013 1649.8 587.802L1646.7 576.645C1644.02 566.979 1643.7 559.334 1645.74 553.709C1647.78 548.084 1652.37 544.281 1659.5 542.301C1666.58 540.337 1672.42 541.165 1677.02 544.785C1681.62 548.374 1685.27 554.884 1687.99 564.314L1691 575.154ZM1679.47 566.045C1677.5 558.969 1675.08 554.096 1672.2 551.425C1669.31 548.724 1665.71 547.972 1661.41 549.166C1657.13 550.353 1654.46 552.829 1653.4 556.594C1652.34 560.359 1652.7 565.592 1654.5 572.294L1658.21 585.664C1660.18 592.77 1662.66 597.741 1665.65 600.575C1668.67 603.371 1672.26 604.189 1676.45 603.027C1680.58 601.882 1683.19 599.438 1684.29 595.695C1685.42 591.943 1685.08 586.622 1683.27 579.731L1679.47 566.045ZM1763.34 552.551L1734.83 560.46L1741.3 583.767L1774.41 574.579L1776.38 581.671L1734.6 593.264L1716.35 527.499L1757.68 516.031L1759.66 523.168L1727 532.23L1732.87 553.368L1761.37 545.46L1763.34 552.551ZM1817.25 507.187L1796.11 513.053L1812.38 571.681L1803.75 574.075L1787.48 515.447L1766.39 521.3L1764.41 514.164L1815.27 500.051L1817.25 507.187ZM1893.82 549.083L1885.1 551.502L1876.66 521.104L1843.51 530.304L1851.94 560.702L1843.27 563.108L1825.02 497.343L1833.7 494.937L1841.54 523.212L1874.7 514.012L1866.85 485.737L1875.57 483.318L1893.82 549.083ZM1911.27 558.346L1905.63 556.41C1907.36 551.68 1907.71 547.206 1906.67 542.987L1904.58 535.444L1912.75 533.175L1914.57 539.724C1915.41 542.766 1915.5 546.016 1914.84 549.475C1914.21 552.926 1913.02 555.883 1911.27 558.346ZM1950.05 493.686L1956.33 491.944C1960.26 490.789 1963.07 488.889 1964.77 486.245C1966.47 483.601 1966.84 480.562 1965.89 477.129C1963.75 469.421 1958.84 466.632 1951.16 468.762C1947.55 469.765 1944.95 471.606 1943.35 474.286C1941.78 476.926 1941.47 479.948 1942.42 483.351L1934.06 485.67C1932.61 480.46 1933.31 475.613 1936.15 471.127C1939.02 466.603 1943.38 463.526 1949.26 461.897C1955.46 460.176 1960.78 460.467 1965.21 462.772C1969.65 465.076 1972.67 469.15 1974.29 474.991C1975.09 477.852 1974.92 480.881 1973.8 484.079C1972.71 487.269 1970.75 489.969 1967.92 492.18C1971.85 492.322 1975.17 493.446 1977.86 495.552C1980.58 497.651 1982.47 500.612 1983.54 504.436C1985.17 510.338 1984.55 515.556 1981.65 520.088C1978.76 524.62 1974.22 527.743 1968.05 529.456C1961.88 531.169 1956.39 530.893 1951.57 528.629C1946.79 526.356 1943.64 522.479 1942.12 516.999L1950.52 514.667C1951.48 518.13 1953.38 520.587 1956.22 522.038C1959.05 523.489 1962.37 523.689 1966.16 522.636C1970.19 521.516 1972.99 519.606 1974.54 516.904C1976.09 514.203 1976.32 510.88 1975.23 506.936C1974.17 503.112 1972.18 500.501 1969.26 499.106C1966.34 497.71 1962.66 497.596 1958.22 498.764L1951.94 500.506L1950.05 493.686ZM2014.97 488.707C2012.89 481.209 2013 474.694 2015.29 469.161C2017.57 463.598 2021.59 460.018 2027.34 458.423C2033.06 456.835 2038.14 457.535 2042.57 460.522L2035.5 435.047L2043.85 432.728L2063.11 502.107L2055.43 504.237L2053.57 499.111C2051.36 504.133 2047.28 507.472 2041.31 509.126C2035.65 510.697 2030.39 509.661 2025.52 506.018C2020.68 502.367 2017.22 496.807 2015.15 489.34L2014.97 488.707ZM2023.59 487.337C2025.13 492.878 2027.48 496.896 2030.64 499.393C2033.79 501.89 2037.39 502.578 2041.42 501.458C2046.72 499.988 2049.93 496.535 2051.05 491.101L2044.82 468.652C2041.05 464.738 2036.57 463.5 2031.39 464.937C2027.29 466.074 2024.54 468.54 2023.13 472.337C2021.72 476.134 2021.87 481.134 2023.59 487.337ZM2106.29 490.124C2105.54 489.294 2104.67 487.687 2103.68 485.301C2100.92 490.414 2096.84 493.718 2091.45 495.214C2086.63 496.551 2082.3 496.295 2078.44 494.445C2074.61 492.557 2072.12 489.52 2070.95 485.335C2069.54 480.246 2070.37 475.766 2073.45 471.896C2076.55 467.988 2081.61 465.06 2088.62 463.113L2096.76 460.857L2095.69 457.018C2094.88 454.097 2093.36 452.021 2091.14 450.789C2088.91 449.527 2086.09 449.368 2082.69 450.313C2079.71 451.14 2077.42 452.586 2075.82 454.652C2074.22 456.717 2073.71 458.819 2074.31 460.957L2065.91 463.288C2065.23 460.849 2065.44 458.262 2066.53 455.527C2067.64 452.754 2069.49 450.296 2072.07 448.152C2074.68 446 2077.77 444.431 2081.32 443.445C2086.95 441.882 2091.75 442.073 2095.73 444.018C2099.7 445.933 2102.43 449.343 2103.92 454.248L2110.16 476.741C2111.41 481.228 2112.97 484.638 2114.85 486.97L2115.05 487.693L2106.29 490.124ZM2090.65 487.603C2093.27 486.876 2095.57 485.51 2097.54 483.503C2099.51 481.496 2100.73 479.262 2101.18 476.802L2098.4 466.774L2091.85 468.592C2081.61 471.433 2077.32 475.849 2078.98 481.842C2079.71 484.462 2081.15 486.267 2083.31 487.258C2085.46 488.249 2087.91 488.364 2090.65 487.603ZM2138.3 468.057L2139.52 428.267L2148.46 425.786L2144.47 487.653C2143.68 496.627 2139.98 502.033 2133.35 503.872L2131.74 504.175L2128.46 504.452L2126.58 497.677L2128.89 497.231C2131.72 496.446 2133.76 495.264 2135 493.685C2136.28 492.098 2137.01 489.641 2137.19 486.316L2137.66 480.834L2106.82 437.342L2115.94 434.81L2138.3 468.057ZM2194.38 451.717C2193.75 449.459 2192.41 447.951 2190.35 447.192C2188.32 446.396 2185.05 446.135 2180.55 446.409C2176.09 446.676 2172.43 446.523 2169.58 445.952C2166.76 445.373 2164.5 444.377 2162.81 442.965C2161.15 441.544 2159.99 439.629 2159.32 437.22C2158.21 433.215 2158.96 429.36 2161.56 425.654C2164.2 421.939 2168.15 419.351 2173.42 417.888C2178.96 416.351 2183.84 416.536 2188.07 418.444C2192.32 420.344 2195.07 423.522 2196.31 427.979L2187.91 430.31C2187.27 428.022 2185.75 426.321 2183.33 425.208C2180.94 424.086 2178.27 423.935 2175.32 424.754C2172.28 425.598 2170.09 426.92 2168.74 428.722C2167.39 430.523 2167.01 432.492 2167.6 434.63C2168.16 436.648 2169.38 437.947 2171.26 438.528C2173.14 439.109 2176.29 439.29 2180.7 439.07C2185.15 438.842 2188.85 439.016 2191.8 439.593C2194.74 440.169 2197.09 441.204 2198.84 442.698C2200.6 444.154 2201.85 446.192 2202.57 448.812C2203.79 453.178 2203.01 457.17 2200.26 460.79C2197.49 464.379 2193.32 466.946 2187.75 468.492C2183.84 469.578 2180.18 469.847 2176.79 469.297C2173.39 468.747 2170.49 467.476 2168.09 465.483C2165.71 463.452 2164.12 460.991 2163.32 458.1L2171.67 455.781C2172.6 458.54 2174.33 460.459 2176.87 461.539C2179.43 462.58 2182.42 462.624 2185.86 461.672C2189.02 460.794 2191.37 459.46 2192.92 457.669C2194.49 455.839 2194.97 453.855 2194.38 451.717Z" fill="black"/>
<path d="M671.969 807.136L671.226 807.678L672.085 808.007C717.708 825.466 750.192 869.701 750.192 921.385C750.192 943.504 732.196 961.5 710.077 961.5H547.615C525.496 961.5 507.5 943.504 507.5 921.385C507.5 869.701 539.983 825.466 585.607 808.007L586.466 807.678L585.723 807.136C567.417 793.786 555.5 772.183 555.5 747.846C555.5 707.403 588.403 674.5 628.846 674.5C669.289 674.5 702.192 707.403 702.192 747.846C702.192 772.183 690.274 793.786 671.969 807.136ZM628.846 695.654C600.067 695.654 576.654 719.067 576.654 747.846C576.654 776.625 600.067 800.039 628.846 800.039C657.625 800.039 681.038 776.625 681.038 747.846C681.038 719.067 657.625 695.654 628.846 695.654ZM547.615 940.346H710.077C720.533 940.346 729.038 931.84 729.039 921.384C729.039 866.137 684.094 821.192 628.847 821.192C573.599 821.192 528.654 866.137 528.654 921.384C528.654 931.84 537.16 940.346 547.615 940.346Z" fill="white" stroke="white"/>
<path d="M3300.26 1249.54C3318.69 1236.1 3330.69 1214.35 3330.69 1189.85C3330.69 1149.13 3297.56 1116 3256.85 1116C3216.13 1116 3183 1149.13 3183 1189.85C3183 1214.35 3195 1236.1 3213.43 1249.54C3167.62 1267.07 3135 1311.49 3135 1363.38C3135 1385.78 3153.22 1404 3175.62 1404H3338.08C3360.47 1404 3378.69 1385.78 3378.69 1363.38C3378.69 1311.49 3346.07 1267.07 3300.26 1249.54ZM3205.15 1189.85C3205.15 1161.34 3228.34 1138.15 3256.85 1138.15C3285.35 1138.15 3308.54 1161.34 3308.54 1189.85C3308.54 1218.35 3285.35 1241.54 3256.85 1241.54C3228.34 1241.54 3205.15 1218.35 3205.15 1189.85ZM3338.08 1381.85H3175.62C3165.44 1381.85 3157.15 1373.56 3157.15 1363.38C3157.15 1308.41 3201.88 1263.69 3256.85 1263.69C3311.82 1263.69 3356.54 1308.41 3356.54 1363.38C3356.54 1373.56 3348.26 1381.85 3338.08 1381.85Z" fill="white"/>
<g filter="url(#filter1_d)">
<path d="M3197.52 1487.84C3194.17 1491.91 3189.55 1493.94 3183.64 1493.94C3178.2 1493.94 3174.05 1492.38 3171.17 1489.25C3168.33 1486.12 3166.88 1481.55 3166.81 1475.52V1442.28H3180.36V1475.05C3180.36 1480.33 3182.77 1482.97 3187.58 1482.97C3192.17 1482.97 3195.33 1481.38 3197.05 1478.19V1442.28H3210.64V1493H3197.89L3197.52 1487.84ZM3248.33 1478.98C3248.33 1477.33 3247.5 1476.03 3245.84 1475.09C3244.22 1474.12 3241.59 1473.27 3237.97 1472.52C3225.91 1469.98 3219.88 1464.86 3219.88 1457.14C3219.88 1452.64 3221.73 1448.89 3225.45 1445.89C3229.2 1442.86 3234.09 1441.34 3240.12 1441.34C3246.56 1441.34 3251.7 1442.86 3255.55 1445.89C3259.42 1448.92 3261.36 1452.86 3261.36 1457.7H3247.81C3247.81 1455.77 3247.19 1454.17 3245.94 1452.92C3244.69 1451.64 3242.73 1451 3240.08 1451C3237.8 1451 3236.03 1451.52 3234.78 1452.55C3233.53 1453.58 3232.91 1454.89 3232.91 1456.48C3232.91 1457.98 3233.61 1459.2 3235.02 1460.14C3236.45 1461.05 3238.86 1461.84 3242.23 1462.53C3245.61 1463.19 3248.45 1463.94 3250.77 1464.78C3257.92 1467.41 3261.5 1471.95 3261.5 1478.42C3261.5 1483.05 3259.52 1486.8 3255.55 1489.67C3251.58 1492.52 3246.45 1493.94 3240.17 1493.94C3235.92 1493.94 3232.14 1493.19 3228.83 1491.69C3225.55 1490.16 3222.97 1488.08 3221.09 1485.45C3219.22 1482.8 3218.28 1479.94 3218.28 1476.88H3231.12C3231.25 1479.28 3232.14 1481.12 3233.8 1482.41C3235.45 1483.69 3237.67 1484.33 3240.45 1484.33C3243.05 1484.33 3245 1483.84 3246.31 1482.88C3247.66 1481.88 3248.33 1480.58 3248.33 1478.98ZM3293.61 1493.94C3286.17 1493.94 3280.11 1491.66 3275.42 1487.09C3270.77 1482.53 3268.44 1476.45 3268.44 1468.86V1467.55C3268.44 1462.45 3269.42 1457.91 3271.39 1453.91C3273.36 1449.88 3276.14 1446.78 3279.73 1444.62C3283.36 1442.44 3287.48 1441.34 3292.11 1441.34C3299.05 1441.34 3304.5 1443.53 3308.47 1447.91C3312.47 1452.28 3314.47 1458.48 3314.47 1466.52V1472.05H3282.17C3282.61 1475.36 3283.92 1478.02 3286.11 1480.02C3288.33 1482.02 3291.12 1483.02 3294.5 1483.02C3299.72 1483.02 3303.8 1481.12 3306.73 1477.34L3313.39 1484.8C3311.36 1487.67 3308.61 1489.92 3305.14 1491.55C3301.67 1493.14 3297.83 1493.94 3293.61 1493.94ZM3292.06 1452.31C3289.38 1452.31 3287.19 1453.22 3285.5 1455.03C3283.84 1456.84 3282.78 1459.44 3282.31 1462.81H3301.16V1461.73C3301.09 1458.73 3300.28 1456.42 3298.72 1454.8C3297.16 1453.14 3294.94 1452.31 3292.06 1452.31ZM3350.7 1454.98C3348.86 1454.73 3347.23 1454.61 3345.83 1454.61C3340.7 1454.61 3337.34 1456.34 3335.75 1459.81V1493H3322.2V1442.28H3335L3335.38 1448.33C3338.09 1443.67 3341.86 1441.34 3346.67 1441.34C3348.17 1441.34 3349.58 1441.55 3350.89 1441.95L3350.7 1454.98ZM3102.83 1578.25C3102.83 1571.09 3103.78 1564.28 3105.69 1557.81C3107.59 1551.34 3110.41 1545.62 3114.12 1540.66C3117.84 1535.66 3121.88 1532.19 3126.22 1530.25L3128.84 1537.56C3124.28 1540.94 3120.72 1546.16 3118.16 1553.22C3115.59 1560.28 3114.31 1568.53 3114.31 1577.97V1579.42C3114.31 1588.89 3115.58 1597.17 3118.11 1604.27C3120.64 1611.36 3124.22 1616.66 3128.84 1620.16L3126.22 1627.33C3121.97 1625.42 3118 1622.05 3114.31 1617.2C3110.66 1612.39 3107.86 1606.83 3105.92 1600.52C3103.98 1594.2 3102.95 1587.61 3102.83 1580.73V1578.25ZM3192.92 1573.42C3192.92 1580.14 3191.73 1586.03 3189.36 1591.09C3186.98 1596.16 3183.58 1600.06 3179.14 1602.81C3174.73 1605.56 3169.67 1606.94 3163.95 1606.94C3158.3 1606.94 3153.25 1605.58 3148.81 1602.86C3144.38 1600.14 3140.94 1596.27 3138.5 1591.23C3136.06 1586.17 3134.83 1580.36 3134.8 1573.8V1570.42C3134.8 1563.7 3136 1557.8 3138.41 1552.7C3140.84 1547.58 3144.27 1543.66 3148.67 1540.94C3153.11 1538.19 3158.17 1536.81 3163.86 1536.81C3169.55 1536.81 3174.59 1538.19 3179 1540.94C3183.44 1543.66 3186.86 1547.58 3189.27 1552.7C3191.7 1557.8 3192.92 1563.69 3192.92 1570.38V1573.42ZM3178.67 1570.33C3178.67 1563.17 3177.39 1557.73 3174.83 1554.02C3172.27 1550.3 3168.61 1548.44 3163.86 1548.44C3159.14 1548.44 3155.5 1550.28 3152.94 1553.97C3150.38 1557.62 3149.08 1563 3149.05 1570.09V1573.42C3149.05 1580.39 3150.33 1585.8 3152.89 1589.64C3155.45 1593.48 3159.14 1595.41 3163.95 1595.41C3168.67 1595.41 3172.3 1593.56 3174.83 1589.88C3177.36 1586.16 3178.64 1580.75 3178.67 1573.66V1570.33ZM3247.95 1581.11C3247.95 1589.23 3246.22 1595.58 3242.75 1600.14C3239.28 1604.67 3234.44 1606.94 3228.22 1606.94C3222.72 1606.94 3218.33 1604.83 3215.05 1600.61L3214.44 1606H3202.25V1534H3215.8V1559.83C3218.92 1556.17 3223.03 1554.34 3228.12 1554.34C3234.31 1554.34 3239.16 1556.62 3242.66 1561.19C3246.19 1565.72 3247.95 1572.11 3247.95 1580.36V1581.11ZM3234.41 1580.12C3234.41 1575 3233.59 1571.27 3231.97 1568.92C3230.34 1566.55 3227.92 1565.36 3224.7 1565.36C3220.39 1565.36 3217.42 1567.12 3215.8 1570.66V1590.67C3217.45 1594.23 3220.45 1596.02 3224.8 1596.02C3229.17 1596.02 3232.05 1593.86 3233.42 1589.55C3234.08 1587.48 3234.41 1584.34 3234.41 1580.12ZM3274.72 1586.83L3284.09 1555.28H3298.62L3278.23 1613.88L3277.11 1616.55C3274.08 1623.17 3269.08 1626.48 3262.11 1626.48C3260.14 1626.48 3258.14 1626.19 3256.11 1625.59V1615.33L3258.17 1615.38C3260.73 1615.38 3262.64 1614.98 3263.89 1614.2C3265.17 1613.42 3266.17 1612.12 3266.89 1610.31L3268.48 1606.14L3250.72 1555.28H3265.3L3274.72 1586.83ZM3320.19 1542.81V1555.28H3328.86V1565.22H3320.19V1590.53C3320.19 1592.41 3320.55 1593.75 3321.27 1594.56C3321.98 1595.38 3323.36 1595.78 3325.39 1595.78C3326.89 1595.78 3328.22 1595.67 3329.38 1595.45V1605.72C3326.72 1606.53 3323.98 1606.94 3321.17 1606.94C3311.67 1606.94 3306.83 1602.14 3306.64 1592.55V1565.22H3299.23V1555.28H3306.64V1542.81H3320.19ZM3359.75 1606.94C3352.31 1606.94 3346.25 1604.66 3341.56 1600.09C3336.91 1595.53 3334.58 1589.45 3334.58 1581.86V1580.55C3334.58 1575.45 3335.56 1570.91 3337.53 1566.91C3339.5 1562.88 3342.28 1559.78 3345.88 1557.62C3349.5 1555.44 3353.62 1554.34 3358.25 1554.34C3365.19 1554.34 3370.64 1556.53 3374.61 1560.91C3378.61 1565.28 3380.61 1571.48 3380.61 1579.52V1585.05H3348.31C3348.75 1588.36 3350.06 1591.02 3352.25 1593.02C3354.47 1595.02 3357.27 1596.02 3360.64 1596.02C3365.86 1596.02 3369.94 1594.12 3372.88 1590.34L3379.53 1597.8C3377.5 1600.67 3374.75 1602.92 3371.28 1604.55C3367.81 1606.14 3363.97 1606.94 3359.75 1606.94ZM3358.2 1565.31C3355.52 1565.31 3353.33 1566.22 3351.64 1568.03C3349.98 1569.84 3348.92 1572.44 3348.45 1575.81H3367.3V1574.73C3367.23 1571.73 3366.42 1569.42 3364.86 1567.8C3363.3 1566.14 3361.08 1565.31 3358.2 1565.31ZM3411.69 1579.33C3411.69 1586.39 3410.67 1593.19 3408.64 1599.72C3406.61 1606.25 3403.69 1612.02 3399.88 1617.02C3396.06 1622.02 3391.98 1625.45 3387.64 1627.33L3385.02 1620.16C3389.45 1616.81 3392.95 1611.66 3395.52 1604.69C3398.08 1597.72 3399.41 1589.7 3399.5 1580.64V1578.16C3399.5 1568.81 3398.22 1560.58 3395.66 1553.45C3393.12 1546.33 3389.58 1540.98 3385.02 1537.42L3387.64 1530.25C3391.89 1532.09 3395.89 1535.44 3399.64 1540.28C3403.42 1545.12 3406.34 1550.77 3408.41 1557.2C3410.5 1563.64 3411.59 1570.31 3411.69 1577.22V1579.33Z" fill="white"/>
</g>
<g filter="url(#filter2_d)">
<path d="M3093.92 377C3093.3 375.781 3092.84 374.266 3092.56 372.453C3089.28 376.109 3085.02 377.938 3079.77 377.938C3074.8 377.938 3070.67 376.5 3067.39 373.625C3064.14 370.75 3062.52 367.125 3062.52 362.75C3062.52 357.375 3064.5 353.25 3068.47 350.375C3072.47 347.5 3078.23 346.047 3085.77 346.016H3092V343.109C3092 340.766 3091.39 338.891 3090.17 337.484C3088.98 336.078 3087.09 335.375 3084.5 335.375C3082.22 335.375 3080.42 335.922 3079.11 337.016C3077.83 338.109 3077.19 339.609 3077.19 341.516H3063.64C3063.64 338.578 3064.55 335.859 3066.36 333.359C3068.17 330.859 3070.73 328.906 3074.05 327.5C3077.36 326.062 3081.08 325.344 3085.2 325.344C3091.45 325.344 3096.41 326.922 3100.06 330.078C3103.75 333.203 3105.59 337.609 3105.59 343.297V365.281C3105.62 370.094 3106.3 373.734 3107.61 376.203V377H3093.92ZM3082.72 367.578C3084.72 367.578 3086.56 367.141 3088.25 366.266C3089.94 365.359 3091.19 364.156 3092 362.656V353.938H3086.94C3080.16 353.938 3076.55 356.281 3076.11 360.969L3076.06 361.766C3076.06 363.453 3076.66 364.844 3077.84 365.938C3079.03 367.031 3080.66 367.578 3082.72 367.578ZM3143.47 362.984C3143.47 361.328 3142.64 360.031 3140.98 359.094C3139.36 358.125 3136.73 357.266 3133.11 356.516C3121.05 353.984 3115.02 348.859 3115.02 341.141C3115.02 336.641 3116.88 332.891 3120.59 329.891C3124.34 326.859 3129.23 325.344 3135.27 325.344C3141.7 325.344 3146.84 326.859 3150.69 329.891C3154.56 332.922 3156.5 336.859 3156.5 341.703H3142.95C3142.95 339.766 3142.33 338.172 3141.08 336.922C3139.83 335.641 3137.88 335 3135.22 335C3132.94 335 3131.17 335.516 3129.92 336.547C3128.67 337.578 3128.05 338.891 3128.05 340.484C3128.05 341.984 3128.75 343.203 3130.16 344.141C3131.59 345.047 3134 345.844 3137.38 346.531C3140.75 347.188 3143.59 347.938 3145.91 348.781C3153.06 351.406 3156.64 355.953 3156.64 362.422C3156.64 367.047 3154.66 370.797 3150.69 373.672C3146.72 376.516 3141.59 377.938 3135.31 377.938C3131.06 377.938 3127.28 377.188 3123.97 375.688C3120.69 374.156 3118.11 372.078 3116.23 369.453C3114.36 366.797 3113.42 363.938 3113.42 360.875H3126.27C3126.39 363.281 3127.28 365.125 3128.94 366.406C3130.59 367.688 3132.81 368.328 3135.59 368.328C3138.19 368.328 3140.14 367.844 3141.45 366.875C3142.8 365.875 3143.47 364.578 3143.47 362.984ZM3192.88 362.984C3192.88 361.328 3192.05 360.031 3190.39 359.094C3188.77 358.125 3186.14 357.266 3182.52 356.516C3170.45 353.984 3164.42 348.859 3164.42 341.141C3164.42 336.641 3166.28 332.891 3170 329.891C3173.75 326.859 3178.64 325.344 3184.67 325.344C3191.11 325.344 3196.25 326.859 3200.09 329.891C3203.97 332.922 3205.91 336.859 3205.91 341.703H3192.36C3192.36 339.766 3191.73 338.172 3190.48 336.922C3189.23 335.641 3187.28 335 3184.62 335C3182.34 335 3180.58 335.516 3179.33 336.547C3178.08 337.578 3177.45 338.891 3177.45 340.484C3177.45 341.984 3178.16 343.203 3179.56 344.141C3181 345.047 3183.41 345.844 3186.78 346.531C3190.16 347.188 3193 347.938 3195.31 348.781C3202.47 351.406 3206.05 355.953 3206.05 362.422C3206.05 367.047 3204.06 370.797 3200.09 373.672C3196.12 376.516 3191 377.938 3184.72 377.938C3180.47 377.938 3176.69 377.188 3173.38 375.688C3170.09 374.156 3167.52 372.078 3165.64 369.453C3163.77 366.797 3162.83 363.938 3162.83 360.875H3175.67C3175.8 363.281 3176.69 365.125 3178.34 366.406C3180 367.688 3182.22 368.328 3185 368.328C3187.59 368.328 3189.55 367.844 3190.86 366.875C3192.2 365.875 3192.88 364.578 3192.88 362.984ZM3229.11 377H3215.52V326.281H3229.11V377ZM3214.72 313.156C3214.72 311.125 3215.39 309.453 3216.73 308.141C3218.11 306.828 3219.97 306.172 3222.31 306.172C3224.62 306.172 3226.47 306.828 3227.84 308.141C3229.22 309.453 3229.91 311.125 3229.91 313.156C3229.91 315.219 3229.2 316.906 3227.8 318.219C3226.42 319.531 3224.59 320.188 3222.31 320.188C3220.03 320.188 3218.19 319.531 3216.78 318.219C3215.41 316.906 3214.72 315.219 3214.72 313.156ZM3267.78 362.984C3267.78 361.328 3266.95 360.031 3265.3 359.094C3263.67 358.125 3261.05 357.266 3257.42 356.516C3245.36 353.984 3239.33 348.859 3239.33 341.141C3239.33 336.641 3241.19 332.891 3244.91 329.891C3248.66 326.859 3253.55 325.344 3259.58 325.344C3266.02 325.344 3271.16 326.859 3275 329.891C3278.88 332.922 3280.81 336.859 3280.81 341.703H3267.27C3267.27 339.766 3266.64 338.172 3265.39 336.922C3264.14 335.641 3262.19 335 3259.53 335C3257.25 335 3255.48 335.516 3254.23 336.547C3252.98 337.578 3252.36 338.891 3252.36 340.484C3252.36 341.984 3253.06 343.203 3254.47 344.141C3255.91 345.047 3258.31 345.844 3261.69 346.531C3265.06 347.188 3267.91 347.938 3270.22 348.781C3277.38 351.406 3280.95 355.953 3280.95 362.422C3280.95 367.047 3278.97 370.797 3275 373.672C3271.03 376.516 3265.91 377.938 3259.62 377.938C3255.38 377.938 3251.59 377.188 3248.28 375.688C3245 374.156 3242.42 372.078 3240.55 369.453C3238.67 366.797 3237.73 363.938 3237.73 360.875H3250.58C3250.7 363.281 3251.59 365.125 3253.25 366.406C3254.91 367.688 3257.12 368.328 3259.91 368.328C3262.5 368.328 3264.45 367.844 3265.77 366.875C3267.11 365.875 3267.78 364.578 3267.78 362.984ZM3305.94 313.812V326.281H3314.61V336.219H3305.94V361.531C3305.94 363.406 3306.3 364.75 3307.02 365.562C3307.73 366.375 3309.11 366.781 3311.14 366.781C3312.64 366.781 3313.97 366.672 3315.12 366.453V376.719C3312.47 377.531 3309.73 377.938 3306.92 377.938C3297.42 377.938 3292.58 373.141 3292.39 363.547V336.219H3284.98V326.281H3292.39V313.812H3305.94ZM3351.55 377C3350.92 375.781 3350.47 374.266 3350.19 372.453C3346.91 376.109 3342.64 377.938 3337.39 377.938C3332.42 377.938 3328.3 376.5 3325.02 373.625C3321.77 370.75 3320.14 367.125 3320.14 362.75C3320.14 357.375 3322.12 353.25 3326.09 350.375C3330.09 347.5 3335.86 346.047 3343.39 346.016H3349.62V343.109C3349.62 340.766 3349.02 338.891 3347.8 337.484C3346.61 336.078 3344.72 335.375 3342.12 335.375C3339.84 335.375 3338.05 335.922 3336.73 337.016C3335.45 338.109 3334.81 339.609 3334.81 341.516H3321.27C3321.27 338.578 3322.17 335.859 3323.98 333.359C3325.8 330.859 3328.36 328.906 3331.67 327.5C3334.98 326.062 3338.7 325.344 3342.83 325.344C3349.08 325.344 3354.03 326.922 3357.69 330.078C3361.38 333.203 3363.22 337.609 3363.22 343.297V365.281C3363.25 370.094 3363.92 373.734 3365.23 376.203V377H3351.55ZM3340.34 367.578C3342.34 367.578 3344.19 367.141 3345.88 366.266C3347.56 365.359 3348.81 364.156 3349.62 362.656V353.938H3344.56C3337.78 353.938 3334.17 356.281 3333.73 360.969L3333.69 361.766C3333.69 363.453 3334.28 364.844 3335.47 365.938C3336.66 367.031 3338.28 367.578 3340.34 367.578ZM3386.09 326.281L3386.52 332.141C3390.14 327.609 3395 325.344 3401.09 325.344C3406.47 325.344 3410.47 326.922 3413.09 330.078C3415.72 333.234 3417.06 337.953 3417.12 344.234V377H3403.58V344.562C3403.58 341.688 3402.95 339.609 3401.7 338.328C3400.45 337.016 3398.38 336.359 3395.47 336.359C3391.66 336.359 3388.8 337.984 3386.89 341.234V377H3373.34V326.281H3386.09ZM3443.66 313.812V326.281H3452.33V336.219H3443.66V361.531C3443.66 363.406 3444.02 364.75 3444.73 365.562C3445.45 366.375 3446.83 366.781 3448.86 366.781C3450.36 366.781 3451.69 366.672 3452.84 366.453V376.719C3450.19 377.531 3447.45 377.938 3444.64 377.938C3435.14 377.938 3430.3 373.141 3430.11 363.547V336.219H3422.7V326.281H3430.11V313.812H3443.66ZM3102.83 462.25C3102.83 455.094 3103.78 448.281 3105.69 441.812C3107.59 435.344 3110.41 429.625 3114.12 424.656C3117.84 419.656 3121.88 416.188 3126.22 414.25L3128.84 421.562C3124.28 424.938 3120.72 430.156 3118.16 437.219C3115.59 444.281 3114.31 452.531 3114.31 461.969V463.422C3114.31 472.891 3115.58 481.172 3118.11 488.266C3120.64 495.359 3124.22 500.656 3128.84 504.156L3126.22 511.328C3121.97 509.422 3118 506.047 3114.31 501.203C3110.66 496.391 3107.86 490.828 3105.92 484.516C3103.98 478.203 3102.95 471.609 3102.83 464.734V462.25ZM3192.92 457.422C3192.92 464.141 3191.73 470.031 3189.36 475.094C3186.98 480.156 3183.58 484.062 3179.14 486.812C3174.73 489.562 3169.67 490.938 3163.95 490.938C3158.3 490.938 3153.25 489.578 3148.81 486.859C3144.38 484.141 3140.94 480.266 3138.5 475.234C3136.06 470.172 3134.83 464.359 3134.8 457.797V454.422C3134.8 447.703 3136 441.797 3138.41 436.703C3140.84 431.578 3144.27 427.656 3148.67 424.938C3153.11 422.188 3158.17 420.812 3163.86 420.812C3169.55 420.812 3174.59 422.188 3179 424.938C3183.44 427.656 3186.86 431.578 3189.27 436.703C3191.7 441.797 3192.92 447.688 3192.92 454.375V457.422ZM3178.67 454.328C3178.67 447.172 3177.39 441.734 3174.83 438.016C3172.27 434.297 3168.61 432.438 3163.86 432.438C3159.14 432.438 3155.5 434.281 3152.94 437.969C3150.38 441.625 3149.08 447 3149.05 454.094V457.422C3149.05 464.391 3150.33 469.797 3152.89 473.641C3155.45 477.484 3159.14 479.406 3163.95 479.406C3168.67 479.406 3172.3 477.562 3174.83 473.875C3177.36 470.156 3178.64 464.75 3178.67 457.656V454.328ZM3247.95 465.109C3247.95 473.234 3246.22 479.578 3242.75 484.141C3239.28 488.672 3234.44 490.938 3228.22 490.938C3222.72 490.938 3218.33 488.828 3215.05 484.609L3214.44 490H3202.25V418H3215.8V443.828C3218.92 440.172 3223.03 438.344 3228.12 438.344C3234.31 438.344 3239.16 440.625 3242.66 445.188C3246.19 449.719 3247.95 456.109 3247.95 464.359V465.109ZM3234.41 464.125C3234.41 459 3233.59 455.266 3231.97 452.922C3230.34 450.547 3227.92 449.359 3224.7 449.359C3220.39 449.359 3217.42 451.125 3215.8 454.656V474.672C3217.45 478.234 3220.45 480.016 3224.8 480.016C3229.17 480.016 3232.05 477.859 3233.42 473.547C3234.08 471.484 3234.41 468.344 3234.41 464.125ZM3274.72 470.828L3284.09 439.281H3298.62L3278.23 497.875L3277.11 500.547C3274.08 507.172 3269.08 510.484 3262.11 510.484C3260.14 510.484 3258.14 510.188 3256.11 509.594V499.328L3258.17 499.375C3260.73 499.375 3262.64 498.984 3263.89 498.203C3265.17 497.422 3266.17 496.125 3266.89 494.312L3268.48 490.141L3250.72 439.281H3265.3L3274.72 470.828ZM3320.19 426.812V439.281H3328.86V449.219H3320.19V474.531C3320.19 476.406 3320.55 477.75 3321.27 478.562C3321.98 479.375 3323.36 479.781 3325.39 479.781C3326.89 479.781 3328.22 479.672 3329.38 479.453V489.719C3326.72 490.531 3323.98 490.938 3321.17 490.938C3311.67 490.938 3306.83 486.141 3306.64 476.547V449.219H3299.23V439.281H3306.64V426.812H3320.19ZM3359.75 490.938C3352.31 490.938 3346.25 488.656 3341.56 484.094C3336.91 479.531 3334.58 473.453 3334.58 465.859V464.547C3334.58 459.453 3335.56 454.906 3337.53 450.906C3339.5 446.875 3342.28 443.781 3345.88 441.625C3349.5 439.438 3353.62 438.344 3358.25 438.344C3365.19 438.344 3370.64 440.531 3374.61 444.906C3378.61 449.281 3380.61 455.484 3380.61 463.516V469.047H3348.31C3348.75 472.359 3350.06 475.016 3352.25 477.016C3354.47 479.016 3357.27 480.016 3360.64 480.016C3365.86 480.016 3369.94 478.125 3372.88 474.344L3379.53 481.797C3377.5 484.672 3374.75 486.922 3371.28 488.547C3367.81 490.141 3363.97 490.938 3359.75 490.938ZM3358.2 449.312C3355.52 449.312 3353.33 450.219 3351.64 452.031C3349.98 453.844 3348.92 456.438 3348.45 459.812H3367.3V458.734C3367.23 455.734 3366.42 453.422 3364.86 451.797C3363.3 450.141 3361.08 449.312 3358.2 449.312ZM3411.69 463.328C3411.69 470.391 3410.67 477.188 3408.64 483.719C3406.61 490.25 3403.69 496.016 3399.88 501.016C3396.06 506.016 3391.98 509.453 3387.64 511.328L3385.02 504.156C3389.45 500.812 3392.95 495.656 3395.52 488.688C3398.08 481.719 3399.41 473.703 3399.5 464.641V462.156C3399.5 452.812 3398.22 444.578 3395.66 437.453C3393.12 430.328 3389.58 424.984 3385.02 421.422L3387.64 414.25C3391.89 416.094 3395.89 419.438 3399.64 424.281C3403.42 429.125 3406.34 434.766 3408.41 441.203C3410.5 447.641 3411.59 454.312 3411.69 461.219V463.328Z" fill="white"/>
</g>
<path d="M3352.78 171.892C3352.66 171.852 3352.55 171.816 3352.43 171.782L3320.9 162.792L3298.52 141.444V135.705C3309.23 125.008 3315.98 110.233 3315.98 93.9364V59.0614C3315.98 26.5826 3289.67 0 3257.03 0C3224.46 0 3197.97 26.4954 3197.97 59.0619V93.9369C3197.97 110.233 3204.71 125.009 3215.42 135.706V141.445L3193.19 162.763L3162.25 171.798C3162.15 171.827 3162.05 171.859 3161.95 171.892C3148.37 176.419 3140.42 190.789 3143.76 204.682L3158.68 281.176C3159.46 285.204 3162.99 288 3166.95 288C3167.18 288 3167.42 287.986 3167.66 287.966C3167.87 287.983 3168.08 287.999 3168.3 287.999H3346.96C3350.97 287.999 3354.42 285.183 3355.23 281.26L3370.96 204.727C3374.33 190.82 3366.38 176.424 3352.78 171.892ZM3305.16 171.059L3281.03 207.255L3267.87 194.101L3291.74 158.13L3305.16 171.059ZM3257.03 16.875C3270.81 16.875 3283.06 23.5153 3290.76 33.7618C3282.85 44.2688 3270.34 50.625 3257.03 50.625H3215.69C3219.61 31.392 3236.65 16.875 3257.03 16.875ZM3214.73 93.9369V67.4994H3257.03C3272.63 67.4994 3287.45 61.2608 3298.36 50.598C3298.92 53.3334 3299.22 56.1639 3299.22 59.0619V93.9369C3299.22 117.199 3280.29 136.124 3257.03 136.124C3233.77 136.124 3214.73 117.199 3214.73 93.9369ZM3222.31 158.13L3246.18 194.101L3233.03 207.255L3208.9 171.059L3222.31 158.13ZM3248.59 271.123H3173.91C3173.85 270.802 3160.27 201.141 3160.19 200.823C3158.84 195.402 3161.89 189.773 3167.16 187.944L3194.54 179.947L3224.7 225.179C3227.64 229.602 3233.91 230.235 3237.68 226.465L3248.59 215.556V271.123H3248.59ZM3236.79 149.426C3243.11 151.737 3249.92 152.999 3257.03 152.999C3264.13 152.999 3270.95 151.737 3277.27 149.426L3257.03 179.926L3236.79 149.426ZM3354.46 201.171L3340.08 271.123H3265.35V215.556L3276.37 226.465C3280.14 230.232 3286.41 229.606 3289.36 225.179L3319.52 179.945L3347.6 187.952C3352.21 189.565 3355.89 194.302 3354.46 201.171Z" fill="white"/>
<path d="M3249.87 1062.63C3254.36 1067.12 3261.64 1067.12 3266.13 1062.63L3339.32 989.446C3343.81 984.955 3343.81 977.674 3339.32 973.183C3334.83 968.692 3327.54 968.692 3323.05 973.183L3258 1038.24L3192.95 973.183C3188.46 968.692 3181.17 968.692 3176.68 973.183C3172.19 977.674 3172.19 984.955 3176.68 989.446L3249.87 1062.63ZM3246.5 564.5L3246.5 1054.5L3269.5 1054.5L3269.5 564.5L3246.5 564.5Z" fill="white"/>
<rect x="2758" y="710" width="973" height="159" rx="25" fill="white"/>
<path d="M2836.66 792.891C2836.66 803.047 2834.92 810.594 2831.45 815.531C2827.98 820.469 2822.56 822.938 2815.19 822.938C2807.91 822.938 2802.52 820.531 2799.02 815.719C2795.52 810.875 2793.7 803.656 2793.58 794.062V782.484C2793.58 772.453 2795.31 765 2798.78 760.125C2802.25 755.25 2807.69 752.812 2815.09 752.812C2822.44 752.812 2827.84 755.172 2831.31 759.891C2834.78 764.578 2836.56 771.828 2836.66 781.641V792.891ZM2827.98 781.031C2827.98 773.688 2826.95 768.344 2824.89 765C2822.83 761.625 2819.56 759.938 2815.09 759.938C2810.66 759.938 2807.42 761.609 2805.39 764.953C2803.36 768.297 2802.31 773.438 2802.25 780.375V794.25C2802.25 801.625 2803.31 807.078 2805.44 810.609C2807.59 814.109 2810.84 815.859 2815.19 815.859C2819.47 815.859 2822.64 814.203 2824.7 810.891C2826.8 807.578 2827.89 802.359 2827.98 795.234V781.031ZM2848.84 817.453C2848.84 815.953 2849.28 814.703 2850.16 813.703C2851.06 812.703 2852.41 812.203 2854.19 812.203C2855.97 812.203 2857.31 812.703 2858.22 813.703C2859.16 814.703 2859.62 815.953 2859.62 817.453C2859.62 818.891 2859.16 820.094 2858.22 821.062C2857.31 822.031 2855.97 822.516 2854.19 822.516C2852.41 822.516 2851.06 822.031 2850.16 821.062C2849.28 820.094 2848.84 818.891 2848.84 817.453ZM2906.31 792C2904.5 794.156 2902.33 795.891 2899.8 797.203C2897.3 798.516 2894.55 799.172 2891.55 799.172C2887.61 799.172 2884.17 798.203 2881.23 796.266C2878.33 794.328 2876.08 791.609 2874.48 788.109C2872.89 784.578 2872.09 780.688 2872.09 776.438C2872.09 771.875 2872.95 767.766 2874.67 764.109C2876.42 760.453 2878.89 757.656 2882.08 755.719C2885.27 753.781 2888.98 752.812 2893.23 752.812C2899.98 752.812 2905.3 755.344 2909.17 760.406C2913.08 765.438 2915.03 772.312 2915.03 781.031V783.562C2915.03 796.844 2912.41 806.547 2907.16 812.672C2901.91 818.766 2893.98 821.891 2883.39 822.047H2881.7V814.734H2883.53C2890.69 814.609 2896.19 812.75 2900.03 809.156C2903.88 805.531 2905.97 799.812 2906.31 792ZM2892.95 792C2895.86 792 2898.53 791.109 2900.97 789.328C2903.44 787.547 2905.23 785.344 2906.36 782.719V779.25C2906.36 773.562 2905.12 768.938 2902.66 765.375C2900.19 761.812 2897.06 760.031 2893.28 760.031C2889.47 760.031 2886.41 761.5 2884.09 764.438C2881.78 767.344 2880.62 771.188 2880.62 775.969C2880.62 780.625 2881.73 784.469 2883.95 787.5C2886.2 790.5 2889.2 792 2892.95 792ZM2960.22 792C2958.41 794.156 2956.23 795.891 2953.7 797.203C2951.2 798.516 2948.45 799.172 2945.45 799.172C2941.52 799.172 2938.08 798.203 2935.14 796.266C2932.23 794.328 2929.98 791.609 2928.39 788.109C2926.8 784.578 2926 780.688 2926 776.438C2926 771.875 2926.86 767.766 2928.58 764.109C2930.33 760.453 2932.8 757.656 2935.98 755.719C2939.17 753.781 2942.89 752.812 2947.14 752.812C2953.89 752.812 2959.2 755.344 2963.08 760.406C2966.98 765.438 2968.94 772.312 2968.94 781.031V783.562C2968.94 796.844 2966.31 806.547 2961.06 812.672C2955.81 818.766 2947.89 821.891 2937.3 822.047H2935.61V814.734H2937.44C2944.59 814.609 2950.09 812.75 2953.94 809.156C2957.78 805.531 2959.88 799.812 2960.22 792ZM2946.86 792C2949.77 792 2952.44 791.109 2954.88 789.328C2957.34 787.547 2959.14 785.344 2960.27 782.719V779.25C2960.27 773.562 2959.03 768.938 2956.56 765.375C2954.09 761.812 2950.97 760.031 2947.19 760.031C2943.38 760.031 2940.31 761.5 2938 764.438C2935.69 767.344 2934.53 771.188 2934.53 775.969C2934.53 780.625 2935.64 784.469 2937.86 787.5C2940.11 790.5 2943.11 792 2946.86 792ZM3045.53 790.453H3015.95V814.641H3050.31V822H3006.95V753.75H3049.84V761.156H3015.95V783.094H3045.53V790.453ZM3109.61 761.156H3087.67V822H3078.72V761.156H3056.83V753.75H3109.61V761.156ZM3172.19 822H3163.14V790.453H3128.73V822H3119.73V753.75H3128.73V783.094H3163.14V753.75H3172.19V822ZM3186.53 835.594L3181.61 832.219C3184.55 828.125 3186.08 823.906 3186.2 819.562V811.734H3194.69V818.531C3194.69 821.688 3193.91 824.844 3192.34 828C3190.81 831.156 3188.88 833.688 3186.53 835.594ZM3257.08 822H3248.36V764.203L3230.88 770.625V762.75L3255.72 753.422H3257.08V822ZM3325.28 792.891C3325.28 803.047 3323.55 810.594 3320.08 815.531C3316.61 820.469 3311.19 822.938 3303.81 822.938C3296.53 822.938 3291.14 820.531 3287.64 815.719C3284.14 810.875 3282.33 803.656 3282.2 794.062V782.484C3282.2 772.453 3283.94 765 3287.41 760.125C3290.88 755.25 3296.31 752.812 3303.72 752.812C3311.06 752.812 3316.47 755.172 3319.94 759.891C3323.41 764.578 3325.19 771.828 3325.28 781.641V792.891ZM3316.61 781.031C3316.61 773.688 3315.58 768.344 3313.52 765C3311.45 761.625 3308.19 759.938 3303.72 759.938C3299.28 759.938 3296.05 761.609 3294.02 764.953C3291.98 768.297 3290.94 773.438 3290.88 780.375V794.25C3290.88 801.625 3291.94 807.078 3294.06 810.609C3296.22 814.109 3299.47 815.859 3303.81 815.859C3308.09 815.859 3311.27 814.203 3313.33 810.891C3315.42 807.578 3316.52 802.359 3316.61 795.234V781.031ZM3369.25 771.281L3369.48 776.906C3373.2 772.531 3378.22 770.344 3384.53 770.344C3391.62 770.344 3396.45 773.062 3399.02 778.5C3400.7 776.062 3402.89 774.094 3405.58 772.594C3408.3 771.094 3411.5 770.344 3415.19 770.344C3426.31 770.344 3431.97 776.234 3432.16 788.016V822H3423.48V788.531C3423.48 784.906 3422.66 782.203 3421 780.422C3419.34 778.609 3416.56 777.703 3412.66 777.703C3409.44 777.703 3406.77 778.672 3404.64 780.609C3402.52 782.516 3401.28 785.094 3400.94 788.344V822H3392.22V788.766C3392.22 781.391 3388.61 777.703 3381.39 777.703C3375.7 777.703 3371.81 780.125 3369.72 784.969V822H3361.05V771.281H3369.25ZM3454.7 822H3446.03V771.281H3454.7V822ZM3445.33 757.828C3445.33 756.422 3445.75 755.234 3446.59 754.266C3447.47 753.297 3448.75 752.812 3450.44 752.812C3452.12 752.812 3453.41 753.297 3454.28 754.266C3455.16 755.234 3455.59 756.422 3455.59 757.828C3455.59 759.234 3455.16 760.406 3454.28 761.344C3453.41 762.281 3452.12 762.75 3450.44 762.75C3448.75 762.75 3447.47 762.281 3446.59 761.344C3445.75 760.406 3445.33 759.234 3445.33 757.828ZM3476.83 771.281L3477.11 777.656C3480.98 772.781 3486.05 770.344 3492.3 770.344C3503.02 770.344 3508.42 776.391 3508.52 788.484V822H3499.84V788.438C3499.81 784.781 3498.97 782.078 3497.31 780.328C3495.69 778.578 3493.14 777.703 3489.67 777.703C3486.86 777.703 3484.39 778.453 3482.27 779.953C3480.14 781.453 3478.48 783.422 3477.3 785.859V822H3468.62V771.281H3476.83ZM3552.91 816.984C3549.53 820.953 3544.58 822.938 3538.05 822.938C3532.64 822.938 3528.52 821.375 3525.67 818.25C3522.86 815.094 3521.44 810.438 3521.41 804.281V771.281H3530.08V804.047C3530.08 811.734 3533.2 815.578 3539.45 815.578C3546.08 815.578 3550.48 813.109 3552.67 808.172V771.281H3561.34V822H3553.09L3552.91 816.984ZM3586.33 759V771.281H3595.8V777.984H3586.33V809.438C3586.33 811.469 3586.75 813 3587.59 814.031C3588.44 815.031 3589.88 815.531 3591.91 815.531C3592.91 815.531 3594.28 815.344 3596.03 814.969V822C3593.75 822.625 3591.53 822.938 3589.38 822.938C3585.5 822.938 3582.58 821.766 3580.61 819.422C3578.64 817.078 3577.66 813.75 3577.66 809.438V777.984H3568.42V771.281H3577.66V759H3586.33ZM3627.02 822.938C3620.14 822.938 3614.55 820.688 3610.23 816.188C3605.92 811.656 3603.77 805.609 3603.77 798.047V796.453C3603.77 791.422 3604.72 786.938 3606.62 783C3608.56 779.031 3611.25 775.938 3614.69 773.719C3618.16 771.469 3621.91 770.344 3625.94 770.344C3632.53 770.344 3637.66 772.516 3641.31 776.859C3644.97 781.203 3646.8 787.422 3646.8 795.516V799.125H3612.44C3612.56 804.125 3614.02 808.172 3616.8 811.266C3619.61 814.328 3623.17 815.859 3627.48 815.859C3630.55 815.859 3633.14 815.234 3635.27 813.984C3637.39 812.734 3639.25 811.078 3640.84 809.016L3646.14 813.141C3641.89 819.672 3635.52 822.938 3627.02 822.938ZM3625.94 777.469C3622.44 777.469 3619.5 778.75 3617.12 781.312C3614.75 783.844 3613.28 787.406 3612.72 792H3638.12V791.344C3637.88 786.938 3636.69 783.531 3634.56 781.125C3632.44 778.688 3629.56 777.469 3625.94 777.469ZM3686.41 808.547C3686.41 806.203 3685.52 804.391 3683.73 803.109C3681.98 801.797 3678.91 800.672 3674.5 799.734C3670.12 798.797 3666.64 797.672 3664.05 796.359C3661.48 795.047 3659.58 793.484 3658.33 791.672C3657.11 789.859 3656.5 787.703 3656.5 785.203C3656.5 781.047 3658.25 777.531 3661.75 774.656C3665.28 771.781 3669.78 770.344 3675.25 770.344C3681 770.344 3685.66 771.828 3689.22 774.797C3692.81 777.766 3694.61 781.562 3694.61 786.188H3685.89C3685.89 783.812 3684.88 781.766 3682.84 780.047C3680.84 778.328 3678.31 777.469 3675.25 777.469C3672.09 777.469 3669.62 778.156 3667.84 779.531C3666.06 780.906 3665.17 782.703 3665.17 784.922C3665.17 787.016 3666 788.594 3667.66 789.656C3669.31 790.719 3672.3 791.734 3676.61 792.703C3680.95 793.672 3684.47 794.828 3687.16 796.172C3689.84 797.516 3691.83 799.141 3693.11 801.047C3694.42 802.922 3695.08 805.219 3695.08 807.938C3695.08 812.469 3693.27 816.109 3689.64 818.859C3686.02 821.578 3681.31 822.938 3675.53 822.938C3671.47 822.938 3667.88 822.219 3664.75 820.781C3661.62 819.344 3659.17 817.344 3657.39 814.781C3655.64 812.188 3654.77 809.391 3654.77 806.391H3663.44C3663.59 809.297 3664.75 811.609 3666.91 813.328C3669.09 815.016 3671.97 815.859 3675.53 815.859C3678.81 815.859 3681.44 815.203 3683.41 813.891C3685.41 812.547 3686.41 810.766 3686.41 808.547Z" fill="black"/>
<g filter="url(#filter3_d)">
<path d="M570.016 1045.84C566.672 1049.91 562.047 1051.94 556.141 1051.94C550.703 1051.94 546.547 1050.38 543.672 1047.25C540.828 1044.12 539.375 1039.55 539.312 1033.52V1000.28H552.859V1033.05C552.859 1038.33 555.266 1040.97 560.078 1040.97C564.672 1040.97 567.828 1039.38 569.547 1036.19V1000.28H583.141V1051H570.391L570.016 1045.84ZM620.828 1036.98C620.828 1035.33 620 1034.03 618.344 1033.09C616.719 1032.12 614.094 1031.27 610.469 1030.52C598.406 1027.98 592.375 1022.86 592.375 1015.14C592.375 1010.64 594.234 1006.89 597.953 1003.89C601.703 1000.86 606.594 999.344 612.625 999.344C619.062 999.344 624.203 1000.86 628.047 1003.89C631.922 1006.92 633.859 1010.86 633.859 1015.7H620.312C620.312 1013.77 619.688 1012.17 618.438 1010.92C617.188 1009.64 615.234 1009 612.578 1009C610.297 1009 608.531 1009.52 607.281 1010.55C606.031 1011.58 605.406 1012.89 605.406 1014.48C605.406 1015.98 606.109 1017.2 607.516 1018.14C608.953 1019.05 611.359 1019.84 614.734 1020.53C618.109 1021.19 620.953 1021.94 623.266 1022.78C630.422 1025.41 634 1029.95 634 1036.42C634 1041.05 632.016 1044.8 628.047 1047.67C624.078 1050.52 618.953 1051.94 612.672 1051.94C608.422 1051.94 604.641 1051.19 601.328 1049.69C598.047 1048.16 595.469 1046.08 593.594 1043.45C591.719 1040.8 590.781 1037.94 590.781 1034.88H603.625C603.75 1037.28 604.641 1039.12 606.297 1040.41C607.953 1041.69 610.172 1042.33 612.953 1042.33C615.547 1042.33 617.5 1041.84 618.812 1040.88C620.156 1039.88 620.828 1038.58 620.828 1036.98ZM666.109 1051.94C658.672 1051.94 652.609 1049.66 647.922 1045.09C643.266 1040.53 640.938 1034.45 640.938 1026.86V1025.55C640.938 1020.45 641.922 1015.91 643.891 1011.91C645.859 1007.88 648.641 1004.78 652.234 1002.62C655.859 1000.44 659.984 999.344 664.609 999.344C671.547 999.344 677 1001.53 680.969 1005.91C684.969 1010.28 686.969 1016.48 686.969 1024.52V1030.05H654.672C655.109 1033.36 656.422 1036.02 658.609 1038.02C660.828 1040.02 663.625 1041.02 667 1041.02C672.219 1041.02 676.297 1039.12 679.234 1035.34L685.891 1042.8C683.859 1045.67 681.109 1047.92 677.641 1049.55C674.172 1051.14 670.328 1051.94 666.109 1051.94ZM664.562 1010.31C661.875 1010.31 659.688 1011.22 658 1013.03C656.344 1014.84 655.281 1017.44 654.812 1020.81H673.656V1019.73C673.594 1016.73 672.781 1014.42 671.219 1012.8C669.656 1011.14 667.438 1010.31 664.562 1010.31ZM723.203 1012.98C721.359 1012.73 719.734 1012.61 718.328 1012.61C713.203 1012.61 709.844 1014.34 708.25 1017.81V1051H694.703V1000.28H707.5L707.875 1006.33C710.594 1001.67 714.359 999.344 719.172 999.344C720.672 999.344 722.078 999.547 723.391 999.953L723.203 1012.98ZM394 1136.25C394 1129.09 394.953 1122.28 396.859 1115.81C398.766 1109.34 401.578 1103.62 405.297 1098.66C409.016 1093.66 413.047 1090.19 417.391 1088.25L420.016 1095.56C415.453 1098.94 411.891 1104.16 409.328 1111.22C406.766 1118.28 405.484 1126.53 405.484 1135.97V1137.42C405.484 1146.89 406.75 1155.17 409.281 1162.27C411.812 1169.36 415.391 1174.66 420.016 1178.16L417.391 1185.33C413.141 1183.42 409.172 1180.05 405.484 1175.2C401.828 1170.39 399.031 1164.83 397.094 1158.52C395.156 1152.2 394.125 1145.61 394 1138.73V1136.25ZM469.094 1134.42H442.094V1152.7H473.781V1164H428.031V1095.75H473.688V1107.14H442.094V1123.41H469.094V1134.42ZM497.359 1100.81V1113.28H506.031V1123.22H497.359V1148.53C497.359 1150.41 497.719 1151.75 498.438 1152.56C499.156 1153.38 500.531 1153.78 502.562 1153.78C504.062 1153.78 505.391 1153.67 506.547 1153.45V1163.72C503.891 1164.53 501.156 1164.94 498.344 1164.94C488.844 1164.94 484 1160.14 483.812 1150.55V1123.22H476.406V1113.28H483.812V1100.81H497.359ZM526.797 1118.81C530.391 1114.5 534.906 1112.34 540.344 1112.34C551.344 1112.34 556.922 1118.73 557.078 1131.52V1164H543.531V1131.89C543.531 1128.98 542.906 1126.84 541.656 1125.47C540.406 1124.06 538.328 1123.36 535.422 1123.36C531.453 1123.36 528.578 1124.89 526.797 1127.95V1164H513.25V1092H526.797V1118.81ZM590.641 1164.94C583.203 1164.94 577.141 1162.66 572.453 1158.09C567.797 1153.53 565.469 1147.45 565.469 1139.86V1138.55C565.469 1133.45 566.453 1128.91 568.422 1124.91C570.391 1120.88 573.172 1117.78 576.766 1115.62C580.391 1113.44 584.516 1112.34 589.141 1112.34C596.078 1112.34 601.531 1114.53 605.5 1118.91C609.5 1123.28 611.5 1129.48 611.5 1137.52V1143.05H579.203C579.641 1146.36 580.953 1149.02 583.141 1151.02C585.359 1153.02 588.156 1154.02 591.531 1154.02C596.75 1154.02 600.828 1152.12 603.766 1148.34L610.422 1155.8C608.391 1158.67 605.641 1160.92 602.172 1162.55C598.703 1164.14 594.859 1164.94 590.641 1164.94ZM589.094 1123.31C586.406 1123.31 584.219 1124.22 582.531 1126.03C580.875 1127.84 579.812 1130.44 579.344 1133.81H598.188V1132.73C598.125 1129.73 597.312 1127.42 595.75 1125.8C594.188 1124.14 591.969 1123.31 589.094 1123.31ZM647.734 1125.98C645.891 1125.73 644.266 1125.61 642.859 1125.61C637.734 1125.61 634.375 1127.34 632.781 1130.81V1164H619.234V1113.28H632.031L632.406 1119.33C635.125 1114.67 638.891 1112.34 643.703 1112.34C645.203 1112.34 646.609 1112.55 647.922 1112.95L647.734 1125.98ZM676.703 1164.94C669.266 1164.94 663.203 1162.66 658.516 1158.09C653.859 1153.53 651.531 1147.45 651.531 1139.86V1138.55C651.531 1133.45 652.516 1128.91 654.484 1124.91C656.453 1120.88 659.234 1117.78 662.828 1115.62C666.453 1113.44 670.578 1112.34 675.203 1112.34C682.141 1112.34 687.594 1114.53 691.562 1118.91C695.562 1123.28 697.562 1129.48 697.562 1137.52V1143.05H665.266C665.703 1146.36 667.016 1149.02 669.203 1151.02C671.422 1153.02 674.219 1154.02 677.594 1154.02C682.812 1154.02 686.891 1152.12 689.828 1148.34L696.484 1155.8C694.453 1158.67 691.703 1160.92 688.234 1162.55C684.766 1164.14 680.922 1164.94 676.703 1164.94ZM675.156 1123.31C672.469 1123.31 670.281 1124.22 668.594 1126.03C666.938 1127.84 665.875 1130.44 665.406 1133.81H684.25V1132.73C684.188 1129.73 683.375 1127.42 681.812 1125.8C680.25 1124.14 678.031 1123.31 675.156 1123.31ZM735.672 1158.84C732.328 1162.91 727.703 1164.94 721.797 1164.94C716.359 1164.94 712.203 1163.38 709.328 1160.25C706.484 1157.12 705.031 1152.55 704.969 1146.52V1113.28H718.516V1146.05C718.516 1151.33 720.922 1153.97 725.734 1153.97C730.328 1153.97 733.484 1152.38 735.203 1149.19V1113.28H748.797V1164H736.047L735.672 1158.84ZM771.719 1113.28L772.141 1118.95C775.734 1114.55 780.594 1112.34 786.719 1112.34C793.25 1112.34 797.734 1114.92 800.172 1120.08C803.734 1114.92 808.812 1112.34 815.406 1112.34C820.906 1112.34 825 1113.95 827.688 1117.17C830.375 1120.36 831.719 1125.17 831.719 1131.61V1164H818.125V1131.66C818.125 1128.78 817.562 1126.69 816.438 1125.38C815.312 1124.03 813.328 1123.36 810.484 1123.36C806.422 1123.36 803.609 1125.3 802.047 1129.17L802.094 1164H788.547V1131.7C788.547 1128.77 787.969 1126.64 786.812 1125.33C785.656 1124.02 783.688 1123.36 780.906 1123.36C777.062 1123.36 774.281 1124.95 772.562 1128.14V1164H759.016V1113.28H771.719ZM865.516 1137.33C865.516 1144.39 864.5 1151.19 862.469 1157.72C860.438 1164.25 857.516 1170.02 853.703 1175.02C849.891 1180.02 845.812 1183.45 841.469 1185.33L838.844 1178.16C843.281 1174.81 846.781 1169.66 849.344 1162.69C851.906 1155.72 853.234 1147.7 853.328 1138.64V1136.16C853.328 1126.81 852.047 1118.58 849.484 1111.45C846.953 1104.33 843.406 1098.98 838.844 1095.42L841.469 1088.25C845.719 1090.09 849.719 1093.44 853.469 1098.28C857.25 1103.12 860.172 1108.77 862.234 1115.2C864.328 1121.64 865.422 1128.31 865.516 1135.22V1137.33Z" fill="white"/>
</g>
<defs>
<filter id="filter0_d" x="688.367" y="734.681" width="565.377" height="175.516" filterUnits="userSpaceOnUse" color-interpolation-filters="sRGB">
<feFlood flood-opacity="0" result="BackgroundImageFix"/>
<feColorMatrix in="SourceAlpha" type="matrix" values="0 0 0 0 0 0 0 0 0 0 0 0 0 0 0 0 0 0 127 0"/>
<feOffset dy="4"/>
<feGaussianBlur stdDeviation="2"/>
<feColorMatrix type="matrix" values="0 0 0 0 0 0 0 0 0 0 0 0 0 0 0 0 0 0 0.25 0"/>
<feBlend mode="normal" in2="BackgroundImageFix" result="effect1_dropShadow"/>
<feBlend mode="normal" in="SourceGraphic" in2="effect1_dropShadow" result="shape"/>
</filter>
<filter id="filter1_d" x="3097.83" y="1436.34" width="328.859" height="205.984" filterUnits="userSpaceOnUse" color-interpolation-filters="sRGB">
<feFlood flood-opacity="0" result="BackgroundImageFix"/>
<feColorMatrix in="SourceAlpha" type="matrix" values="0 0 0 0 0 0 0 0 0 0 0 0 0 0 0 0 0 0 127 0"/>
<feOffset dx="5" dy="5"/>
<feGaussianBlur stdDeviation="5"/>
<feColorMatrix type="matrix" values="0 0 0 0 0 0 0 0 0 0 0 0 0 0 0 0 0 0 0.25 0"/>
<feBlend mode="normal" in2="BackgroundImageFix" result="effect1_dropShadow"/>
<feBlend mode="normal" in="SourceGraphic" in2="effect1_dropShadow" result="shape"/>
</filter>
<filter id="filter2_d" x="3057.52" y="301.172" width="410.328" height="225.156" filterUnits="userSpaceOnUse" color-interpolation-filters="sRGB">
<feFlood flood-opacity="0" result="BackgroundImageFix"/>
<feColorMatrix in="SourceAlpha" type="matrix" values="0 0 0 0 0 0 0 0 0 0 0 0 0 0 0 0 0 0 127 0"/>
<feOffset dx="5" dy="5"/>
<feGaussianBlur stdDeviation="5"/>
<feColorMatrix type="matrix" values="0 0 0 0 0 0 0 0 0 0 0 0 0 0 0 0 0 0 0.25 0"/>
<feBlend mode="normal" in2="BackgroundImageFix" result="effect1_dropShadow"/>
<feBlend mode="normal" in="SourceGraphic" in2="effect1_dropShadow" result="shape"/>
</filter>
<filter id="filter3_d" x="389" y="994.344" width="491.516" height="205.984" filterUnits="userSpaceOnUse" color-interpolation-filters="sRGB">
<feFlood flood-opacity="0" result="BackgroundImageFix"/>
<feColorMatrix in="SourceAlpha" type="matrix" values="0 0 0 0 0 0 0 0 0 0 0 0 0 0 0 0 0 0 127 0"/>
<feOffset dx="5" dy="5"/>
<feGaussianBlur stdDeviation="5"/>
<feColorMatrix type="matrix" values="0 0 0 0 0 0 0 0 0 0 0 0 0 0 0 0 0 0 0.25 0"/>
<feBlend mode="normal" in2="BackgroundImageFix" result="effect1_dropShadow"/>
<feBlend mode="normal" in="SourceGraphic" in2="effect1_dropShadow" result="shape"/>
</filter>
</defs>
</svg>
