<svg viewBox="0 0 4689 1245" fill="none" xmlns="http://www.w3.org/2000/svg">
<path d="M520 1194.72C520 1166.15 531.349 1138.75 551.551 1118.55C571.753 1098.35 599.152 1087 627.721 1087C656.291 1087 683.69 1098.35 703.892 1118.55C724.094 1138.75 735.443 1166.15 735.443 1194.72" fill="#F2F2F2"/>
<path d="M627.722 1194.72C626.949 1194.72 626.209 1194.42 625.663 1193.87C625.117 1193.33 624.81 1192.59 624.81 1191.81V1135.04C624.81 1134.27 625.117 1133.53 625.663 1132.98C626.209 1132.43 626.949 1132.13 627.722 1132.13C628.494 1132.13 629.234 1132.43 629.78 1132.98C630.326 1133.53 630.633 1134.27 630.633 1135.04V1191.81C630.633 1192.59 630.326 1193.33 629.78 1193.87C629.234 1194.42 628.494 1194.72 627.722 1194.72V1194.72Z" fill="#CCCCCC"/>
<path d="M627.72 1175.22C627.024 1175.22 626.352 1174.97 625.825 1174.51L590.888 1144.53C590.596 1144.28 590.355 1143.98 590.18 1143.63C590.006 1143.29 589.9 1142.92 589.87 1142.54C589.839 1142.15 589.885 1141.77 590.004 1141.4C590.123 1141.04 590.313 1140.7 590.563 1140.41C590.813 1140.12 591.118 1139.88 591.46 1139.71C591.803 1139.53 592.176 1139.43 592.559 1139.4C592.942 1139.38 593.326 1139.42 593.69 1139.54C594.055 1139.67 594.391 1139.86 594.681 1140.11L629.618 1170.09C630.069 1170.48 630.391 1171 630.54 1171.57C630.689 1172.15 630.658 1172.76 630.451 1173.32C630.244 1173.87 629.872 1174.35 629.384 1174.69C628.895 1175.03 628.315 1175.22 627.72 1175.22V1175.22Z" fill="#CCCCCC"/>
<path d="M1366.25 1096.68L1362.12 1100.96L1366.03 1102.41L1366.25 1096.68Z" fill="#D0A8A8"/>
<path d="M1362.04 1091.75L1357.92 1096.02L1361.82 1097.47L1362.04 1091.75Z" fill="#D0A8A8"/>
<path d="M1363.25 1094.82L1359.12 1099.09L1363.02 1100.54L1363.25 1094.82Z" fill="#D0A8A8"/>
<path d="M1359.05 1089.88L1354.92 1094.15L1358.82 1095.6L1359.05 1089.88Z" fill="#D0A8A8"/>
<path d="M1362.73 1088.15L1364.52 1078.98L1358.41 1079.85L1362.73 1088.15Z" fill="#D0A8A8"/>
<path d="M1372.03 1092.01L1373.81 1082.84L1367.7 1083.71L1372.03 1092.01Z" fill="#D0A8A8"/>
<path d="M1368.03 1088.55L1369.81 1079.37L1363.71 1080.25L1368.03 1088.55Z" fill="#D0A8A8"/>
<path d="M1377.32 1092.41L1379.11 1083.24L1373 1084.11L1377.32 1092.41Z" fill="#D0A8A8"/>
<path d="M1388.86 1072.01C1389.56 1067.51 1387.02 1063.39 1383.18 1062.81C1379.33 1062.22 1375.65 1065.39 1374.95 1069.89C1374.25 1074.39 1376.79 1078.5 1380.63 1079.09C1384.47 1079.68 1388.16 1076.51 1388.86 1072.01Z" fill="#3E0101" fill-opacity="0.65"/>
<path d="M1063.64 1159.92L1029.4 1101.81L1071.62 1077.23L1105.86 1135.33V1135.34C1109.14 1140.9 1110.07 1147.53 1108.42 1153.77C1106.78 1160.01 1102.72 1165.35 1097.12 1168.61C1091.52 1171.87 1084.85 1172.78 1078.57 1171.15C1072.29 1169.52 1066.92 1165.48 1063.64 1159.92Z" fill="#71202C"/>
<path d="M995.09 1048.93C1006.93 1037.17 999.821 1011.04 979.207 990.569C958.594 970.097 932.283 963.034 920.442 974.795C908.6 986.556 915.711 1012.69 936.324 1033.16C956.938 1053.63 983.248 1060.69 995.09 1048.93Z" fill="#71202C"/>
<path d="M1196.3 1159.93L1162.06 1101.81L1204.28 1077.23L1238.53 1135.35C1241.8 1140.91 1242.72 1147.54 1241.07 1153.78C1239.43 1160.02 1235.37 1165.35 1229.77 1168.61C1224.17 1171.87 1217.51 1172.78 1211.23 1171.16C1204.95 1169.53 1199.58 1165.49 1196.3 1159.93V1159.93Z" fill="#71202C"/>
<path d="M956.333 1069.99C956.352 1053.29 963.095 1037.29 975.083 1025.49C987.072 1013.69 1003.33 1007.05 1020.28 1007.03H1222.71C1229.88 1007.04 1236.75 1009.84 1241.82 1014.83C1246.88 1019.82 1249.73 1026.58 1249.74 1033.64V1056.32C1249.72 1076.63 1241.51 1096.11 1226.92 1110.47C1212.33 1124.84 1192.54 1132.92 1171.91 1132.94H1020.28C1003.33 1132.92 987.072 1126.29 975.083 1114.48C963.095 1102.68 956.352 1086.68 956.333 1069.99V1069.99Z" fill="#71202C"/>
<path d="M1003.55 1167.76V1100.63H1051.89V1167.76C1051.89 1174.19 1049.34 1180.35 1044.81 1184.9C1040.28 1189.45 1034.13 1192 1027.72 1192C1021.31 1192 1015.16 1189.45 1010.63 1184.9C1006.09 1180.35 1003.55 1174.19 1003.55 1167.76Z" fill="#71202C"/>
<path d="M1145.19 1167.74V1100.63H1193.53V1167.74C1193.54 1170.92 1192.91 1174.08 1191.7 1177.02C1190.49 1179.96 1188.71 1182.64 1186.46 1184.89C1184.22 1187.15 1181.55 1188.93 1178.62 1190.15C1175.68 1191.37 1172.54 1192 1169.36 1192C1166.19 1192 1163.04 1191.37 1160.11 1190.15C1157.17 1188.93 1154.51 1187.15 1152.26 1184.89C1150.02 1182.64 1148.24 1179.96 1147.02 1177.02C1145.81 1174.08 1145.19 1170.92 1145.19 1167.74V1167.74Z" fill="#71202C"/>
<path d="M1262.06 955.226C1263.31 947.425 1267.65 940.416 1274.12 935.738C1280.58 931.06 1288.65 929.096 1296.54 930.275C1304.43 931.454 1311.51 935.681 1316.22 942.029C1320.93 948.376 1322.89 956.325 1321.66 964.131L1309.35 1041.47L1249.74 1032.57L1262.06 955.226Z" fill="#71202C"/>
<path d="M1263.56 946.548C1263.98 943.891 1264.92 941.34 1266.33 939.041C1267.75 936.742 1269.6 934.74 1271.79 933.149C1273.99 931.557 1276.47 930.408 1279.11 929.767C1281.75 929.126 1284.49 929.006 1287.17 929.413C1289.85 929.819 1292.43 930.745 1294.75 932.138C1297.07 933.53 1299.09 935.362 1300.69 937.528C1302.29 939.694 1303.44 942.153 1304.09 944.763C1304.73 947.374 1304.84 950.084 1304.43 952.741L1290.85 1039.19L1249.99 1032.99L1263.56 946.548Z" fill="#71202C"/>
<path d="M1219.5 1062.56L1229.33 1000.83C1231.73 985.845 1240.04 972.377 1252.45 963.381C1264.86 954.385 1280.34 950.596 1295.5 952.845L1311.17 955.187C1329.24 957.91 1345.44 967.609 1356.21 982.156C1366.98 996.703 1371.44 1014.91 1368.62 1032.78L1360.53 1083.64C1359.63 1089.25 1356.51 1094.3 1351.87 1097.66C1347.22 1101.03 1341.43 1102.45 1335.75 1101.61L1237.54 1086.93C1231.87 1086.07 1226.78 1083.03 1223.4 1078.46C1220.02 1073.89 1218.62 1068.17 1219.5 1062.56V1062.56Z" fill="#71202C"/>
<path d="M1242.43 1088.93C1250.3 1071.1 1226.13 1006.47 1226.13 1006.47H1208.71L1225.01 1112.33C1225.01 1112.33 1234.56 1106.76 1242.43 1088.93Z" fill="#C4C4C4"/>
<path d="M1195.15 1010.61L1218.1 1031.68L1224.79 1020.51L1195.15 1010.61Z" fill="white"/>
<path d="M1205.78 1038.87L1225.79 1052.01L1229.74 1037.4L1205.78 1038.87Z" fill="white"/>
<path d="M1199.75 1068.05L1229.41 1069.56L1227.55 1057.71L1199.75 1068.05Z" fill="white"/>
<path d="M1211.63 1095.42L1238.35 1087.39L1228.42 1073.31L1211.63 1095.42Z" fill="white"/>
<path fill-rule="evenodd" clip-rule="evenodd" d="M1359.78 1045.11L1252.79 1028.42L1243.84 1087.07L1350.84 1103.76C1357.02 1104.71 1363.29 1103.7 1368.79 1100.94L1343.32 1085.58L1383.25 1084.82C1383.94 1082.96 1384.45 1081.02 1384.75 1079.03C1385.93 1071.26 1383.97 1063.33 1379.29 1056.97C1374.61 1050.62 1367.59 1046.35 1359.78 1045.11Z" fill="#71202C"/>
<mask id="mask0" mask-type="alpha" maskUnits="userSpaceOnUse" x="1345" y="988" width="21" height="47">
<ellipse rx="10.1175" ry="23.4" transform="matrix(-1 0 0 1 1355.41 1011.49)" fill="white"/>
</mask>
<g mask="url(#mask0)">
<ellipse rx="9.39484" ry="9.50625" transform="matrix(-1 0 0 1 1351.8 1026.84)" fill="#C0392B"/>
</g>
<path d="M715.777 984.564L712.513 988.998L716.259 989.871L715.777 984.564Z" fill="#D0A8A8"/>
<path d="M711.34 980.507L708.077 984.941L711.822 985.814L711.34 980.507Z" fill="#D0A8A8"/>
<path d="M712.809 983.201L709.546 987.634L713.291 988.508L712.809 983.201Z" fill="#D0A8A8"/>
<path d="M708.373 979.144L705.11 983.578L708.855 984.451L708.373 979.144Z" fill="#D0A8A8"/>
<path d="M711.54 977.109L712.071 968.432L706.589 969.962L711.54 977.109Z" fill="#D0A8A8"/>
<path d="M720.502 979.568L721.034 970.891L715.552 972.421L720.502 979.568Z" fill="#D0A8A8"/>
<path d="M716.431 976.845L716.962 968.168L711.48 969.699L716.431 976.845Z" fill="#D0A8A8"/>
<path d="M725.393 979.303L725.925 970.626L720.443 972.157L725.393 979.303Z" fill="#D0A8A8"/>
<path d="M584.875 1111.59L553.648 1057.51L592.26 1035.21L623.487 1089.29C624.972 1091.86 625.943 1094.68 626.344 1097.62C626.745 1100.55 626.568 1103.52 625.823 1106.38C625.079 1109.23 623.781 1111.9 622.005 1114.23C620.229 1116.57 618.009 1118.53 615.471 1119.99C612.934 1121.46 610.13 1122.4 607.218 1122.77C604.307 1123.14 601.346 1122.93 598.504 1122.15C595.663 1121.37 592.996 1120.04 590.658 1118.22C588.319 1116.41 586.354 1114.16 584.875 1111.59V1111.59Z" fill="#2F2E41"/>
<path d="M733.498 959.106C733.601 954.874 730.779 951.375 727.195 951.291C723.612 951.208 720.624 954.571 720.522 958.803C720.419 963.036 723.241 966.535 726.825 966.618C730.408 966.702 733.396 963.338 733.498 959.106Z" fill="#3E0101" fill-opacity="0.65"/>
<path d="M516.096 1142.9L461.707 1111.86L483.995 1072.58L538.383 1103.61L538.384 1103.61C543.593 1106.59 547.414 1111.51 549.008 1117.29C550.601 1123.08 549.836 1129.25 546.881 1134.46C543.925 1139.67 539.022 1143.49 533.248 1145.07C527.475 1146.65 521.305 1145.87 516.096 1142.9Z" fill="#2F2E41"/>
<path d="M409.745 1084.99C413.746 1070.06 395.913 1052.31 369.914 1045.34C343.916 1038.38 319.596 1044.84 315.595 1059.77C311.594 1074.71 329.427 1092.46 355.426 1099.43C381.424 1106.39 405.744 1099.93 409.745 1084.99Z" fill="#2F2E41"/>
<path d="M622.068 1081.73L567.669 1050.68L589.958 1011.39L644.357 1042.43C649.561 1045.41 653.377 1050.33 654.967 1056.11C656.557 1061.9 655.792 1068.07 652.838 1073.28C649.884 1078.48 644.984 1082.3 639.215 1083.88C633.445 1085.47 627.278 1084.69 622.068 1081.73V1081.73Z" fill="#2F2E41"/>
<path d="M388.532 1119.92C380.78 1106.46 378.72 1090.46 382.804 1075.42C386.888 1060.37 396.782 1047.53 410.316 1039.69L572.013 946.324C577.741 943.025 584.534 942.118 590.903 943.801C597.272 945.484 602.696 949.62 605.985 955.301L616.538 973.576C625.973 989.958 628.48 1009.44 623.509 1027.75C618.539 1046.05 606.496 1061.69 590.024 1071.22L468.908 1141.16C455.356 1148.97 439.284 1151.11 424.215 1147.13C409.147 1143.15 396.314 1133.36 388.532 1119.92V1119.92Z" fill="#2F2E41"/>
<path d="M471.743 1176.94L440.505 1122.84L479.117 1100.54L510.355 1154.64C513.347 1159.82 514.182 1165.96 512.677 1171.72C511.171 1177.47 507.449 1182.37 502.329 1185.32C497.209 1188.28 491.11 1189.06 485.374 1187.48C479.638 1185.91 474.735 1182.12 471.743 1176.94Z" fill="#2F2E41"/>
<path d="M603.501 866.421C603.716 859.073 606.842 852.089 612.194 847.003C617.546 841.918 624.686 839.145 632.048 839.295C639.409 839.444 646.391 842.503 651.46 847.8C656.529 853.097 659.272 860.199 659.087 867.549L657.106 940.382L601.519 939.254L603.501 866.421Z" fill="#2F2E41"/>
<path d="M603.837 858.234C603.9 855.733 604.455 853.267 605.471 850.977C606.487 848.688 607.943 846.62 609.757 844.891C611.572 843.162 613.708 841.806 616.044 840.9C618.381 839.995 620.871 839.558 623.374 839.614C625.877 839.67 628.344 840.218 630.632 841.228C632.92 842.237 634.986 843.687 636.712 845.495C638.437 847.304 639.789 849.435 640.689 851.767C641.589 854.1 642.02 856.588 641.957 859.089L639.918 940.474L601.798 939.619L603.837 858.234Z" fill="#2F2E41"/>
<path d="M577.46 970.53L579.036 912.399C579.435 898.284 585.425 884.867 595.693 875.09C605.96 865.313 619.667 859.975 633.806 860.247L648.417 860.545C665.273 860.908 681.253 867.931 692.85 880.074C704.447 892.217 710.714 908.488 710.277 925.317L708.978 973.211C708.829 978.496 706.586 983.519 702.742 987.179C698.897 990.84 693.766 992.838 688.472 992.736L596.884 990.869C591.591 990.756 586.574 988.55 582.932 984.737C579.291 980.924 577.322 975.815 577.46 970.53V970.53Z" fill="#2F2E41"/>
<path d="M625.875 1003.23C623.864 985.231 574.485 944.297 574.485 944.297L560.567 952.334L622.847 1030.12C622.847 1030.12 627.887 1021.22 625.875 1003.23Z" fill="#C4C4C4"/>
<path d="M551.661 961.925L579.798 968.312L579.946 956.23L551.661 961.925Z" fill="white"/>
<path d="M573.299 979.792L595.403 981.155L591.759 967.557L573.299 979.792Z" fill="white"/>
<path d="M582.066 1006.09L606.458 993.629L599.46 984.93L582.066 1006.09Z" fill="white"/>
<path d="M604.293 1022.67L621.898 1003.87L607.417 997.106L604.293 1022.67Z" fill="white"/>
<path fill-rule="evenodd" clip-rule="evenodd" d="M703.675 937.741L603.805 935.065L623.99 991.488L702.533 992.924C708.301 993.064 713.917 991.387 718.614 988.19L693.476 977.046L729.908 971.59C730.315 969.791 730.544 967.943 730.583 966.069C730.734 958.764 727.986 951.679 722.942 946.369C717.898 941.058 710.969 937.956 703.675 937.741Z" fill="#2F2E41"/>
<mask id="mask1" mask-type="alpha" maskUnits="userSpaceOnUse" x="683" y="884" width="25" height="47">
<ellipse rx="9.33216" ry="21.775" transform="matrix(-0.99165 0.128957 0.128957 0.99165 695.643 907.233)" fill="white"/>
</mask>
<g mask="url(#mask1)">
<ellipse rx="8.66557" ry="8.84611" transform="matrix(-0.99165 0.128957 0.128957 0.99165 694.18 921.834)" fill="#C0392B"/>
</g>
<path d="M3063.92 523.084C2984.77 533.443 2934.79 628.642 2944.61 703.628C2956.02 790.838 3037.55 790.424 3097.87 782.53C3158.19 774.637 3237.09 754.059 3225.67 666.848C3215.86 591.862 3143.08 512.726 3063.92 523.084ZM3098.82 703.452C3098.73 703.5 3098.62 703.497 3098.53 703.543L3100.19 716.253C3100.98 722.229 3096.77 727.696 3090.8 728.478C3084.82 729.26 3079.36 725.057 3078.57 719.083L3076.9 706.297C3069.46 704.826 3062.04 701.157 3055.3 694.973C3050.86 690.904 3050.56 684.008 3054.63 679.565C3058.69 675.126 3065.59 674.814 3070.03 678.893C3094.68 701.561 3103.97 660.782 3082.31 663.616C3064.43 665.956 3047.98 653.312 3045.64 635.429C3043.94 622.494 3049.74 609.19 3063.29 602.27L3061.6 589.359C3060.82 583.383 3065.02 577.916 3070.99 577.134C3076.97 576.352 3082.44 580.555 3083.22 586.529L3084.91 599.476C3090.76 600.629 3096.61 602.911 3102.09 606.985C3106.92 610.583 3107.94 617.408 3104.34 622.238C3100.75 627.08 3093.92 628.09 3089.09 624.492C3066.69 607.884 3057.86 644.825 3079.48 641.995C3097.37 639.655 3113.82 652.299 3116.16 670.182C3117.93 683.76 3110.96 697.139 3098.82 703.452Z" fill="#F1C40F"/>
<path d="M3112.38 414.214C3070.96 407.824 3027.46 413.516 2989.08 430.35C2982.64 433.164 2980.46 441.357 2984.86 447.03L3005.04 474.162C3031.99 459.128 3073.94 451.92 3108.23 460.664L3120.75 429.247C3123.55 422.632 3119.33 415.277 3112.38 414.214Z" fill="#F1C40F"/>
<path d="M3109.91 484.404C3087.82 472.801 3028.41 479.971 3009.41 497.623C3001.26 505.139 2997.78 515.726 2999.23 526.121C3018.55 512.408 3042.2 503.937 3061.09 501.465C3084.1 498.454 3106.44 501.624 3127.21 509.373C3125.99 499.336 3120.21 489.821 3109.91 484.404Z" fill="#F1C40F"/>
<path d="M2096.14 846.963C2024.63 882.446 2008.25 988.71 2041.87 1056.45C2080.96 1135.24 2157.95 1108.39 2212.44 1081.35C2266.94 1054.31 2334.89 1009.25 2295.79 930.458C2262.18 862.715 2167.65 811.48 2096.14 846.963ZM2187.68 1006.25C2187.61 1006.32 2187.51 1006.35 2187.44 1006.43L2193.13 1017.91C2195.81 1023.31 2193.61 1029.84 2188.21 1032.52C2182.82 1035.2 2176.28 1033 2173.6 1027.6L2167.87 1016.05C2160.35 1017.07 2152.14 1016.01 2143.76 1012.35C2138.24 1009.94 2135.72 1003.52 2138.13 997.989C2140.53 992.474 2146.95 989.942 2152.48 992.357C2183.15 1005.8 2178.71 964.212 2159.14 973.922C2142.98 981.939 2123.32 975.317 2115.3 959.161C2109.5 947.475 2110.66 933.011 2121.24 922.068L2115.45 910.404C2112.77 905.006 2114.97 898.47 2120.37 895.792C2125.77 893.113 2132.3 895.315 2134.98 900.712L2140.79 912.409C2146.69 911.603 2152.96 911.863 2159.47 913.938C2165.2 915.773 2168.39 921.897 2166.55 927.634C2164.72 933.381 2158.59 936.552 2152.85 934.716C2126.28 926.276 2129.91 964.082 2149.45 954.389C2165.6 946.373 2185.27 952.994 2193.28 969.15C2199.37 981.417 2197.12 996.333 2187.68 1006.25Z" fill="#F1C40F"/>
<path d="M2106.65 728.258C2065.39 735.656 2026.1 755.153 1995.26 783.532C1990.07 788.285 1990.67 796.742 1996.68 800.678L2024.57 819.793C2045.19 796.827 2082.53 776.397 2117.79 773.543L2119.44 739.763C2119.94 732.598 2113.57 727.008 2106.65 728.258Z" fill="#F1C40F"/>
<path d="M2127.09 795.451C2102.43 791.645 2048.56 817.705 2036.32 840.568C2031.04 850.323 2031.19 861.466 2035.94 870.826C2049.76 851.586 2069.38 835.9 2086.45 827.431C2107.24 817.116 2129.4 812.866 2151.56 813.455C2147.15 804.357 2138.59 797.232 2127.09 795.451Z" fill="#F1C40F"/>
<path d="M2263.26 885.317C2211.6 910.95 2199.77 987.714 2224.05 1036.65C2252.29 1093.57 2307.91 1074.17 2347.27 1054.64C2386.64 1035.1 2435.73 1002.55 2407.48 945.634C2383.2 896.696 2314.92 859.684 2263.26 885.317ZM2329.39 1000.38C2329.33 1000.44 2329.26 1000.46 2329.21 1000.51L2333.33 1008.81C2335.26 1012.71 2333.67 1017.43 2329.77 1019.36C2325.87 1021.3 2321.15 1019.71 2319.22 1015.81L2315.08 1007.46C2309.65 1008.2 2303.71 1007.44 2297.66 1004.79C2293.67 1003.05 2291.85 998.409 2293.59 994.418C2295.33 990.433 2299.96 988.604 2303.96 990.349C2326.11 1000.06 2322.9 970.017 2308.77 977.032C2297.1 982.823 2282.89 978.039 2277.1 966.369C2272.91 957.926 2273.75 947.478 2281.39 939.573L2277.21 931.147C2275.27 927.247 2276.86 922.526 2280.76 920.591C2284.66 918.656 2289.38 920.246 2291.32 924.145L2295.51 932.595C2299.77 932.013 2304.3 932.201 2309.01 933.699C2313.15 935.025 2315.45 939.449 2314.12 943.594C2312.8 947.745 2308.37 950.035 2304.23 948.709C2285.03 942.612 2287.66 969.923 2301.77 962.921C2313.44 957.13 2327.64 961.913 2333.43 973.584C2337.83 982.446 2336.2 993.221 2329.39 1000.38Z" fill="#F1C40F"/>
<path d="M2270.85 799.566C2241.05 804.91 2212.66 818.995 2190.38 839.496C2186.64 842.929 2187.07 849.038 2191.41 851.882L2211.56 865.69C2226.45 849.1 2253.42 834.342 2278.9 832.28L2280.09 807.877C2280.45 802.701 2275.85 798.663 2270.85 799.566Z" fill="#F1C40F"/>
<path d="M2285.62 848.106C2267.8 845.356 2228.89 864.182 2220.04 880.697C2216.23 887.744 2216.34 895.794 2219.77 902.556C2229.76 888.657 2243.93 877.325 2256.26 871.207C2271.27 863.756 2287.28 860.686 2303.29 861.112C2300.1 854.539 2293.93 849.392 2285.62 848.106Z" fill="#F1C40F"/>
<path d="M2354.97 861.043C2303.31 886.676 2291.48 963.44 2315.76 1012.38C2344 1069.29 2399.62 1049.9 2438.99 1030.36C2478.35 1010.83 2527.44 978.275 2499.19 921.359C2474.91 872.422 2406.63 835.41 2354.97 861.043ZM2421.1 976.107C2421.04 976.162 2420.97 976.184 2420.92 976.237L2425.04 984.532C2426.97 988.432 2425.38 993.153 2421.48 995.088C2417.58 997.023 2412.86 995.433 2410.93 991.533L2406.79 983.19C2401.36 983.928 2395.42 983.161 2389.37 980.516C2385.38 978.777 2383.56 974.135 2385.3 970.143C2387.04 966.159 2391.67 964.329 2395.67 966.075C2417.82 975.787 2414.61 945.742 2400.48 952.757C2388.81 958.548 2374.6 953.765 2368.81 942.094C2364.62 933.652 2365.46 923.204 2373.1 915.298L2368.92 906.872C2366.98 902.972 2368.57 898.251 2372.47 896.317C2376.37 894.382 2381.09 895.972 2383.03 899.871L2387.22 908.32C2391.48 907.738 2396.02 907.926 2400.72 909.425C2404.86 910.751 2407.16 915.175 2405.83 919.319C2404.51 923.47 2400.08 925.761 2395.94 924.435C2376.74 918.338 2379.37 945.648 2393.48 938.647C2405.15 932.856 2419.35 937.639 2425.14 949.31C2429.54 958.171 2427.91 968.946 2421.1 976.107Z" fill="#F1C40F"/>
<path d="M2362.56 775.292C2332.76 780.636 2304.37 794.721 2282.09 815.222C2278.35 818.654 2278.78 824.764 2283.12 827.607L2303.27 841.416C2318.16 824.826 2345.13 810.067 2370.61 808.005L2371.8 783.603C2372.16 778.427 2367.56 774.389 2362.56 775.292Z" fill="#F1C40F"/>
<path d="M2377.33 823.831C2359.51 821.081 2320.6 839.907 2311.75 856.423C2307.94 863.47 2308.05 871.52 2311.48 878.281C2321.47 864.382 2335.64 853.051 2347.97 846.933C2362.98 839.482 2378.99 836.412 2395 836.837C2391.81 830.265 2385.64 825.118 2377.33 823.831Z" fill="#F1C40F"/>
<path d="M3241.83 581.089C3202.07 589.098 3180.06 639.088 3187.65 676.749C3196.47 720.55 3237.78 717.497 3268.08 711.394C3298.37 705.29 3337.64 692.111 3328.81 648.31C3321.23 610.649 3281.58 573.08 3241.83 581.089ZM3265.8 671.283C3265.76 671.311 3265.7 671.313 3265.66 671.34L3266.94 677.723C3267.55 680.725 3265.61 683.642 3262.61 684.247C3259.61 684.851 3256.69 682.912 3256.08 679.911L3254.79 673.49C3250.97 673.003 3247.08 671.403 3243.45 668.504C3241.06 666.596 3240.66 663.112 3242.57 660.718C3244.48 658.327 3247.96 657.928 3250.35 659.84C3263.63 670.47 3266.92 649.478 3256.05 651.67C3247.06 653.48 3238.29 647.645 3236.48 638.663C3235.17 632.166 3237.64 625.222 3244.27 621.243L3242.96 614.758C3242.35 611.757 3244.29 608.839 3247.29 608.235C3250.3 607.63 3253.21 609.57 3253.82 612.57L3255.13 619.073C3258.13 619.454 3261.17 620.406 3264.09 622.28C3266.67 623.935 3267.42 627.358 3265.77 629.931C3264.11 632.51 3260.69 633.261 3258.12 631.606C3246.18 623.97 3243 642.999 3253.86 640.811C3262.84 639.002 3271.62 644.836 3273.43 653.818C3274.8 660.637 3271.74 667.661 3265.8 671.283Z" fill="#F1C40F"/>
<path d="M3262.59 524.223C3241.37 522.429 3219.53 526.83 3200.66 536.7C3197.49 538.35 3196.68 542.579 3199.11 545.3L3210.28 558.347C3223.41 549.788 3244.42 544.673 3262.1 547.909L3267.35 531.551C3268.54 528.1 3266.15 524.519 3262.59 524.223Z" fill="#F1C40F"/>
<path d="M3263.79 559.882C3252.19 554.772 3222.33 560.477 3213.31 570.085C3209.44 574.179 3208.05 579.666 3209.15 584.883C3218.46 577.26 3230.15 572.142 3239.64 570.231C3251.19 567.902 3262.63 568.73 3273.42 571.933C3272.46 566.889 3269.2 562.268 3263.79 559.882Z" fill="#F1C40F"/>
<path d="M3968.13 548.78C3972.53 548.278 3976.76 546.824 3980.53 544.521C3984.31 542.218 3987.53 539.121 3989.96 535.449C3992.4 531.777 3994 527.619 3994.64 523.268C3995.29 518.916 3994.96 514.478 3993.69 510.264L4081 447.725L4028.7 428L3953.81 490.412C3946.83 493 3941.04 498.043 3937.55 504.586C3934.05 511.128 3933.1 518.716 3934.87 525.91C3936.63 533.105 3940.99 539.407 3947.12 543.622C3953.25 547.836 3960.72 549.672 3968.13 548.78H3968.13Z" fill="#FFB6B6"/>
<path d="M3904.99 1163L3877.22 1163L3864 1057H3905L3904.99 1163Z" fill="#FFB6B6"/>
<path d="M3912 1190L3823 1190V1188.9C3823 1179.91 3826.65 1171.28 3833.15 1164.93C3839.64 1158.57 3848.45 1155 3857.64 1155H3857.64L3912 1155L3912 1190Z" fill="#2F2E41"/>
<path d="M3682.99 1163L3655.89 1163L3643 1057H3683L3682.99 1163Z" fill="#FFB6B6"/>
<path d="M3692 1190L3602 1190V1188.9C3602 1179.91 3605.69 1171.28 3612.26 1164.93C3618.83 1158.57 3627.74 1155 3637.03 1155H3637.03L3692 1155L3692 1190Z" fill="#2F2E41"/>
<path d="M3715.65 571.778L3657.38 891.247L3637 1145L3703.17 1141.74L3740.83 895.323L3834.45 680.77L3862.32 1141.14L3923.23 1141.34L3956 559L3715.65 571.778Z" fill="black"/>
<path d="M3963.42 206.505L3881.53 174L3787.59 184.723L3707.95 228.645C3707.95 228.645 3732.31 533.45 3697 604.946C3697 604.946 3725.29 644.043 3840.57 634.499C3840.57 634.499 3952.87 620.34 3955.65 583.603C3958.43 546.866 3959.02 480.073 3959.02 480.073L3998 346.067L3963.42 206.505Z" fill="#0137FF"/>
<path d="M3729.78 233.912L3697.88 228C3697.88 228 3663.93 243.012 3664.28 287.747C3664.63 332.481 3604.32 482.459 3676.48 488.746C3748.64 495.034 3729.78 382.392 3729.78 382.392V233.912Z" fill="#0137FF"/>
<path d="M3938 224.875L3963.98 206C3963.98 206 4003.64 214.919 4018.31 246.701C4018.31 246.701 4180.95 364.124 4136.21 408.657C4091.48 453.19 4000.29 508 4000.29 508L3966.52 469.943L4050.29 394.4L3981.57 332.08L3938 224.875Z" fill="#0137FF"/>
<path d="M3896 87.9957C3895.99 105.77 3888.92 122.813 3876.36 135.378C3863.8 147.942 3846.76 155 3829 155C3811.24 155 3794.2 147.942 3781.64 135.378C3769.08 122.813 3762.01 105.77 3762 87.9957V85.4223C3762.69 67.8855 3770.22 51.3172 3782.97 39.2747C3795.73 27.2321 3812.7 20.6755 3830.23 21.0124C3847.77 21.3493 3864.47 28.5528 3876.76 41.0765C3889.05 53.6002 3895.94 70.4455 3895.95 87.9957H3896Z" fill="#FFB6B6"/>
<path d="M3838.56 77.376C3842.89 76.6712 3847.59 76.0009 3851.47 77.9777C3859.91 82.2578 3857.97 94.3933 3862.58 102.404C3864.4 105.584 3867.34 108.179 3868.55 111.617C3869.77 115.055 3869.02 119.352 3870.93 122.67C3873.68 127.465 3881.15 128.17 3886.06 125.317C3890.7 122.129 3894.06 117.426 3895.55 112.03C3897.18 107.457 3898.55 102.404 3902.49 99.4126C3903.92 98.605 3905.2 97.5649 3906.28 96.3358C3907.09 94.7077 3907.41 92.8788 3907.18 91.0758C3907.18 79.4559 3905.36 70.4488 3908.01 59.1899C3912.26 41.038 3916.14 32.0652 3902.69 18.6061C3895.81 11.8008 3886.95 7.30453 3877.36 5.74853C3868.69 4.33903 3855.94 16.3372 3847.17 16.0623C3824.87 15.1856 3806.05 -5.30394 3784.78 1.31389C3775.49 4.21084 3767.43 10.0952 3761.87 18.039C3751.48 33.2342 3752.41 39.113 3753.92 57.2476C3753.9 58.6245 3754.3 59.9748 3755.08 61.1151C3755.86 62.0434 3757.13 62.5419 3757.89 63.4873C3758.71 64.7362 3759.02 66.2483 3758.75 67.7159C3758.52 70.6698 3757.83 73.5697 3756.69 76.3106C3756.41 76.7688 3756.23 77.2857 3756.18 77.8219C3756.12 78.358 3756.19 78.8994 3756.38 79.4046C3756.81 79.9788 3757.42 80.3912 3758.11 80.5735C3766.78 83.6676 3776.14 77.703 3785.41 77.8576C3794.68 78.0123 3803.48 84.1661 3813.05 82.8254C3821.49 81.5358 3830.05 78.7683 3838.56 77.376Z" fill="#2F2E41"/>
<path d="M3837.36 451.004L3837.36 451.005L3762.54 461.424L3762.54 461.424C3760.84 461.666 3759.11 461.325 3757.63 460.456C3756.16 459.588 3755.02 458.243 3754.41 456.645L3754.41 456.643L3690.01 289.466L3689.54 289.646L3690.01 289.466C3689.61 288.451 3689.45 287.364 3689.51 286.279C3689.58 285.193 3689.88 284.135 3690.4 283.177C3690.92 282.218 3691.63 281.382 3692.5 280.724C3693.36 280.074 3694.35 279.614 3695.4 279.375C3695.41 279.372 3695.42 279.369 3695.43 279.366L3695.43 279.366L3765.8 263.703L3765.8 263.703C3766.38 263.572 3766.95 263.365 3767.48 263.089L3767.48 263.088L3835.92 227.394L3835.92 227.394C3836.42 227.135 3836.94 226.932 3837.48 226.788L3837.48 226.788L3912.8 206.759L3912.8 206.758C3914.61 206.274 3916.53 206.475 3918.2 207.325C3919.87 208.174 3921.16 209.61 3921.83 211.355L3921.83 211.356L3977.99 357.124L3977.99 357.125C3978.45 358.316 3978.6 359.604 3978.43 360.869C3978.26 362.134 3977.76 363.334 3976.99 364.356L3976.99 364.357L3957.57 390.374L3957.97 390.673L3957.57 390.374C3956.72 391.523 3955.55 392.405 3954.21 392.918L3954.21 392.918L3911.76 409.189L3911.76 409.189C3911.44 409.315 3911.12 409.466 3910.81 409.64L3911.06 410.074L3910.81 409.64L3840.09 450.076C3839.75 450.269 3839.4 450.436 3839.04 450.575L3839.21 451.042L3839.04 450.575C3838.5 450.781 3837.94 450.925 3837.36 451.004Z" fill="white" stroke="black"/>
<path d="M3920.34 241.778L3714.48 320.893L3718.01 330.066L3923.87 250.952L3920.34 241.778Z" fill="white"/>
<path d="M3932.09 272.357L3726.23 351.471L3729.76 360.644L3935.62 281.53L3932.09 272.357Z" fill="white"/>
<path d="M3955.83 334.124L3749.97 413.238L3753.49 422.412L3959.36 343.297L3955.83 334.124Z" fill="white"/>
<path d="M3873.52 228L3935 388.473L3925.85 392L3864 230.549L3873.52 228Z" fill="white"/>
<path d="M3794 256L3781.49 291.233L3777.15 303.452L3767.03 331.968L3764.87 338.063L3762.7 344.189L3759.84 352.23L3739.33 410L3734 395.957L3750.72 348.847L3754.5 338.182L3755.06 336.626L3759.53 324.014L3765.18 308.113L3769.52 295.889L3781.28 262.732L3781.29 262.729L3794 256Z" fill="white"/>
<path d="M3740.79 277L3805 442.602L3794.91 444L3731 279.17L3740.79 277Z" fill="white"/>
<path d="M3727.5 437C3743.24 437 3756 423.569 3756 407C3756 390.431 3743.24 377 3727.5 377C3711.76 377 3699 390.431 3699 407C3699 423.569 3711.76 437 3727.5 437Z" fill="#FFB6B6"/>
<path d="M1468.63 236.451C1433.28 236.451 1404.63 206.147 1404.63 168.767C1404.63 131.386 1433.28 101.083 1468.63 101.083C1503.97 101.083 1532.62 131.386 1532.62 168.767C1532.62 206.147 1503.97 236.451 1468.63 236.451Z" fill="#FFB8B8"/>
<path d="M1659.36 1165.97L1689.79 1155.71L1666.86 1026.67L1621.94 1041.81L1659.36 1165.97Z" fill="#FFB8B8"/>
<path d="M1710.14 1138.71L1650.06 1158.96L1661.84 1198.05L1757.5 1165.8L1757.06 1164.34C1755.57 1159.4 1753.18 1154.82 1750.01 1150.85C1746.85 1146.89 1742.98 1143.63 1738.62 1141.25C1734.26 1138.87 1729.51 1137.42 1724.62 1136.98C1719.73 1136.55 1714.82 1137.13 1710.14 1138.71V1138.71Z" fill="#2F2E41"/>
<path d="M1437.91 1165.3H1469.86L1485.06 1034.99H1437.91V1165.3Z" fill="#FFB8B8"/>
<path d="M1494.13 1155.65H1431.07V1196.68H1531.47V1195.14C1531.47 1189.96 1530.5 1184.82 1528.63 1180.03C1526.75 1175.24 1524 1170.88 1520.53 1167.22C1517.06 1163.55 1512.95 1160.64 1508.42 1158.66C1503.89 1156.67 1499.03 1155.65 1494.13 1155.65V1155.65Z" fill="#2F2E41"/>
<path d="M1438.85 1123.02L1449.63 1121.31C1482.33 1116.16 1484.29 1115.85 1489.48 1113.44C1492.13 1112.21 1492.32 1093.6 1490.73 988.965C1489.56 912.161 1488.11 816.576 1490.93 765.261C1491.05 763.236 1491.8 761.312 1493.08 759.799C1494.36 758.285 1496.08 757.271 1497.97 756.919C1499.86 756.567 1501.8 756.898 1503.49 757.859C1505.18 758.82 1506.52 760.355 1507.28 762.216C1531.61 821.64 1572.43 954.623 1599.44 1042.62C1608.84 1073.23 1616.26 1097.41 1620.96 1111.9C1621.86 1114.64 1623.7 1116.93 1626.12 1118.31C1628.53 1119.69 1631.35 1120.07 1634.02 1119.38C1656.25 1113.5 1654.76 1111 1686.42 1102.34C1689.16 1101.6 1691.52 1099.77 1693.01 1097.23C1694.51 1094.69 1695.01 1091.64 1694.42 1088.72C1688.7 1060.15 1583.9 597.058 1575.88 553.036C1575.61 551.529 1575.05 550.094 1574.26 548.814C1573.46 547.533 1572.43 546.433 1571.22 545.576C1570.02 544.72 1568.67 544.124 1567.25 543.823C1565.82 543.521 1564.36 543.521 1562.94 543.822C1539.34 548.85 1524.99 554.184 1501.67 559.342C1476.51 564.908 1450.49 570.664 1425.12 576.036C1422.59 576.574 1420.33 578.041 1418.73 580.177C1412.45 588.565 1403.14 593.273 1393.28 598.257C1386.63 601.617 1401.69 601.314 1395.91 606.161C1372.47 625.784 1406.17 1024.27 1426.54 1114.27C1427.19 1117.09 1428.82 1119.55 1431.09 1121.16C1433.37 1122.78 1436.14 1123.44 1438.85 1123.02V1123.02Z" fill="black"/>
<path d="M1458.14 671.37C1458.87 667.873 1458.86 664.248 1458.12 660.753C1457.38 657.258 1455.93 653.978 1453.86 651.142C1451.79 648.306 1449.16 645.985 1446.15 644.341C1443.14 642.698 1439.83 641.772 1436.44 641.629L1384.71 579.88L1352.59 620.921L1412.08 666.881C1412.23 672.909 1414.46 678.67 1418.36 683.071C1422.26 687.473 1427.55 690.209 1433.22 690.763C1438.9 691.316 1444.57 689.647 1449.17 686.073C1453.76 682.499 1456.95 677.268 1458.14 671.37V671.37Z" fill="#FFB8B8"/>
<path d="M1441.35 227.992C1445.08 211.225 1426.19 175.146 1429.93 158.379C1432.46 147.024 1457.71 154.743 1463.6 144.88C1469.49 135.018 1479.36 127.028 1490.39 126.897C1503.07 126.746 1515.55 136.692 1527.56 132.394C1539.7 128.047 1543.58 110.46 1538.21 98.1482C1532.84 85.836 1521.28 77.9905 1509.85 71.8428C1490.39 61.3739 1467.74 53.7289 1446.91 60.6554C1434.32 64.8424 1423.8 73.915 1413.61 82.7885C1404.33 90.8771 1394.88 99.1491 1388.39 109.86C1375.68 130.844 1376.44 159.118 1387.31 181.234C1398.18 203.349 1417.98 219.579 1439.8 228.999" fill="#2F2E41"/>
<path d="M1598.49 618.189C1591.59 605.985 1581.1 548.806 1568.17 452.832C1559.36 387.314 1551.69 320.744 1547.88 286.739C1547.59 283.987 1546.64 281.36 1545.12 279.103C1543.6 276.846 1541.56 275.035 1539.2 273.838C1536.73 272.577 1534.28 271.384 1531.84 270.258C1500.31 255.758 1468.37 250.955 1436.9 255.978C1405.47 261.083 1375.99 275.288 1351.73 297.021L1351.44 297.307L1351.37 297.715C1351.23 298.471 1338.01 373.806 1365.09 424.704C1391.79 474.924 1392.1 607.918 1392.1 609.256V610.965L1393.66 610.497C1435.2 597.943 1595.67 619.905 1597.29 620.13L1599.79 620.475L1598.49 618.189Z" fill="#CCCCCC"/>
<path d="M1428.02 628.392L1346.42 513.321L1388.5 417.957L1385.44 304.855L1350.95 298.114L1350.58 298.308C1333.82 308.675 1320.83 324.681 1313.68 343.771C1306.02 364.035 1290.12 432.974 1278.14 487.24C1275.01 501.206 1275.32 515.788 1279.04 529.59C1282.77 543.391 1289.78 555.95 1299.41 566.064L1399.52 671.936L1428.02 628.392Z" fill="#CCCCCC"/>
<path d="M1770.6 400.341C1768.65 397.413 1766.12 394.974 1763.18 393.194C1760.24 391.414 1756.97 390.338 1753.59 390.04C1750.22 389.742 1746.82 390.231 1743.65 391.471C1740.47 392.711 1737.59 394.673 1735.2 397.218L1657.21 395.948L1664.19 448.712L1736.4 433.273C1740.7 437.223 1746.23 439.363 1751.93 439.29C1757.64 439.217 1763.11 436.934 1767.33 432.875C1771.55 428.815 1774.21 423.261 1774.81 417.265C1775.41 411.269 1773.92 405.247 1770.6 400.341Z" fill="#FFB8B8"/>
<path d="M1731.45 446.494L1720.3 394.863L1584.93 380.945L1547.82 286.555L1546.73 283.768L1532.15 270.465L1531.83 270.258C1500.32 255.76 1468.37 250.956 1436.89 255.977L1435.79 256.155L1435.86 257.334C1436.57 269.413 1439.5 281.23 1444.49 292.121C1458.49 322.839 1544.65 453.416 1545.52 454.731L1545.9 455.313L1731.45 446.494Z" fill="#CCCCCC"/>
<path d="M1824.04 219.72L1824.05 219.721L2040.01 309.499L2040.2 309.038L2040.01 309.499C2043.48 310.941 2046.33 313.569 2048.05 316.916C2049.76 320.261 2050.24 324.107 2049.39 327.769C2025.68 424.248 1987.36 516.529 1935.75 601.407C1933.76 604.596 1930.7 606.974 1927.12 608.117C1923.54 609.261 1919.67 609.097 1916.2 607.652L1916.01 608.111L1916.2 607.652L1700.24 517.874L1700.23 517.873C1698.03 516.966 1696.06 515.567 1694.48 513.785C1692.9 512.002 1691.74 509.881 1691.11 507.584L1691.1 507.581L1691.09 507.548L1691.09 507.546C1690.44 505.199 1690.33 502.734 1690.76 500.337C1691.2 497.928 1692.18 495.65 1693.63 493.678L1693.64 493.675C1749.86 416.225 1787.06 326.622 1802.25 232.115L1802.25 232.112C1802.62 229.691 1803.55 227.388 1804.94 225.376C1806.34 223.365 1808.18 221.7 1810.32 220.506L1810.32 220.506C1812.39 219.339 1814.71 218.662 1817.09 218.526C1819.47 218.389 1821.85 218.798 1824.04 219.72Z" fill="white" stroke="black"/>
<path d="M1814.11 433.775L1827.52 404.019L1829.74 367.108L1837.88 370.777L1836.41 395.284L1853.72 377.919L1861.85 381.589L1835.66 407.689L1822.24 437.445L1814.11 433.775ZM1838.95 444.977L1866.57 383.716L1899.13 398.394L1895.5 406.445L1871.08 395.437L1864.22 410.664L1880.49 418.004L1874.99 425.314L1860.55 418.804L1850.76 440.508L1875.18 451.516L1871.51 459.655L1838.95 444.977ZM1883.11 464.886C1881.36 464.097 1880.15 462.814 1879.47 461.036C1878.8 459.258 1878.86 457.494 1879.65 455.744L1885.77 442.179L1893.08 447.686L1890.04 454.425C1889.64 455.3 1889.59 456.19 1889.89 457.095C1890.27 457.968 1890.86 458.589 1891.68 458.957L1901.66 463.455C1902.53 463.85 1903.39 463.887 1904.24 463.566C1905.17 463.214 1905.83 462.6 1906.23 461.725L1913.17 446.322C1913.57 445.447 1913.57 444.573 1913.2 443.7C1912.9 442.795 1912.32 442.146 1911.44 441.751L1896.56 435.043C1894.81 434.254 1893.6 432.971 1892.93 431.193C1892.26 429.415 1892.32 427.651 1893.1 425.901L1901.59 407.085C1902.38 405.335 1903.66 404.123 1905.44 403.45C1907.22 402.778 1908.98 402.836 1910.73 403.625L1930.6 412.582C1932.35 413.371 1933.56 414.654 1934.23 416.432C1934.9 418.21 1934.85 419.974 1934.06 421.724L1929.79 431.176L1922.52 425.581L1923.67 423.043C1924.06 422.168 1924.07 421.294 1923.69 420.421C1923.4 419.516 1922.81 418.866 1921.94 418.472L1911.96 413.973C1911.14 413.605 1910.27 413.597 1909.34 413.95C1908.49 414.27 1907.87 414.868 1907.48 415.743L1903.49 424.582C1903.1 425.457 1903.05 426.347 1903.34 427.252C1903.72 428.125 1904.32 428.746 1905.14 429.114L1920.1 435.861C1921.85 436.65 1923.06 437.934 1923.74 439.711C1924.41 441.489 1924.35 443.253 1923.56 445.003L1912.12 470.383C1911.33 472.133 1910.05 473.345 1908.27 474.018C1906.49 474.69 1904.73 474.632 1902.98 473.843L1883.11 464.886Z" fill="black"/>
<path d="M3802.73 391.874L3780.51 328.453L3788.94 325.502L3820.61 361.909L3805.79 319.598L3814.22 316.646L3836.43 380.067L3828.01 383.019L3796.33 346.612L3811.16 388.922L3802.73 391.874ZM3849.51 375.487C3847.81 376.08 3846.11 375.964 3844.4 375.14C3842.69 374.316 3841.5 372.968 3840.85 371.095L3823.26 320.902C3822.61 319.03 3822.69 317.237 3823.51 315.524C3824.34 313.811 3825.6 312.659 3827.29 312.066L3847.85 304.861C3849.79 304.184 3851.58 304.268 3853.23 305.114C3854.94 305.938 3856.13 307.286 3856.79 309.158L3874.37 359.351C3875.03 361.224 3874.94 363.016 3874.12 364.729C3873.35 366.421 3872.01 367.605 3870.07 368.282L3849.51 375.487ZM3851.75 365.343L3861.99 361.756C3863.01 361.396 3863.71 360.778 3864.09 359.902C3864.52 359.005 3864.56 358.074 3864.22 357.107L3850.26 317.243C3849.9 316.216 3849.28 315.517 3848.41 315.145C3847.57 314.693 3846.64 314.646 3845.61 315.006L3835.37 318.592C3834.53 318.889 3833.89 319.485 3833.46 320.383C3833.06 321.198 3833.05 322.119 3833.41 323.146L3847.37 363.011C3847.71 363.977 3848.3 364.687 3849.14 365.14C3850.03 365.571 3850.9 365.639 3851.75 365.343Z" fill="black"/>
<path d="M1111 1160H1083.9L1071 1056H1111L1111 1160Z" fill="#9F616A"/>
<path d="M1118 1186L1031 1186V1184.9C1031 1175.91 1034.57 1167.28 1040.92 1160.93C1047.27 1154.57 1055.88 1151 1064.86 1151H1064.86L1118 1151L1118 1186Z" fill="#2F2E41"/>
<path d="M848.727 1158L823 1149.45L844.029 1047L882 1059.62L848.727 1158Z" fill="#9F616A"/>
<path d="M846.956 1185L765 1157.24L765.348 1156.19C768.184 1147.64 774.265 1140.58 782.253 1136.56C790.241 1132.54 799.481 1131.9 807.942 1134.76L807.944 1134.76L858 1151.72L846.956 1185Z" fill="#2F2E41"/>
<path d="M882.126 624.673L824 1116.19L881.01 1121C881.01 1121 970.686 637.744 998.332 694.989C1025.98 752.235 1059.85 1110.27 1059.85 1110.27H1116.43C1116.43 1110.27 1130.94 551.636 1071.7 524L882.126 624.673Z" fill="#2F2E41"/>
<path d="M1032.64 219.094C1038.14 187.922 1017.32 158.2 986.145 152.709C954.973 147.217 925.251 168.035 919.759 199.207C914.267 230.379 935.085 260.101 966.258 265.593C997.43 271.085 1027.15 250.267 1032.64 219.094Z" fill="#9F616A"/>
<path d="M942.143 288L1015.25 293.93C1015.25 293.93 1073.54 294.918 1097.26 310.732C1120.97 326.545 1074.53 424.391 1074.53 424.391C1074.53 424.391 1062.46 463.185 1071.57 480.727C1101.12 537.645 1096.74 581.476 1096.74 581.476C1096.74 581.476 1036 595.375 931.275 623.049C931.275 623.049 866.068 648.746 868.044 634.909C870.02 621.072 889.78 462.937 889.78 462.937V298.872L942.143 288Z" fill="#3F3D56"/>
<path d="M1069.29 202.824C1066.37 186.558 1059.84 163.484 1045.29 145.989C1045.75 145.992 1046.21 146.012 1046.67 145.999C1051.67 145.853 1057.36 144.276 1059.42 139.72C1060.09 137.895 1060.26 135.924 1059.9 134.013C1059.55 132.102 1058.7 130.32 1057.43 128.85C1054.85 125.948 1051.76 123.538 1048.33 121.737C1051.83 123.867 1056.79 125.846 1059.59 122.845C1060.31 121.941 1060.76 120.849 1060.88 119.7C1061 118.55 1060.8 117.389 1060.28 116.354C1059.22 114.299 1057.73 112.498 1055.9 111.073C1050.01 105.855 1043.55 101.301 1036.66 97.4913C1031.32 94.5427 1024.31 92.1749 1019.52 95.9469C1014.64 99.7894 1015.42 107.272 1016.67 113.356C1013.94 111.758 1010.87 110.831 1007.71 110.65C1006.13 110.605 1004.58 111.106 1003.33 112.068C1002.08 113.031 1001.19 114.396 1000.83 115.934C1000.79 117.147 1001.05 118.352 1001.61 119.431C1002.17 120.51 1002.99 121.427 1004.01 122.093C985.179 118.996 961.119 122.51 930.36 136.745C930.36 136.745 900.536 146.688 899.021 185.954C898.867 192.235 899.564 198.507 901.091 204.6C902.772 211.718 908.749 246.639 901.58 260.752L937.497 273.551L937.908 252.034C909.993 211.732 923.783 196.943 934.652 172.704C934.67 172.659 934.7 172.621 934.739 172.593C934.777 172.565 934.823 172.548 934.87 172.545C934.918 172.541 934.965 172.551 935.008 172.573C935.05 172.595 935.085 172.628 935.11 172.669C937.118 176.116 944.815 187.932 971.304 187.932L961.068 177.695C961.068 177.695 1006.11 196.122 1022.48 196.122C1022.48 196.122 1034.77 204.312 1022.48 216.597C1010.2 228.882 983.318 246.964 997.648 269.487C1011.98 292.009 1010.74 300 1010.74 300L1043.5 281.572C1043.5 281.572 1063.51 241.983 1067.05 230.325C1069.97 221.465 1070.73 212.038 1069.29 202.824V202.824Z" fill="#2F2E41"/>
<path d="M754 649.5H1198C1208.77 649.5 1217.5 658.23 1217.5 669V928C1217.5 938.77 1208.77 947.5 1198 947.5H1156.52H1090.29H754C743.23 947.5 734.5 938.77 734.5 928V669C734.5 658.23 743.23 649.5 754 649.5Z" fill="white" stroke="black"/>
<path d="M1104.39 416L1066.26 425.329L1065.98 502.997L1023.1 651.973C1019.66 654.705 1017.04 658.331 1015.51 662.458C1013.98 666.585 1013.6 671.055 1014.42 675.382C1015.24 679.709 1017.21 683.729 1020.14 687.005C1023.06 690.281 1026.82 692.688 1031.01 693.965C1035.2 695.242 1039.65 695.339 1043.89 694.247C1048.13 693.155 1051.99 690.915 1055.06 687.77C1058.12 684.625 1060.27 680.696 1061.27 676.408C1062.27 672.121 1062.09 667.639 1060.74 663.449L1112 509.225L1104.39 416Z" fill="#9F616A"/>
<path d="M849 415L895.203 428.116L895.494 505.557L938.811 654.099C942.278 656.823 944.928 660.438 946.473 664.553C948.019 668.668 948.4 673.124 947.576 677.439C946.752 681.754 944.754 685.762 941.799 689.029C938.845 692.295 935.046 694.695 930.815 695.968C926.585 697.241 922.084 697.338 917.802 696.249C913.519 695.16 909.619 692.927 906.524 689.791C903.429 686.656 901.258 682.738 900.246 678.463C899.234 674.187 899.419 669.718 900.783 665.541L849 511.767V415Z" fill="#9F616A"/>
<path d="M1047 302.157L1056.52 299.064C1061.87 297.327 1067.68 297.729 1072.74 300.184V300.184C1072.74 300.184 1100.45 302.157 1104.41 321.88C1108.37 341.604 1118 514 1118 514L1059.29 495.39L1047 302.157Z" fill="#3F3D56"/>
<path d="M913 302.508L896.353 301.663L891.081 299C891.081 299 860.202 302.508 856.291 322.262C852.38 342.016 841 520 841 520L898.989 504.024L913 302.508Z" fill="#3F3D56"/>
<path d="M901.656 864V815.04L881.928 763.2H895.32L908.424 797.616L921.384 763.2H934.776L915.048 815.04V864H901.656ZM942.537 864V763.2H996.105V776.448H955.929V801.504H982.713L979.689 814.896H955.929V850.608H996.105V864H942.537ZM1015.2 864C1012.32 864 1009.87 862.992 1007.85 860.976C1005.84 858.96 1004.83 856.512 1004.83 853.632V831.312L1018.22 834.336V845.424C1018.22 846.864 1018.7 848.112 1019.66 849.168C1020.72 850.128 1021.92 850.608 1023.26 850.608H1039.68C1041.12 850.608 1042.32 850.128 1043.28 849.168C1044.33 848.112 1044.86 846.864 1044.86 845.424V820.08C1044.86 818.64 1044.33 817.44 1043.28 816.48C1042.32 815.424 1041.12 814.896 1039.68 814.896H1015.2C1012.32 814.896 1009.87 813.888 1007.85 811.872C1005.84 809.856 1004.83 807.408 1004.83 804.528V773.568C1004.83 770.688 1005.84 768.24 1007.85 766.224C1009.87 764.208 1012.32 763.2 1015.2 763.2H1047.88C1050.76 763.2 1053.21 764.208 1055.23 766.224C1057.24 768.24 1058.25 770.688 1058.25 773.568V789.12L1044.86 785.952V781.776C1044.86 780.336 1044.33 779.136 1043.28 778.176C1042.32 777.12 1041.12 776.592 1039.68 776.592H1023.26C1021.92 776.592 1020.72 777.12 1019.66 778.176C1018.7 779.136 1018.22 780.336 1018.22 781.776V796.32C1018.22 797.76 1018.7 799.008 1019.66 800.064C1020.72 801.024 1021.92 801.504 1023.26 801.504H1047.88C1050.76 801.504 1053.21 802.512 1055.23 804.528C1057.24 806.544 1058.25 808.992 1058.25 811.872V853.632C1058.25 856.512 1057.24 858.96 1055.23 860.976C1053.21 862.992 1050.76 864 1047.88 864H1015.2Z" fill="black"/>
<path d="M584.13 410.716C580.492 409.835 576.705 409.766 573.038 410.514C569.37 411.263 565.91 412.809 562.902 415.046C559.894 417.283 557.41 420.155 555.627 423.46C553.843 426.765 552.803 430.423 552.578 434.176L465 458.908L500.735 490L578.422 461.747C584.723 461.708 590.79 459.348 595.475 455.114C600.159 450.881 603.135 445.069 603.839 438.778C604.543 432.488 602.925 426.157 599.292 420.985C595.66 415.813 590.265 412.159 584.13 410.716L584.13 410.716Z" fill="#FFB7B7"/>
<path d="M358.005 1161L383.751 1161L396 1062L358 1062L358.005 1161Z" fill="#FFB7B7"/>
<path d="M351.001 1186L434 1186V1184.93C433.999 1176.19 430.596 1167.82 424.537 1161.64C418.479 1155.47 410.262 1152 401.695 1152H401.693L351 1152L351.001 1186Z" fill="#2F2E41"/>
<path d="M208.002 1161L233.073 1161L245 1062L208 1062L208.002 1161Z" fill="#FFB7B7"/>
<path d="M201.002 1186L284 1186V1184.93C283.999 1176.19 280.596 1167.82 274.537 1161.64C268.479 1155.47 260.262 1152 251.695 1152H251.693L201 1152L201.002 1186Z" fill="#2F2E41"/>
<path d="M379.171 592.411L417 854.422L407.575 1130.48L350.77 1135L333.007 887.432L287.79 749.388L261.206 946.168L260.115 1130.48L201.458 1135L181 747.515L196.047 579L379.171 592.411Z" fill="black"/>
<path d="M269.5 241C236.639 241 210 214.361 210 181.5C210 148.639 236.639 122 269.5 122C302.361 122 329 148.639 329 181.5C329 214.361 302.361 241 269.5 241Z" fill="#FFB7B7"/>
<path d="M306.841 274.435L373 607.065C373 607.065 261.612 638.97 212.815 609.516C164.018 580.063 185.884 489.138 185.884 489.138L194.821 334.421L211.336 295.297L225.349 263L306.841 274.435Z" fill="#CBCBCB"/>
<path d="M325.809 510.558L303 268L321.241 281.316L385.02 302.028L389.385 472.798L434 697.363C434 697.363 402.11 759.585 362.589 656.646L325.809 510.558Z" fill="#2F2E41"/>
<path d="M354.262 327.474L385.031 302L454.185 451.454L531.354 434.637L535 479.979L423.192 524L347 418.472L354.262 327.474Z" fill="#2F2E41"/>
<path d="M235 457.393L226.349 260L194.514 284.495L137.66 300.24L145.997 457.393L134 701.243L193.606 720L210.338 566.13L235 457.393Z" fill="#2F2E41"/>
<path d="M230.569 616.374C229.911 612.667 228.455 609.15 226.304 606.072C224.152 602.993 221.357 600.428 218.116 598.557C214.875 596.685 211.267 595.553 207.545 595.24C203.823 594.926 200.078 595.44 196.574 596.744L138.953 526L125 571.443L181.857 631.655C184.419 637.446 189 642.086 194.729 644.699C200.459 647.312 206.94 647.714 212.944 645.831C218.949 643.947 224.059 639.908 227.308 634.479C230.556 629.05 231.716 622.608 230.569 616.374V616.374Z" fill="#FFB7B7"/>
<path d="M176.257 321.928L138.359 300L43 488.067L135.972 617L189 574.656L124.61 490.797L183.295 400.725L176.257 321.928Z" fill="#2F2E41"/>
<path d="M212.916 134.044L210.012 128.239L224.622 121.028C224.622 121.028 240.738 94.9763 269.902 102.297C299.066 109.618 312.187 114 312.187 114L326.759 121.284L319.446 128.514L332.567 132.895L323.801 137.222L334 143.046L328.51 172.9C328.51 172.9 319.39 150.257 301.859 158.91C284.328 167.563 252.26 154.437 252.26 154.437L224.401 208C224.401 208 218.653 189.223 208.406 194.23C208.406 194.23 182.227 152.811 212.916 134.044Z" fill="#2F2E41"/>
<path d="M613.752 308.38L613.753 308.381L772.584 381.929L772.776 381.515L772.584 381.929C775.11 383.098 777.14 385.126 778.312 387.652C779.483 390.178 779.721 393.038 778.982 395.723C758.397 467.151 727.007 535.007 685.902 596.934C684.334 599.234 682.002 600.903 679.32 601.644C676.637 602.385 673.778 602.15 671.252 600.979L671.051 601.414L671.252 600.979L512.422 527.431L512.42 527.43C510.817 526.695 509.402 525.602 508.284 524.237C507.167 522.871 506.375 521.269 505.969 519.551L505.969 519.548L505.961 519.514L505.96 519.513C505.547 517.76 505.536 515.936 505.929 514.178C506.324 512.408 507.118 510.751 508.249 509.335L508.251 509.332C552.603 453.07 583.096 387.152 597.263 316.913L597.263 316.91C597.611 315.129 598.36 313.452 599.453 312.005C600.547 310.558 601.955 309.379 603.572 308.559L603.573 308.558C605.145 307.756 606.878 307.323 608.642 307.293C610.406 307.262 612.153 307.634 613.752 308.38Z" fill="white" stroke="black"/>
<path d="M599.18 450.494L610.119 428.594L612.878 400.998L618.868 403.99L617.04 422.313L630.526 409.814L636.517 412.806L616.109 431.586L605.17 453.486L599.18 450.494ZM617.466 459.628L639.988 414.54L663.949 426.509L660.989 432.435L643.018 423.458L637.42 434.666L649.401 440.65L645.056 445.965L634.428 440.656L626.449 456.63L644.419 465.607L641.427 471.597L617.466 459.628ZM649.966 475.862C648.678 475.219 647.808 474.221 647.357 472.869C646.906 471.517 647.002 470.196 647.645 468.908L652.632 458.924L657.947 463.269L655.469 468.229C655.148 468.873 655.083 469.539 655.277 470.225C655.535 470.891 655.964 471.374 656.565 471.674L663.908 475.342C664.552 475.664 665.196 475.717 665.84 475.502C666.549 475.266 667.064 474.825 667.385 474.181L673.048 462.845C673.37 462.201 673.402 461.546 673.144 460.881C672.95 460.194 672.532 459.69 671.888 459.368L660.938 453.898C659.649 453.255 658.78 452.257 658.328 450.905C657.877 449.552 657.973 448.232 658.617 446.944L665.534 433.096C666.178 431.807 667.175 430.938 668.528 430.486C669.88 430.035 671.2 430.131 672.488 430.775L687.11 438.078C688.398 438.722 689.268 439.719 689.719 441.072C690.17 442.424 690.074 443.744 689.431 445.032L685.956 451.989L680.673 447.579L681.606 445.711C681.928 445.067 681.96 444.413 681.702 443.747C681.509 443.06 681.09 442.556 680.446 442.234L673.103 438.567C672.502 438.266 671.847 438.234 671.139 438.471C670.495 438.686 670.012 439.115 669.69 439.759L666.441 446.265C666.119 446.909 666.055 447.574 666.248 448.261C666.506 448.927 666.936 449.409 667.537 449.71L678.551 455.212C679.839 455.855 680.709 456.853 681.16 458.205C681.612 459.557 681.516 460.877 680.872 462.166L671.542 480.845C670.898 482.133 669.9 483.003 668.548 483.454C667.196 483.906 665.876 483.809 664.588 483.166L649.966 475.862Z" fill="black"/>
<path d="M0.5 1197H4688.5" stroke="#CCCCCC" stroke-width="10"/>
<path d="M1982.5 1150.63L3529.9 597.993C3540.77 594.11 3552.73 599.776 3556.61 610.647C3560.5 621.519 3554.83 633.479 3543.96 637.362L1996.57 1190C1985.69 1193.88 1973.73 1188.22 1969.85 1177.35C1965.97 1166.47 1971.63 1154.51 1982.5 1150.63Z" fill="black"/>
<path d="M4083.95 1075.92L4089.19 1081.4L4084.23 1083.25L4083.95 1075.92Z" fill="#D0A8A8"/>
<path d="M4089.28 1069.6L4094.52 1075.07L4089.57 1076.93L4089.28 1069.6Z" fill="#D0A8A8"/>
<path d="M4087.76 1073.54L4093 1079.01L4088.04 1080.87L4087.76 1073.54Z" fill="#D0A8A8"/>
<path d="M4093.09 1067.21L4098.33 1072.68L4093.37 1074.54L4093.09 1067.21Z" fill="#D0A8A8"/>
<path d="M4088.41 1065L4086.14 1053.25L4093.9 1054.36L4088.41 1065Z" fill="#D0A8A8"/>
<path d="M4076.61 1069.94L4074.35 1058.19L4082.1 1059.31L4076.61 1069.94Z" fill="#D0A8A8"/>
<path d="M4081.69 1065.5L4079.42 1053.75L4087.17 1054.87L4081.69 1065.5Z" fill="#D0A8A8"/>
<path d="M4069.89 1070.45L4067.62 1058.7L4075.38 1059.82L4069.89 1070.45Z" fill="#D0A8A8"/>
<path d="M3963.68 519.504C4003.01 508.081 4047.56 547.606 4048.94 600.667C4049.33 615.591 4045.93 631.264 4036.99 641.417C4029.61 649.799 4018.63 654.027 4009.09 649.93C3990.73 642.046 3989.75 609.18 3999.6 591.627C4012.93 567.86 4039.35 563.801 4060.31 566.628C4085.93 570.084 4110.29 584.52 4130.72 604.308C4171.64 643.92 4197.69 704.631 4218.77 763.289C4240.36 823.461 4256.06 886.84 4265.5 951.975C4266.69 960.156 4267.78 968.359 4268.77 976.584C4269.05 977.789 4269.69 978.804 4270.55 979.409C4271.41 980.015 4272.42 980.162 4273.36 979.818C4274.28 979.439 4275.06 978.616 4275.53 977.52C4276 976.424 4276.12 975.138 4275.87 973.928C4267.24 902.85 4251.3 833.56 4228.46 767.878C4206.39 704.308 4178.55 638.369 4134.27 595.946C4112.2 574.797 4086.13 560.081 4058.54 556.934C4035.32 554.284 4007.82 560.597 3993.38 586.548C3981.99 607.022 3983.14 641.047 4000.77 655.306C4010.46 663.145 4022.78 662.229 4032.84 656.134C4038.18 652.746 4042.89 647.906 4046.63 641.95C4050.37 635.994 4053.05 629.064 4054.5 621.642C4060.76 592.172 4051.25 560.297 4034.96 539.233C4019.66 519.408 3998.88 508.178 3977.15 508C3971.92 508.074 3966.71 508.872 3961.61 510.38C3956.97 511.729 3959.05 520.85 3963.68 519.504Z" fill="#CCCCCC"/>
<path d="M4055.24 1044.32C4054.35 1038.56 4057.58 1033.29 4062.46 1032.54C4067.33 1031.79 4072.01 1035.85 4072.9 1041.61C4073.79 1047.36 4070.56 1052.64 4065.68 1053.39C4060.81 1054.14 4056.13 1050.08 4055.24 1044.32Z" fill="#3E0101" fill-opacity="0.65"/>
<path d="M4468.1 1156.91L4511.57 1082.49L4457.97 1051.01L4414.5 1125.42V1125.43C4410.34 1132.55 4409.17 1141.05 4411.25 1149.04C4413.33 1157.03 4418.5 1163.87 4425.6 1168.04C4432.71 1172.22 4441.18 1173.39 4449.15 1171.3C4457.12 1169.21 4463.94 1164.03 4468.1 1156.91Z" fill="#1B1A26"/>
<path d="M4611.47 1002.48C4590.19 1002.48 4572.94 985.552 4572.94 964.665C4572.94 943.778 4590.19 926.846 4611.47 926.846C4632.75 926.846 4650 943.778 4650 964.665C4650 985.552 4632.75 1002.48 4611.47 1002.48Z" fill="#1B1A26"/>
<path d="M4299.69 1156.93L4343.17 1082.49L4289.56 1051.01L4246.09 1125.44C4241.93 1132.57 4240.77 1141.06 4242.85 1149.05C4244.94 1157.04 4250.1 1163.87 4257.2 1168.04C4264.31 1172.21 4272.77 1173.39 4280.74 1171.3C4288.71 1169.22 4295.52 1164.05 4299.69 1156.93V1156.93Z" fill="#1B1A26"/>
<path d="M4604.33 1041.73C4604.31 1020.35 4595.75 999.857 4580.53 984.74C4565.31 969.624 4544.67 961.121 4523.15 961.097H4266.16C4257.07 961.108 4248.35 964.702 4241.91 971.091C4235.48 977.481 4231.86 986.143 4231.85 995.179V1024.22C4231.88 1050.24 4242.3 1075.19 4260.82 1093.59C4279.35 1111.98 4304.46 1122.33 4330.66 1122.36H4523.15C4544.67 1122.34 4565.31 1113.84 4580.53 1098.72C4595.75 1083.6 4604.31 1063.11 4604.33 1041.73V1041.73Z" fill="#1B1A26"/>
<path d="M4544.39 1166.95V1080.98H4483.03V1166.95C4483.03 1175.19 4486.26 1183.08 4492.01 1188.91C4497.77 1194.73 4505.57 1198 4513.71 1198C4521.85 1198 4529.65 1194.73 4535.41 1188.91C4541.16 1183.08 4544.39 1175.19 4544.39 1166.95Z" fill="#1B1A26"/>
<path d="M4364.57 1166.93V1080.98H4303.21V1166.93C4303.2 1171 4303.99 1175.04 4305.53 1178.81C4307.07 1182.58 4309.33 1186.01 4312.18 1188.9C4315.03 1191.78 4318.42 1194.07 4322.14 1195.63C4325.87 1197.2 4329.86 1198 4333.89 1198C4337.92 1198 4341.92 1197.2 4345.64 1195.63C4349.37 1194.07 4352.75 1191.78 4355.6 1188.9C4358.45 1186.01 4360.71 1182.58 4362.25 1178.81C4363.79 1175.04 4364.58 1171 4364.57 1166.93V1166.93Z" fill="#1B1A26"/>
<path d="M4216.22 823.395C4214.62 813.403 4209.11 804.427 4200.91 798.436C4192.7 792.444 4182.46 789.928 4172.44 791.438C4162.42 792.949 4153.43 798.363 4147.46 806.492C4141.48 814.621 4138.99 824.802 4140.55 834.8L4156.18 933.854L4231.85 922.449L4216.22 823.395Z" fill="#290202"/>
<path d="M4214.3 812.28C4213.78 808.877 4212.58 805.61 4210.79 802.665C4208.99 799.721 4206.64 797.157 4203.86 795.119C4201.07 793.081 4197.92 791.609 4194.57 790.788C4191.22 789.967 4187.74 789.813 4184.34 790.334C4180.93 790.855 4177.66 792.04 4174.72 793.824C4171.77 795.607 4169.21 797.953 4167.18 800.728C4165.14 803.502 4163.68 806.651 4162.86 809.994C4162.05 813.337 4161.9 816.809 4162.43 820.212L4179.66 930.928L4231.53 922.995L4214.3 812.28Z" fill="#1B1A26"/>
<path d="M4270.24 1032.22L4257.77 953.159C4254.72 933.966 4244.16 916.717 4228.41 905.195C4212.66 893.674 4193.01 888.821 4173.76 891.702L4153.87 894.701C4130.93 898.188 4110.37 910.61 4096.69 929.242C4083.02 947.873 4077.36 971.193 4080.94 994.085L4091.21 1059.22C4092.35 1066.41 4096.31 1072.87 4102.2 1077.18C4108.1 1081.49 4115.46 1083.31 4122.66 1082.23L4247.34 1063.43C4254.54 1062.33 4261 1058.43 4265.29 1052.58C4269.58 1046.73 4271.36 1039.41 4270.24 1032.22V1032.22Z" fill="#1B1A26"/>
<path d="M4241.13 1065.99C4231.14 1043.16 4261.82 960.383 4261.82 960.383H4283.94L4263.25 1095.96C4263.25 1095.96 4251.12 1088.82 4241.13 1065.99Z" fill="#C4C4C4"/>
<path d="M4301.16 965.686L4272.02 992.663L4263.53 978.364L4301.16 965.686Z" fill="white"/>
<path d="M4287.67 1001.87L4262.26 1018.71L4257.24 999.994L4287.67 1001.87Z" fill="white"/>
<path d="M4295.32 1039.25L4257.67 1041.19L4260.02 1026L4295.32 1039.25Z" fill="white"/>
<path d="M4280.23 1074.31L4246.31 1064.02L4258.92 1045.99L4280.23 1074.31Z" fill="white"/>
<path fill-rule="evenodd" clip-rule="evenodd" d="M4092.15 1009.87L4227.98 988.492L4239.34 1063.6C4187.03 1092.92 4158.35 1100.43 4103.51 1084.98C4095.66 1086.2 4087.7 1084.9 4080.72 1081.37L4113.05 1061.7L4062.36 1060.72C4061.48 1058.34 4060.84 1055.86 4060.46 1053.31C4058.95 1043.36 4061.45 1033.21 4067.39 1025.06C4073.33 1016.92 4082.24 1011.46 4092.15 1009.87Z" fill="#1B1A26"/>
<mask id="mask2" mask-type="alpha" maskUnits="userSpaceOnUse" x="4084" y="936" width="27" height="61">
<ellipse cx="4097.7" cy="966.806" rx="12.8441" ry="29.9696" fill="white"/>
</mask>
<g mask="url(#mask2)">
<ellipse cx="4102.29" cy="986.474" rx="11.9267" ry="12.1752" fill="#C0392B"/>
</g>
<path d="M219.279 631.823C200.658 646.188 226.545 683.317 273.765 705.07C287.047 711.189 301.808 715.782 312.807 715.521C321.888 715.305 328.016 711.706 326.383 705.492C323.24 693.534 294.019 680 276.199 677.757C252.071 674.72 242.8 685.805 240.859 697.005C238.486 710.697 246.216 728.143 259.575 745.833C286.317 781.247 335.123 817.901 383.15 851.353C432.427 885.647 485.832 918.384 542.144 948.815C549.216 952.639 556.329 956.423 563.484 960.168C564.503 960.782 565.276 961.492 565.634 962.145C565.993 962.798 565.91 963.341 565.401 963.657C564.864 963.953 563.961 964 562.879 963.789C561.797 963.579 560.62 963.126 559.59 962.526C497.782 930.125 439.137 894.921 385.192 857.836C332.978 821.955 279.871 782.365 251.33 744.216C237.102 725.198 229.486 706.817 232.554 692.305C235.137 680.088 246.657 669.376 272.978 672.749C293.743 675.409 323.965 689.489 332.971 703.631C337.923 711.406 334.475 716.963 326.87 719.378C322.696 720.599 317.359 720.936 311.228 720.366C305.096 719.797 298.318 718.334 291.362 716.079C263.637 707.375 237.122 690.137 221.736 673.93C207.247 658.698 201.626 644.242 206.102 633.727C207.284 631.241 209.111 629.054 211.55 627.203C213.748 625.507 221.473 630.13 219.279 631.823Z" fill="#CCCCCC"/>
<circle cx="2799" cy="1044" r="129.5" stroke="black" stroke-width="35"/>
</svg>
