<svg viewBox="0 0 2574 1147" fill="none" xmlns="http://www.w3.org/2000/svg">
<path d="M1098.44 774.103C1019.17 783.578 968.142 878.215 977.119 953.306C987.559 1040.64 1069.09 1041.13 1129.5 1033.91C1189.9 1026.69 1269.02 1006.99 1258.58 919.659C1249.6 844.569 1177.7 764.627 1098.44 774.103ZM1131.32 954.848C1131.23 954.895 1131.13 954.89 1131.03 954.936L1132.56 967.664C1133.27 973.648 1129.01 979.068 1123.02 979.783C1117.04 980.498 1111.62 976.235 1110.91 970.252L1109.37 957.449C1101.95 955.895 1094.57 952.143 1087.9 945.885C1083.5 941.767 1083.28 934.867 1087.41 930.47C1091.51 926.076 1098.41 925.842 1102.81 929.969C1127.2 952.911 1136.95 912.238 1115.26 914.831C1097.35 916.971 1081.04 904.145 1078.9 886.237C1077.35 873.283 1083.29 860.044 1096.92 853.276L1095.38 840.347C1094.66 834.363 1098.93 828.943 1104.91 828.228C1110.89 827.512 1116.31 831.776 1117.03 837.759L1118.58 850.723C1124.41 851.942 1130.23 854.288 1135.67 858.423C1140.46 862.075 1141.4 868.911 1137.75 873.701C1134.1 878.502 1127.26 879.436 1122.47 875.785C1100.26 858.928 1091.02 895.768 1112.67 893.18C1130.58 891.039 1146.89 903.866 1149.03 921.774C1150.66 935.37 1143.54 948.67 1131.32 954.848Z" fill="#F1C40F"/>
<path d="M1148.11 665.779C1106.76 658.928 1063.2 664.134 1024.63 680.54C1018.16 683.282 1015.89 691.45 1020.23 697.172L1040.11 724.527C1067.22 709.794 1109.25 703.055 1143.43 712.18L1156.31 680.905C1159.18 674.321 1155.05 666.919 1148.11 665.779Z" fill="#F1C40F"/>
<path d="M1144.86 735.936C1122.9 724.088 1063.41 730.596 1044.21 748.035C1035.98 755.46 1032.38 766.008 1033.72 776.418C1053.19 762.921 1076.93 754.714 1095.85 752.453C1118.89 749.698 1141.19 753.117 1161.88 761.097C1160.77 751.047 1155.1 741.468 1144.86 735.936Z" fill="#F1C40F"/>
<path d="M353.625 178.451C318.28 178.451 289.626 148.148 289.626 110.767C289.626 73.3861 318.28 43.0831 353.625 43.0831C388.971 43.0831 417.624 73.3861 417.624 110.767C417.624 148.148 388.971 178.451 353.625 178.451Z" fill="#FFB8B8"/>
<path d="M544.358 1107.97L574.793 1097.71L551.858 968.672L506.938 983.814L544.358 1107.97Z" fill="#FFB8B8"/>
<path d="M595.143 1080.71L535.062 1100.96L546.842 1140.05L642.5 1107.8L642.059 1106.34C640.57 1101.4 638.175 1096.82 635.012 1092.86C631.848 1088.89 627.978 1085.63 623.621 1083.25C619.264 1080.87 614.507 1079.42 609.621 1078.98C604.735 1078.55 599.815 1079.13 595.143 1080.71V1080.71Z" fill="#2F2E41"/>
<path d="M322.914 1107.3H354.861L370.064 976.991H322.914V1107.3Z" fill="#FFB8B8"/>
<path d="M379.129 1097.65H316.069V1138.68H416.469V1137.14C416.469 1131.96 415.503 1126.82 413.626 1122.03C411.75 1117.24 408.999 1112.88 405.532 1109.22C402.065 1105.55 397.948 1102.64 393.418 1100.66C388.888 1098.67 384.032 1097.65 379.129 1097.65V1097.65Z" fill="#2F2E41"/>
<path d="M323.85 1065.02L334.632 1063.31C367.333 1058.16 369.291 1057.85 374.482 1055.44C377.133 1054.21 377.32 1035.6 375.728 930.964C374.56 854.161 373.106 758.576 375.929 707.261C376.046 705.236 376.803 703.312 378.08 701.799C379.357 700.285 381.079 699.271 382.968 698.919C384.857 698.567 386.803 698.898 388.492 699.859C390.181 700.82 391.515 702.354 392.279 704.215C416.61 763.64 457.432 896.623 484.445 984.621C493.841 1015.23 501.262 1039.41 505.957 1053.9C506.864 1056.64 508.705 1058.93 511.12 1060.31C513.534 1061.69 516.349 1062.07 519.015 1061.38C541.245 1055.5 539.759 1053 571.42 1044.34C574.16 1043.6 576.523 1041.77 578.014 1039.23C579.506 1036.69 580.012 1033.64 579.425 1030.71C573.698 1002.15 468.899 539.058 460.877 495.036C460.606 493.529 460.055 492.094 459.256 490.813C458.457 489.533 457.427 488.433 456.223 487.576C455.02 486.719 453.669 486.123 452.246 485.822C450.824 485.521 449.36 485.521 447.937 485.822C424.342 490.85 409.988 496.184 386.67 501.342C361.51 506.908 335.493 512.664 310.116 518.036C307.59 518.573 305.327 520.041 303.728 522.177C297.448 530.565 288.138 535.273 278.279 540.257C271.633 543.617 286.694 543.314 280.905 548.16C257.466 567.784 291.173 966.27 311.539 1056.27C312.193 1059.09 313.817 1061.55 316.094 1063.16C318.371 1064.78 321.137 1065.44 323.85 1065.02V1065.02Z" fill="black"/>
<path d="M343.141 613.37C343.868 609.873 343.862 606.248 343.121 602.753C342.381 599.258 340.925 595.978 338.857 593.142C336.788 590.306 334.156 587.985 331.148 586.341C328.139 584.698 324.826 583.772 321.442 583.629L269.715 521.88L237.593 562.921L297.08 608.881C297.229 614.909 299.464 620.67 303.362 625.071C307.259 629.473 312.547 632.209 318.225 632.763C323.902 633.316 329.575 631.647 334.167 628.073C338.759 624.499 341.952 619.268 343.141 613.37V613.37Z" fill="#FFB8B8"/>
<path d="M326.347 169.992C330.083 153.225 311.195 117.146 314.931 100.379C317.462 89.024 342.709 96.743 348.601 86.8804C354.493 77.0179 364.362 69.0278 375.392 68.8969C388.071 68.7464 400.546 78.6925 412.556 74.3938C424.699 70.0473 428.581 52.4603 423.212 40.1482C417.843 27.836 406.278 19.9905 394.852 13.8428C375.394 3.37387 352.738 -4.27107 331.912 2.65535C319.323 6.84237 308.797 15.915 298.611 24.7885C289.325 32.8771 279.884 41.1491 273.393 51.8605C260.677 72.8445 261.444 101.118 272.311 123.234C283.178 145.349 302.978 161.579 324.796 170.999" fill="#2F2E41"/>
<path d="M483.493 560.189C476.585 547.985 466.098 490.806 453.166 394.832C444.361 329.315 436.689 262.744 432.883 228.739C432.588 225.987 431.636 223.36 430.117 221.103C428.599 218.846 426.563 217.035 424.201 215.838C421.731 214.577 419.276 213.384 416.835 212.258C385.314 197.759 353.37 192.955 321.896 197.978C290.468 203.083 260.989 217.288 236.726 239.021L236.439 239.307L236.365 239.715C236.228 240.471 223.009 315.806 250.085 366.704C276.789 416.924 277.1 549.919 277.1 551.256V552.965L278.655 552.497C320.198 539.943 480.672 561.906 482.289 562.13L484.788 562.475L483.493 560.189Z" fill="#CCCCCC"/>
<path d="M313.024 570.392L231.419 455.321L273.5 359.956L270.444 246.855L235.945 240.114L235.579 240.308C218.821 250.675 205.83 266.681 198.681 285.771C191.018 306.034 175.122 374.974 163.138 429.24C160.007 443.206 160.32 457.788 164.045 471.589C167.77 485.391 174.784 497.95 184.413 508.064L284.519 613.936L313.024 570.392Z" fill="#CCCCCC"/>
<path d="M655.602 342.341C653.651 339.413 651.117 336.974 648.178 335.194C645.239 333.414 641.967 332.337 638.592 332.04C635.217 331.742 631.822 332.23 628.645 333.471C625.468 334.711 622.587 336.673 620.204 339.218L542.209 337.948L549.188 390.711L621.396 375.273C625.705 379.222 631.234 381.363 636.935 381.29C642.636 381.216 648.114 378.934 652.33 374.875C656.546 370.815 659.208 365.261 659.811 359.265C660.414 353.269 658.916 347.247 655.602 342.341Z" fill="#FFB8B8"/>
<path d="M616.453 388.494L605.296 336.863L469.926 322.945L432.816 228.555L431.73 225.768L417.145 212.465L416.835 212.258C385.316 197.76 353.373 192.956 321.895 197.978L320.789 198.155L320.86 199.334C321.569 211.413 324.501 223.23 329.491 234.121C343.494 264.839 429.65 395.416 430.519 396.731L430.903 397.313L616.453 388.494Z" fill="#CCCCCC"/>
<path d="M693.81 166.702L693.811 166.703L909.777 256.481L909.969 256.02L909.778 256.481C913.25 257.923 916.098 260.551 917.814 263.898C919.53 267.243 920.004 271.089 919.151 274.751C895.449 371.23 857.129 463.511 805.52 548.389C803.528 551.578 800.47 553.956 796.89 555.099C793.309 556.243 789.438 556.079 785.967 554.634L785.776 555.093L785.967 554.634L570.001 464.856L569.999 464.855C567.796 463.948 565.828 462.549 564.246 460.767C562.664 458.984 561.51 456.863 560.871 454.566L560.87 454.563L560.861 454.53L560.86 454.528C560.205 452.181 560.092 449.716 560.528 447.319C560.967 444.91 561.949 442.632 563.4 440.66L563.401 440.657C619.621 363.207 656.829 273.604 672.016 179.097L672.016 179.094C672.39 176.673 673.311 174.37 674.708 172.358C676.106 170.347 677.943 168.682 680.081 167.488L680.082 167.488C682.16 166.321 684.477 165.644 686.855 165.508C689.234 165.371 691.613 165.78 693.81 166.702Z" fill="white" stroke="black"/>
<path d="M683.873 380.757L697.288 351.001L699.503 314.09L707.642 317.759L706.176 342.266L723.483 324.901L731.622 328.571L705.427 354.671L692.012 384.426L683.873 380.757ZM708.718 391.959L736.339 330.697L768.895 345.376L765.265 353.427L740.848 342.419L733.982 357.646L750.26 364.986L744.753 372.296L730.312 365.785L720.527 387.489L744.944 398.498L741.274 406.637L708.718 391.959ZM752.876 411.868C751.126 411.079 749.914 409.796 749.242 408.018C748.569 406.24 748.627 404.476 749.416 402.726L755.532 389.161L762.842 394.668L759.804 401.407C759.41 402.282 759.359 403.172 759.653 404.077C760.032 404.95 760.63 405.57 761.447 405.939L771.424 410.437C772.299 410.831 773.16 410.869 774.006 410.548C774.937 410.196 775.6 409.582 775.995 408.707L782.939 393.304C783.334 392.429 783.342 391.555 782.963 390.682C782.669 389.777 782.084 389.127 781.209 388.733L766.331 382.025C764.581 381.236 763.37 379.952 762.697 378.175C762.024 376.397 762.082 374.633 762.871 372.883L771.355 354.067C772.144 352.317 773.427 351.105 775.205 350.432C776.982 349.759 778.746 349.818 780.497 350.607L800.363 359.564C802.113 360.353 803.325 361.636 803.998 363.414C804.67 365.191 804.612 366.955 803.823 368.706L799.562 378.158L792.291 372.563L793.435 370.025C793.83 369.149 793.838 368.275 793.459 367.403C793.165 366.498 792.58 365.848 791.705 365.454L781.728 360.955C780.911 360.587 780.037 360.579 779.106 360.932C778.26 361.252 777.639 361.85 777.245 362.725L773.259 371.564C772.865 372.439 772.814 373.329 773.109 374.234C773.487 375.107 774.085 375.727 774.902 376.096L789.867 382.843C791.617 383.632 792.829 384.915 793.502 386.693C794.175 388.471 794.117 390.235 793.327 391.985L781.885 417.365C781.095 419.115 779.812 420.327 778.034 420.999C776.257 421.672 774.493 421.614 772.742 420.825L752.876 411.868Z" fill="black"/>
<path d="M683.873 380.757L682.961 380.346L682.55 381.257L683.462 381.668L683.873 380.757ZM697.288 351.001L698.2 351.412L698.275 351.245L698.286 351.061L697.288 351.001ZM699.503 314.09L699.914 313.178L698.592 312.582L698.505 314.03L699.503 314.09ZM707.642 317.759L708.64 317.819L708.682 317.131L708.053 316.848L707.642 317.759ZM706.176 342.266L705.178 342.207L705.02 344.843L706.884 342.972L706.176 342.266ZM723.483 324.901L723.894 323.99L723.263 323.705L722.774 324.195L723.483 324.901ZM731.622 328.571L732.328 329.279L733.355 328.255L732.033 327.659L731.622 328.571ZM705.427 354.671L704.721 353.963L704.591 354.092L704.516 354.26L705.427 354.671ZM692.012 384.426L691.601 385.338L692.512 385.749L692.923 384.837L692.012 384.426ZM684.784 381.168L698.2 351.412L696.377 350.59L682.961 380.346L684.784 381.168ZM698.286 351.061L700.501 314.15L698.505 314.03L696.29 350.941L698.286 351.061ZM699.092 315.001L707.231 318.671L708.053 316.848L699.914 313.178L699.092 315.001ZM706.644 317.7L705.178 342.207L707.174 342.326L708.64 317.819L706.644 317.7ZM706.884 342.972L724.191 325.607L722.774 324.195L705.468 341.56L706.884 342.972ZM723.072 325.813L731.211 329.482L732.033 327.659L723.894 323.99L723.072 325.813ZM730.916 327.862L704.721 353.963L706.133 355.379L732.328 329.279L730.916 327.862ZM704.516 354.26L691.1 384.015L692.923 384.837L706.339 355.082L704.516 354.26ZM692.423 383.515L684.284 379.845L683.462 381.668L691.601 385.338L692.423 383.515ZM708.718 391.959L707.807 391.548L707.396 392.459L708.307 392.87L708.718 391.959ZM736.339 330.697L736.75 329.786L735.838 329.375L735.427 330.286L736.339 330.697ZM768.895 345.376L769.806 345.787L770.217 344.875L769.306 344.464L768.895 345.376ZM765.265 353.427L764.854 354.339L765.765 354.75L766.176 353.838L765.265 353.427ZM740.848 342.419L741.259 341.507L740.347 341.096L739.936 342.008L740.848 342.419ZM733.982 357.646L733.07 357.235L732.659 358.147L733.571 358.558L733.982 357.646ZM750.26 364.986L751.059 365.587L751.811 364.588L750.671 364.074L750.26 364.986ZM744.753 372.296L744.342 373.208L745.07 373.536L745.551 372.898L744.753 372.296ZM730.312 365.785L730.723 364.874L729.812 364.463L729.401 365.374L730.312 365.785ZM720.527 387.489L719.615 387.078L719.204 387.99L720.116 388.401L720.527 387.489ZM744.944 398.498L745.855 398.909L746.266 397.998L745.355 397.586L744.944 398.498ZM741.274 406.637L740.863 407.549L741.775 407.96L742.186 407.048L741.274 406.637ZM709.63 392.37L737.25 331.109L735.427 330.286L707.807 391.548L709.63 392.37ZM735.928 331.609L768.484 346.287L769.306 344.464L736.75 329.786L735.928 331.609ZM767.983 344.965L764.353 353.016L766.176 353.838L769.806 345.787L767.983 344.965ZM765.676 352.516L741.259 341.507L740.437 343.33L764.854 354.339L765.676 352.516ZM739.936 342.008L733.07 357.235L734.894 358.057L741.759 342.83L739.936 342.008ZM733.571 358.558L749.849 365.897L750.671 364.074L734.393 356.735L733.571 358.558ZM749.461 364.384L743.954 371.694L745.551 372.898L751.059 365.587L749.461 364.384ZM745.164 371.384L730.723 364.874L729.901 366.697L744.342 373.208L745.164 371.384ZM729.401 365.374L719.615 387.078L721.438 387.9L731.224 366.196L729.401 365.374ZM720.116 388.401L744.533 399.41L745.355 397.586L720.938 386.578L720.116 388.401ZM744.032 398.087L740.363 406.226L742.186 407.048L745.855 398.909L744.032 398.087ZM741.685 405.725L709.129 391.047L708.307 392.87L740.863 407.549L741.685 405.725ZM749.242 408.018L748.306 408.372L748.306 408.372L749.242 408.018ZM755.532 389.161L756.134 388.362L755.135 387.609L754.62 388.75L755.532 389.161ZM762.842 394.668L763.754 395.079L764.083 394.351L763.444 393.87L762.842 394.668ZM759.653 404.077L758.702 404.386L758.717 404.431L758.736 404.475L759.653 404.077ZM774.006 410.548L774.36 411.483L774.36 411.483L774.006 410.548ZM782.963 390.682L782.012 390.991L782.027 391.036L782.046 391.08L782.963 390.682ZM762.697 378.175L761.761 378.529L761.761 378.529L762.697 378.175ZM775.205 350.432L775.559 351.367L775.559 351.367L775.205 350.432ZM803.998 363.414L803.062 363.768L803.062 363.768L803.998 363.414ZM799.562 378.158L798.952 378.95L799.954 379.721L800.473 378.569L799.562 378.158ZM792.291 372.563L791.379 372.152L791.054 372.873L791.681 373.355L792.291 372.563ZM793.459 367.403L792.508 367.712L792.522 367.757L792.541 367.801L793.459 367.403ZM779.106 360.932L779.46 361.867L779.46 361.867L779.106 360.932ZM773.109 374.234L772.158 374.543L772.172 374.588L772.191 374.632L773.109 374.234ZM753.287 410.956C751.776 410.275 750.755 409.191 750.177 407.664L748.306 408.372C749.074 410.4 750.476 411.883 752.465 412.78L753.287 410.956ZM750.177 407.664C749.599 406.137 749.646 404.648 750.328 403.137L748.504 402.315C747.608 404.304 747.539 406.343 748.306 408.372L750.177 407.664ZM750.328 403.137L756.444 389.572L754.62 388.75L748.504 402.315L750.328 403.137ZM754.93 389.96L762.241 395.467L763.444 393.87L756.134 388.362L754.93 389.96ZM761.931 394.257L758.893 400.996L760.716 401.818L763.754 395.079L761.931 394.257ZM758.893 400.996C758.397 402.096 758.331 403.242 758.702 404.386L760.604 403.768C760.388 403.102 760.422 402.469 760.716 401.818L758.893 400.996ZM758.736 404.475C759.207 405.561 759.977 406.373 761.036 406.85L761.858 405.027C761.283 404.768 760.857 404.339 760.571 403.679L758.736 404.475ZM761.036 406.85L771.013 411.348L771.835 409.525L761.858 405.027L761.036 406.85ZM771.013 411.348C772.113 411.845 773.249 411.904 774.36 411.483L773.652 409.613C773.07 409.833 772.484 409.818 771.835 409.525L771.013 411.348ZM774.36 411.483C775.529 411.041 776.398 410.245 776.906 409.118L775.083 408.296C774.802 408.919 774.346 409.35 773.652 409.613L774.36 411.483ZM776.906 409.118L783.851 393.715L782.028 392.893L775.083 408.296L776.906 409.118ZM783.851 393.715C784.36 392.586 784.372 391.418 783.88 390.284L782.046 391.08C782.311 391.692 782.308 392.272 782.028 392.893L783.851 393.715ZM783.914 390.373C783.532 389.197 782.75 388.33 781.62 387.821L780.798 389.644C781.419 389.924 781.806 390.357 782.012 390.991L783.914 390.373ZM781.62 387.821L766.742 381.113L765.92 382.937L780.798 389.644L781.62 387.821ZM766.742 381.113C765.231 380.432 764.21 379.348 763.632 377.821L761.761 378.529C762.529 380.557 763.931 382.04 765.92 382.937L766.742 381.113ZM763.632 377.821C763.054 376.294 763.101 374.805 763.783 373.294L761.96 372.472C761.063 374.461 760.994 376.5 761.761 378.529L763.632 377.821ZM763.783 373.294L772.266 354.478L770.443 353.656L761.96 372.472L763.783 373.294ZM772.266 354.478C772.948 352.967 774.032 351.945 775.559 351.367L774.851 349.497C772.822 350.265 771.34 351.667 770.443 353.656L772.266 354.478ZM775.559 351.367C777.086 350.79 778.574 350.837 780.086 351.518L780.908 349.695C778.918 348.798 776.879 348.729 774.851 349.497L775.559 351.367ZM780.086 351.518L799.952 360.475L800.774 358.652L780.908 349.695L780.086 351.518ZM799.952 360.475C801.463 361.157 802.485 362.241 803.062 363.768L804.933 363.06C804.165 361.031 802.763 359.549 800.774 358.652L799.952 360.475ZM803.062 363.768C803.64 365.295 803.593 366.783 802.912 368.295L804.735 369.117C805.632 367.127 805.701 365.088 804.933 363.06L803.062 363.768ZM802.912 368.295L798.65 377.746L800.473 378.569L804.735 369.117L802.912 368.295ZM800.172 377.365L792.901 371.77L791.681 373.355L798.952 378.95L800.172 377.365ZM793.202 372.974L794.347 370.436L792.523 369.614L791.379 372.152L793.202 372.974ZM794.347 370.436C794.856 369.306 794.868 368.139 794.376 367.005L792.541 367.801C792.807 368.412 792.803 368.993 792.523 369.614L794.347 370.436ZM794.41 367.094C794.028 365.918 793.245 365.051 792.116 364.542L791.294 366.365C791.915 366.645 792.302 367.078 792.508 367.712L794.41 367.094ZM792.116 364.542L782.139 360.044L781.317 361.867L791.294 366.365L792.116 364.542ZM782.139 360.044C781.053 359.554 779.901 359.561 778.752 359.996L779.46 361.867C780.173 361.597 780.77 361.62 781.317 361.867L782.139 360.044ZM778.752 359.996C777.641 360.417 776.829 361.213 776.333 362.314L778.156 363.136C778.449 362.486 778.878 362.087 779.46 361.867L778.752 359.996ZM776.333 362.314L772.348 371.153L774.171 371.975L778.156 363.136L776.333 362.314ZM772.348 371.153C771.852 372.253 771.786 373.399 772.158 374.543L774.06 373.925C773.843 373.259 773.878 372.626 774.171 371.975L772.348 371.153ZM772.191 374.632C772.662 375.718 773.432 376.53 774.491 377.007L775.313 375.184C774.738 374.925 774.312 374.496 774.026 373.836L772.191 374.632ZM774.491 377.007L789.456 383.755L790.278 381.931L775.313 375.184L774.491 377.007ZM789.456 383.755C790.967 384.436 791.989 385.52 792.567 387.047L794.437 386.339C793.669 384.311 792.268 382.828 790.278 381.931L789.456 383.755ZM792.567 387.047C793.144 388.574 793.097 390.063 792.416 391.574L794.239 392.396C795.136 390.407 795.205 388.368 794.437 386.339L792.567 387.047ZM792.416 391.574L780.973 416.954L782.796 417.776L794.239 392.396L792.416 391.574ZM780.973 416.954C780.292 418.465 779.207 419.486 777.68 420.064L778.388 421.935C780.417 421.167 781.899 419.765 782.796 417.776L780.973 416.954ZM777.68 420.064C776.154 420.642 774.665 420.595 773.154 419.913L772.331 421.737C774.321 422.634 776.36 422.702 778.388 421.935L777.68 420.064ZM773.154 419.913L753.287 410.956L752.465 412.78L772.331 421.737L773.154 419.913Z" fill="black"/>
<path d="M0 1141.09L2573.5 1141.09" stroke="#CCCCCC" stroke-width="10"/>
<path d="M2430.46 526.04L888.098 1092.56C877.262 1096.54 871.704 1108.55 875.685 1119.39C879.665 1130.22 891.676 1135.78 902.512 1131.8L2444.88 565.281C2455.71 561.301 2461.27 549.29 2457.29 538.453C2453.31 527.617 2441.3 522.06 2430.46 526.04Z" fill="black"/>
<circle cx="1667" cy="994.088" r="129.5" stroke="black" stroke-width="35"/>
</svg>
