<svg viewBox="0 0 4688 1245" fill="none" xmlns="http://www.w3.org/2000/svg">
<path d="M3078.69 747.729C2999.2 755.143 2945.73 848.422 2952.76 923.72C2960.92 1011.29 3042.41 1013.91 3102.99 1008.26C3163.56 1002.61 3243.16 984.971 3234.99 897.396C3227.97 822.098 3158.17 740.316 3078.69 747.729ZM3106.87 929.267C3106.77 929.312 3106.67 929.305 3106.58 929.348L3107.77 942.111C3108.33 948.112 3103.92 953.419 3097.92 953.979C3091.92 954.538 3086.62 950.136 3086.06 944.136L3084.86 931.298C3077.48 929.551 3070.2 925.609 3063.69 919.179C3059.4 914.949 3059.36 908.046 3063.6 903.757C3067.82 899.472 3074.72 899.416 3079.01 903.657C3102.8 927.225 3113.6 886.818 3091.85 888.847C3073.89 890.522 3057.92 877.276 3056.25 859.318C3055.04 846.328 3061.32 833.248 3075.12 826.837L3073.91 813.871C3073.35 807.871 3077.75 802.563 3083.75 802.004C3089.75 801.444 3095.06 805.847 3095.62 811.846L3096.83 824.847C3102.63 826.217 3108.39 828.714 3113.72 832.988C3118.41 836.763 3119.18 843.621 3115.4 848.315C3111.63 853.019 3104.77 853.776 3100.07 850.001C3078.31 832.573 3068.11 869.161 3089.83 867.136C3107.78 865.461 3123.75 878.707 3125.43 896.664C3126.7 910.298 3119.24 923.409 3106.87 929.267Z" fill="#F1C40F"/>
<path d="M3131.16 640.732C3090 632.809 3046.32 636.883 3007.34 652.28C3000.79 654.853 2998.31 662.96 3002.5 668.792L3021.66 696.655C3049.15 682.632 3091.34 676.986 3125.28 686.996L3138.96 656.065C3142 649.559 3138.06 642.052 3131.16 640.732Z" fill="#F1C40F"/>
<path d="M3126.08 710.781C3104.44 698.367 3044.8 703.327 3025.16 720.262C3016.73 727.47 3012.86 737.921 3013.93 748.362C3033.75 735.376 3057.69 727.788 3076.66 726.019C3099.77 723.864 3121.97 727.861 3142.44 736.376C3141.6 726.3 3136.18 716.577 3126.08 710.781Z" fill="#F1C40F"/>
<path d="M3254.32 822.296C3214.29 828.824 3190.44 877.963 3196.63 915.879C3203.82 959.978 3245.21 958.46 3275.71 953.485C3306.22 948.51 3345.94 936.797 3338.75 892.699C3332.57 854.782 3294.34 815.768 3254.32 822.296ZM3274.93 913.318C3274.88 913.344 3274.83 913.344 3274.78 913.369L3275.83 919.796C3276.32 922.817 3274.28 925.661 3271.26 926.154C3268.24 926.646 3265.39 924.6 3264.9 921.579L3263.84 915.114C3260.04 914.486 3256.21 912.742 3252.69 909.711C3250.37 907.716 3250.11 904.219 3252.11 901.898C3254.1 899.579 3257.6 899.31 3259.92 901.31C3272.79 912.425 3276.86 891.57 3265.91 893.356C3256.86 894.831 3248.31 888.675 3246.83 879.632C3245.77 873.091 3248.49 866.243 3255.27 862.512L3254.2 855.984C3253.71 852.962 3255.75 850.119 3258.77 849.626C3261.8 849.133 3264.64 851.18 3265.13 854.201L3266.2 860.747C3269.19 861.239 3272.19 862.304 3275.04 864.285C3277.55 866.034 3278.18 869.483 3276.43 871.993C3274.68 874.509 3271.23 875.132 3268.72 873.382C3257.08 865.309 3253.19 884.207 3264.12 882.423C3273.17 880.949 3281.72 887.105 3283.2 896.148C3284.32 903.013 3280.99 909.918 3274.93 913.318Z" fill="#F1C40F"/>
<path d="M3277.18 766.24C3256.04 763.66 3234.05 767.247 3214.83 776.41C3211.6 777.942 3210.63 782.137 3212.95 784.946L3223.64 798.399C3237.08 790.334 3258.26 786.002 3275.81 789.892L3281.67 773.739C3282.98 770.336 3280.72 766.668 3277.18 766.24Z" fill="#F1C40F"/>
<path d="M3277.05 801.919C3265.64 796.381 3235.59 800.974 3226.23 810.242C3222.21 814.189 3220.61 819.62 3221.52 824.875C3231.11 817.602 3242.98 812.922 3252.53 811.364C3264.17 809.466 3275.56 810.718 3286.23 814.32C3285.45 809.243 3282.37 804.504 3277.05 801.919Z" fill="#F1C40F"/>
<path d="M2055.97 878.124C1980.76 904.903 1951.94 1008.48 1977.3 1079.73C2006.81 1162.59 2086.43 1145.03 2143.74 1124.62C2201.05 1104.22 2273.85 1067.5 2244.34 984.643C2218.98 913.399 2131.17 851.346 2055.97 878.124ZM2128.03 1047.11C2127.95 1047.18 2127.85 1047.2 2127.77 1047.26L2132.07 1059.34C2134.09 1065.02 2131.13 1071.25 2125.45 1073.27C2119.78 1075.29 2113.55 1072.33 2111.53 1066.65L2107.2 1054.51C2099.62 1054.63 2091.59 1052.61 2083.7 1047.98C2078.5 1044.94 2076.75 1038.26 2079.81 1033.06C2082.84 1027.86 2089.52 1026.11 2094.72 1029.16C2123.58 1046.14 2124.09 1004.31 2103.51 1011.64C2086.52 1017.69 2067.78 1008.79 2061.73 991.802C2057.35 979.511 2060.21 965.287 2072.01 955.671L2067.64 943.404C2065.62 937.727 2068.58 931.497 2074.25 929.476C2079.93 927.455 2086.16 930.413 2088.18 936.09L2092.56 948.39C2098.52 948.289 2104.72 949.288 2110.93 952.118C2116.41 954.619 2118.85 961.076 2116.34 966.556C2113.85 972.045 2107.39 974.469 2101.91 971.968C2076.51 960.444 2075.65 998.415 2096.2 991.101C2113.19 985.051 2131.93 993.951 2137.98 1010.94C2142.57 1023.84 2138.57 1038.39 2128.03 1047.11Z" fill="#F1C40F"/>
<path d="M2080.44 761.496C2038.6 763.963 1997.28 778.677 1963.29 803.21C1957.58 807.316 1957.18 815.784 1962.68 820.403L1988.11 842.683C2011.3 822.316 2050.79 806.445 2086.15 807.781L2091.78 774.433C2093.13 767.377 2087.46 761.072 2080.44 761.496Z" fill="#F1C40F"/>
<path d="M2092.79 830.634C2068.75 823.938 2012.18 843.446 1997.32 864.7C1990.93 873.763 1989.76 884.845 1993.37 894.701C2009.37 877.231 2030.7 863.975 2048.65 857.583C2070.52 849.799 2093.02 848.199 2114.96 851.405C2111.65 841.849 2104 833.762 2092.79 830.634Z" fill="#F1C40F"/>
<path d="M2217.38 935.971C2163.05 955.315 2142.23 1030.14 2160.55 1081.61C2181.86 1141.46 2239.38 1128.78 2280.78 1114.04C2322.18 1099.3 2374.77 1072.78 2353.46 1012.92C2335.13 961.453 2271.7 916.627 2217.38 935.971ZM2269.43 1058.05C2269.38 1058.1 2269.3 1058.11 2269.24 1058.16L2272.35 1066.88C2273.81 1070.98 2271.67 1075.48 2267.57 1076.94C2263.47 1078.4 2258.97 1076.26 2257.51 1072.16L2254.39 1063.39C2248.91 1063.48 2243.11 1062.02 2237.41 1058.67C2233.65 1056.48 2232.39 1051.65 2234.6 1047.89C2236.79 1044.14 2241.61 1042.87 2245.37 1045.08C2266.22 1057.34 2266.59 1027.13 2251.72 1032.42C2239.45 1036.79 2225.91 1030.36 2221.54 1018.09C2218.38 1009.21 2220.44 998.936 2228.96 991.99L2225.81 983.128C2224.35 979.027 2226.49 974.527 2230.59 973.067C2234.69 971.607 2239.19 973.744 2240.65 977.845L2243.81 986.731C2248.11 986.657 2252.59 987.379 2257.08 989.423C2261.04 991.23 2262.8 995.895 2260.99 999.853C2259.19 1003.82 2254.52 1005.57 2250.56 1003.76C2232.22 995.438 2231.6 1022.87 2246.44 1017.58C2258.71 1013.21 2272.25 1019.64 2276.62 1031.92C2279.94 1041.24 2277.05 1051.74 2269.43 1058.05Z" fill="#F1C40F"/>
<path d="M2235.06 851.719C2204.83 853.502 2174.98 864.131 2150.43 881.853C2146.31 884.82 2146.01 890.937 2149.99 894.274L2168.36 910.368C2185.11 895.655 2213.64 884.19 2239.18 885.155L2243.25 861.065C2244.22 855.968 2240.13 851.414 2235.06 851.719Z" fill="#F1C40F"/>
<path d="M2243.98 901.665C2226.61 896.828 2185.75 910.92 2175.01 926.273C2170.39 932.821 2169.55 940.826 2172.15 947.946C2183.71 935.326 2199.13 925.75 2212.09 921.133C2227.89 915.509 2244.14 914.354 2259.99 916.669C2257.6 909.766 2252.08 903.924 2243.98 901.665Z" fill="#F1C40F"/>
<path d="M2311.31 922.712C2256.99 942.056 2236.16 1016.88 2254.49 1068.35C2275.8 1128.2 2333.32 1115.52 2374.72 1100.78C2416.12 1086.04 2468.71 1059.52 2447.4 999.66C2429.07 948.194 2365.64 903.367 2311.31 922.712ZM2363.37 1044.79C2363.31 1044.84 2363.24 1044.85 2363.18 1044.9L2366.29 1053.62C2367.75 1057.72 2365.61 1062.22 2361.51 1063.68C2357.41 1065.14 2352.91 1063 2351.45 1058.9L2348.32 1050.13C2342.84 1050.22 2337.04 1048.76 2331.35 1045.41C2327.59 1043.22 2326.33 1038.39 2328.54 1034.63C2330.73 1030.88 2335.55 1029.61 2339.31 1031.82C2360.16 1044.08 2360.53 1013.87 2345.66 1019.16C2333.38 1023.53 2319.84 1017.1 2315.47 1004.83C2312.31 995.953 2314.38 985.677 2322.9 978.731L2319.75 969.869C2318.29 965.768 2320.42 961.268 2324.52 959.808C2328.62 958.348 2333.12 960.485 2334.58 964.585L2337.75 973.471C2342.05 973.398 2346.53 974.12 2351.02 976.164C2354.98 977.971 2356.74 982.636 2354.93 986.594C2353.12 990.559 2348.46 992.311 2344.5 990.504C2326.16 982.179 2325.54 1009.61 2340.37 1004.32C2352.65 999.954 2366.19 1006.38 2370.56 1018.66C2373.88 1027.98 2370.99 1038.48 2363.37 1044.79Z" fill="#F1C40F"/>
<path d="M2328.99 838.46C2298.77 840.243 2268.92 850.872 2244.36 868.594C2240.24 871.56 2239.95 877.678 2243.92 881.015L2262.3 897.109C2279.05 882.396 2307.58 870.931 2333.12 871.896L2337.19 847.806C2338.16 842.709 2334.06 838.154 2328.99 838.46Z" fill="#F1C40F"/>
<path d="M2337.92 888.405C2320.55 883.568 2279.68 897.66 2268.95 913.014C2264.33 919.561 2263.48 927.567 2266.09 934.687C2277.65 922.066 2293.06 912.49 2306.03 907.873C2321.82 902.25 2338.08 901.094 2353.93 903.41C2351.54 896.507 2346.01 890.665 2337.92 888.405Z" fill="#F1C40F"/>
<path d="M3545.74 900.172L1921.66 1149.57C1910.25 1151.32 1902.42 1161.99 1904.17 1173.4C1905.92 1184.81 1916.59 1192.64 1928.01 1190.89L3552.09 941.492C3563.5 939.74 3571.33 929.07 3569.57 917.66C3567.82 906.25 3557.15 898.42 3545.74 900.172Z" fill="white"/>
<circle cx="2736.86" cy="1045.53" r="129.5" fill="#141414" stroke="white" stroke-width="35"/>
<path d="M519.5 1194.72C519.5 1166.15 530.849 1138.75 551.051 1118.55C571.253 1098.35 598.652 1087 627.221 1087C655.791 1087 683.19 1098.35 703.392 1118.55C723.594 1138.75 734.943 1166.15 734.943 1194.72" fill="#F2F2F2"/>
<path d="M627.222 1194.72C626.45 1194.72 625.709 1194.42 625.163 1193.87C624.617 1193.33 624.311 1192.59 624.311 1191.81V1135.04C624.311 1134.27 624.617 1133.53 625.163 1132.98C625.709 1132.43 626.45 1132.13 627.222 1132.13C627.994 1132.13 628.735 1132.43 629.281 1132.98C629.827 1133.53 630.133 1134.27 630.133 1135.04V1191.81C630.133 1192.59 629.827 1193.33 629.281 1193.87C628.735 1194.42 627.994 1194.72 627.222 1194.72Z" fill="#CCCCCC"/>
<path d="M627.22 1175.22C626.524 1175.22 625.852 1174.97 625.325 1174.51L590.388 1144.53C590.096 1144.28 589.855 1143.98 589.68 1143.63C589.505 1143.29 589.4 1142.92 589.369 1142.54C589.339 1142.15 589.385 1141.77 589.504 1141.4C589.623 1141.04 589.813 1140.7 590.063 1140.41C590.312 1140.12 590.618 1139.88 590.96 1139.71C591.303 1139.53 591.676 1139.43 592.059 1139.4C592.441 1139.38 592.826 1139.42 593.19 1139.54C593.554 1139.67 593.891 1139.86 594.181 1140.11L629.117 1170.09C629.569 1170.48 629.891 1171 630.04 1171.57C630.189 1172.15 630.158 1172.76 629.951 1173.32C629.744 1173.87 629.372 1174.35 628.883 1174.69C628.395 1175.03 627.814 1175.22 627.22 1175.22Z" fill="#CCCCCC"/>
<path d="M1365.75 1096.68L1361.62 1100.96L1365.53 1102.41L1365.75 1096.68Z" fill="#D0A8A8"/>
<path d="M1361.54 1091.75L1357.42 1096.02L1361.32 1097.47L1361.54 1091.75Z" fill="#D0A8A8"/>
<path d="M1362.75 1094.82L1358.62 1099.09L1362.52 1100.54L1362.75 1094.82Z" fill="#D0A8A8"/>
<path d="M1358.54 1089.88L1354.42 1094.15L1358.32 1095.6L1358.54 1089.88Z" fill="#D0A8A8"/>
<path d="M1362.23 1088.15L1364.02 1078.98L1357.91 1079.85L1362.23 1088.15Z" fill="#D0A8A8"/>
<path d="M1371.53 1092.01L1373.31 1082.84L1367.2 1083.71L1371.53 1092.01Z" fill="#D0A8A8"/>
<path d="M1367.53 1088.55L1369.31 1079.37L1363.21 1080.25L1367.53 1088.55Z" fill="#D0A8A8"/>
<path d="M1376.82 1092.41L1378.61 1083.24L1372.5 1084.11L1376.82 1092.41Z" fill="#D0A8A8"/>
<path d="M1388.36 1072.01C1389.06 1067.51 1386.52 1063.39 1382.68 1062.81C1378.83 1062.22 1375.15 1065.39 1374.45 1069.89C1373.75 1074.39 1376.29 1078.5 1380.13 1079.09C1383.97 1079.68 1387.66 1076.51 1388.36 1072.01Z" fill="#3E0101" fill-opacity="0.65"/>
<path d="M1063.14 1159.92L1028.9 1101.81L1071.12 1077.23L1105.36 1135.33V1135.34C1108.64 1140.9 1109.56 1147.53 1107.92 1153.77C1106.28 1160.01 1102.22 1165.35 1096.62 1168.61C1091.02 1171.87 1084.35 1172.78 1078.07 1171.15C1071.79 1169.52 1066.42 1165.48 1063.14 1159.92Z" fill="#71202C"/>
<path d="M994.59 1048.93C1006.43 1037.17 999.321 1011.04 978.707 990.569C958.094 970.097 931.783 963.034 919.942 974.795C908.1 986.556 915.211 1012.69 935.824 1033.16C956.438 1053.63 982.748 1060.69 994.59 1048.93Z" fill="#71202C"/>
<path d="M1195.8 1159.93L1161.56 1101.81L1203.78 1077.23L1238.03 1135.35C1241.3 1140.91 1242.22 1147.54 1240.57 1153.78C1238.93 1160.02 1234.87 1165.35 1229.27 1168.61C1223.67 1171.87 1217.01 1172.78 1210.73 1171.16C1204.45 1169.53 1199.09 1165.49 1195.8 1159.93Z" fill="#71202C"/>
<path d="M955.833 1069.99C955.852 1053.29 962.595 1037.29 974.584 1025.49C986.572 1013.69 1002.83 1007.05 1019.78 1007.03H1222.21C1229.38 1007.04 1236.25 1009.84 1241.32 1014.83C1246.38 1019.82 1249.23 1026.58 1249.24 1033.64V1056.32C1249.22 1076.63 1241.01 1096.11 1226.42 1110.47C1211.83 1124.84 1192.04 1132.92 1171.41 1132.94H1019.78C1002.83 1132.92 986.572 1126.29 974.584 1114.48C962.595 1102.68 955.852 1086.68 955.833 1069.99Z" fill="#71202C"/>
<path d="M1003.05 1167.76V1100.63H1051.39V1167.76C1051.39 1174.19 1048.84 1180.35 1044.31 1184.9C1039.78 1189.45 1033.63 1192 1027.22 1192C1020.81 1192 1014.66 1189.45 1010.13 1184.9C1005.59 1180.35 1003.05 1174.19 1003.05 1167.76Z" fill="#71202C"/>
<path d="M1144.69 1167.74V1100.63H1193.03V1167.74C1193.04 1170.92 1192.41 1174.08 1191.2 1177.02C1189.99 1179.96 1188.21 1182.64 1185.96 1184.89C1183.72 1187.15 1181.05 1188.93 1178.12 1190.15C1175.18 1191.37 1172.04 1192 1168.86 1192C1165.69 1192 1162.54 1191.37 1159.61 1190.15C1156.67 1188.93 1154.01 1187.15 1151.76 1184.89C1149.52 1182.64 1147.74 1179.96 1146.52 1177.02C1145.31 1174.08 1144.69 1170.92 1144.69 1167.74Z" fill="#71202C"/>
<path d="M1261.56 955.226C1262.82 947.425 1267.15 940.416 1273.62 935.738C1280.08 931.06 1288.15 929.096 1296.04 930.275C1303.93 931.454 1311.01 935.681 1315.72 942.029C1320.43 948.376 1322.39 956.325 1321.16 964.131L1308.85 1041.47L1249.24 1032.57L1261.56 955.226Z" fill="#71202C"/>
<path d="M1263.06 946.548C1263.48 943.891 1264.42 941.34 1265.83 939.041C1267.25 936.742 1269.1 934.74 1271.29 933.149C1273.49 931.557 1275.97 930.408 1278.61 929.767C1281.25 929.126 1283.99 929.006 1286.67 929.413C1289.35 929.819 1291.93 930.745 1294.25 932.138C1296.57 933.53 1298.59 935.362 1300.19 937.528C1301.79 939.694 1302.94 942.153 1303.59 944.763C1304.23 947.374 1304.34 950.084 1303.93 952.741L1290.35 1039.19L1249.49 1032.99L1263.06 946.548Z" fill="#71202C"/>
<path d="M1219 1062.56L1228.83 1000.83C1231.23 985.845 1239.54 972.377 1251.95 963.381C1264.36 954.385 1279.84 950.596 1295 952.845L1310.67 955.187C1328.74 957.91 1344.94 967.609 1355.71 982.156C1366.48 996.703 1370.94 1014.91 1368.12 1032.78L1360.03 1083.64C1359.13 1089.25 1356.01 1094.3 1351.37 1097.66C1346.72 1101.03 1340.93 1102.45 1335.25 1101.61L1237.04 1086.93C1231.37 1086.07 1226.28 1083.03 1222.9 1078.46C1219.52 1073.89 1218.12 1068.17 1219 1062.56Z" fill="#71202C"/>
<path d="M1241.93 1088.93C1249.8 1071.1 1225.63 1006.47 1225.63 1006.47H1208.21L1224.51 1112.33C1224.51 1112.33 1234.06 1106.76 1241.93 1088.93Z" fill="#C4C4C4"/>
<path d="M1194.65 1010.61L1217.6 1031.68L1224.29 1020.51L1194.65 1010.61Z" fill="white"/>
<path d="M1205.28 1038.87L1225.29 1052.01L1229.24 1037.4L1205.28 1038.87Z" fill="white"/>
<path d="M1199.25 1068.05L1228.91 1069.56L1227.05 1057.71L1199.25 1068.05Z" fill="white"/>
<path d="M1211.13 1095.42L1237.85 1087.39L1227.92 1073.31L1211.13 1095.42Z" fill="white"/>
<path fill-rule="evenodd" clip-rule="evenodd" d="M1359.28 1045.11L1252.29 1028.42L1243.34 1087.07L1350.34 1103.76C1356.52 1104.71 1362.79 1103.7 1368.29 1100.94L1342.82 1085.58L1382.75 1084.82C1383.44 1082.96 1383.95 1081.02 1384.25 1079.03C1385.43 1071.26 1383.47 1063.33 1378.79 1056.97C1374.11 1050.62 1367.09 1046.35 1359.28 1045.11Z" fill="#71202C"/>
<mask id="mask0" mask-type="alpha" maskUnits="userSpaceOnUse" x="1344" y="988" width="22" height="47">
<ellipse rx="10.1175" ry="23.4" transform="matrix(-1 0 0 1 1354.91 1011.49)" fill="white"/>
</mask>
<g mask="url(#mask0)">
<ellipse rx="9.39484" ry="9.50625" transform="matrix(-1 0 0 1 1351.3 1026.84)" fill="#C0392B"/>
</g>
<path d="M715.277 984.564L712.014 988.998L715.759 989.871L715.277 984.564Z" fill="#D0A8A8"/>
<path d="M710.841 980.507L707.577 984.941L711.322 985.814L710.841 980.507Z" fill="#D0A8A8"/>
<path d="M712.309 983.201L709.046 987.634L712.791 988.508L712.309 983.201Z" fill="#D0A8A8"/>
<path d="M707.874 979.144L704.61 983.578L708.356 984.451L707.874 979.144Z" fill="#D0A8A8"/>
<path d="M711.04 977.109L711.571 968.432L706.09 969.962L711.04 977.109Z" fill="#D0A8A8"/>
<path d="M720.003 979.568L720.534 970.891L715.052 972.421L720.003 979.568Z" fill="#D0A8A8"/>
<path d="M715.93 976.845L716.462 968.168L710.98 969.699L715.93 976.845Z" fill="#D0A8A8"/>
<path d="M724.893 979.303L725.425 970.626L719.943 972.157L724.893 979.303Z" fill="#D0A8A8"/>
<path d="M584.375 1111.59L553.147 1057.51L591.759 1035.21L622.987 1089.29C624.472 1091.86 625.443 1094.68 625.844 1097.62C626.244 1100.55 626.068 1103.52 625.323 1106.38C624.579 1109.23 623.281 1111.9 621.505 1114.23C619.729 1116.57 617.508 1118.53 614.971 1119.99C612.434 1121.46 609.629 1122.4 606.718 1122.77C603.807 1123.14 600.846 1122.93 598.004 1122.15C595.162 1121.37 592.496 1120.04 590.158 1118.22C587.819 1116.41 585.854 1114.16 584.375 1111.59Z" fill="#464367"/>
<path d="M732.999 959.106C733.101 954.874 730.279 951.375 726.696 951.291C723.112 951.208 720.124 954.571 720.022 958.803C719.92 963.036 722.742 966.535 726.325 966.618C729.909 966.702 732.896 963.338 732.999 959.106Z" fill="#3E0101" fill-opacity="0.65"/>
<path d="M515.596 1142.9L461.207 1111.86L483.494 1072.58L537.883 1103.61L537.884 1103.61C543.093 1106.59 546.914 1111.51 548.508 1117.29C550.101 1123.08 549.336 1129.25 546.381 1134.46C543.425 1139.67 538.521 1143.49 532.748 1145.07C526.975 1146.65 520.805 1145.87 515.596 1142.9Z" fill="#464367"/>
<path d="M409.245 1084.99C413.245 1070.06 395.413 1052.31 369.414 1045.34C343.415 1038.38 319.096 1044.84 315.095 1059.77C311.094 1074.71 328.927 1092.46 354.925 1099.43C380.924 1106.39 405.244 1099.93 409.245 1084.99Z" fill="#464367"/>
<path d="M621.569 1081.73L567.169 1050.68L589.458 1011.39L643.857 1042.43C649.061 1045.41 652.877 1050.33 654.467 1056.11C656.058 1061.9 655.292 1068.07 652.338 1073.28C649.384 1078.48 644.485 1082.3 638.715 1083.88C632.946 1085.47 626.778 1084.69 621.569 1081.73Z" fill="#464367"/>
<path d="M388.032 1119.92C380.28 1106.46 378.22 1090.46 382.304 1075.42C386.388 1060.37 396.282 1047.53 409.816 1039.69L571.513 946.324C577.241 943.025 584.034 942.118 590.403 943.801C596.772 945.484 602.196 949.62 605.485 955.301L616.038 973.576C625.473 989.958 627.98 1009.44 623.009 1027.75C618.039 1046.05 605.996 1061.69 589.524 1071.22L468.408 1141.16C454.856 1148.97 438.783 1151.11 423.715 1147.13C408.647 1143.15 395.814 1133.36 388.032 1119.92Z" fill="#464367"/>
<path d="M471.242 1176.94L440.005 1122.84L478.617 1100.54L509.854 1154.64C512.846 1159.82 513.681 1165.96 512.176 1171.72C510.671 1177.47 506.949 1182.37 501.829 1185.32C496.708 1188.28 490.609 1189.06 484.873 1187.48C479.137 1185.91 474.234 1182.12 471.242 1176.94Z" fill="#464367"/>
<path d="M603.001 866.421C603.216 859.073 606.342 852.089 611.694 847.003C617.046 841.918 624.186 839.145 631.548 839.295C638.909 839.444 645.891 842.503 650.96 847.8C656.029 853.097 658.772 860.199 658.587 867.549L656.606 940.382L601.019 939.254L603.001 866.421Z" fill="#464367"/>
<path d="M603.338 858.234C603.4 855.733 603.955 853.267 604.971 850.977C605.987 848.688 607.443 846.62 609.258 844.891C611.072 843.162 613.208 841.806 615.544 840.9C617.881 839.995 620.372 839.558 622.875 839.614C625.378 839.67 627.844 840.218 630.132 841.228C632.421 842.237 634.487 843.687 636.212 845.495C637.938 847.304 639.289 849.435 640.189 851.767C641.089 854.1 641.52 856.588 641.457 859.089L639.418 940.474L601.298 939.619L603.338 858.234Z" fill="#464367"/>
<path d="M576.96 970.53L578.536 912.399C578.935 898.284 584.925 884.867 595.193 875.09C605.46 865.313 619.167 859.975 633.306 860.247L647.917 860.545C664.773 860.908 680.753 867.931 692.35 880.074C703.947 892.217 710.214 908.488 709.777 925.317L708.478 973.211C708.329 978.496 706.086 983.519 702.242 987.179C698.397 990.84 693.266 992.838 687.972 992.736L596.384 990.869C591.091 990.756 586.074 988.55 582.432 984.737C578.791 980.924 576.822 975.815 576.96 970.53Z" fill="#464367"/>
<path d="M625.376 1003.23C623.365 985.231 573.986 944.297 573.986 944.297L560.068 952.334L622.347 1030.12C622.347 1030.12 627.388 1021.22 625.376 1003.23Z" fill="#C4C4C4"/>
<path d="M551.162 961.925L579.299 968.312L579.447 956.23L551.162 961.925Z" fill="white"/>
<path d="M572.8 979.792L594.903 981.155L591.259 967.557L572.8 979.792Z" fill="white"/>
<path d="M581.567 1006.09L605.959 993.629L598.961 984.93L581.567 1006.09Z" fill="white"/>
<path d="M603.794 1022.67L621.399 1003.87L606.917 997.106L603.794 1022.67Z" fill="white"/>
<path fill-rule="evenodd" clip-rule="evenodd" d="M703.175 937.741L603.306 935.065L623.49 991.488L702.033 992.924C707.802 993.064 713.417 991.387 718.114 988.19L692.977 977.046L729.409 971.59C729.816 969.791 730.044 967.943 730.083 966.069C730.234 958.764 727.487 951.679 722.442 946.369C717.398 941.058 710.469 937.956 703.175 937.741Z" fill="#464367"/>
<mask id="mask1" mask-type="alpha" maskUnits="userSpaceOnUse" x="683" y="884" width="25" height="47">
<ellipse rx="9.33216" ry="21.775" transform="matrix(-0.99165 0.128957 0.128957 0.99165 695.143 907.233)" fill="white"/>
</mask>
<g mask="url(#mask1)">
<ellipse rx="8.66557" ry="8.84611" transform="matrix(-0.99165 0.128957 0.128957 0.99165 693.68 921.834)" fill="#C0392B"/>
</g>
<path d="M3967.63 548.78C3972.03 548.278 3976.26 546.824 3980.03 544.521C3983.81 542.218 3987.03 539.121 3989.46 535.449C3991.9 531.777 3993.5 527.619 3994.14 523.268C3994.79 518.916 3994.46 514.478 3993.19 510.264L4080.5 447.725L4028.2 428L3953.31 490.412C3946.33 493 3940.54 498.043 3937.05 504.586C3933.55 511.128 3932.6 518.716 3934.37 525.91C3936.13 533.105 3940.49 539.407 3946.62 543.622C3952.75 547.836 3960.22 549.672 3967.63 548.78H3967.63Z" fill="#FFB6B6"/>
<path d="M3904.49 1163L3876.72 1163L3863.5 1057H3904.5L3904.49 1163Z" fill="#FFB6B6"/>
<path d="M3911.5 1190L3822.5 1190V1188.9C3822.5 1179.91 3826.15 1171.28 3832.65 1164.93C3839.14 1158.57 3847.95 1155 3857.14 1155H3857.14L3911.5 1155L3911.5 1190Z" fill="#2F2E41"/>
<path d="M3682.49 1163L3655.39 1163L3642.5 1057H3682.5L3682.49 1163Z" fill="#FFB6B6"/>
<path d="M3691.5 1190L3601.5 1190V1188.9C3601.5 1179.91 3605.19 1171.28 3611.76 1164.93C3618.33 1158.57 3627.24 1155 3636.53 1155H3636.53L3691.5 1155L3691.5 1190Z" fill="#2F2E41"/>
<path d="M3715.15 571.778L3656.88 891.247L3636.5 1145L3702.67 1141.74L3740.33 895.323L3833.95 680.77L3861.82 1141.14L3922.73 1141.34L3955.5 559L3715.15 571.778Z" fill="#CCCCCC"/>
<path d="M3962.92 206.505L3881.03 174L3787.09 184.723L3707.45 228.645C3707.45 228.645 3731.81 533.45 3696.5 604.946C3696.5 604.946 3724.79 644.043 3840.07 634.499C3840.07 634.499 3952.37 620.34 3955.15 583.603C3957.93 546.866 3958.52 480.073 3958.52 480.073L3997.5 346.067L3962.92 206.505Z" fill="#0137FF"/>
<path d="M3729.28 233.912L3697.38 228C3697.38 228 3663.43 243.012 3663.78 287.747C3664.13 332.481 3603.82 482.459 3675.98 488.746C3748.14 495.034 3729.28 382.392 3729.28 382.392V233.912Z" fill="#0137FF"/>
<path d="M3937.5 224.875L3963.48 206C3963.48 206 4003.14 214.919 4017.81 246.701C4017.81 246.701 4180.45 364.124 4135.71 408.657C4090.98 453.19 3999.79 508 3999.79 508L3966.02 469.943L4049.79 394.4L3981.07 332.08L3937.5 224.875Z" fill="#0137FF"/>
<path d="M3895.5 87.9957C3895.49 105.77 3888.42 122.813 3875.86 135.378C3863.3 147.942 3846.26 155 3828.5 155C3810.74 155 3793.7 147.942 3781.14 135.378C3768.58 122.813 3761.51 105.77 3761.5 87.9957V85.4223C3762.19 67.8855 3769.72 51.3172 3782.47 39.2747C3795.23 27.2321 3812.2 20.6755 3829.73 21.0124C3847.27 21.3493 3863.97 28.5528 3876.26 41.0765C3888.55 53.6002 3895.44 70.4455 3895.45 87.9957H3895.5Z" fill="#FFB6B6"/>
<path d="M3838.06 77.376C3842.39 76.6712 3847.09 76.0009 3850.97 77.9777C3859.41 82.2578 3857.47 94.3933 3862.08 102.404C3863.9 105.584 3866.84 108.179 3868.05 111.617C3869.27 115.055 3868.52 119.352 3870.43 122.67C3873.18 127.465 3880.65 128.17 3885.56 125.317C3890.2 122.129 3893.56 117.426 3895.05 112.03C3896.68 107.457 3898.05 102.404 3901.99 99.4126C3903.42 98.605 3904.7 97.5649 3905.78 96.3358C3906.59 94.7077 3906.91 92.8788 3906.68 91.0758C3906.68 79.4559 3904.86 70.4488 3907.51 59.1899C3911.76 41.038 3915.64 32.0652 3902.19 18.6061C3895.31 11.8008 3886.45 7.30453 3876.86 5.74853C3868.19 4.33903 3855.44 16.3372 3846.67 16.0623C3824.37 15.1856 3805.55 -5.30394 3784.28 1.31389C3774.99 4.21084 3766.93 10.0952 3761.37 18.039C3750.98 33.2342 3751.91 39.113 3753.42 57.2476C3753.4 58.6245 3753.8 59.9748 3754.58 61.1151C3755.36 62.0434 3756.63 62.5419 3757.39 63.4873C3758.21 64.7362 3758.52 66.2484 3758.25 67.7159C3758.02 70.6698 3757.33 73.5697 3756.19 76.3106C3755.91 76.7688 3755.73 77.2857 3755.68 77.8219C3755.62 78.358 3755.69 78.8994 3755.88 79.4046C3756.31 79.9788 3756.92 80.3912 3757.61 80.5735C3766.28 83.6676 3775.64 77.703 3784.91 77.8576C3794.18 78.0123 3802.98 84.1661 3812.55 82.8254C3820.99 81.5358 3829.55 78.7683 3838.06 77.376Z" fill="#2F2E41"/>
<path d="M3838.54 450.575L3838.54 450.575C3838 450.781 3837.44 450.925 3836.86 451.004L3836.86 451.005L3762.04 461.424L3762.04 461.424C3760.34 461.666 3758.61 461.325 3757.13 460.456C3755.66 459.588 3754.52 458.243 3753.91 456.645L3753.91 456.643L3689.51 289.466L3689.04 289.646L3689.51 289.466C3689.11 288.451 3688.95 287.364 3689.01 286.279C3689.08 285.193 3689.38 284.135 3689.9 283.177C3690.42 282.218 3691.13 281.382 3692 280.724C3692.86 280.074 3693.85 279.614 3694.9 279.375C3694.91 279.372 3694.92 279.369 3694.93 279.366L3694.93 279.366L3765.3 263.703L3765.3 263.703C3765.88 263.572 3766.45 263.365 3766.98 263.089L3766.98 263.088L3835.42 227.394L3835.42 227.394C3835.92 227.135 3836.44 226.932 3836.98 226.788L3836.98 226.788L3912.3 206.759L3912.3 206.758C3914.11 206.274 3916.03 206.475 3917.7 207.325C3919.37 208.174 3920.66 209.61 3921.33 211.355L3921.33 211.356L3977.49 357.124L3977.49 357.125C3977.95 358.316 3978.1 359.604 3977.93 360.869C3977.76 362.134 3977.26 363.334 3976.49 364.356L3976.49 364.357L3957.07 390.374L3957.47 390.673L3957.07 390.374C3956.22 391.523 3955.05 392.405 3953.71 392.918L3953.71 392.918L3911.26 409.189L3911.26 409.189C3910.94 409.315 3910.62 409.466 3910.31 409.64L3910.56 410.074L3910.31 409.64L3839.59 450.076C3839.25 450.269 3838.9 450.436 3838.54 450.575Z" fill="white" stroke="black"/>
<path d="M3919.84 241.778L3713.98 320.893L3717.51 330.066L3923.37 250.952L3919.84 241.778Z" fill="white"/>
<path d="M3931.59 272.357L3725.73 351.471L3729.26 360.644L3935.12 281.53L3931.59 272.357Z" fill="white"/>
<path d="M3955.33 334.124L3749.47 413.238L3752.99 422.412L3958.86 343.297L3955.33 334.124Z" fill="white"/>
<path d="M3873.02 228L3934.5 388.473L3925.35 392L3863.5 230.549L3873.02 228Z" fill="white"/>
<path d="M3793.5 256L3780.99 291.233L3776.65 303.452L3766.53 331.968L3764.37 338.063L3762.2 344.189L3759.34 352.23L3738.83 410L3733.5 395.957L3750.22 348.847L3754 338.182L3754.56 336.626L3759.03 324.014L3764.68 308.113L3769.02 295.889L3780.78 262.732L3780.79 262.729L3793.5 256Z" fill="white"/>
<path d="M3740.29 277L3804.5 442.602L3794.41 444L3730.5 279.17L3740.29 277Z" fill="white"/>
<path d="M3727 437C3742.74 437 3755.5 423.569 3755.5 407C3755.5 390.431 3742.74 377 3727 377C3711.26 377 3698.5 390.431 3698.5 407C3698.5 423.569 3711.26 437 3727 437Z" fill="#FFB6B6"/>
<path d="M1468.12 236.451C1432.78 236.451 1404.13 206.147 1404.13 168.767C1404.13 131.386 1432.78 101.083 1468.12 101.083C1503.47 101.083 1532.12 131.386 1532.12 168.767C1532.12 206.147 1503.47 236.451 1468.12 236.451Z" fill="#FFB8B8"/>
<path d="M1658.86 1165.97L1689.29 1155.71L1666.36 1026.67L1621.44 1041.81L1658.86 1165.97Z" fill="#FFB8B8"/>
<path d="M1709.64 1138.71L1649.56 1158.96L1661.34 1198.05L1757 1165.8L1756.56 1164.34C1755.07 1159.4 1752.68 1154.82 1749.51 1150.85C1746.35 1146.89 1742.48 1143.63 1738.12 1141.25C1733.76 1138.87 1729.01 1137.42 1724.12 1136.98C1719.23 1136.55 1714.32 1137.13 1709.64 1138.71Z" fill="#2F2E41"/>
<path d="M1437.41 1165.3H1469.36L1484.56 1034.99H1437.41V1165.3Z" fill="#FFB8B8"/>
<path d="M1493.63 1155.65H1430.57V1196.68H1530.97V1195.14C1530.97 1189.96 1530 1184.82 1528.13 1180.03C1526.25 1175.24 1523.5 1170.88 1520.03 1167.22C1516.56 1163.55 1512.45 1160.64 1507.92 1158.66C1503.39 1156.67 1498.53 1155.65 1493.63 1155.65Z" fill="#2F2E41"/>
<path d="M1438.35 1123.02L1449.13 1121.31C1481.83 1116.16 1483.79 1115.85 1488.98 1113.44C1491.63 1112.21 1491.82 1093.6 1490.23 988.965C1489.06 912.161 1487.61 816.576 1490.43 765.261C1490.55 763.236 1491.3 761.312 1492.58 759.799C1493.86 758.285 1495.58 757.271 1497.47 756.919C1499.36 756.567 1501.3 756.898 1502.99 757.859C1504.68 758.82 1506.01 760.355 1506.78 762.216C1531.11 821.64 1571.93 954.624 1598.94 1042.62C1608.34 1073.23 1615.76 1097.41 1620.46 1111.9C1621.36 1114.64 1623.2 1116.93 1625.62 1118.31C1628.03 1119.69 1630.85 1120.07 1633.51 1119.38C1655.74 1113.5 1654.26 1111 1685.92 1102.34C1688.66 1101.6 1691.02 1099.77 1692.51 1097.23C1694.01 1094.69 1694.51 1091.64 1693.92 1088.72C1688.2 1060.15 1583.4 597.058 1575.38 553.036C1575.11 551.529 1574.55 550.094 1573.76 548.814C1572.96 547.533 1571.93 546.433 1570.72 545.576C1569.52 544.72 1568.17 544.124 1566.75 543.823C1565.32 543.521 1563.86 543.521 1562.44 543.822C1538.84 548.85 1524.49 554.184 1501.17 559.342C1476.01 564.908 1449.99 570.664 1424.62 576.036C1422.09 576.574 1419.83 578.041 1418.23 580.177C1411.95 588.565 1402.64 593.273 1392.78 598.257C1386.13 601.617 1401.19 601.314 1395.41 606.161C1371.97 625.784 1405.67 1024.27 1426.04 1114.27C1426.69 1117.09 1428.32 1119.55 1430.59 1121.16C1432.87 1122.78 1435.64 1123.44 1438.35 1123.02Z" fill="#F09242"/>
<path d="M1457.64 671.37C1458.37 667.873 1458.36 664.248 1457.62 660.753C1456.88 657.258 1455.42 653.978 1453.36 651.142C1451.29 648.306 1448.66 645.985 1445.65 644.341C1442.64 642.698 1439.32 641.772 1435.94 641.629L1384.21 579.88L1352.09 620.921L1411.58 666.881C1411.73 672.909 1413.96 678.67 1417.86 683.071C1421.76 687.473 1427.05 690.209 1432.72 690.763C1438.4 691.316 1444.07 689.647 1448.67 686.073C1453.26 682.499 1456.45 677.268 1457.64 671.37V671.37Z" fill="#FFB8B8"/>
<path d="M1440.85 227.992C1444.58 211.225 1425.69 175.146 1429.43 158.379C1431.96 147.024 1457.21 154.743 1463.1 144.88C1468.99 135.018 1478.86 127.028 1489.89 126.897C1502.57 126.746 1515.05 136.692 1527.06 132.394C1539.2 128.047 1543.08 110.46 1537.71 98.1482C1532.34 85.836 1520.78 77.9905 1509.35 71.8428C1489.89 61.3739 1467.24 53.7289 1446.41 60.6554C1433.82 64.8424 1423.3 73.915 1413.11 82.7885C1403.82 90.8771 1394.38 99.1491 1387.89 109.86C1375.18 130.844 1375.94 159.118 1386.81 181.234C1397.68 203.349 1417.48 219.579 1439.3 228.999" fill="#2F2E41"/>
<path d="M1597.99 618.189C1591.09 605.985 1580.6 548.806 1567.67 452.832C1558.86 387.314 1551.19 320.744 1547.38 286.739C1547.09 283.987 1546.14 281.36 1544.62 279.103C1543.1 276.846 1541.06 275.035 1538.7 273.838C1536.23 272.577 1533.78 271.384 1531.33 270.258C1499.81 255.758 1467.87 250.955 1436.4 255.978C1404.97 261.083 1375.49 275.288 1351.23 297.021L1350.94 297.307L1350.86 297.715C1350.73 298.471 1337.51 373.806 1364.58 424.704C1391.29 474.924 1391.6 607.918 1391.6 609.256V610.965L1393.15 610.497C1434.7 597.943 1595.17 619.905 1596.79 620.13L1599.29 620.475L1597.99 618.189Z" fill="#CCCCCC"/>
<path d="M1427.52 628.392L1345.92 513.321L1388 417.957L1384.94 304.855L1350.44 298.114L1350.08 298.308C1333.32 308.675 1320.33 324.681 1313.18 343.771C1305.52 364.035 1289.62 432.974 1277.64 487.24C1274.51 501.206 1274.82 515.788 1278.54 529.59C1282.27 543.391 1289.28 555.95 1298.91 566.064L1399.02 671.936L1427.52 628.392Z" fill="#CCCCCC"/>
<path d="M1770.1 400.341C1768.15 397.413 1765.62 394.974 1762.68 393.194C1759.74 391.414 1756.47 390.338 1753.09 390.04C1749.72 389.742 1746.32 390.231 1743.14 391.471C1739.97 392.711 1737.09 394.673 1734.7 397.218L1656.71 395.948L1663.69 448.712L1735.9 433.273C1740.2 437.222 1745.73 439.363 1751.43 439.29C1757.14 439.217 1762.61 436.934 1766.83 432.875C1771.05 428.815 1773.71 423.261 1774.31 417.265C1774.91 411.269 1773.42 405.247 1770.1 400.341Z" fill="#FFB8B8"/>
<path d="M1730.95 446.494L1719.8 394.863L1584.43 380.945L1547.32 286.555L1546.23 283.768L1531.64 270.465L1531.33 270.258C1499.81 255.76 1467.87 250.956 1436.39 255.977L1435.29 256.155L1435.36 257.334C1436.07 269.413 1439 281.23 1443.99 292.121C1457.99 322.839 1544.15 453.416 1545.02 454.731L1545.4 455.313L1730.95 446.494Z" fill="#CCCCCC"/>
<path d="M1823.54 219.72L1823.55 219.721L2039.51 309.499L2039.7 309.038L2039.51 309.499C2042.98 310.941 2045.83 313.569 2047.55 316.916C2049.26 320.262 2049.74 324.108 2048.88 327.771C2025.18 424.249 1986.86 516.53 1935.25 601.407C1933.26 604.596 1930.2 606.974 1926.62 608.117C1923.04 609.261 1919.17 609.097 1915.7 607.652L1915.51 608.114L1915.7 607.652L1699.73 517.874L1699.73 517.873C1697.53 516.966 1695.56 515.567 1693.98 513.785C1692.4 512.002 1691.24 509.881 1690.6 507.584L1690.6 507.581L1690.59 507.547L1690.59 507.545C1689.94 505.198 1689.83 502.734 1690.26 500.337C1690.7 497.928 1691.68 495.65 1693.13 493.678L1693.14 493.675C1749.35 416.225 1786.56 326.622 1801.75 232.115L1801.75 232.112C1802.12 229.691 1803.04 227.388 1804.44 225.376C1805.84 223.365 1807.68 221.7 1809.82 220.506L1809.82 220.506C1811.89 219.339 1814.21 218.662 1816.59 218.526C1818.97 218.389 1821.35 218.798 1823.54 219.72Z" fill="white" stroke="black"/>
<path d="M1813.61 433.775L1827.02 404.019L1829.24 367.108L1837.38 370.777L1835.91 395.284L1853.22 377.919L1861.35 381.589L1835.16 407.689L1821.74 437.445L1813.61 433.775ZM1838.45 444.977L1866.07 383.716L1898.63 398.394L1895 406.445L1870.58 395.437L1863.72 410.664L1879.99 418.004L1874.49 425.314L1860.05 418.804L1850.26 440.508L1874.68 451.516L1871.01 459.655L1838.45 444.977ZM1882.61 464.886C1880.86 464.097 1879.65 462.814 1878.97 461.036C1878.3 459.258 1878.36 457.494 1879.15 455.744L1885.27 442.179L1892.58 447.686L1889.54 454.425C1889.14 455.3 1889.09 456.19 1889.39 457.095C1889.77 457.968 1890.36 458.589 1891.18 458.957L1901.16 463.455C1902.03 463.85 1902.89 463.887 1903.74 463.566C1904.67 463.214 1905.33 462.6 1905.73 461.725L1912.67 446.322C1913.07 445.447 1913.07 444.573 1912.7 443.7C1912.4 442.795 1911.82 442.146 1910.94 441.751L1896.06 435.043C1894.31 434.254 1893.1 432.971 1892.43 431.193C1891.76 429.415 1891.82 427.651 1892.6 425.901L1901.09 407.085C1901.88 405.335 1903.16 404.123 1904.94 403.45C1906.72 402.778 1908.48 402.836 1910.23 403.625L1930.1 412.582C1931.85 413.371 1933.06 414.654 1933.73 416.432C1934.4 418.21 1934.35 419.974 1933.56 421.724L1929.29 431.176L1922.02 425.581L1923.17 423.043C1923.56 422.168 1923.57 421.294 1923.19 420.421C1922.9 419.516 1922.31 418.866 1921.44 418.472L1911.46 413.973C1910.64 413.605 1909.77 413.597 1908.84 413.95C1907.99 414.27 1907.37 414.868 1906.98 415.743L1902.99 424.582C1902.6 425.457 1902.55 426.347 1902.84 427.252C1903.22 428.125 1903.82 428.746 1904.64 429.114L1919.6 435.861C1921.35 436.65 1922.56 437.934 1923.24 439.711C1923.91 441.489 1923.85 443.253 1923.06 445.003L1911.62 470.383C1910.83 472.133 1909.55 473.345 1907.77 474.018C1905.99 474.69 1904.23 474.632 1902.48 473.843L1882.61 464.886Z" fill="black"/>
<path d="M3802.23 391.874L3780.01 328.453L3788.44 325.502L3820.11 361.909L3805.29 319.598L3813.72 316.646L3835.93 380.067L3827.51 383.019L3795.83 346.612L3810.66 388.922L3802.23 391.874ZM3849.01 375.487C3847.31 376.08 3845.61 375.964 3843.9 375.14C3842.19 374.316 3841 372.968 3840.35 371.095L3822.76 320.902C3822.11 319.03 3822.19 317.237 3823.01 315.524C3823.84 313.811 3825.1 312.659 3826.79 312.066L3847.35 304.861C3849.29 304.184 3851.08 304.268 3852.73 305.114C3854.44 305.938 3855.63 307.286 3856.29 309.158L3873.87 359.351C3874.53 361.224 3874.44 363.016 3873.62 364.729C3872.85 366.421 3871.51 367.605 3869.57 368.282L3849.01 375.487ZM3851.25 365.343L3861.49 361.756C3862.51 361.396 3863.21 360.778 3863.59 359.902C3864.02 359.005 3864.06 358.074 3863.72 357.107L3849.76 317.243C3849.4 316.216 3848.78 315.517 3847.91 315.145C3847.07 314.693 3846.14 314.646 3845.11 315.006L3834.87 318.592C3834.03 318.889 3833.39 319.485 3832.96 320.383C3832.56 321.198 3832.55 322.119 3832.91 323.146L3846.87 363.011C3847.21 363.977 3847.8 364.687 3848.64 365.14C3849.53 365.571 3850.4 365.639 3851.25 365.343Z" fill="black"/>
<path d="M1110.5 1160H1083.4L1070.5 1056H1110.5L1110.5 1160Z" fill="#9F616A"/>
<path d="M1117.5 1186L1030.5 1186V1184.9C1030.5 1175.91 1034.07 1167.28 1040.42 1160.93C1046.77 1154.57 1055.38 1151 1064.36 1151H1064.36L1117.5 1151L1117.5 1186Z" fill="#2F2E41"/>
<path d="M848.227 1158L822.5 1149.45L843.529 1047L881.5 1059.62L848.227 1158Z" fill="#9F616A"/>
<path d="M846.456 1185L764.5 1157.24L764.848 1156.19C767.684 1147.64 773.765 1140.58 781.753 1136.56C789.741 1132.54 798.981 1131.9 807.442 1134.76L807.444 1134.76L857.5 1151.72L846.456 1185Z" fill="#2F2E41"/>
<path d="M881.626 624.673L823.5 1116.19L880.51 1121C880.51 1121 970.186 637.744 997.832 694.989C1025.48 752.235 1059.35 1110.27 1059.35 1110.27H1115.93C1115.93 1110.27 1130.44 551.636 1071.2 524L881.626 624.673Z" fill="#2F2E41"/>
<path d="M1032.14 219.094C1037.64 187.922 1016.82 158.2 985.645 152.709C954.473 147.217 924.751 168.035 919.259 199.207C913.767 230.379 934.585 260.101 965.758 265.593C996.93 271.085 1026.65 250.267 1032.14 219.094Z" fill="#9F616A"/>
<path d="M941.643 288L1014.75 293.93C1014.75 293.93 1073.04 294.918 1096.76 310.732C1120.47 326.545 1074.03 424.391 1074.03 424.391C1074.03 424.391 1061.96 463.185 1071.07 480.727C1100.62 537.645 1096.24 581.476 1096.24 581.476C1096.24 581.476 1035.5 595.375 930.775 623.049C930.775 623.049 865.568 648.746 867.544 634.909C869.52 621.072 889.28 462.937 889.28 462.937V298.872L941.643 288Z" fill="#3F3D56"/>
<path d="M1068.79 202.824C1065.87 186.558 1059.34 163.484 1044.79 145.989C1045.25 145.992 1045.71 146.012 1046.17 145.999C1051.17 145.853 1056.86 144.276 1058.92 139.72C1059.59 137.895 1059.76 135.924 1059.4 134.013C1059.05 132.102 1058.2 130.32 1056.93 128.85C1054.35 125.948 1051.26 123.538 1047.83 121.737C1051.33 123.867 1056.29 125.846 1059.09 122.845C1059.81 121.941 1060.26 120.849 1060.38 119.7C1060.5 118.55 1060.3 117.389 1059.78 116.354C1058.72 114.299 1057.23 112.498 1055.4 111.073C1049.51 105.855 1043.05 101.301 1036.16 97.4913C1030.82 94.5427 1023.81 92.1749 1019.02 95.9469C1014.14 99.7894 1014.92 107.272 1016.17 113.356C1013.44 111.758 1010.37 110.831 1007.21 110.65C1005.63 110.605 1004.08 111.106 1002.83 112.068C1001.58 113.031 1000.69 114.396 1000.33 115.934C1000.29 117.147 1000.55 118.352 1001.11 119.431C1001.67 120.51 1002.49 121.427 1003.51 122.093C984.679 118.996 960.619 122.51 929.86 136.745C929.86 136.745 900.036 146.688 898.521 185.954C898.367 192.235 899.064 198.507 900.591 204.6C902.272 211.718 908.249 246.639 901.08 260.752L936.997 273.551L937.408 252.034C909.493 211.732 923.283 196.943 934.152 172.704C934.17 172.66 934.2 172.621 934.239 172.593C934.277 172.565 934.323 172.548 934.37 172.545C934.418 172.541 934.465 172.551 934.508 172.573C934.55 172.595 934.585 172.628 934.61 172.669C936.618 176.116 944.315 187.932 970.804 187.932L960.568 177.695C960.568 177.695 1005.61 196.122 1021.98 196.122C1021.98 196.122 1034.27 204.312 1021.98 216.597C1009.7 228.882 982.818 246.964 997.148 269.487C1011.48 292.009 1010.24 300 1010.24 300L1043 281.572C1043 281.572 1063.01 241.983 1066.55 230.325C1069.47 221.465 1070.23 212.038 1068.79 202.824Z" fill="#2F2E41"/>
<path d="M734 669C734 658.23 742.73 649.5 753.5 649.5H1197.5C1208.27 649.5 1217 658.23 1217 669V928C1217 938.77 1208.27 947.5 1197.5 947.5H1156.02H1089.79H753.5C742.73 947.5 734 938.77 734 928V669Z" fill="white" stroke="black"/>
<path d="M1103.89 416L1065.76 425.329L1065.48 502.997L1022.6 651.973C1019.16 654.705 1016.54 658.331 1015.01 662.458C1013.48 666.585 1013.1 671.055 1013.92 675.382C1014.74 679.709 1016.71 683.729 1019.64 687.005C1022.56 690.281 1026.32 692.688 1030.51 693.965C1034.7 695.242 1039.15 695.339 1043.39 694.247C1047.63 693.155 1051.49 690.915 1054.56 687.77C1057.62 684.625 1059.77 680.696 1060.77 676.408C1061.77 672.121 1061.59 667.639 1060.24 663.449L1111.5 509.225L1103.89 416Z" fill="#9F616A"/>
<path d="M848.5 415L894.703 428.116L894.994 505.557L938.311 654.099C941.778 656.823 944.428 660.438 945.973 664.553C947.519 668.668 947.9 673.124 947.076 677.439C946.252 681.754 944.254 685.762 941.299 689.029C938.345 692.295 934.546 694.695 930.315 695.968C926.085 697.241 921.584 697.338 917.302 696.249C913.019 695.16 909.119 692.927 906.024 689.791C902.929 686.656 900.758 682.738 899.746 678.463C898.734 674.187 898.919 669.718 900.283 665.541L848.5 511.767V415Z" fill="#9F616A"/>
<path d="M1046.5 302.157L1056.02 299.064C1061.37 297.327 1067.18 297.729 1072.24 300.184C1072.24 300.184 1099.95 302.157 1103.91 321.88C1107.87 341.604 1117.5 514 1117.5 514L1058.79 495.39L1046.5 302.157Z" fill="#3F3D56"/>
<path d="M912.5 302.508L895.853 301.663L890.581 299C890.581 299 859.702 302.508 855.791 322.262C851.88 342.016 840.5 520 840.5 520L898.489 504.024L912.5 302.508Z" fill="#3F3D56"/>
<path d="M901.156 864V815.04L881.428 763.2H894.82L907.924 797.616L920.884 763.2H934.276L914.548 815.04V864H901.156ZM942.037 864V763.2H995.605V776.448H955.429V801.504H982.213L979.189 814.896H955.429V850.608H995.605V864H942.037ZM1014.7 864C1011.82 864 1009.37 862.992 1007.35 860.976C1005.34 858.96 1004.33 856.512 1004.33 853.632V831.312L1017.72 834.336V845.424C1017.72 846.864 1018.2 848.112 1019.16 849.168C1020.22 850.128 1021.42 850.608 1022.76 850.608H1039.18C1040.62 850.608 1041.82 850.128 1042.78 849.168C1043.83 848.112 1044.36 846.864 1044.36 845.424V820.08C1044.36 818.64 1043.83 817.44 1042.78 816.48C1041.82 815.424 1040.62 814.896 1039.18 814.896H1014.7C1011.82 814.896 1009.37 813.888 1007.35 811.872C1005.34 809.856 1004.33 807.408 1004.33 804.528V773.568C1004.33 770.688 1005.34 768.24 1007.35 766.224C1009.37 764.208 1011.82 763.2 1014.7 763.2H1047.38C1050.26 763.2 1052.71 764.208 1054.73 766.224C1056.74 768.24 1057.75 770.688 1057.75 773.568V789.12L1044.36 785.952V781.776C1044.36 780.336 1043.83 779.136 1042.78 778.176C1041.82 777.12 1040.62 776.592 1039.18 776.592H1022.76C1021.42 776.592 1020.22 777.12 1019.16 778.176C1018.2 779.136 1017.72 780.336 1017.72 781.776V796.32C1017.72 797.76 1018.2 799.008 1019.16 800.064C1020.22 801.024 1021.42 801.504 1022.76 801.504H1047.38C1050.26 801.504 1052.71 802.512 1054.73 804.528C1056.74 806.544 1057.75 808.992 1057.75 811.872V853.632C1057.75 856.512 1056.74 858.96 1054.73 860.976C1052.71 862.992 1050.26 864 1047.38 864H1014.7Z" fill="black"/>
<path d="M583.63 410.716C579.992 409.835 576.205 409.766 572.538 410.514C568.87 411.263 565.41 412.809 562.402 415.046C559.394 417.283 556.91 420.155 555.127 423.46C553.343 426.765 552.303 430.423 552.078 434.176L464.5 458.908L500.235 490L577.922 461.747C584.223 461.708 590.29 459.348 594.975 455.114C599.659 450.881 602.635 445.069 603.339 438.778C604.043 432.488 602.425 426.157 598.792 420.985C595.16 415.813 589.765 412.159 583.63 410.716L583.63 410.716Z" fill="#FFB7B7"/>
<path d="M357.505 1161L383.251 1161L395.5 1062L357.5 1062L357.505 1161Z" fill="#FFB7B7"/>
<path d="M350.501 1186L433.5 1186V1184.93C433.499 1176.19 430.096 1167.82 424.037 1161.64C417.979 1155.47 409.762 1152 401.195 1152H401.193L350.5 1152L350.501 1186Z" fill="#2F2E41"/>
<path d="M207.502 1161L232.573 1161L244.5 1062L207.5 1062L207.502 1161Z" fill="#FFB7B7"/>
<path d="M200.502 1186L283.5 1186V1184.93C283.499 1176.19 280.096 1167.82 274.037 1161.64C267.979 1155.47 259.762 1152 251.195 1152H251.193L200.5 1152L200.502 1186Z" fill="#2F2E41"/>
<path d="M378.671 592.411L416.5 854.422L407.075 1130.48L350.27 1135L332.507 887.432L287.29 749.388L260.706 946.168L259.615 1130.48L200.958 1135L180.5 747.515L195.547 579L378.671 592.411Z" fill="#3F3D56"/>
<path d="M269 241C236.139 241 209.5 214.361 209.5 181.5C209.5 148.639 236.139 122 269 122C301.861 122 328.5 148.639 328.5 181.5C328.5 214.361 301.861 241 269 241Z" fill="#FFB7B7"/>
<path d="M306.341 274.435L372.5 607.065C372.5 607.065 261.112 638.97 212.315 609.516C163.518 580.063 185.384 489.138 185.384 489.138L194.321 334.421L210.836 295.297L224.849 263L306.341 274.435Z" fill="#CBCBCB"/>
<path d="M325.309 510.558L302.5 268L320.741 281.316L384.52 302.028L388.885 472.798L433.5 697.363C433.5 697.363 401.61 759.585 362.089 656.646L325.309 510.558Z" fill="#2F2E41"/>
<path d="M353.762 327.474L384.531 302L453.685 451.454L530.854 434.637L534.5 479.979L422.692 524L346.5 418.472L353.762 327.474Z" fill="#2F2E41"/>
<path d="M234.5 457.393L225.849 260L194.014 284.495L137.16 300.24L145.497 457.393L133.5 701.243L193.106 720L209.838 566.13L234.5 457.393Z" fill="#2F2E41"/>
<path d="M230.069 616.374C229.411 612.667 227.955 609.15 225.804 606.072C223.652 602.993 220.857 600.428 217.616 598.557C214.375 596.685 210.767 595.553 207.045 595.24C203.323 594.926 199.578 595.44 196.074 596.744L138.453 526L124.5 571.443L181.357 631.655C183.919 637.446 188.5 642.086 194.229 644.699C199.959 647.312 206.44 647.714 212.444 645.831C218.449 643.947 223.559 639.908 226.808 634.479C230.056 629.05 231.216 622.608 230.069 616.374V616.374Z" fill="#FFB7B7"/>
<path d="M175.757 321.928L137.859 300L42.5 488.067L135.472 617L188.5 574.656L124.11 490.797L182.795 400.725L175.757 321.928Z" fill="#2F2E41"/>
<path d="M212.416 134.044L209.512 128.239L224.122 121.028C224.122 121.028 240.238 94.9763 269.402 102.297C298.566 109.618 311.687 114 311.687 114L326.259 121.284L318.946 128.514L332.067 132.895L323.301 137.222L333.5 143.046L328.01 172.9C328.01 172.9 318.89 150.257 301.359 158.91C283.828 167.563 251.76 154.437 251.76 154.437L223.901 208C223.901 208 218.153 189.223 207.906 194.23C207.906 194.23 181.727 152.811 212.416 134.044Z" fill="#2F2E41"/>
<path d="M613.251 308.38L613.253 308.381L772.084 381.929L772.294 381.475L772.084 381.929C774.61 383.098 776.64 385.126 777.812 387.652C778.983 390.178 779.22 393.038 778.482 395.723C757.897 467.151 726.507 535.007 685.402 596.934C683.834 599.234 681.502 600.903 678.82 601.644C676.137 602.385 673.278 602.15 670.752 600.979L670.542 601.433L670.752 600.979L511.921 527.431L511.92 527.43C510.316 526.695 508.902 525.602 507.784 524.237C506.666 522.871 505.875 521.269 505.469 519.551L505.468 519.548L505.461 519.514L505.46 519.513C505.047 517.76 505.036 515.936 505.429 514.178C505.824 512.408 506.618 510.751 507.749 509.335L507.751 509.332C552.103 453.07 582.596 387.152 596.763 316.913L596.763 316.91C597.111 315.129 597.86 313.452 598.953 312.005C600.046 310.558 601.455 309.379 603.072 308.559L603.073 308.558C604.645 307.756 606.378 307.323 608.142 307.293C609.906 307.262 611.653 307.634 613.251 308.38Z" fill="white" stroke="black"/>
<path d="M598.68 450.494L609.619 428.594L612.377 400.998L618.367 403.99L616.539 422.313L630.026 409.814L636.016 412.806L615.609 431.586L604.67 453.486L598.68 450.494ZM616.966 459.628L639.488 414.54L663.449 426.509L660.489 432.435L642.518 423.458L636.92 434.666L648.9 440.65L644.555 445.965L633.927 440.656L625.948 456.63L643.919 465.607L640.927 471.597L616.966 459.628ZM649.466 475.862C648.178 475.219 647.308 474.221 646.856 472.869C646.405 471.517 646.501 470.196 647.145 468.908L652.132 458.924L657.446 463.269L654.969 468.229C654.647 468.873 654.583 469.539 654.776 470.225C655.034 470.891 655.464 471.374 656.065 471.674L663.408 475.342C664.052 475.664 664.696 475.717 665.34 475.502C666.048 475.266 666.563 474.825 666.885 474.181L672.548 462.845C672.869 462.201 672.901 461.546 672.644 460.881C672.45 460.194 672.031 459.69 671.387 459.368L660.437 453.898C659.149 453.255 658.279 452.257 657.828 450.905C657.377 449.552 657.473 448.232 658.116 446.944L665.034 433.096C665.677 431.807 666.675 430.938 668.027 430.486C669.379 430.035 670.7 430.131 671.988 430.775L686.609 438.078C687.897 438.722 688.767 439.719 689.219 441.072C689.67 442.424 689.574 443.744 688.93 445.032L685.455 451.989L680.173 447.579L681.106 445.711C681.428 445.067 681.46 444.413 681.202 443.747C681.008 443.06 680.59 442.556 679.946 442.234L672.603 438.567C672.001 438.266 671.347 438.234 670.638 438.471C669.995 438.686 669.512 439.115 669.19 439.759L665.94 446.265C665.619 446.909 665.554 447.574 665.748 448.261C666.006 448.927 666.435 449.409 667.036 449.71L678.051 455.212C679.339 455.855 680.209 456.853 680.66 458.205C681.111 459.557 681.015 460.877 680.372 462.166L671.041 480.845C670.398 482.133 669.4 483.003 668.048 483.454C666.696 483.906 665.375 483.809 664.087 483.166L649.466 475.862Z" fill="black"/>
<path d="M0 1197H4688" stroke="#CCCCCC" stroke-width="10"/>
<path d="M4083.45 1075.92L4088.69 1081.4L4083.73 1083.25L4083.45 1075.92Z" fill="#D0A8A8"/>
<path d="M4088.78 1069.6L4094.02 1075.07L4089.07 1076.93L4088.78 1069.6Z" fill="#D0A8A8"/>
<path d="M4087.26 1073.54L4092.5 1079.01L4087.54 1080.87L4087.26 1073.54Z" fill="#D0A8A8"/>
<path d="M4092.59 1067.21L4097.83 1072.68L4092.87 1074.54L4092.59 1067.21Z" fill="#D0A8A8"/>
<path d="M4087.91 1065L4085.64 1053.25L4093.4 1054.36L4087.91 1065Z" fill="#D0A8A8"/>
<path d="M4076.11 1069.94L4073.85 1058.19L4081.6 1059.31L4076.11 1069.94Z" fill="#D0A8A8"/>
<path d="M4081.18 1065.5L4078.92 1053.75L4086.67 1054.87L4081.18 1065.5Z" fill="#D0A8A8"/>
<path d="M4069.39 1070.45L4067.12 1058.7L4074.88 1059.82L4069.39 1070.45Z" fill="#D0A8A8"/>
<path d="M3963.18 519.504C4002.51 508.081 4047.06 547.606 4048.44 600.667C4048.83 615.591 4045.43 631.264 4036.49 641.417C4029.11 649.799 4018.13 654.027 4008.59 649.93C3990.23 642.046 3989.25 609.18 3999.1 591.627C4012.43 567.86 4038.85 563.801 4059.81 566.628C4085.43 570.084 4109.79 584.52 4130.22 604.308C4171.14 643.92 4197.19 704.631 4218.27 763.289C4239.86 823.461 4255.56 886.84 4265 951.975C4266.19 960.156 4267.28 968.359 4268.27 976.584C4268.55 977.789 4269.19 978.804 4270.05 979.409C4270.91 980.015 4271.92 980.162 4272.86 979.818C4273.78 979.439 4274.56 978.616 4275.03 977.52C4275.5 976.424 4275.62 975.138 4275.37 973.928C4266.74 902.85 4250.8 833.56 4227.96 767.878C4205.89 704.308 4178.05 638.369 4133.77 595.946C4111.7 574.797 4085.63 560.081 4058.04 556.934C4034.82 554.284 4007.32 560.597 3992.88 586.548C3981.49 607.022 3982.64 641.047 4000.27 655.306C4009.96 663.145 4022.28 662.229 4032.34 656.134C4037.68 652.746 4042.39 647.906 4046.13 641.95C4049.87 635.994 4052.55 629.064 4054 621.642C4060.26 592.172 4050.75 560.297 4034.46 539.233C4019.16 519.408 3998.38 508.178 3976.65 508C3971.42 508.074 3966.21 508.872 3961.11 510.38C3956.47 511.729 3958.55 520.85 3963.18 519.504Z" fill="#CCCCCC"/>
<path d="M4054.74 1044.32C4053.85 1038.56 4057.08 1033.29 4061.96 1032.54C4066.83 1031.79 4071.51 1035.85 4072.4 1041.61C4073.29 1047.36 4070.06 1052.64 4065.18 1053.39C4060.31 1054.14 4055.63 1050.08 4054.74 1044.32Z" fill="#3E0101" fill-opacity="0.65"/>
<path d="M4467.6 1156.91L4511.07 1082.49L4457.47 1051.01L4414 1125.42V1125.43C4409.84 1132.55 4408.67 1141.05 4410.75 1149.04C4412.83 1157.03 4418 1163.87 4425.1 1168.04C4432.21 1172.22 4440.68 1173.39 4448.65 1171.3C4456.62 1169.21 4463.44 1164.03 4467.6 1156.91Z" fill="#464367"/>
<path d="M4610.97 1002.48C4589.69 1002.48 4572.44 985.552 4572.44 964.665C4572.44 943.778 4589.69 926.846 4610.97 926.846C4632.25 926.846 4649.5 943.778 4649.5 964.665C4649.5 985.552 4632.25 1002.48 4610.97 1002.48Z" fill="#464367"/>
<path d="M4299.19 1156.93L4342.67 1082.49L4289.06 1051.01L4245.59 1125.44C4241.43 1132.57 4240.27 1141.06 4242.35 1149.05C4244.44 1157.04 4249.6 1163.87 4256.7 1168.04C4263.81 1172.21 4272.27 1173.39 4280.24 1171.3C4288.21 1169.22 4295.02 1164.05 4299.19 1156.93Z" fill="#464367"/>
<path d="M4603.83 1041.73C4603.81 1020.35 4595.25 999.857 4580.03 984.74C4564.81 969.624 4544.17 961.121 4522.65 961.097H4265.66C4256.57 961.108 4247.85 964.702 4241.41 971.091C4234.98 977.481 4231.36 986.143 4231.35 995.179V1024.22C4231.38 1050.24 4241.8 1075.19 4260.32 1093.59C4278.85 1111.98 4303.96 1122.33 4330.16 1122.36H4522.65C4544.17 1122.34 4564.81 1113.84 4580.03 1098.72C4595.25 1083.6 4603.81 1063.11 4603.83 1041.73Z" fill="#464367"/>
<path d="M4543.89 1166.95V1080.98H4482.53V1166.95C4482.53 1175.19 4485.76 1183.08 4491.51 1188.91C4497.27 1194.73 4505.07 1198 4513.21 1198C4521.35 1198 4529.15 1194.73 4534.91 1188.91C4540.66 1183.08 4543.89 1175.19 4543.89 1166.95Z" fill="#464367"/>
<path d="M4364.08 1166.93V1080.98H4302.71V1166.93C4302.7 1171 4303.49 1175.04 4305.03 1178.81C4306.57 1182.58 4308.83 1186.01 4311.68 1188.9C4314.53 1191.78 4317.92 1194.07 4321.64 1195.63C4325.37 1197.2 4329.36 1198 4333.39 1198C4337.42 1198 4341.42 1197.2 4345.14 1195.63C4348.87 1194.07 4352.25 1191.78 4355.1 1188.9C4357.95 1186.01 4360.21 1182.58 4361.75 1178.81C4363.29 1175.04 4364.08 1171 4364.08 1166.93Z" fill="#464367"/>
<path d="M4215.72 823.395C4214.12 813.403 4208.61 804.427 4200.41 798.436C4192.2 792.444 4181.96 789.928 4171.94 791.438C4161.92 792.949 4152.93 798.363 4146.96 806.492C4140.98 814.621 4138.49 824.802 4140.05 834.8L4155.68 933.854L4231.35 922.449L4215.72 823.395Z" fill="#290202"/>
<path d="M4213.8 812.28C4213.28 808.877 4212.08 805.61 4210.29 802.665C4208.49 799.721 4206.14 797.156 4203.36 795.119C4200.57 793.081 4197.42 791.609 4194.07 790.788C4190.72 789.967 4187.24 789.813 4183.83 790.334C4180.43 790.855 4177.16 792.04 4174.22 793.824C4171.27 795.607 4168.71 797.953 4166.68 800.728C4164.64 803.502 4163.18 806.651 4162.36 809.994C4161.55 813.337 4161.4 816.809 4161.93 820.212L4179.16 930.928L4231.03 922.995L4213.8 812.28Z" fill="#464367"/>
<path d="M4269.74 1032.22L4257.27 953.159C4254.22 933.966 4243.66 916.717 4227.91 905.195C4212.16 893.674 4192.51 888.821 4173.26 891.702L4153.37 894.701C4130.43 898.188 4109.87 910.61 4096.19 929.242C4082.52 947.873 4076.86 971.193 4080.44 994.085L4090.71 1059.22C4091.85 1066.41 4095.81 1072.87 4101.7 1077.18C4107.6 1081.49 4114.96 1083.31 4122.16 1082.23L4246.84 1063.43C4254.04 1062.33 4260.5 1058.43 4264.79 1052.58C4269.08 1046.73 4270.86 1039.41 4269.74 1032.22Z" fill="#464367"/>
<path d="M4240.63 1065.99C4230.64 1043.16 4261.32 960.383 4261.32 960.383H4283.44L4262.75 1095.96C4262.75 1095.96 4250.62 1088.82 4240.63 1065.99Z" fill="#C4C4C4"/>
<path d="M4300.66 965.686L4271.52 992.663L4263.03 978.364L4300.66 965.686Z" fill="white"/>
<path d="M4287.17 1001.87L4261.76 1018.71L4256.74 999.994L4287.17 1001.87Z" fill="white"/>
<path d="M4294.81 1039.25L4257.17 1041.19L4259.52 1026L4294.81 1039.25Z" fill="white"/>
<path d="M4279.73 1074.31L4245.81 1064.02L4258.42 1045.99L4279.73 1074.31Z" fill="white"/>
<path fill-rule="evenodd" clip-rule="evenodd" d="M4091.65 1009.87L4227.48 988.492L4238.84 1063.6C4186.53 1092.92 4157.85 1100.43 4103.01 1084.98C4095.16 1086.2 4087.2 1084.9 4080.22 1081.37L4112.55 1061.7L4061.86 1060.72C4060.98 1058.34 4060.34 1055.86 4059.96 1053.31C4058.45 1043.36 4060.95 1033.21 4066.89 1025.06C4072.83 1016.92 4081.74 1011.46 4091.65 1009.87Z" fill="#464367"/>
<mask id="mask2" mask-type="alpha" maskUnits="userSpaceOnUse" x="4084" y="936" width="27" height="61">
<ellipse cx="4097.2" cy="966.806" rx="12.8441" ry="29.9696" fill="white"/>
</mask>
<g mask="url(#mask2)">
<ellipse cx="4101.79" cy="986.474" rx="11.9267" ry="12.1752" fill="#C0392B"/>
</g>
<path d="M218.778 631.823C200.158 646.188 226.045 683.317 273.265 705.07C286.546 711.189 301.308 715.782 312.307 715.521C321.388 715.305 327.516 711.706 325.883 705.492C322.74 693.534 293.519 680 275.699 677.757C251.57 674.72 242.3 685.805 240.359 697.005C237.986 710.697 245.716 728.143 259.075 745.833C285.817 781.247 334.623 817.901 382.65 851.353C431.927 885.647 485.332 918.384 541.644 948.815C548.716 952.639 555.829 956.423 562.983 960.168C564.003 960.782 564.775 961.492 565.134 962.145C565.493 962.798 565.409 963.341 564.901 963.657C564.364 963.953 563.461 964 562.379 963.789C561.297 963.579 560.119 963.126 559.09 962.526C497.282 930.125 438.637 894.921 384.692 857.836C332.478 821.955 279.371 782.365 250.829 744.216C236.602 725.198 228.985 706.817 232.054 692.305C234.637 680.088 246.157 669.376 272.478 672.749C293.242 675.409 323.465 689.489 332.471 703.631C337.423 711.406 333.975 716.963 326.37 719.378C322.196 720.599 316.859 720.936 310.727 720.366C304.596 719.797 297.817 718.334 290.861 716.079C263.136 707.375 236.621 690.137 221.236 673.93C206.747 658.698 201.126 644.242 205.602 633.727C206.784 631.241 208.611 629.054 211.05 627.203C213.248 625.507 220.973 630.13 218.778 631.823Z" fill="#CCCCCC"/>
</svg>
