<svg viewBox="0 0 2574 1147" fill="none" xmlns="http://www.w3.org/2000/svg">
<path d="M1060.73 820.977C981.464 830.453 930.435 925.09 939.411 1000.18C949.851 1087.51 1031.38 1088.01 1091.79 1080.79C1152.19 1073.56 1231.31 1053.87 1220.87 966.534C1211.89 891.444 1140 811.502 1060.73 820.977ZM1093.62 1001.72C1093.52 1001.77 1093.42 1001.76 1093.33 1001.81L1094.85 1014.54C1095.56 1020.52 1091.3 1025.94 1085.32 1026.66C1079.33 1027.37 1073.91 1023.11 1073.2 1017.13L1071.67 1004.32C1064.24 1002.77 1056.86 999.018 1050.19 992.759C1045.8 988.641 1045.57 981.742 1049.7 977.345C1053.81 972.951 1060.7 972.716 1065.1 976.844C1089.49 999.786 1099.25 959.112 1077.55 961.705C1059.65 963.846 1043.34 951.019 1041.19 933.111C1039.65 920.158 1045.59 906.919 1059.21 900.151L1057.67 887.221C1056.95 881.238 1061.22 875.817 1067.2 875.102C1073.18 874.387 1078.6 878.65 1079.32 884.633L1080.87 897.598C1086.7 898.816 1092.52 901.163 1097.96 905.298C1102.75 908.949 1103.7 915.785 1100.04 920.575C1096.39 925.376 1089.56 926.311 1084.77 922.659C1062.55 905.803 1053.31 942.643 1074.97 940.054C1092.87 937.913 1109.18 950.74 1111.32 968.648C1112.95 982.244 1105.83 995.545 1093.62 1001.72Z" fill="#F1C40F"/>
<path d="M1110.4 712.654C1069.05 705.802 1025.49 711.009 986.924 727.414C980.451 730.156 978.18 738.325 982.522 744.046L1002.4 771.401C1029.52 756.669 1071.54 749.929 1105.73 759.055L1118.6 727.779C1121.47 721.196 1117.34 713.793 1110.4 712.654Z" fill="#F1C40F"/>
<path d="M1107.15 782.811C1085.19 770.963 1025.7 777.47 1006.51 794.909C998.269 802.334 994.673 812.883 996.012 823.292C1015.48 809.795 1039.22 801.589 1058.14 799.327C1081.18 796.573 1103.49 799.992 1124.17 807.972C1123.06 797.921 1117.39 788.343 1107.15 782.811Z" fill="#F1C40F"/>
<path d="M353.624 178.451C318.279 178.451 289.626 148.148 289.626 110.767C289.626 73.3861 318.279 43.0831 353.624 43.0831C388.97 43.0831 417.623 73.3861 417.623 110.767C417.623 148.148 388.97 178.451 353.624 178.451Z" fill="#FFB8B8"/>
<path d="M544.358 1107.97L574.793 1097.71L551.858 968.672L506.938 983.814L544.358 1107.97Z" fill="#FFB8B8"/>
<path d="M595.143 1080.71L535.062 1100.96L546.842 1140.05L642.5 1107.8L642.059 1106.34C640.57 1101.4 638.175 1096.82 635.012 1092.86C631.848 1088.89 627.977 1085.63 623.621 1083.25C619.264 1080.87 614.507 1079.42 609.621 1078.98C604.735 1078.55 599.815 1079.13 595.143 1080.71Z" fill="#2F2E41"/>
<path d="M322.914 1107.3H354.861L370.063 976.991H322.914V1107.3Z" fill="#FFB8B8"/>
<path d="M379.128 1097.65H316.068V1138.68H416.468V1137.14C416.468 1131.96 415.502 1126.82 413.626 1122.03C411.749 1117.24 408.999 1112.88 405.531 1109.22C402.064 1105.55 397.947 1102.64 393.417 1100.66C388.887 1098.67 384.031 1097.65 379.128 1097.65Z" fill="#2F2E41"/>
<path d="M323.85 1065.02L334.632 1063.31C367.332 1058.16 369.29 1057.85 374.482 1055.44C377.133 1054.21 377.319 1035.6 375.727 930.964C374.56 854.161 373.105 758.576 375.929 707.261C376.045 705.236 376.803 703.312 378.08 701.799C379.357 700.285 381.079 699.271 382.968 698.919C384.857 698.567 386.803 698.898 388.492 699.859C390.181 700.82 391.515 702.354 392.278 704.215C416.61 763.64 457.431 896.623 484.444 984.621C493.84 1015.23 501.262 1039.41 505.957 1053.9C506.864 1056.64 508.705 1058.93 511.119 1060.31C513.534 1061.69 516.349 1062.07 519.015 1061.38C541.245 1055.5 539.758 1053 571.42 1044.34C574.159 1043.6 576.522 1041.77 578.014 1039.23C579.506 1036.69 580.011 1033.64 579.424 1030.71C573.698 1002.15 468.899 539.058 460.877 495.036C460.605 493.529 460.054 492.094 459.256 490.813C458.457 489.533 457.426 488.433 456.223 487.576C455.02 486.719 453.668 486.123 452.246 485.822C450.824 485.521 449.359 485.521 447.937 485.822C424.342 490.85 409.987 496.184 386.67 501.342C361.51 506.908 335.493 512.664 310.116 518.036C307.59 518.573 305.326 520.041 303.727 522.177C297.448 530.565 288.137 535.273 278.279 540.257C271.633 543.617 286.693 543.314 280.905 548.16C257.466 567.784 291.172 966.27 311.539 1056.27C312.192 1059.09 313.817 1061.55 316.094 1063.16C318.371 1064.78 321.137 1065.44 323.85 1065.02V1065.02Z" fill="#F09242"/>
<path d="M343.14 613.37C343.867 609.873 343.861 606.248 343.121 602.753C342.38 599.258 340.925 595.978 338.856 593.142C336.787 590.306 334.156 587.985 331.147 586.341C328.138 584.698 324.825 583.772 321.441 583.629L269.714 521.88L237.592 562.921L297.079 608.881C297.229 614.909 299.464 620.67 303.361 625.071C307.258 629.473 312.546 632.209 318.224 632.763C323.902 633.316 329.574 631.647 334.166 628.073C338.758 624.499 341.951 619.268 343.14 613.37V613.37Z" fill="#FFB8B8"/>
<path d="M326.346 169.992C330.083 153.225 311.194 117.146 314.931 100.379C317.461 89.024 342.708 96.743 348.6 86.8804C354.492 77.0179 364.361 69.0278 375.392 68.8969C388.07 68.7464 400.545 78.6925 412.555 74.3938C424.699 70.0473 428.58 52.4603 423.212 40.1482C417.843 27.836 406.277 19.9905 394.851 13.8428C375.393 3.37387 352.737 -4.27107 331.912 2.65535C319.322 6.84237 308.796 15.915 298.61 24.7885C289.325 32.8771 279.883 41.1491 273.392 51.8605C260.676 72.8445 261.443 101.118 272.31 123.234C283.177 145.349 302.978 161.579 324.796 170.999" fill="#2F2E41"/>
<path d="M483.493 560.189C476.585 547.985 466.098 490.806 453.165 394.832C444.361 329.315 436.689 262.744 432.883 228.739C432.587 225.987 431.636 223.36 430.117 221.103C428.598 218.846 426.563 217.035 424.201 215.838C421.731 214.577 419.275 213.384 416.835 212.258C385.314 197.759 353.37 192.955 321.895 197.978C290.468 203.083 260.989 217.288 236.725 239.021L236.439 239.307L236.365 239.715C236.228 240.471 223.009 315.806 250.085 366.704C276.788 416.924 277.1 549.919 277.1 551.256V552.965L278.655 552.497C320.197 539.943 480.672 561.906 482.288 562.13L484.787 562.475L483.493 560.189Z" fill="#CCCCCC"/>
<path d="M313.023 570.392L231.419 455.321L273.499 359.956L270.444 246.855L235.945 240.114L235.579 240.308C218.82 250.675 205.829 266.681 198.681 285.771C191.018 306.034 175.122 374.974 163.137 429.24C160.007 443.206 160.319 457.788 164.045 471.589C167.77 485.391 174.783 497.95 184.413 508.064L284.519 613.936L313.023 570.392Z" fill="#CCCCCC"/>
<path d="M655.601 342.341C653.65 339.413 651.116 336.974 648.178 335.194C645.239 333.414 641.967 332.337 638.592 332.04C635.217 331.742 631.822 332.23 628.645 333.471C625.468 334.711 622.586 336.673 620.204 339.218L542.208 337.948L549.187 390.711L621.396 375.273C625.705 379.222 631.233 381.363 636.935 381.29C642.636 381.216 648.113 378.934 652.33 374.875C656.546 370.815 659.208 365.261 659.811 359.265C660.414 353.269 658.916 347.247 655.601 342.341Z" fill="#FFB8B8"/>
<path d="M616.452 388.494L605.296 336.863L469.925 322.945L432.816 228.555L431.73 225.768L417.145 212.465L416.834 212.258C385.315 197.76 353.373 192.956 321.894 197.978L320.789 198.155L320.859 199.334C321.568 211.413 324.5 223.23 329.491 234.121C343.494 264.839 429.65 395.416 430.518 396.731L430.902 397.313L616.452 388.494Z" fill="#CCCCCC"/>
<path d="M693.809 166.702L693.811 166.703L909.777 256.481L909.969 256.02L909.777 256.481C913.249 257.923 916.097 260.551 917.814 263.898C919.53 267.244 920.003 271.09 919.15 274.753C895.448 371.231 857.128 463.512 805.52 548.389C803.528 551.578 800.469 553.956 796.889 555.099C793.308 556.243 789.437 556.079 785.966 554.634L785.774 555.096L785.966 554.634L570 464.856L569.999 464.855C567.795 463.948 565.828 462.549 564.246 460.767C562.664 458.984 561.509 456.863 560.87 454.566L560.869 454.563L560.86 454.529L560.859 454.527C560.205 452.18 560.092 449.716 560.528 447.319C560.966 444.91 561.948 442.632 563.399 440.66L563.401 440.657C619.62 363.207 656.829 273.604 672.015 179.097L672.016 179.094C672.39 176.673 673.31 174.37 674.708 172.358C676.105 170.347 677.943 168.682 680.081 167.488L680.082 167.488C682.16 166.321 684.476 165.644 686.855 165.508C689.234 165.371 691.612 165.78 693.809 166.702Z" fill="white" stroke="black"/>
<path d="M683.872 380.757L697.288 351.001L699.503 314.09L707.642 317.759L706.176 342.266L723.483 324.901L731.622 328.571L705.427 354.671L692.011 384.426L683.872 380.757ZM708.718 391.959L736.339 330.697L768.895 345.376L765.264 353.427L740.847 342.419L733.982 357.646L750.26 364.986L744.752 372.296L730.312 365.785L720.527 387.489L744.944 398.498L741.274 406.637L708.718 391.959ZM752.876 411.868C751.126 411.079 749.914 409.796 749.241 408.018C748.569 406.24 748.627 404.476 749.416 402.726L755.532 389.161L762.842 394.668L759.804 401.407C759.409 402.282 759.359 403.172 759.653 404.077C760.032 404.95 760.63 405.57 761.447 405.939L771.423 410.437C772.299 410.831 773.159 410.869 774.006 410.548C774.937 410.196 775.6 409.582 775.995 408.707L782.939 393.304C783.334 392.429 783.342 391.555 782.963 390.682C782.669 389.777 782.084 389.127 781.209 388.733L766.331 382.025C764.581 381.236 763.369 379.952 762.697 378.175C762.024 376.397 762.082 374.633 762.871 372.883L771.354 354.067C772.144 352.317 773.427 351.105 775.205 350.432C776.982 349.759 778.746 349.818 780.497 350.607L800.363 359.564C802.113 360.353 803.325 361.636 803.997 363.414C804.67 365.191 804.612 366.955 803.823 368.706L799.562 378.158L792.291 372.563L793.435 370.025C793.829 369.149 793.837 368.275 793.459 367.403C793.165 366.498 792.58 365.848 791.705 365.454L781.728 360.955C780.911 360.587 780.037 360.579 779.106 360.932C778.259 361.252 777.639 361.85 777.244 362.725L773.259 371.564C772.865 372.439 772.814 373.329 773.108 374.234C773.487 375.107 774.085 375.727 774.902 376.096L789.867 382.843C791.617 383.632 792.829 384.915 793.502 386.693C794.175 388.471 794.116 390.235 793.327 391.985L781.884 417.365C781.095 419.115 779.812 420.327 778.034 420.999C776.257 421.672 774.493 421.614 772.742 420.825L752.876 411.868Z" fill="black"/>
<path d="M683.872 380.757L682.961 380.346L682.55 381.257L683.461 381.668L683.872 380.757ZM697.288 351.001L698.2 351.412L698.275 351.245L698.286 351.061L697.288 351.001ZM699.503 314.09L699.914 313.178L698.592 312.582L698.505 314.03L699.503 314.09ZM707.642 317.759L708.64 317.819L708.681 317.131L708.053 316.848L707.642 317.759ZM706.176 342.266L705.177 342.207L705.02 344.843L706.884 342.972L706.176 342.266ZM723.483 324.901L723.894 323.99L723.263 323.705L722.774 324.195L723.483 324.901ZM731.622 328.571L732.327 329.279L733.355 328.255L732.033 327.659L731.622 328.571ZM705.427 354.671L704.721 353.963L704.591 354.092L704.515 354.26L705.427 354.671ZM692.011 384.426L691.6 385.338L692.512 385.749L692.923 384.837L692.011 384.426ZM684.784 381.168L698.2 351.412L696.376 350.59L682.961 380.346L684.784 381.168ZM698.286 351.061L700.501 314.15L698.505 314.03L696.29 350.941L698.286 351.061ZM699.092 315.001L707.231 318.671L708.053 316.848L699.914 313.178L699.092 315.001ZM706.644 317.7L705.177 342.207L707.174 342.326L708.64 317.819L706.644 317.7ZM706.884 342.972L724.191 325.607L722.774 324.195L705.467 341.56L706.884 342.972ZM723.072 325.813L731.211 329.482L732.033 327.659L723.894 323.99L723.072 325.813ZM730.916 327.862L704.721 353.963L706.133 355.379L732.327 329.279L730.916 327.862ZM704.515 354.26L691.1 384.015L692.923 384.837L706.339 355.082L704.515 354.26ZM692.422 383.515L684.283 379.845L683.461 381.668L691.6 385.338L692.422 383.515ZM708.718 391.959L707.806 391.548L707.395 392.459L708.307 392.87L708.718 391.959ZM736.339 330.697L736.75 329.786L735.838 329.375L735.427 330.286L736.339 330.697ZM768.895 345.376L769.806 345.787L770.217 344.875L769.306 344.464L768.895 345.376ZM765.264 353.427L764.853 354.339L765.765 354.75L766.176 353.838L765.264 353.427ZM740.847 342.419L741.258 341.507L740.347 341.096L739.936 342.008L740.847 342.419ZM733.982 357.646L733.07 357.235L732.659 358.147L733.571 358.558L733.982 357.646ZM750.26 364.986L751.058 365.587L751.811 364.588L750.671 364.074L750.26 364.986ZM744.752 372.296L744.341 373.208L745.07 373.536L745.551 372.898L744.752 372.296ZM730.312 365.785L730.723 364.874L729.812 364.463L729.401 365.374L730.312 365.785ZM720.527 387.489L719.615 387.078L719.204 387.99L720.116 388.401L720.527 387.489ZM744.944 398.498L745.855 398.909L746.266 397.998L745.355 397.586L744.944 398.498ZM741.274 406.637L740.863 407.549L741.775 407.96L742.186 407.048L741.274 406.637ZM709.63 392.37L737.25 331.109L735.427 330.286L707.806 391.548L709.63 392.37ZM735.927 331.609L768.484 346.287L769.306 344.464L736.75 329.786L735.927 331.609ZM767.983 344.965L764.353 353.016L766.176 353.838L769.806 345.787L767.983 344.965ZM765.675 352.516L741.258 341.507L740.436 343.33L764.853 354.339L765.675 352.516ZM739.936 342.008L733.07 357.235L734.893 358.057L741.759 342.83L739.936 342.008ZM733.571 358.558L749.849 365.897L750.671 364.074L734.393 356.735L733.571 358.558ZM749.461 364.384L743.954 371.694L745.551 372.898L751.058 365.587L749.461 364.384ZM745.163 371.384L730.723 364.874L729.901 366.697L744.341 373.208L745.163 371.384ZM729.401 365.374L719.615 387.078L721.438 387.9L731.224 366.196L729.401 365.374ZM720.116 388.401L744.533 399.41L745.355 397.586L720.938 386.578L720.116 388.401ZM744.032 398.087L740.362 406.226L742.186 407.048L745.855 398.909L744.032 398.087ZM741.685 405.725L709.129 391.047L708.307 392.87L740.863 407.549L741.685 405.725ZM749.241 408.018L748.306 408.372L749.241 408.018ZM755.532 389.161L756.134 388.362L755.134 387.609L754.62 388.75L755.532 389.161ZM762.842 394.668L763.754 395.079L764.082 394.351L763.444 393.87L762.842 394.668ZM759.653 404.077L758.702 404.386L758.717 404.431L758.736 404.475L759.653 404.077ZM774.006 410.548L774.36 411.483L774.006 410.548ZM782.963 390.682L782.012 390.991L782.027 391.036L782.045 391.08L782.963 390.682ZM762.697 378.175L761.761 378.529L762.697 378.175ZM775.205 350.432L775.559 351.367L775.559 351.367L775.205 350.432ZM803.997 363.414L803.062 363.768L803.062 363.768L803.997 363.414ZM799.562 378.158L798.952 378.95L799.954 379.721L800.473 378.569L799.562 378.158ZM792.291 372.563L791.379 372.152L791.054 372.873L791.681 373.355L792.291 372.563ZM793.459 367.403L792.508 367.712L792.522 367.757L792.541 367.801L793.459 367.403ZM779.106 360.932L779.46 361.867L779.46 361.867L779.106 360.932ZM773.108 374.234L772.157 374.543L772.172 374.588L772.191 374.632L773.108 374.234ZM753.287 410.956C751.776 410.275 750.755 409.191 750.177 407.664L748.306 408.372C749.074 410.4 750.476 411.883 752.465 412.78L753.287 410.956ZM750.177 407.664C749.599 406.137 749.646 404.648 750.328 403.137L748.504 402.315C747.607 404.304 747.538 406.343 748.306 408.372L750.177 407.664ZM750.328 403.137L756.444 389.572L754.62 388.75L748.504 402.315L750.328 403.137ZM754.93 389.96L762.241 395.467L763.444 393.87L756.134 388.362L754.93 389.96ZM761.931 394.257L758.892 400.996L760.716 401.818L763.754 395.079L761.931 394.257ZM758.892 400.996C758.397 402.096 758.331 403.242 758.702 404.386L760.604 403.768C760.388 403.102 760.422 402.469 760.716 401.818L758.892 400.996ZM758.736 404.475C759.207 405.561 759.977 406.373 761.036 406.85L761.858 405.027C761.282 404.768 760.857 404.339 760.571 403.679L758.736 404.475ZM761.036 406.85L771.012 411.348L771.834 409.525L761.858 405.027L761.036 406.85ZM771.012 411.348C772.113 411.845 773.249 411.904 774.36 411.483L773.652 409.613C773.07 409.833 772.484 409.818 771.834 409.525L771.012 411.348ZM774.36 411.483C775.529 411.041 776.398 410.245 776.906 409.118L775.083 408.296C774.802 408.919 774.345 409.35 773.652 409.613L774.36 411.483ZM776.906 409.118L783.851 393.715L782.027 392.893L775.083 408.296L776.906 409.118ZM783.851 393.715C784.36 392.586 784.372 391.418 783.88 390.284L782.045 391.08C782.311 391.692 782.307 392.272 782.027 392.893L783.851 393.715ZM783.914 390.373C783.532 389.197 782.749 388.33 781.62 387.821L780.798 389.644C781.419 389.924 781.806 390.357 782.012 390.991L783.914 390.373ZM781.62 387.821L766.742 381.113L765.92 382.937L780.798 389.644L781.62 387.821ZM766.742 381.113C765.231 380.432 764.21 379.348 763.632 377.821L761.761 378.529C762.529 380.557 763.931 382.04 765.92 382.937L766.742 381.113ZM763.632 377.821C763.054 376.294 763.101 374.805 763.783 373.294L761.959 372.472C761.062 374.461 760.993 376.5 761.761 378.529L763.632 377.821ZM763.783 373.294L772.266 354.478L770.443 353.656L761.959 372.472L763.783 373.294ZM772.266 354.478C772.947 352.967 774.032 351.945 775.559 351.367L774.851 349.497C772.822 350.265 771.34 351.667 770.443 353.656L772.266 354.478ZM775.559 351.367C777.085 350.79 778.574 350.837 780.086 351.518L780.908 349.695C778.918 348.798 776.879 348.729 774.851 349.497L775.559 351.367ZM780.086 351.518L799.952 360.475L800.774 358.652L780.908 349.695L780.086 351.518ZM799.952 360.475C801.463 361.157 802.484 362.241 803.062 363.768L804.933 363.06C804.165 361.031 802.763 359.549 800.774 358.652L799.952 360.475ZM803.062 363.768C803.64 365.295 803.593 366.783 802.911 368.295L804.735 369.117C805.632 367.127 805.7 365.088 804.933 363.06L803.062 363.768ZM802.911 368.295L798.65 377.746L800.473 378.569L804.735 369.117L802.911 368.295ZM800.171 377.365L792.9 371.77L791.681 373.355L798.952 378.95L800.171 377.365ZM793.202 372.974L794.346 370.436L792.523 369.614L791.379 372.152L793.202 372.974ZM794.346 370.436C794.856 369.306 794.868 368.139 794.376 367.005L792.541 367.801C792.807 368.412 792.803 368.993 792.523 369.614L794.346 370.436ZM794.41 367.094C794.028 365.918 793.245 365.051 792.116 364.542L791.294 366.365C791.915 366.645 792.301 367.078 792.508 367.712L794.41 367.094ZM792.116 364.542L782.139 360.044L781.317 361.867L791.294 366.365L792.116 364.542ZM782.139 360.044C781.052 359.554 779.901 359.561 778.752 359.996L779.46 361.867C780.173 361.597 780.77 361.62 781.317 361.867L782.139 360.044ZM778.752 359.996C777.641 360.417 776.829 361.213 776.333 362.314L778.156 363.136C778.449 362.486 778.878 362.087 779.46 361.867L778.752 359.996ZM776.333 362.314L772.348 371.153L774.171 371.975L778.156 363.136L776.333 362.314ZM772.348 371.153C771.852 372.253 771.786 373.399 772.157 374.543L774.059 373.925C773.843 373.259 773.877 372.626 774.171 371.975L772.348 371.153ZM772.191 374.632C772.662 375.718 773.432 376.53 774.491 377.007L775.313 375.184C774.738 374.925 774.312 374.496 774.026 373.836L772.191 374.632ZM774.491 377.007L789.456 383.755L790.278 381.931L775.313 375.184L774.491 377.007ZM789.456 383.755C790.967 384.436 791.989 385.52 792.566 387.047L794.437 386.339C793.669 384.311 792.267 382.828 790.278 381.931L789.456 383.755ZM792.566 387.047C793.144 388.574 793.097 390.063 792.416 391.574L794.239 392.396C795.136 390.407 795.205 388.368 794.437 386.339L792.566 387.047ZM792.416 391.574L780.973 416.954L782.796 417.776L794.239 392.396L792.416 391.574ZM780.973 416.954C780.291 418.465 779.207 419.486 777.68 420.064L778.388 421.935C780.417 421.167 781.899 419.765 782.796 417.776L780.973 416.954ZM777.68 420.064C776.153 420.642 774.665 420.595 773.153 419.913L772.331 421.737C774.321 422.634 776.36 422.702 778.388 421.935L777.68 420.064ZM773.153 419.913L753.287 410.956L752.465 412.78L772.331 421.737L773.153 419.913Z" fill="black"/>
<path d="M0 1141.09L2573.5 1141.09" stroke="#CCCCCC" stroke-width="10"/>
<path d="M2475.88 848.731L851.797 1098.13C840.387 1099.88 832.557 1110.55 834.309 1121.96C836.061 1133.37 846.732 1141.2 858.142 1139.45L2482.22 890.051C2493.63 888.299 2501.46 877.629 2499.71 866.218C2497.96 854.808 2487.29 846.979 2475.88 848.731Z" fill="white"/>
<circle cx="1667" cy="994.088" r="129.5" fill="#141414" stroke="white" stroke-width="35"/>
</svg>
