<svg viewBox="0 0 3645 1207" fill="none" xmlns="http://www.w3.org/2000/svg">
<path d="M1013.66 707.666C933.828 707.268 871.489 794.869 871.112 870.493C870.673 958.445 951.517 969.017 1012.35 969.321C1073.19 969.624 1154.13 959.86 1154.57 871.907C1154.95 796.283 1093.49 708.064 1013.66 707.666ZM1023.94 891.09C1023.84 891.125 1023.74 891.108 1023.64 891.142L1023.58 903.96C1023.55 909.987 1018.65 914.838 1012.62 914.808C1006.6 914.778 1001.75 909.877 1001.78 903.852L1001.84 890.957C994.666 888.497 987.804 883.862 981.959 876.826C978.107 872.197 978.737 865.322 983.377 861.47C987.996 857.617 994.871 858.238 998.723 862.877C1020.09 888.659 1034.8 849.503 1012.95 849.394C994.916 849.304 980.317 834.559 980.407 816.524C980.472 803.478 988.003 791.075 1002.36 786.044L1002.43 773.023C1002.46 766.997 1007.36 762.145 1013.39 762.176C1019.41 762.206 1024.26 767.106 1024.23 773.132L1024.17 786.189C1029.8 788.119 1035.29 791.168 1040.18 795.943C1044.48 800.159 1044.57 807.059 1040.35 811.361C1036.14 815.673 1029.24 815.755 1024.94 811.54C1004.98 792.066 991.255 827.481 1013.06 827.589C1031.1 827.679 1045.69 842.424 1045.6 860.459C1045.53 874.152 1036.83 886.471 1023.94 891.09Z" fill="#F1C40F"/>
<path d="M1076.34 606.315C1036.15 594.404 992.29 594.185 951.987 605.695C945.224 607.616 941.961 615.44 945.562 621.655L961.905 651.258C990.635 639.992 1033.17 638.5 1065.97 651.782L1082.61 622.339C1086.27 616.16 1083.08 608.304 1076.34 606.315Z" fill="#F1C40F"/>
<path d="M1064.44 675.532C1044.11 661.06 984.277 660.161 963.072 675.093C953.981 681.443 949.108 691.465 949.15 701.961C970.14 690.975 994.713 685.767 1013.77 685.862C1036.97 685.978 1058.68 692.128 1078.22 702.605C1078.36 692.494 1073.92 682.288 1064.44 675.532Z" fill="#F1C40F"/>
<path d="M2225.92 1012.31C2186.66 1002.18 2145.05 1037.57 2135.45 1074.77C2124.29 1118.03 2162.79 1133.3 2192.72 1141.02C2222.64 1148.74 2263.72 1154.01 2274.89 1110.74C2284.48 1073.54 2265.19 1022.44 2225.92 1012.31ZM2208.16 1103.93C2208.11 1103.94 2208.06 1103.92 2208.01 1103.92L2206.38 1110.23C2205.62 1113.19 2202.6 1114.97 2199.64 1114.21C2196.67 1113.44 2194.89 1110.43 2195.66 1107.46L2197.29 1101.12C2194.06 1099.01 2191.26 1095.88 2189.26 1091.68C2187.94 1088.92 2189.1 1085.62 2191.87 1084.3C2194.62 1082.98 2197.93 1084.14 2199.25 1086.9C2206.57 1102.26 2218.68 1084.8 2207.94 1082.03C2199.07 1079.74 2193.71 1070.66 2196 1061.79C2197.65 1055.37 2202.91 1050.2 2210.61 1049.51L2212.26 1043.11C2213.02 1040.14 2216.04 1038.36 2219.01 1039.13C2221.97 1039.89 2223.75 1042.91 2222.99 1045.87L2221.33 1052.3C2223.86 1053.95 2226.19 1056.13 2228 1059.09C2229.59 1061.7 2228.78 1065.11 2226.17 1066.71C2223.55 1068.31 2220.15 1067.49 2218.55 1064.88C2211.14 1052.8 2199.98 1068.54 2210.7 1071.3C2219.58 1073.59 2224.93 1082.67 2222.64 1091.54C2220.9 1098.28 2215.08 1103.26 2208.16 1103.93Z" fill="#F1C40F"/>
<path d="M2269.41 970.198C2251.1 959.33 2229.52 953.763 2208.24 954.416C2204.67 954.521 2202.09 957.969 2203.09 961.477L2207.45 978.092C2223.01 976.118 2244.14 980.678 2258.64 991.3L2270.5 978.869C2273.07 976.282 2272.48 972.017 2269.41 970.198Z" fill="#F1C40F"/>
<path d="M2254.93 1002.81C2246.72 993.15 2217.36 985.261 2205.06 989.976C2199.8 991.972 2196.15 996.302 2194.86 1001.48C2206.57 998.678 2219.32 999.171 2228.69 1001.59C2240.11 1004.53 2250.03 1010.26 2258.35 1017.86C2259.68 1012.89 2258.76 1007.31 2254.93 1002.81Z" fill="#F1C40F"/>
<path d="M2027.2 843.04C1948 833.045 1875.57 912.513 1866.11 987.543C1855.09 1074.8 1934.08 1095.02 1994.44 1102.64C2054.79 1110.26 2136.32 1110.3 2147.34 1023.04C2156.81 948.006 2106.4 853.036 2027.2 843.04ZM2015.35 1026.37C2015.25 1026.39 2015.15 1026.36 2015.05 1026.39L2013.44 1039.1C2012.69 1045.08 2007.24 1049.31 2001.26 1048.55C1995.28 1047.8 1991.06 1042.35 1991.81 1036.37L1993.42 1023.58C1986.6 1020.28 1980.34 1014.85 1975.39 1007.16C1972.12 1002.1 1973.57 995.353 1978.64 992.086C1983.69 988.818 1990.44 990.26 1993.71 995.329C2011.82 1023.49 2031.13 986.391 2009.45 983.655C1991.56 981.397 1978.84 965.003 1981.1 947.11C1982.73 934.166 1991.7 922.759 2006.56 919.492L2008.19 906.573C2008.95 900.594 2014.4 896.367 2020.37 897.122C2026.35 897.876 2030.58 903.325 2029.82 909.303L2028.19 922.258C2033.55 924.851 2038.63 928.538 2042.91 933.866C2046.67 938.568 2045.93 945.43 2041.23 949.193C2036.53 952.968 2029.67 952.219 2025.9 947.517C2008.43 925.784 1990.55 959.291 2012.18 962.022C2030.08 964.28 2042.8 980.673 2040.54 998.567C2038.82 1012.15 2028.7 1023.33 2015.35 1026.37Z" fill="#F1C40F"/>
<path d="M2101.62 749.964C2063.15 733.306 2019.63 727.813 1978.24 734.393C1971.29 735.486 1967.11 742.862 1969.94 749.464L1982.6 780.818C2012.48 773.089 2054.89 776.724 2085.85 793.853L2105.91 766.624C2110.29 760.931 2108.07 752.749 2101.62 749.964Z" fill="#F1C40F"/>
<path d="M2081.48 817.247C2063.04 800.435 2003.74 792.347 1980.9 804.621C1971.11 809.831 1965.07 819.195 1963.84 829.619C1986 821.237 2011.03 819.022 2029.93 821.408C2052.95 824.313 2073.76 833.03 2091.9 845.78C2093.26 835.76 2090.07 825.093 2081.48 817.247Z" fill="#F1C40F"/>
<path d="M2391.62 1154.49L767.671 904.233C756.262 902.475 745.587 910.298 743.829 921.708C742.071 933.117 749.895 943.791 761.304 945.55L2385.25 1195.81C2396.66 1197.57 2407.34 1189.74 2409.09 1178.33C2410.85 1166.92 2403.03 1156.25 2391.62 1154.49Z" fill="white"/>
<path d="M2940.13 548.78C2944.53 548.278 2948.76 546.824 2952.53 544.521C2956.31 542.218 2959.53 539.121 2961.96 535.449C2964.4 531.777 2966 527.619 2966.64 523.268C2967.29 518.916 2966.96 514.478 2965.69 510.264L3053 447.725L3000.7 428L2925.81 490.412C2918.83 493 2913.04 498.043 2909.55 504.586C2906.05 511.128 2905.1 518.716 2906.87 525.91C2908.63 533.105 2912.99 539.407 2919.12 543.622C2925.25 547.836 2932.72 549.672 2940.13 548.78H2940.13Z" fill="#FFB6B6"/>
<path d="M2876.99 1163L2849.22 1163L2836 1057H2877L2876.99 1163Z" fill="#FFB6B6"/>
<path d="M2884 1190L2795 1190V1188.9C2795 1179.91 2798.65 1171.28 2805.15 1164.93C2811.64 1158.57 2820.45 1155 2829.64 1155H2829.64L2884 1155L2884 1190Z" fill="#2F2E41"/>
<path d="M2664.99 1163L2637.89 1163L2625 1057H2665L2664.99 1163Z" fill="#FFB6B6"/>
<path d="M2674 1190L2584 1190V1188.9C2584 1179.91 2587.69 1171.28 2594.26 1164.93C2600.83 1158.57 2609.74 1155 2619.03 1155H2619.03L2674 1155L2674 1190Z" fill="#2F2E41"/>
<path d="M2687.65 571.778L2629.38 891.247L2609 1145L2675.17 1141.74L2712.83 895.323L2806.45 680.77L2834.32 1141.14L2895.23 1141.34L2928 559L2687.65 571.778Z" fill="#CCCCCC"/>
<path d="M2935.42 206.505L2853.53 174L2759.59 184.723L2679.95 228.645C2679.95 228.645 2704.31 533.45 2669 604.946C2669 604.946 2697.29 644.043 2812.57 634.499C2812.57 634.499 2924.87 620.34 2927.65 583.603C2930.43 546.866 2931.02 480.073 2931.02 480.073L2970 346.067L2935.42 206.505Z" fill="#0137FF"/>
<path d="M2711.78 233.912L2679.88 228C2679.88 228 2645.93 243.012 2646.28 287.747C2646.63 332.481 2586.32 482.459 2658.48 488.746C2730.64 495.034 2711.78 382.392 2711.78 382.392V233.912Z" fill="#0137FF"/>
<path d="M2910 224.875L2935.98 206C2935.98 206 2975.64 214.919 2990.31 246.701C2990.31 246.701 3152.95 364.124 3108.21 408.657C3063.48 453.19 2972.29 508 2972.29 508L2938.52 469.943L3022.29 394.4L2953.57 332.08L2910 224.875Z" fill="#0137FF"/>
<path d="M2868 87.9957C2867.99 105.77 2860.92 122.813 2848.36 135.378C2835.8 147.942 2818.76 155 2801 155C2783.24 155 2766.2 147.942 2753.64 135.378C2741.08 122.813 2734.01 105.77 2734 87.9957V85.4223C2734.69 67.8855 2742.22 51.3172 2754.97 39.2747C2767.73 27.2321 2784.7 20.6755 2802.23 21.0124C2819.77 21.3493 2836.47 28.5528 2848.76 41.0765C2861.05 53.6002 2867.94 70.4455 2867.95 87.9957H2868Z" fill="#FFB6B6"/>
<path d="M2810.56 77.376C2814.89 76.6712 2819.59 76.0009 2823.47 77.9777C2831.91 82.2578 2829.97 94.3933 2834.58 102.404C2836.4 105.584 2839.34 108.179 2840.55 111.617C2841.77 115.055 2841.02 119.352 2842.93 122.67C2845.68 127.465 2853.15 128.17 2858.06 125.317C2862.7 122.129 2866.06 117.426 2867.55 112.03C2869.18 107.457 2870.55 102.404 2874.49 99.4126C2875.92 98.605 2877.2 97.5649 2878.28 96.3358C2879.09 94.7077 2879.41 92.8788 2879.18 91.0758C2879.18 79.4559 2877.36 70.4488 2880.01 59.1899C2884.26 41.038 2888.14 32.0652 2874.69 18.6061C2867.81 11.8008 2858.95 7.30453 2849.36 5.74853C2840.69 4.33903 2827.94 16.3372 2819.17 16.0623C2796.87 15.1856 2778.05 -5.30394 2756.78 1.31389C2747.49 4.21084 2739.43 10.0952 2733.87 18.039C2723.48 33.2342 2724.41 39.113 2725.92 57.2476C2725.9 58.6245 2726.3 59.9748 2727.08 61.1151C2727.86 62.0434 2729.13 62.5419 2729.89 63.4873C2730.71 64.7362 2731.02 66.2484 2730.75 67.7159C2730.52 70.6698 2729.83 73.5697 2728.69 76.3106C2728.41 76.7688 2728.23 77.2857 2728.18 77.8219C2728.12 78.358 2728.19 78.8994 2728.38 79.4046C2728.81 79.9788 2729.42 80.3912 2730.11 80.5735C2738.78 83.6676 2748.14 77.703 2757.41 77.8576C2766.68 78.0123 2775.48 84.1661 2785.05 82.8254C2793.49 81.5358 2802.05 78.7683 2810.56 77.376Z" fill="#2F2E41"/>
<path d="M2811.04 450.575L2811.04 450.575C2810.5 450.781 2809.94 450.925 2809.36 451.004L2809.36 451.005L2734.54 461.424L2734.54 461.424C2732.84 461.666 2731.11 461.325 2729.63 460.456C2728.16 459.588 2727.02 458.243 2726.41 456.645L2726.41 456.643L2662.01 289.466L2661.54 289.646L2662.01 289.466C2661.61 288.451 2661.45 287.364 2661.51 286.279C2661.58 285.193 2661.88 284.135 2662.4 283.177C2662.92 282.218 2663.63 281.382 2664.5 280.724C2665.36 280.074 2666.35 279.614 2667.4 279.375C2667.41 279.372 2667.42 279.369 2667.43 279.366L2667.43 279.366L2737.8 263.703L2737.8 263.703C2738.38 263.572 2738.95 263.365 2739.48 263.089L2739.48 263.088L2807.92 227.394L2807.92 227.394C2808.42 227.135 2808.94 226.932 2809.48 226.788L2809.48 226.788L2884.8 206.759L2884.8 206.758C2886.61 206.274 2888.53 206.475 2890.2 207.325C2891.87 208.174 2893.16 209.61 2893.83 211.355L2893.83 211.356L2949.99 357.124L2949.99 357.125C2950.45 358.316 2950.6 359.604 2950.43 360.869C2950.26 362.134 2949.76 363.334 2948.99 364.356L2948.99 364.357L2929.57 390.374L2929.97 390.673L2929.57 390.374C2928.72 391.523 2927.55 392.405 2926.21 392.918L2926.21 392.918L2883.76 409.189L2883.76 409.189C2883.44 409.315 2883.12 409.466 2882.81 409.64L2883.06 410.074L2882.81 409.64L2812.09 450.076C2811.75 450.269 2811.4 450.436 2811.04 450.575Z" fill="white" stroke="black"/>
<path d="M2892.34 241.778L2686.48 320.893L2690.01 330.066L2895.87 250.952L2892.34 241.778Z" fill="white"/>
<path d="M2904.09 272.357L2698.23 351.471L2701.76 360.644L2907.62 281.53L2904.09 272.357Z" fill="white"/>
<path d="M2927.83 334.124L2721.97 413.239L2725.49 422.412L2931.36 343.297L2927.83 334.124Z" fill="white"/>
<path d="M2845.52 228L2907 388.473L2897.85 392L2836 230.549L2845.52 228Z" fill="white"/>
<path d="M2776 256L2763.49 291.233L2759.15 303.452L2749.03 331.968L2746.87 338.063L2744.7 344.189L2741.84 352.23L2721.33 410L2716 395.957L2732.72 348.847L2736.5 338.182L2737.06 336.626L2741.53 324.014L2747.18 308.113L2751.52 295.889L2763.28 262.732L2763.29 262.729L2776 256Z" fill="white"/>
<path d="M2722.79 277L2787 442.602L2776.91 444L2713 279.17L2722.79 277Z" fill="white"/>
<path d="M2709.5 437C2725.24 437 2738 423.569 2738 407C2738 390.431 2725.24 377 2709.5 377C2693.76 377 2681 390.431 2681 407C2681 423.569 2693.76 437 2709.5 437Z" fill="#FFB6B6"/>
<path d="M390.624 240.451C355.279 240.451 326.626 210.147 326.626 172.767C326.626 135.386 355.279 105.083 390.624 105.083C425.97 105.083 454.623 135.386 454.623 172.767C454.623 210.147 425.97 240.451 390.624 240.451Z" fill="#FFB8B8"/>
<path d="M581.358 1169.97L611.793 1159.71L588.858 1030.67L543.938 1045.81L581.358 1169.97Z" fill="#FFB8B8"/>
<path d="M632.143 1142.71L572.062 1162.96L583.842 1202.05L679.5 1169.8L679.059 1168.34C677.57 1163.4 675.175 1158.82 672.012 1154.85C668.848 1150.89 664.977 1147.63 660.621 1145.25C656.264 1142.87 651.507 1141.42 646.621 1140.98C641.735 1140.55 636.815 1141.13 632.143 1142.71Z" fill="#2F2E41"/>
<path d="M359.914 1169.3H391.861L407.063 1038.99H359.914V1169.3Z" fill="#FFB8B8"/>
<path d="M416.128 1159.65H353.068V1200.68H453.468V1199.14C453.468 1193.96 452.502 1188.82 450.626 1184.03C448.749 1179.24 445.999 1174.88 442.531 1171.22C439.064 1167.55 434.947 1164.64 430.417 1162.66C425.887 1160.67 421.031 1159.65 416.128 1159.65Z" fill="#2F2E41"/>
<path d="M360.85 1127.02L371.632 1125.31C404.332 1120.16 406.29 1119.85 411.482 1117.44C414.133 1116.21 414.319 1097.6 412.727 992.964C411.56 916.161 410.105 820.576 412.929 769.261C413.045 767.236 413.803 765.312 415.08 763.799C416.357 762.285 418.079 761.271 419.968 760.919C421.857 760.567 423.803 760.898 425.492 761.859C427.181 762.82 428.515 764.354 429.278 766.215C453.61 825.64 494.431 958.623 521.444 1046.62C530.84 1077.23 538.262 1101.41 542.957 1115.9C543.864 1118.64 545.705 1120.93 548.119 1122.31C550.534 1123.69 553.349 1124.07 556.015 1123.38C578.245 1117.5 576.758 1115 608.42 1106.34C611.159 1105.6 613.522 1103.77 615.014 1101.23C616.506 1098.69 617.011 1095.64 616.424 1092.71C610.698 1064.15 505.899 601.058 497.877 557.036C497.605 555.529 497.054 554.094 496.256 552.813C495.457 551.533 494.426 550.433 493.223 549.576C492.02 548.719 490.668 548.123 489.246 547.822C487.824 547.521 486.359 547.521 484.937 547.822C461.342 552.85 446.987 558.184 423.67 563.342C398.51 568.908 372.493 574.664 347.116 580.036C344.59 580.573 342.326 582.041 340.727 584.177C334.448 592.565 325.137 597.273 315.279 602.257C308.633 605.617 323.693 605.314 317.905 610.16C294.466 629.784 328.172 1028.27 348.539 1118.27C349.192 1121.09 350.817 1123.55 353.094 1125.16C355.371 1126.78 358.137 1127.44 360.85 1127.02V1127.02Z" fill="#F09242"/>
<path d="M380.14 675.37C380.867 671.873 380.861 668.248 380.121 664.753C379.38 661.258 377.925 657.978 375.856 655.142C373.787 652.306 371.156 649.985 368.147 648.341C365.138 646.698 361.825 645.772 358.441 645.629L306.714 583.88L274.592 624.921L334.079 670.881C334.229 676.909 336.464 682.67 340.361 687.071C344.258 691.473 349.546 694.209 355.224 694.763C360.902 695.316 366.574 693.647 371.166 690.073C375.758 686.499 378.951 681.268 380.14 675.37V675.37Z" fill="#FFB8B8"/>
<path d="M363.346 231.992C367.083 215.225 348.194 179.146 351.931 162.379C354.461 151.024 379.708 158.743 385.6 148.88C391.492 139.018 401.361 131.028 412.392 130.897C425.07 130.746 437.545 140.692 449.555 136.394C461.699 132.047 465.58 114.46 460.212 102.148C454.843 89.836 443.277 81.9905 431.851 75.8428C412.393 65.3739 389.737 57.7289 368.912 64.6554C356.322 68.8424 345.796 77.915 335.61 86.7885C326.325 94.8771 316.883 103.149 310.392 113.86C297.676 134.844 298.443 163.118 309.31 185.234C320.177 207.349 339.978 223.579 361.796 232.999" fill="#2F2E41"/>
<path d="M520.493 622.189C513.585 609.985 503.098 552.806 490.165 456.832C481.361 391.315 473.689 324.744 469.883 290.74C469.587 287.987 468.636 285.36 467.117 283.103C465.598 280.846 463.563 279.035 461.201 277.838C458.731 276.577 456.275 275.384 453.835 274.259C422.314 259.759 390.37 254.955 358.895 259.978C327.468 265.083 297.989 279.288 273.725 301.021L273.439 301.307L273.365 301.715C273.228 302.471 260.009 377.806 287.085 428.704C313.788 478.924 314.1 611.919 314.1 613.256V614.965L315.655 614.497C357.197 601.943 517.672 623.906 519.288 624.13L521.787 624.475L520.493 622.189Z" fill="#CCCCCC"/>
<path d="M350.023 632.392L268.419 517.321L310.499 421.956L307.444 308.855L272.945 302.114L272.579 302.308C255.82 312.674 242.829 328.681 235.681 347.771C228.018 368.034 212.122 436.974 200.137 491.24C197.007 505.206 197.319 519.788 201.045 533.589C204.77 547.391 211.783 559.95 221.413 570.064L321.519 675.936L350.023 632.392Z" fill="#CCCCCC"/>
<path d="M692.601 404.341C690.65 401.413 688.116 398.974 685.178 397.194C682.239 395.414 678.967 394.338 675.592 394.04C672.217 393.742 668.822 394.231 665.645 395.471C662.468 396.711 659.586 398.673 657.204 401.218L579.208 399.948L586.187 452.712L658.396 437.273C662.705 441.222 668.233 443.363 673.935 443.29C679.636 443.217 685.113 440.934 689.33 436.875C693.546 432.815 696.208 427.261 696.811 421.265C697.414 415.269 695.916 409.247 692.601 404.341Z" fill="#FFB8B8"/>
<path d="M653.452 450.494L642.296 398.863L506.925 384.945L469.816 290.555L468.73 287.768L454.145 274.465L453.834 274.258C422.315 259.76 390.373 254.956 358.894 259.978L357.789 260.155L357.859 261.334C358.568 273.413 361.5 285.23 366.491 296.121C380.494 326.839 466.65 457.416 467.518 458.731L467.902 459.313L653.452 450.494Z" fill="#CCCCCC"/>
<path d="M746.042 223.72L746.043 223.721L962.009 313.499L962.201 313.038L962.01 313.499C965.482 314.941 968.329 317.569 970.046 320.916C971.762 324.262 972.236 328.108 971.383 331.771C947.681 428.249 909.36 520.53 857.752 605.407C855.76 608.596 852.702 610.974 849.122 612.117C845.541 613.261 841.67 613.097 838.199 611.652L838.007 612.114L838.199 611.652L622.233 521.874L622.231 521.873C620.028 520.966 618.06 519.567 616.478 517.785C614.896 516.002 613.742 513.881 613.103 511.584L613.101 511.581L613.092 511.547L613.091 511.545C612.437 509.198 612.324 506.734 612.76 504.337C613.199 501.928 614.181 499.65 615.632 497.678L615.633 497.675C671.853 420.225 709.061 330.622 724.248 236.115L724.248 236.112C724.622 233.691 725.543 231.388 726.94 229.376C728.338 227.365 730.175 225.7 732.313 224.506L732.314 224.506C734.392 223.339 736.708 222.662 739.087 222.526C741.466 222.389 743.845 222.798 746.042 223.72Z" fill="white" stroke="black"/>
<path d="M736.105 437.775L749.52 408.019L751.736 371.108L759.875 374.777L758.408 399.284L775.715 381.919L783.854 385.589L757.659 411.689L744.244 441.445L736.105 437.775ZM760.95 448.977L788.571 387.716L821.127 402.394L817.497 410.445L793.08 399.437L786.214 414.664L802.492 422.004L796.985 429.314L782.545 422.804L772.759 444.508L797.176 455.516L793.506 463.655L760.95 448.977ZM805.109 468.886C803.358 468.097 802.147 466.814 801.474 465.036C800.801 463.258 800.859 461.494 801.648 459.744L807.764 446.179L815.075 451.686L812.036 458.425C811.642 459.3 811.592 460.19 811.886 461.095C812.264 461.968 812.862 462.589 813.679 462.957L823.656 467.455C824.531 467.85 825.392 467.887 826.238 467.566C827.169 467.214 827.832 466.6 828.227 465.725L835.172 450.322C835.566 449.447 835.574 448.573 835.195 447.7C834.901 446.795 834.317 446.146 833.441 445.751L818.564 439.043C816.813 438.254 815.602 436.971 814.929 435.193C814.256 433.415 814.314 431.651 815.103 429.901L823.587 411.085C824.376 409.335 825.659 408.123 827.437 407.45C829.215 406.778 830.979 406.836 832.729 407.625L852.595 416.582C854.346 417.371 855.557 418.654 856.23 420.432C856.903 422.21 856.845 423.974 856.055 425.724L851.794 435.176L844.523 429.581L845.667 427.043C846.062 426.168 846.07 425.294 845.691 424.421C845.397 423.516 844.812 422.866 843.937 422.472L833.96 417.973C833.144 417.605 832.27 417.597 831.338 417.95C830.492 418.27 829.871 418.868 829.477 419.743L825.492 428.582C825.097 429.457 825.047 430.347 825.341 431.252C825.72 432.125 826.317 432.746 827.134 433.114L842.099 439.861C843.85 440.65 845.061 441.934 845.734 443.711C846.407 445.489 846.349 447.253 845.56 449.003L834.117 474.383C833.328 476.133 832.044 477.345 830.267 478.018C828.489 478.69 826.725 478.632 824.975 477.843L805.109 468.886Z" fill="black"/>
<path d="M2774.73 391.874L2752.51 328.453L2760.94 325.502L2792.61 361.909L2777.79 319.598L2786.21 316.646L2808.43 380.067L2800.01 383.019L2768.33 346.612L2783.15 388.922L2774.73 391.874ZM2821.5 375.487C2819.81 376.08 2818.11 375.964 2816.4 375.14C2814.69 374.316 2813.5 372.968 2812.85 371.095L2795.26 320.902C2794.61 319.03 2794.69 317.237 2795.51 315.524C2796.34 313.811 2797.6 312.659 2799.29 312.066L2819.85 304.861C2821.79 304.184 2823.58 304.268 2825.23 305.114C2826.94 305.938 2828.13 307.286 2828.78 309.158L2846.37 359.351C2847.02 361.224 2846.94 363.016 2846.12 364.729C2845.35 366.421 2844 367.605 2842.07 368.282L2821.5 375.487ZM2823.75 365.343L2833.99 361.756C2835.01 361.396 2835.71 360.778 2836.08 359.902C2836.52 359.005 2836.56 358.074 2836.22 357.107L2822.26 317.243C2821.9 316.216 2821.28 315.517 2820.4 315.145C2819.57 314.693 2818.64 314.646 2817.61 315.006L2807.37 318.592C2806.53 318.889 2805.89 319.485 2805.46 320.383C2805.06 321.198 2805.05 322.119 2805.41 323.146L2819.37 363.011C2819.71 363.977 2820.3 364.687 2821.13 365.14C2822.03 365.571 2822.9 365.639 2823.75 365.343Z" fill="black"/>
<path d="M0 1202L3641.5 1202" stroke="#CCCCCC" stroke-width="10"/>
<path d="M3078.95 1076.92L3084.19 1082.4L3079.23 1084.25L3078.95 1076.92Z" fill="#D0A8A8"/>
<path d="M3084.28 1070.6L3089.52 1076.07L3084.57 1077.93L3084.28 1070.6Z" fill="#D0A8A8"/>
<path d="M3082.76 1074.54L3088 1080.01L3083.04 1081.87L3082.76 1074.54Z" fill="#D0A8A8"/>
<path d="M3088.09 1068.21L3093.33 1073.68L3088.37 1075.54L3088.09 1068.21Z" fill="#D0A8A8"/>
<path d="M3083.41 1066L3081.14 1054.25L3088.9 1055.36L3083.41 1066Z" fill="#D0A8A8"/>
<path d="M3071.61 1070.94L3069.35 1059.19L3077.1 1060.31L3071.61 1070.94Z" fill="#D0A8A8"/>
<path d="M3076.68 1066.5L3074.42 1054.76L3082.17 1055.87L3076.68 1066.5Z" fill="#D0A8A8"/>
<path d="M3064.89 1071.45L3062.62 1059.7L3070.38 1060.82L3064.89 1071.45Z" fill="#D0A8A8"/>
<path d="M2958.68 520.504C2998.01 509.081 3042.56 548.606 3043.94 601.667C3044.33 616.591 3040.93 632.264 3031.99 642.417C3024.61 650.799 3013.63 655.027 3004.09 650.93C2985.73 643.046 2984.75 610.18 2994.6 592.627C3007.93 568.86 3034.35 564.801 3055.31 567.628C3080.93 571.084 3105.29 585.52 3125.72 605.308C3166.64 644.92 3192.69 705.631 3213.77 764.289C3235.36 824.461 3251.06 887.84 3260.5 952.975C3261.69 961.156 3262.78 969.359 3263.77 977.584C3264.05 978.789 3264.69 979.804 3265.55 980.409C3266.41 981.015 3267.42 981.162 3268.36 980.818C3269.28 980.439 3270.06 979.616 3270.53 978.52C3271 977.424 3271.12 976.138 3270.87 974.928C3262.24 903.85 3246.3 834.56 3223.46 768.878C3201.39 705.308 3173.55 639.369 3129.27 596.946C3107.2 575.797 3081.13 561.081 3053.54 557.934C3030.32 555.284 3002.82 561.597 2988.38 587.548C2976.99 608.022 2978.14 642.047 2995.77 656.306C3005.46 664.145 3017.78 663.229 3027.84 657.134C3033.18 653.746 3037.89 648.906 3041.63 642.95C3045.37 636.994 3048.05 630.064 3049.5 622.642C3055.76 593.172 3046.25 561.297 3029.96 540.233C3014.66 520.408 2993.88 509.178 2972.15 509C2966.92 509.074 2961.71 509.872 2956.61 511.38C2951.97 512.729 2954.05 521.85 2958.68 520.504Z" fill="#CCCCCC"/>
<path d="M3050.24 1045.32C3049.35 1039.56 3052.58 1034.29 3057.46 1033.54C3062.33 1032.79 3067.01 1036.85 3067.9 1042.61C3068.79 1048.36 3065.56 1053.64 3060.68 1054.39C3055.81 1055.14 3051.13 1051.08 3050.24 1045.32Z" fill="#3E0101" fill-opacity="0.65"/>
<path d="M3463.1 1157.91L3506.57 1083.49L3452.97 1052.01L3409.5 1126.42V1126.43C3405.34 1133.55 3404.17 1142.05 3406.25 1150.04C3408.33 1158.03 3413.5 1164.87 3420.6 1169.04C3427.71 1173.22 3436.18 1174.39 3444.15 1172.3C3452.12 1170.21 3458.94 1165.03 3463.1 1157.91Z" fill="#464367"/>
<path d="M3606.47 1003.48C3585.19 1003.48 3567.94 986.552 3567.94 965.665C3567.94 944.778 3585.19 927.846 3606.47 927.846C3627.75 927.846 3645 944.778 3645 965.665C3645 986.552 3627.75 1003.48 3606.47 1003.48Z" fill="#464367"/>
<path d="M3294.69 1157.93L3338.17 1083.49L3284.56 1052.01L3241.09 1126.44C3236.93 1133.57 3235.77 1142.06 3237.85 1150.05C3239.94 1158.04 3245.1 1164.87 3252.2 1169.04C3259.31 1173.21 3267.77 1174.39 3275.74 1172.3C3283.71 1170.22 3290.52 1165.05 3294.69 1157.93Z" fill="#464367"/>
<path d="M3599.33 1042.73C3599.31 1021.35 3590.75 1000.86 3575.53 985.74C3560.31 970.624 3539.67 962.121 3518.15 962.097H3261.16C3252.07 962.108 3243.35 965.702 3236.91 972.091C3230.48 978.48 3226.86 987.143 3226.85 996.179V1025.22C3226.88 1051.24 3237.3 1076.19 3255.82 1094.59C3274.35 1112.98 3299.46 1123.33 3325.66 1123.36H3518.15C3539.67 1123.34 3560.31 1114.84 3575.53 1099.72C3590.75 1084.6 3599.31 1064.11 3599.33 1042.73Z" fill="#464367"/>
<path d="M3539.39 1167.95V1081.98H3478.03V1167.95C3478.03 1176.19 3481.26 1184.08 3487.01 1189.91C3492.77 1195.73 3500.57 1199 3508.71 1199C3516.85 1199 3524.65 1195.73 3530.41 1189.91C3536.16 1184.08 3539.39 1176.19 3539.39 1167.95Z" fill="#464367"/>
<path d="M3359.58 1167.93V1081.98H3298.21V1167.93C3298.2 1172 3298.99 1176.04 3300.53 1179.81C3302.07 1183.58 3304.33 1187.01 3307.18 1189.9C3310.03 1192.78 3313.42 1195.07 3317.14 1196.63C3320.87 1198.2 3324.86 1199 3328.89 1199C3332.92 1199 3336.92 1198.2 3340.64 1196.63C3344.37 1195.07 3347.75 1192.78 3350.6 1189.9C3353.45 1187.01 3355.71 1183.58 3357.25 1179.81C3358.79 1176.04 3359.58 1172 3359.58 1167.93Z" fill="#464367"/>
<path d="M3211.22 824.395C3209.62 814.403 3204.11 805.426 3195.91 799.435C3187.7 793.444 3177.46 790.928 3167.44 792.438C3157.42 793.948 3148.43 799.362 3142.46 807.492C3136.48 815.621 3133.99 825.801 3135.55 835.799L3151.18 934.853L3226.85 923.448L3211.22 824.395Z" fill="#464367"/>
<path d="M3209.3 813.279C3208.78 809.876 3207.58 806.609 3205.79 803.665C3203.99 800.72 3201.64 798.156 3198.86 796.118C3196.07 794.081 3192.92 792.609 3189.57 791.788C3186.22 790.967 3182.74 790.813 3179.33 791.333C3175.93 791.854 3172.66 793.04 3169.72 794.824C3166.77 796.607 3164.21 798.953 3162.18 801.728C3160.14 804.502 3158.68 807.651 3157.86 810.994C3157.05 814.337 3156.9 817.809 3157.43 821.212L3174.66 931.928L3226.53 923.995L3209.3 813.279Z" fill="#464367"/>
<path d="M3265.24 1033.22L3252.77 954.159C3249.72 934.966 3239.16 917.716 3223.41 906.195C3207.66 894.673 3188.01 889.821 3168.76 892.702L3148.87 895.701C3125.93 899.188 3105.37 911.61 3091.69 930.241C3078.02 948.873 3072.36 972.192 3075.94 995.084L3086.21 1060.22C3087.35 1067.41 3091.31 1073.87 3097.2 1078.18C3103.1 1082.49 3110.46 1084.31 3117.66 1083.23L3242.34 1064.43C3249.54 1063.33 3256 1059.43 3260.29 1053.58C3264.58 1047.73 3266.36 1040.41 3265.24 1033.22Z" fill="#464367"/>
<path d="M3236.13 1066.99C3226.14 1044.16 3256.82 961.384 3256.82 961.384H3278.94L3258.25 1096.96C3258.25 1096.96 3246.12 1089.82 3236.13 1066.99Z" fill="#C4C4C4"/>
<path d="M3296.16 966.686L3267.02 993.663L3258.53 979.364L3296.16 966.686Z" fill="white"/>
<path d="M3282.67 1002.87L3257.26 1019.71L3252.24 1000.99L3282.67 1002.87Z" fill="white"/>
<path d="M3290.31 1040.25L3252.67 1042.19L3255.02 1027L3290.31 1040.25Z" fill="white"/>
<path d="M3275.23 1075.31L3241.31 1065.02L3253.92 1046.99L3275.23 1075.31Z" fill="white"/>
<path fill-rule="evenodd" clip-rule="evenodd" d="M3087.15 1010.87L3222.98 989.492L3234.34 1064.6C3184.09 1090.36 3154.81 1097.79 3098.51 1085.98C3090.66 1087.2 3082.7 1085.9 3075.72 1082.37L3108.05 1062.7L3057.36 1061.72C3056.48 1059.34 3055.84 1056.86 3055.46 1054.31C3053.95 1044.36 3056.45 1034.21 3062.39 1026.06C3068.33 1017.92 3077.24 1012.46 3087.15 1010.87Z" fill="#464367"/>
<mask id="mask0" mask-type="alpha" maskUnits="userSpaceOnUse" x="3079" y="937" width="27" height="61">
<ellipse cx="3092.7" cy="967.806" rx="12.8441" ry="29.9696" fill="white"/>
</mask>
<g mask="url(#mask0)">
<ellipse cx="3097.29" cy="987.473" rx="11.9267" ry="12.1752" fill="#C0392B"/>
</g>
<circle cx="1576" cy="1050" r="129.5" fill="#141414" stroke="white" stroke-width="35"/>
</svg>
