<svg viewBox="0 0 70 70" fill="none" xmlns="http://www.w3.org/2000/svg">
<circle cx="35" cy="35" r="34.5" fill="white" stroke="black"/>
<path d="M25.2945 31.0093L35.0057 21.3024L44.7209 31.0172L50.3684 25.366L35.0057 10L19.6431 25.362L25.2945 31.0093Z" fill="#F3BA2F"/>
<path d="M10 35.0007L15.6493 29.3516L21.2987 35.0007L15.6493 40.6498L10 35.0007Z" fill="#F3BA2F"/>
<path d="M25.2936 38.9908L35.0048 48.7016L44.72 38.9868L50.3714 44.6301L50.3675 44.634L35.0048 60L19.6422 44.6419L19.6343 44.634L25.2936 38.9908Z" fill="#F3BA2F"/>
<path d="M48.7012 35.002L54.3505 29.3528L59.9999 35.002L54.3505 40.6511L48.7012 35.002Z" fill="#F3BA2F"/>
<path d="M40.7353 34.998L35.0049 29.2639L30.7673 33.5013L30.2776 33.9871L29.2745 34.9901L29.2666 34.998L29.2745 35.0099L35.0049 40.7361L40.7353 35.002L40.7392 34.998H40.7353Z" fill="#F3BA2F"/>
</svg>
