<svg viewBox="0 0 262 262" fill="none" xmlns="http://www.w3.org/2000/svg">
<path d="M131 262C203.349 262 262 203.349 262 131C262 58.6507 203.349 0 131 0C58.6507 0 0 58.6507 0 131C0 203.349 58.6507 262 131 262Z" stroke="black" fill="white"/>
<path d="M131 245C193.96 245 245 193.96 245 131C245 68.0395 193.96 17 131 17C68.0395 17 17 68.0395 17 131C17 193.96 68.0395 245 131 245Z" fill="#8247E5"/>
<path d="M168.733 106.61C165.999 105.019 162.444 105.019 159.436 106.61L138.109 118.805L123.617 126.758L102.289 138.954C99.5548 140.544 96.0003 140.544 92.9924 138.954L76.0396 129.41C73.3054 127.819 71.3914 124.903 71.3914 121.721V102.898C71.3914 99.7167 73.032 96.8003 76.0396 95.2096L92.719 85.9304C95.4532 84.3398 99.0079 84.3398 102.016 85.9304L118.695 95.2096C121.429 96.8003 123.343 99.7167 123.343 102.898V115.093L137.835 106.875V94.6793C137.835 91.498 136.195 88.5816 133.187 86.991L102.289 69.4933C99.5548 67.9026 96.0003 67.9026 92.9924 69.4933L61.5478 86.991C58.5399 88.5816 56.8994 91.498 56.8994 94.6793V129.94C56.8994 133.121 58.5399 136.037 61.5478 137.628L92.9924 155.126C95.7269 156.717 99.2814 156.717 102.289 155.126L123.617 143.196L138.109 134.977L159.436 123.047C162.171 121.456 165.725 121.456 168.733 123.047L185.412 132.326C188.147 133.917 190.061 136.833 190.061 140.014V158.837C190.061 162.019 188.42 164.935 185.412 166.526L168.733 176.07C165.999 177.661 162.444 177.661 159.436 176.07L142.757 166.791C140.023 165.2 138.109 162.284 138.109 159.103V146.907L123.617 155.126V167.321C123.617 170.503 125.257 173.419 128.265 175.01L159.71 192.507C162.444 194.098 165.999 194.098 169.006 192.507L200.451 175.01C203.185 173.419 205.099 170.503 205.099 167.321V132.061C205.099 128.879 203.459 125.963 200.451 124.372L168.733 106.61Z" fill="white"/>
</svg>
