<svg viewBox="0 0 610 442" fill="none" xmlns="http://www.w3.org/2000/svg">
<g clip-path="url(#clip0)">
<path opacity="0.5" d="M36 397.88H607" stroke="#CECECE"/>
<path opacity="0.5" d="M36 357.88H607" stroke="#CECECE"/>
<path opacity="0.5" d="M36 316.88H607" stroke="#CECECE"/>
<path opacity="0.5" d="M36 377.88H607" stroke="#CECECE"/>
<path opacity="0.5" d="M36 337.88H607" stroke="#CECECE"/>
<path opacity="0.5" d="M36 296.88H607" stroke="#CECECE"/>
<path opacity="0.5" d="M36 275.88H607" stroke="#CECECE"/>
<path opacity="0.5" d="M36 235.88H607" stroke="#CECECE"/>
<path opacity="0.5" d="M36 194.88H607" stroke="#CECECE"/>
<path opacity="0.5" d="M36 255.88H607" stroke="#CECECE"/>
<path opacity="0.5" d="M36 215.88H607" stroke="#CECECE"/>
<path opacity="0.5" d="M36 174.88H607" stroke="#CECECE"/>
<path opacity="0.5" d="M36 153.88H607" stroke="#CECECE"/>
<path opacity="0.5" d="M36 113.88H607" stroke="#CECECE"/>
<path opacity="0.5" d="M36 72.8804H607" stroke="#CECECE"/>
<path opacity="0.5" d="M36 133.88H607" stroke="#CECECE"/>
<path opacity="0.5" d="M36 93.8804H607" stroke="#CECECE"/>
<path opacity="0.5" d="M36 52.8804H607" stroke="#CECECE"/>
<path opacity="0.5" d="M501.023 34V417M553.313 34V225.5V417V34Z" stroke="#CECECE"/>
<path opacity="0.5" d="M448.442 34V417" stroke="#CECECE"/>
<path opacity="0.5" d="M396.152 34V417M343.862 34V417" stroke="#CECECE"/>
<path opacity="0.5" d="M240.657 34V225.5V417M292.947 34V417V34Z" stroke="#CECECE"/>
<path opacity="0.5" d="M131.948 34V417M184.238 34V417V34Z" stroke="#CECECE"/>
<path d="M81.4492 34V417" stroke="white"/>
<path d="M36 417.38L607 417.38" stroke="white"/>
<path d="M82 416.5L609 164.5" stroke="#1C8FFF" stroke-width="2"/>
<path d="M9.24707 267.46C8.10775 267.46 7.19401 267.196 6.50586 266.667C5.81315 266.138 5.4668 265.43 5.4668 264.541C5.4668 263.757 5.74023 263.124 6.28711 262.641L2.5 262.641L2.5 260.979L13 260.979L13 262.483L12.2344 262.565C12.8359 263.062 13.1367 263.725 13.1367 264.555C13.1367 265.421 12.7881 266.122 12.0908 266.66C11.3936 267.193 10.4456 267.46 9.24707 267.46ZM9.39062 265.799C10.1426 265.799 10.7305 265.655 11.1543 265.368C11.5736 265.076 11.7832 264.664 11.7832 264.131C11.7832 263.452 11.4801 262.955 10.874 262.641L7.71582 262.641C7.12337 262.946 6.82715 263.438 6.82715 264.117C6.82715 264.655 7.04134 265.07 7.46973 265.361C7.89355 265.653 8.53385 265.799 9.39062 265.799ZM13.1367 255.989C13.1367 257.042 12.8063 257.896 12.1455 258.553C11.4801 259.204 10.596 259.53 9.49316 259.53L9.28809 259.53C8.5498 259.53 7.89128 259.389 7.3125 259.106C6.72917 258.819 6.27572 258.418 5.95215 257.903C5.62858 257.388 5.4668 256.814 5.4668 256.181C5.4668 255.174 5.78809 254.396 6.43066 253.85C7.07324 253.298 7.98242 253.022 9.1582 253.022L9.82812 253.022L9.82812 257.855C10.4388 257.805 10.9219 257.603 11.2773 257.247C11.6328 256.887 11.8105 256.436 11.8105 255.894C11.8105 255.132 11.5029 254.513 10.8877 254.034L11.7422 253.139C12.1842 253.435 12.5283 253.831 12.7744 254.328C13.0159 254.82 13.1367 255.374 13.1367 255.989ZM6.7998 256.187C6.7998 256.643 6.95931 257.012 7.27832 257.295C7.59733 257.573 8.04167 257.751 8.61133 257.828L8.61133 254.663L8.48828 254.663C7.93229 254.7 7.51302 254.848 7.23047 255.107C6.94336 255.367 6.7998 255.727 6.7998 256.187ZM3.81934 246.938C3.75553 247.403 3.72363 247.804 3.72363 248.142C3.72363 249.035 4.1429 249.481 4.98144 249.481L5.60351 249.481L5.60351 247.978L6.83398 247.978L6.83398 249.481L13 249.481L13 251.143L6.83398 251.143L6.83398 252.271L5.60351 252.271L5.60351 251.143L4.94043 251.143C4.10644 251.138 3.46842 250.892 3.02637 250.404C2.57975 249.912 2.35644 249.219 2.35644 248.326C2.35644 247.77 2.46582 246.754 2.68457 245.277L13 245.277L13 246.938L3.81934 246.938ZM13 239.022C12.8587 239.095 12.6286 239.159 12.3096 239.214C12.861 239.743 13.1367 240.39 13.1367 241.155C13.1367 241.898 12.9248 242.504 12.501 242.974C12.0771 243.443 11.5531 243.678 10.9287 243.678C10.1403 243.678 9.53646 243.386 9.11719 242.803C8.69336 242.215 8.48144 241.376 8.48144 240.287L8.48144 239.269L7.99609 239.269C7.61328 239.269 7.30794 239.376 7.08008 239.59C6.84766 239.804 6.73144 240.13 6.73144 240.567C6.73144 240.946 6.82715 241.256 7.01855 241.497C7.2054 241.739 7.44466 241.859 7.73633 241.859L7.73633 243.521C7.33073 243.521 6.95247 243.386 6.60156 243.117C6.24609 242.848 5.9681 242.484 5.76758 242.023C5.56706 241.559 5.4668 241.041 5.4668 240.472C5.4668 239.606 5.68555 238.915 6.12305 238.4C6.55599 237.885 7.16667 237.621 7.95508 237.607L11.291 237.607C11.9564 237.607 12.4873 237.514 12.8838 237.327L13 237.327L13 239.022ZM11.8037 240.848C11.8037 240.52 11.724 240.212 11.5645 239.925C11.4049 239.633 11.1908 239.414 10.9219 239.269L9.52734 239.269L9.52734 240.164C9.52734 240.779 9.63444 241.242 9.84863 241.552C10.0628 241.862 10.3659 242.017 10.7578 242.017C11.0768 242.017 11.332 241.912 11.5234 241.702C11.7103 241.488 11.8037 241.203 11.8037 240.848ZM3.80566 233.786L5.60351 233.786L5.60351 232.48L6.83398 232.48L6.83398 233.786L10.9629 233.786C11.2454 233.786 11.4505 233.731 11.5781 233.622C11.7012 233.508 11.7627 233.308 11.7627 233.021C11.7627 232.829 11.7399 232.635 11.6943 232.439L12.9795 232.439C13.0843 232.818 13.1367 233.182 13.1367 233.533C13.1367 234.809 12.4326 235.447 11.0244 235.447L6.83398 235.447L6.83398 236.664L5.60351 236.664L5.60351 235.447L3.80566 235.447L3.80566 233.786ZM13 229.438L13 231.1L5.60351 231.1L5.60351 229.438L13 229.438ZM3.68262 231.202C3.42741 231.202 3.21549 231.122 3.04687 230.963C2.87825 230.799 2.79394 230.566 2.79394 230.266C2.79394 229.965 2.87825 229.732 3.04687 229.568C3.21549 229.404 3.42741 229.322 3.68262 229.322C3.93327 229.322 4.1429 229.404 4.31152 229.568C4.47558 229.732 4.55762 229.965 4.55762 230.266C4.55762 230.566 4.47558 230.799 4.31152 230.963C4.1429 231.122 3.93327 231.202 3.68262 231.202ZM9.2334 227.935C8.50879 227.935 7.85709 227.791 7.27832 227.504C6.69499 227.217 6.24837 226.813 5.93847 226.294C5.62402 225.774 5.4668 225.177 5.46679 224.503C5.46679 223.505 5.78808 222.696 6.43066 222.076C7.07324 221.452 7.92545 221.115 8.9873 221.064L9.37695 221.058C10.1061 221.058 10.7578 221.199 11.332 221.481C11.9062 221.759 12.3506 222.16 12.665 222.685C12.9795 223.204 13.1367 223.806 13.1367 224.489C13.1367 225.533 12.7904 226.369 12.0977 226.998C11.4004 227.622 10.473 227.935 9.31543 227.935L9.2334 227.935ZM9.37695 226.273C10.138 226.273 10.735 226.116 11.168 225.802C11.5964 225.487 11.8105 225.05 11.8105 224.489C11.8105 223.929 11.5918 223.493 11.1543 223.184C10.7168 222.869 10.0765 222.712 9.2334 222.712C8.486 222.712 7.89355 222.874 7.45605 223.197C7.01855 223.516 6.7998 223.951 6.7998 224.503C6.7998 225.045 7.01627 225.476 7.44922 225.795C7.8776 226.114 8.52018 226.273 9.37695 226.273ZM5.60351 218.111L6.45801 218.063C5.7972 217.517 5.46679 216.799 5.46679 215.91C5.46679 214.37 6.34863 213.586 8.1123 213.559L13 213.559L13 215.22L8.20801 215.22C7.7386 215.22 7.39225 215.322 7.16894 215.527C6.94108 215.728 6.82715 216.058 6.82715 216.519C6.82715 217.188 7.13021 217.687 7.73633 218.016L13 218.016L13 219.677L5.60351 219.677L5.60351 218.111ZM7.12109 204.501C7.08463 204.72 7.0664 204.945 7.0664 205.178C7.0664 205.939 7.35807 206.451 7.9414 206.716L13 206.716L13 208.377L5.60351 208.377L5.60351 206.791L6.43066 206.75C5.78808 206.349 5.46679 205.793 5.46679 205.082C5.46679 204.845 5.4987 204.649 5.5625 204.494L7.12109 204.501ZM13 199.237C12.8587 199.31 12.6286 199.374 12.3096 199.429C12.861 199.957 13.1367 200.604 13.1367 201.37C13.1367 202.113 12.9248 202.719 12.501 203.188C12.0771 203.658 11.5531 203.893 10.9287 203.893C10.1403 203.893 9.53646 203.601 9.11718 203.018C8.69336 202.43 8.48144 201.591 8.48144 200.502L8.48144 199.483L7.99609 199.483C7.61328 199.483 7.30794 199.59 7.08008 199.805C6.84765 200.019 6.73144 200.345 6.73144 200.782C6.73144 201.16 6.82715 201.47 7.01855 201.712C7.2054 201.953 7.44466 202.074 7.73633 202.074L7.73633 203.735C7.33073 203.735 6.95247 203.601 6.60156 203.332C6.24609 203.063 5.9681 202.699 5.76758 202.238C5.56705 201.773 5.46679 201.256 5.46679 200.687C5.46679 199.821 5.68554 199.13 6.12304 198.615C6.55599 198.1 7.16666 197.836 7.95508 197.822L11.291 197.822C11.9564 197.822 12.4873 197.729 12.8838 197.542L13 197.542L13 199.237ZM11.8037 201.062C11.8037 200.734 11.724 200.427 11.5645 200.14C11.4049 199.848 11.1908 199.629 10.9219 199.483L9.52734 199.483L9.52734 200.379C9.52734 200.994 9.63444 201.457 9.84863 201.767C10.0628 202.076 10.3659 202.231 10.7578 202.231C11.0768 202.231 11.332 202.127 11.5234 201.917C11.7103 201.703 11.8037 201.418 11.8037 201.062ZM3.80566 194.001L5.60351 194.001L5.60351 192.695L6.83398 192.695L6.83398 194.001L10.9629 194.001C11.2454 194.001 11.4505 193.946 11.5781 193.837C11.7012 193.723 11.7627 193.522 11.7627 193.235C11.7627 193.044 11.7399 192.85 11.6943 192.654L12.9795 192.654C13.0843 193.033 13.1367 193.397 13.1367 193.748C13.1367 195.024 12.4326 195.662 11.0244 195.662L6.83398 195.662L6.83398 196.879L5.60351 196.879L5.60351 195.662L3.80566 195.662L3.80566 194.001ZM13.1367 188.163C13.1367 189.216 12.8063 190.07 12.1455 190.727C11.4801 191.378 10.596 191.704 9.49316 191.704L9.28808 191.704C8.5498 191.704 7.89127 191.563 7.3125 191.28C6.72916 190.993 6.27571 190.592 5.95215 190.077C5.62858 189.562 5.46679 188.988 5.46679 188.354C5.46679 187.347 5.78808 186.57 6.43066 186.023C7.07324 185.472 7.98242 185.196 9.1582 185.196L9.82812 185.196L9.82812 190.029C10.4388 189.979 10.9219 189.776 11.2773 189.421C11.6328 189.061 11.8105 188.61 11.8105 188.067C11.8105 187.306 11.5029 186.687 10.8877 186.208L11.7422 185.312C12.1842 185.609 12.5283 186.005 12.7744 186.502C13.0159 186.994 13.1367 187.548 13.1367 188.163ZM6.7998 188.361C6.7998 188.817 6.95931 189.186 7.27832 189.469C7.59733 189.747 8.04166 189.924 8.61132 190.002L8.61132 186.837L8.48828 186.837C7.93229 186.873 7.51302 187.021 7.23047 187.281C6.94336 187.541 6.7998 187.901 6.7998 188.361Z" fill="white"/>
<path d="M292.933 428.806V430.604H294.238V431.834H292.933V435.963C292.933 436.245 292.987 436.451 293.097 436.578C293.211 436.701 293.411 436.763 293.698 436.763C293.89 436.763 294.083 436.74 294.279 436.694V437.979C293.901 438.084 293.536 438.137 293.186 438.137C291.91 438.137 291.271 437.433 291.271 436.024V431.834H290.055V430.604H291.271V428.806H292.933ZM299.386 432.121C299.167 432.085 298.941 432.066 298.709 432.066C297.948 432.066 297.435 432.358 297.171 432.941V438H295.51V430.604H297.096L297.137 431.431C297.538 430.788 298.094 430.467 298.805 430.467C299.042 430.467 299.238 430.499 299.393 430.562L299.386 432.121ZM304.649 438C304.576 437.859 304.513 437.629 304.458 437.31C303.929 437.861 303.282 438.137 302.517 438.137C301.774 438.137 301.168 437.925 300.698 437.501C300.229 437.077 299.994 436.553 299.994 435.929C299.994 435.14 300.286 434.536 300.869 434.117C301.457 433.693 302.296 433.481 303.385 433.481H304.403V432.996C304.403 432.613 304.296 432.308 304.082 432.08C303.868 431.848 303.542 431.731 303.104 431.731C302.726 431.731 302.416 431.827 302.175 432.019C301.933 432.205 301.812 432.445 301.812 432.736H300.151C300.151 432.331 300.286 431.952 300.555 431.602C300.824 431.246 301.188 430.968 301.648 430.768C302.113 430.567 302.631 430.467 303.2 430.467C304.066 430.467 304.757 430.686 305.271 431.123C305.786 431.556 306.051 432.167 306.064 432.955V436.291C306.064 436.956 306.158 437.487 306.345 437.884V438H304.649ZM302.824 436.804C303.152 436.804 303.46 436.724 303.747 436.564C304.039 436.405 304.257 436.191 304.403 435.922V434.527H303.508C302.893 434.527 302.43 434.634 302.12 434.849C301.81 435.063 301.655 435.366 301.655 435.758C301.655 436.077 301.76 436.332 301.97 436.523C302.184 436.71 302.469 436.804 302.824 436.804ZM310.303 435.895L311.868 430.604H313.584L311.021 438H309.578L306.994 430.604H308.717L310.303 435.895ZM317.788 438.137C316.735 438.137 315.881 437.806 315.225 437.146C314.573 436.48 314.247 435.596 314.247 434.493V434.288C314.247 433.55 314.388 432.891 314.671 432.312C314.958 431.729 315.359 431.276 315.874 430.952C316.389 430.629 316.963 430.467 317.597 430.467C318.604 430.467 319.381 430.788 319.928 431.431C320.479 432.073 320.755 432.982 320.755 434.158V434.828H315.922C315.972 435.439 316.175 435.922 316.53 436.277C316.89 436.633 317.341 436.811 317.884 436.811C318.645 436.811 319.265 436.503 319.743 435.888L320.639 436.742C320.342 437.184 319.946 437.528 319.449 437.774C318.957 438.016 318.403 438.137 317.788 438.137ZM317.59 431.8C317.134 431.8 316.765 431.959 316.482 432.278C316.204 432.597 316.027 433.042 315.949 433.611H319.114V433.488C319.078 432.932 318.93 432.513 318.67 432.23C318.41 431.943 318.05 431.8 317.59 431.8ZM323.817 438H322.156V427.5H323.817V438ZM327.399 438H325.738V427.5H327.399V438ZM330.981 438H329.32V430.604H330.981V438ZM329.218 428.683C329.218 428.427 329.298 428.215 329.457 428.047C329.621 427.878 329.854 427.794 330.154 427.794C330.455 427.794 330.688 427.878 330.852 428.047C331.016 428.215 331.098 428.427 331.098 428.683C331.098 428.933 331.016 429.143 330.852 429.312C330.688 429.476 330.455 429.558 330.154 429.558C329.854 429.558 329.621 429.476 329.457 429.312C329.298 429.143 329.218 428.933 329.218 428.683ZM334.338 430.604L334.386 431.458C334.933 430.797 335.65 430.467 336.539 430.467C338.079 430.467 338.863 431.349 338.891 433.112V438H337.229V433.208C337.229 432.739 337.127 432.392 336.922 432.169C336.721 431.941 336.391 431.827 335.931 431.827C335.261 431.827 334.762 432.13 334.434 432.736V438H332.772V430.604H334.338ZM340.299 434.247C340.299 433.099 340.568 432.183 341.105 431.499C341.648 430.811 342.366 430.467 343.259 430.467C344.102 430.467 344.765 430.761 345.248 431.349L345.323 430.604H346.82V437.774C346.82 438.745 346.517 439.511 345.911 440.071C345.31 440.632 344.496 440.912 343.471 440.912C342.928 440.912 342.397 440.798 341.878 440.57C341.363 440.347 340.971 440.053 340.702 439.688L341.488 438.69C341.999 439.297 342.628 439.6 343.375 439.6C343.926 439.6 344.362 439.449 344.681 439.148C345 438.852 345.159 438.415 345.159 437.836V437.337C344.681 437.87 344.043 438.137 343.245 438.137C342.379 438.137 341.671 437.793 341.119 437.104C340.572 436.416 340.299 435.464 340.299 434.247ZM341.953 434.391C341.953 435.133 342.104 435.719 342.404 436.147C342.71 436.571 343.131 436.783 343.669 436.783C344.339 436.783 344.836 436.496 345.159 435.922V432.668C344.845 432.107 344.353 431.827 343.683 431.827C343.136 431.827 342.71 432.044 342.404 432.477C342.104 432.91 341.953 433.548 341.953 434.391ZM356.438 438C356.366 437.859 356.302 437.629 356.247 437.31C355.718 437.861 355.071 438.137 354.306 438.137C353.563 438.137 352.957 437.925 352.487 437.501C352.018 437.077 351.783 436.553 351.783 435.929C351.783 435.14 352.075 434.536 352.658 434.117C353.246 433.693 354.085 433.481 355.174 433.481H356.192V432.996C356.192 432.613 356.085 432.308 355.871 432.08C355.657 431.848 355.331 431.731 354.894 431.731C354.515 431.731 354.205 431.827 353.964 432.019C353.722 432.205 353.602 432.445 353.602 432.736H351.94C351.94 432.331 352.075 431.952 352.344 431.602C352.613 431.246 352.977 430.968 353.438 430.768C353.902 430.567 354.42 430.467 354.989 430.467C355.855 430.467 356.546 430.686 357.061 431.123C357.576 431.556 357.84 432.167 357.854 432.955V436.291C357.854 436.956 357.947 437.487 358.134 437.884V438H356.438ZM354.613 436.804C354.941 436.804 355.249 436.724 355.536 436.564C355.828 436.405 356.047 436.191 356.192 435.922V434.527H355.297C354.682 434.527 354.219 434.634 353.909 434.849C353.599 435.063 353.444 435.366 353.444 435.758C353.444 436.077 353.549 436.332 353.759 436.523C353.973 436.71 354.258 436.804 354.613 436.804ZM361.155 430.604L361.203 431.376C361.723 430.77 362.434 430.467 363.336 430.467C364.325 430.467 365.002 430.845 365.366 431.602C365.904 430.845 366.66 430.467 367.636 430.467C368.451 430.467 369.058 430.692 369.454 431.144C369.855 431.595 370.06 432.26 370.069 433.14V438H368.408V433.188C368.408 432.718 368.306 432.374 368.101 432.155C367.896 431.937 367.556 431.827 367.082 431.827C366.704 431.827 366.394 431.93 366.152 432.135C365.915 432.335 365.749 432.6 365.653 432.928L365.66 438H363.999V433.133C363.976 432.262 363.532 431.827 362.666 431.827C362.001 431.827 361.529 432.098 361.251 432.641V438H359.59V430.604H361.155ZM371.464 434.233C371.464 433.509 371.607 432.857 371.895 432.278C372.182 431.695 372.585 431.248 373.104 430.938C373.624 430.624 374.221 430.467 374.896 430.467C375.894 430.467 376.702 430.788 377.322 431.431C377.947 432.073 378.284 432.925 378.334 433.987L378.341 434.377C378.341 435.106 378.2 435.758 377.917 436.332C377.639 436.906 377.238 437.351 376.714 437.665C376.194 437.979 375.593 438.137 374.909 438.137C373.866 438.137 373.029 437.79 372.4 437.098C371.776 436.4 371.464 435.473 371.464 434.315V434.233ZM373.125 434.377C373.125 435.138 373.282 435.735 373.597 436.168C373.911 436.596 374.349 436.811 374.909 436.811C375.47 436.811 375.905 436.592 376.215 436.154C376.529 435.717 376.687 435.076 376.687 434.233C376.687 433.486 376.525 432.894 376.201 432.456C375.882 432.019 375.447 431.8 374.896 431.8C374.353 431.8 373.923 432.016 373.604 432.449C373.285 432.878 373.125 433.52 373.125 434.377ZM384.227 437.275C383.739 437.85 383.046 438.137 382.148 438.137C381.346 438.137 380.738 437.902 380.323 437.433C379.913 436.963 379.708 436.284 379.708 435.396V430.604H381.369V435.375C381.369 436.314 381.759 436.783 382.538 436.783C383.345 436.783 383.889 436.494 384.172 435.915V430.604H385.833V438H384.268L384.227 437.275ZM389.066 430.604L389.114 431.458C389.661 430.797 390.379 430.467 391.268 430.467C392.808 430.467 393.592 431.349 393.619 433.112V438H391.958V433.208C391.958 432.739 391.855 432.392 391.65 432.169C391.45 431.941 391.119 431.827 390.659 431.827C389.989 431.827 389.49 432.13 389.162 432.736V438H387.501V430.604H389.066ZM397.399 428.806V430.604H398.705V431.834H397.399V435.963C397.399 436.245 397.454 436.451 397.563 436.578C397.677 436.701 397.878 436.763 398.165 436.763C398.356 436.763 398.55 436.74 398.746 436.694V437.979C398.368 438.084 398.003 438.137 397.652 438.137C396.376 438.137 395.738 437.433 395.738 436.024V431.834H394.521V430.604H395.738V428.806H397.399Z" fill="white"/>
</g>
<defs>
<clipPath id="clip0">
<rect width="610" height="442" fill="white"/>
</clipPath>
</defs>
</svg>
